G04 #@! TF.FileFunction,Soldermask,Bot*
%FSLAX46Y46*%
G04 Gerber Fmt 4.6, Leading zero omitted, Abs format (unit mm)*
G04 Created by KiCad (PCBNEW 4.0.0-rc1-stable) date 25.10.2015 0:42:20*
%MOMM*%
G01*
G04 APERTURE LIST*
%ADD10C,0.100000*%
%ADD11R,1.089000X1.216000*%
%ADD12R,1.216000X1.089000*%
%ADD13R,1.114400X1.114400*%
%ADD14O,1.701140X0.708000*%
%ADD15R,1.701140X0.708000*%
%ADD16R,1.280000X1.200000*%
%ADD17R,1.200000X1.100000*%
%ADD18R,0.901040X0.598780*%
%ADD19C,1.700000*%
%ADD20R,1.700000X1.700000*%
%ADD21R,1.100000X1.200000*%
%ADD22R,4.200000X2.200000*%
G04 APERTURE END LIST*
D10*
D11*
X166618100Y-88600000D03*
X165094100Y-88600000D03*
D12*
X163200000Y-93438000D03*
X163200000Y-94962000D03*
X173905400Y-93525300D03*
X173905400Y-95049300D03*
D13*
X175958400Y-94767900D03*
X177736400Y-94767900D03*
X176847400Y-92735900D03*
X175871000Y-90957200D03*
X177649000Y-90957200D03*
X176760000Y-88925200D03*
D14*
X171394000Y-94905000D03*
D15*
X165806000Y-94905000D03*
D14*
X171394000Y-93635000D03*
X171394000Y-92365000D03*
X171394000Y-91095000D03*
X165806000Y-93635000D03*
X165806000Y-92365000D03*
X165806000Y-91095000D03*
X169194000Y-86905000D03*
D15*
X163606000Y-86905000D03*
D14*
X169194000Y-85635000D03*
X169194000Y-84365000D03*
X169194000Y-83095000D03*
X163606000Y-85635000D03*
X163606000Y-84365000D03*
X163606000Y-83095000D03*
D16*
X172452200Y-84339700D03*
X171132200Y-84339700D03*
X172495800Y-87569000D03*
X171175800Y-87569000D03*
D17*
X174200000Y-87250000D03*
X174200000Y-88750000D03*
D18*
X170780240Y-86342180D03*
X172578560Y-86342180D03*
X172578560Y-85544620D03*
X170780240Y-85544620D03*
D19*
X161000000Y-83840000D03*
D20*
X161000000Y-94000000D03*
D19*
X161000000Y-91460000D03*
X161000000Y-88920000D03*
X161000000Y-86380000D03*
X177210700Y-82027200D03*
D21*
X171042100Y-82717900D03*
X172542100Y-82717900D03*
X172585800Y-89169000D03*
X171085800Y-89169000D03*
D20*
X174400000Y-82800000D03*
D19*
X174400000Y-85340000D03*
D22*
X180700000Y-84345000D03*
X180700000Y-87115000D03*
X180700000Y-89885000D03*
X180700000Y-92655000D03*
M02*
