G04 #@! TF.FileFunction,Copper,L1,Top,Signal*
%FSLAX46Y46*%
G04 Gerber Fmt 4.6, Leading zero omitted, Abs format (unit mm)*
G04 Created by KiCad (PCBNEW 4.0.0-rc1-stable) date 25.10.2015 0:42:20*
%MOMM*%
G01*
G04 APERTURE LIST*
%ADD10C,0.100000*%
%ADD11R,0.889000X1.016000*%
%ADD12R,1.143000X1.397000*%
%ADD13R,1.016000X0.889000*%
%ADD14O,1.600000X0.500000*%
%ADD15R,1.600000X0.500000*%
%ADD16O,1.500000X0.400000*%
%ADD17R,1.080000X1.000000*%
%ADD18R,1.000000X1.080000*%
%ADD19R,0.600000X0.600000*%
%ADD20R,0.900000X1.000000*%
%ADD21R,1.000000X0.900000*%
%ADD22R,2.500000X1.500000*%
%ADD23R,1.500000X2.500000*%
%ADD24R,1.250000X0.400000*%
%ADD25C,1.500000*%
%ADD26R,1.500000X1.500000*%
%ADD27R,0.635000X1.099820*%
%ADD28O,0.635000X1.099820*%
%ADD29R,4.000000X2.000000*%
%ADD30C,0.700000*%
%ADD31C,0.500000*%
%ADD32C,0.220000*%
%ADD33C,0.200000*%
%ADD34C,0.254000*%
G04 APERTURE END LIST*
D10*
D11*
X147438000Y-95600000D03*
X148962000Y-95600000D03*
X148762000Y-85200000D03*
X147238000Y-85200000D03*
X147238000Y-91200000D03*
X148762000Y-91200000D03*
X154038000Y-85000000D03*
X155562000Y-85000000D03*
D12*
X146584000Y-81800000D03*
X148616000Y-81800000D03*
D13*
X172208000Y-90178500D03*
X172208000Y-91702500D03*
X172208000Y-86703900D03*
X172208000Y-88227900D03*
D11*
X163638000Y-94000000D03*
X165162000Y-94000000D03*
X168162000Y-94000000D03*
X166638000Y-94000000D03*
D13*
X172200000Y-84762000D03*
X172200000Y-83238000D03*
X153600000Y-81438000D03*
X153600000Y-82962000D03*
X150400000Y-81438000D03*
X150400000Y-82962000D03*
X156800000Y-81438000D03*
X156800000Y-82962000D03*
D14*
X164100000Y-91810000D03*
X164100000Y-90540000D03*
X169900000Y-82920000D03*
D15*
X169900000Y-91800000D03*
D14*
X169900000Y-84190000D03*
X169900000Y-85460000D03*
X169900000Y-86730000D03*
X169900000Y-90540000D03*
X169900000Y-89270000D03*
X169900000Y-88000000D03*
X164100000Y-82920000D03*
X164100000Y-84190000D03*
X164100000Y-85460000D03*
X164100000Y-86730000D03*
X164100000Y-88000000D03*
X164100000Y-89270000D03*
D16*
X158350000Y-95400000D03*
X158350000Y-94750000D03*
X158350000Y-94100000D03*
X158350000Y-93450000D03*
X158350000Y-92800000D03*
X158350000Y-92150000D03*
X158350000Y-91500000D03*
X158350000Y-90850000D03*
X158350000Y-90200000D03*
X158350000Y-89550000D03*
X158350000Y-88900000D03*
X158350000Y-88250000D03*
X158350000Y-87600000D03*
X158350000Y-86950000D03*
X151250000Y-86950000D03*
X151250000Y-87600000D03*
X151250000Y-88250000D03*
X151250000Y-88900000D03*
X151250000Y-89550000D03*
X151250000Y-90200000D03*
X151250000Y-90850000D03*
X151250000Y-91500000D03*
X151250000Y-92150000D03*
X151250000Y-92800000D03*
X151250000Y-93450000D03*
X151250000Y-94100000D03*
X151250000Y-94750000D03*
X151250000Y-95400000D03*
D17*
X167668000Y-84665900D03*
X166348000Y-84665900D03*
X167668000Y-83065900D03*
X166348000Y-83065900D03*
D18*
X167600000Y-88001000D03*
X167600000Y-86681000D03*
X166000000Y-88001000D03*
X166000000Y-86681000D03*
D17*
X167400900Y-91788500D03*
X166080900Y-91788500D03*
X174041100Y-94782300D03*
X172721100Y-94782300D03*
D19*
X148100000Y-83600000D03*
X147100000Y-83600000D03*
X148100000Y-93600000D03*
X147100000Y-93600000D03*
D20*
X145950000Y-95600000D03*
X144450000Y-95600000D03*
D21*
X155200000Y-82950000D03*
X155200000Y-81450000D03*
X152000000Y-82950000D03*
X152000000Y-81450000D03*
X158400000Y-82950000D03*
X158400000Y-81450000D03*
D22*
X138950000Y-83350000D03*
X138950000Y-93650000D03*
X143150000Y-83350000D03*
X143150000Y-93650000D03*
D23*
X145350000Y-86300000D03*
X145350000Y-90700000D03*
D24*
X143475000Y-87200000D03*
X143475000Y-87850000D03*
X143475000Y-88500000D03*
X143475000Y-89150000D03*
X143475000Y-89800000D03*
D25*
X161000000Y-83840000D03*
D26*
X161000000Y-94000000D03*
D25*
X161000000Y-91460000D03*
X161000000Y-88920000D03*
X161000000Y-86380000D03*
X177210700Y-82027200D03*
D26*
X174400000Y-82800000D03*
D25*
X174400000Y-85340000D03*
D27*
X149149960Y-86899520D03*
D28*
X148200000Y-86899520D03*
X147250040Y-86899520D03*
X147250040Y-89500480D03*
X148200000Y-89500480D03*
X149149960Y-89500480D03*
D29*
X180700000Y-82960000D03*
X180700000Y-85730000D03*
X180700000Y-88500000D03*
X180700000Y-91270000D03*
X180700000Y-94040000D03*
D30*
X152710400Y-90062700D03*
X149956300Y-94003200D03*
X149742100Y-85582900D03*
X145895400Y-83035900D03*
X143470700Y-94950500D03*
X156633300Y-91450600D03*
X147474600Y-92256400D03*
X155975500Y-86073700D03*
X152543000Y-92905700D03*
X159270300Y-83807200D03*
X155021100Y-92618700D03*
X153800000Y-95000000D03*
X153324400Y-92163400D03*
X155700000Y-89700000D03*
X154392800Y-88018800D03*
X151754100Y-85779000D03*
X176847700Y-95566200D03*
X165392800Y-90243000D03*
X165224800Y-82185900D03*
X168845300Y-82290700D03*
X150023800Y-89875600D03*
X157609500Y-83867100D03*
X154759400Y-83958300D03*
X151622900Y-83945000D03*
X149036400Y-83039500D03*
X154357400Y-86043600D03*
X156727200Y-95248600D03*
X175730400Y-89525500D03*
X167890400Y-92836200D03*
X177092700Y-93759300D03*
X175250400Y-87517600D03*
X176760000Y-91755700D03*
X178149500Y-89951200D03*
X168559600Y-90722100D03*
X174058700Y-92530800D03*
X174412200Y-89750500D03*
X162786900Y-87708700D03*
X156452700Y-93671200D03*
X162615400Y-85000000D03*
X168544600Y-89361700D03*
X171792100Y-81756300D03*
X175782700Y-86780800D03*
X162313700Y-83433600D03*
X156627400Y-92782200D03*
X173266500Y-91727900D03*
X157123800Y-87275600D03*
X144049300Y-82050000D03*
X144950000Y-93355200D03*
X144049700Y-86451800D03*
X144040100Y-90548400D03*
X152738700Y-86102900D03*
X152476500Y-91175000D03*
X150398600Y-84365000D03*
X149972200Y-91681300D03*
D31*
X171443900Y-81035500D02*
X168845300Y-82290700D01*
X171575300Y-80972100D02*
X171443900Y-81035500D01*
X171865100Y-80946000D02*
X171575300Y-80972100D01*
X172145600Y-81023500D02*
X171865100Y-80946000D01*
X172380800Y-81194700D02*
X172145600Y-81023500D01*
X172541300Y-81439000D02*
X172380800Y-81194700D01*
X172605000Y-81722900D02*
X172541300Y-81439000D01*
X172584900Y-81867000D02*
X172605000Y-81722900D01*
X172460400Y-82758900D02*
X172584900Y-81867000D01*
X172458000Y-82785000D02*
X172458000Y-82793500D01*
X172459200Y-82767500D02*
X172458000Y-82785000D01*
X172460400Y-82758900D02*
X172459200Y-82767500D01*
X172458000Y-83043500D02*
X172458000Y-82793500D01*
X172200000Y-83238000D02*
X172458000Y-83043500D01*
X163832500Y-94258000D02*
X163638000Y-94000000D01*
X163832500Y-94508000D02*
X163832500Y-94258000D01*
X163927000Y-94719700D02*
X164003600Y-94745200D01*
X163832500Y-94588700D02*
X163927000Y-94719700D01*
X163832500Y-94508000D02*
X163832500Y-94588700D01*
X164575300Y-94935500D02*
X164003600Y-94745200D01*
X164646900Y-94953600D02*
X164671000Y-94956100D01*
X164598500Y-94943200D02*
X164646900Y-94953600D01*
X164575300Y-94935500D02*
X164598500Y-94943200D01*
X172134600Y-95730400D02*
X164671000Y-94956100D01*
X172169100Y-95732800D02*
X172181100Y-95732800D01*
X172146300Y-95731600D02*
X172169100Y-95732800D01*
X172134600Y-95730400D02*
X172146300Y-95731600D01*
X172431100Y-95732800D02*
X172181100Y-95732800D01*
X172432600Y-95732800D02*
X172431100Y-95732800D01*
X172584200Y-95732300D02*
X172432600Y-95732800D01*
X172584200Y-95032300D02*
X172721100Y-94782300D01*
X172584200Y-95282300D02*
X172584200Y-95032300D01*
X172584200Y-95732300D02*
X172584200Y-95282300D01*
X168340500Y-82135300D02*
X168845300Y-82290700D01*
X168241900Y-82115400D02*
X168208000Y-82115400D01*
X168308100Y-82125400D02*
X168241900Y-82115400D01*
X168340500Y-82135300D02*
X168308100Y-82125400D01*
X165808000Y-82115400D02*
X168208000Y-82115400D01*
X165765600Y-82117200D02*
X165751200Y-82119000D01*
X165793800Y-82115400D02*
X165765600Y-82117200D01*
X165808000Y-82115400D02*
X165793800Y-82115400D01*
X165224800Y-82185900D02*
X165751200Y-82119000D01*
X164650000Y-90540000D02*
X165392800Y-90243000D01*
X164100000Y-90540000D02*
X164650000Y-90540000D01*
X163443500Y-94000000D02*
X163638000Y-94000000D01*
X163193500Y-94000000D02*
X163443500Y-94000000D01*
X161750000Y-94000000D02*
X163193500Y-94000000D01*
X161500000Y-94000000D02*
X161750000Y-94000000D01*
X161000000Y-94000000D02*
X161500000Y-94000000D01*
X173010600Y-95732800D02*
X172584200Y-95732300D01*
X173011100Y-95732800D02*
X173010600Y-95732800D01*
X174581100Y-95732800D02*
X173011100Y-95732800D01*
X174606300Y-95732200D02*
X174614400Y-95731600D01*
X174589700Y-95732800D02*
X174606300Y-95732200D01*
X174581100Y-95732800D02*
X174589700Y-95732800D01*
X176847700Y-95566200D02*
X174614400Y-95731600D01*
X144250000Y-95350000D02*
X144450000Y-95600000D01*
X144000000Y-95350000D02*
X144250000Y-95350000D01*
X143952700Y-95350000D02*
X144000000Y-95350000D01*
X143864800Y-95315500D02*
X143952700Y-95350000D01*
X143830100Y-95283400D02*
X143864800Y-95315500D01*
X143470700Y-94950500D02*
X143830100Y-95283400D01*
D32*
X151800000Y-93450000D02*
X152543000Y-92905700D01*
X151250000Y-93450000D02*
X151800000Y-93450000D01*
D31*
X155776500Y-85605900D02*
X155975500Y-86073700D01*
X155766600Y-85582700D02*
X155776500Y-85605900D01*
X155756500Y-85533400D02*
X155766600Y-85582700D01*
X155756500Y-85508000D02*
X155756500Y-85533400D01*
X155756500Y-85258000D02*
X155756500Y-85508000D01*
X155562000Y-85000000D02*
X155756500Y-85258000D01*
X148956500Y-85458000D02*
X148762000Y-85200000D01*
X149206500Y-85458000D02*
X148956500Y-85458000D01*
X149221700Y-85458000D02*
X149206500Y-85458000D01*
X149251700Y-85461600D02*
X149221700Y-85458000D01*
X149266500Y-85465300D02*
X149251700Y-85461600D01*
X149742100Y-85582900D02*
X149266500Y-85465300D01*
X147433300Y-91727500D02*
X147474600Y-92256400D01*
X147432900Y-91722800D02*
X147433300Y-91727500D01*
X147432500Y-91712800D02*
X147432900Y-91722800D01*
X147432500Y-91708000D02*
X147432500Y-91712800D01*
X147432500Y-91458000D02*
X147432500Y-91708000D01*
X147238000Y-91200000D02*
X147432500Y-91458000D01*
D32*
X150483600Y-93532500D02*
X149956300Y-94003200D01*
X150528300Y-93492600D02*
X150483600Y-93532500D01*
X150640300Y-93450000D02*
X150528300Y-93492600D01*
X150700000Y-93450000D02*
X150640300Y-93450000D01*
X151250000Y-93450000D02*
X150700000Y-93450000D01*
X150700000Y-94100000D02*
X151250000Y-94100000D01*
X150689000Y-94100000D02*
X150700000Y-94100000D01*
X150667500Y-94098500D02*
X150689000Y-94100000D01*
X150656800Y-94097100D02*
X150667500Y-94098500D01*
X149956300Y-94003200D02*
X150656800Y-94097100D01*
X157800000Y-91500000D02*
X156633300Y-91450600D01*
X158350000Y-91500000D02*
X157800000Y-91500000D01*
X152143200Y-90577900D02*
X152710400Y-90062700D01*
X152116000Y-90600900D02*
X152143200Y-90577900D01*
X151800000Y-90850000D02*
X152116000Y-90600900D01*
X151250000Y-90850000D02*
X151800000Y-90850000D01*
D31*
X148015300Y-93173000D02*
X147474600Y-92256400D01*
X148032400Y-93201800D02*
X148015300Y-93173000D01*
X148050000Y-93266600D02*
X148032400Y-93201800D01*
X148050000Y-93300000D02*
X148050000Y-93266600D01*
X148050000Y-93550000D02*
X148050000Y-93300000D01*
X148100000Y-93600000D02*
X148050000Y-93550000D01*
X148150000Y-93650000D02*
X148100000Y-93600000D01*
X148400000Y-93650000D02*
X148150000Y-93650000D01*
X148414000Y-93650000D02*
X148400000Y-93650000D01*
X148442300Y-93653200D02*
X148414000Y-93650000D01*
X148456300Y-93656400D02*
X148442300Y-93653200D01*
X149956300Y-94003200D02*
X148456300Y-93656400D01*
X149156500Y-95342000D02*
X148962000Y-95600000D01*
X149156500Y-95092000D02*
X149156500Y-95342000D01*
X149156500Y-95049600D02*
X149156500Y-95092000D01*
X149184600Y-94969400D02*
X149156500Y-95049600D01*
X149211200Y-94936000D02*
X149184600Y-94969400D01*
X149956300Y-94003200D02*
X149211200Y-94936000D01*
D32*
X151800000Y-88900000D02*
X151250000Y-88900000D01*
X152116000Y-89149100D02*
X151800000Y-88900000D01*
X152151700Y-89177200D02*
X152116000Y-89149100D01*
X152212200Y-89245400D02*
X152151700Y-89177200D01*
X152235900Y-89284300D02*
X152212200Y-89245400D01*
X152710400Y-90062700D02*
X152235900Y-89284300D01*
D31*
X146262500Y-82248500D02*
X146584000Y-81800000D01*
X146262500Y-82498500D02*
X146262500Y-82248500D01*
X146262500Y-82541800D02*
X146262500Y-82498500D01*
X146233300Y-82623500D02*
X146262500Y-82541800D01*
X146205900Y-82656900D02*
X146233300Y-82623500D01*
X145895400Y-83035900D02*
X146205900Y-82656900D01*
X148567500Y-85458000D02*
X148762000Y-85200000D01*
X148567500Y-85708000D02*
X148567500Y-85458000D01*
X148567500Y-85732000D02*
X148567500Y-85708000D01*
X148558300Y-85779300D02*
X148567500Y-85732000D01*
X148549300Y-85801600D02*
X148558300Y-85779300D01*
X148200000Y-86667100D02*
X148549300Y-85801600D01*
X148200000Y-86899500D02*
X148200000Y-86667100D01*
X151754100Y-85779000D02*
X149742100Y-85582900D01*
X147050000Y-83650000D02*
X147100000Y-83600000D01*
X146800000Y-83650000D02*
X147050000Y-83650000D01*
X146725700Y-83660000D02*
X146702500Y-83669800D01*
X146775000Y-83650000D02*
X146725700Y-83660000D01*
X146800000Y-83650000D02*
X146775000Y-83650000D01*
X144424200Y-84635200D02*
X146702500Y-83669800D01*
X144282500Y-84725400D02*
X144247400Y-84769600D01*
X144372500Y-84657100D02*
X144282500Y-84725400D01*
X144424200Y-84635200D02*
X144372500Y-84657100D01*
X143427500Y-85800400D02*
X144247400Y-84769600D01*
X147150000Y-83650000D02*
X147100000Y-83600000D01*
X147150000Y-83900000D02*
X147150000Y-83650000D01*
X147150000Y-84692000D02*
X147150000Y-83900000D01*
X147150000Y-84942000D02*
X147150000Y-84692000D01*
X147238000Y-85200000D02*
X147150000Y-84942000D01*
D32*
X143389200Y-87110000D02*
X143475000Y-87200000D01*
X143389200Y-87000000D02*
X143389200Y-87110000D01*
X143389200Y-86451800D02*
X143389200Y-87000000D01*
X143389200Y-86386500D02*
X143389200Y-86451800D01*
X143402200Y-86206500D02*
X143389200Y-86386500D01*
X143427500Y-85800400D02*
X143402200Y-86206500D01*
X143406600Y-86135700D02*
X143296900Y-85850700D01*
X143406600Y-86135700D02*
X143550900Y-85866500D01*
D31*
X166443500Y-94000000D02*
X166638000Y-94000000D01*
X166193500Y-94000000D02*
X166443500Y-94000000D01*
X165606500Y-94000000D02*
X166193500Y-94000000D01*
X165356500Y-94000000D02*
X165606500Y-94000000D01*
X165162000Y-94000000D02*
X165356500Y-94000000D01*
X164967500Y-93742000D02*
X165162000Y-94000000D01*
X164967500Y-93492000D02*
X164967500Y-93742000D01*
X164965300Y-93456700D02*
X164963000Y-93445000D01*
X164967500Y-93480200D02*
X164965300Y-93456700D01*
X164967500Y-93492000D02*
X164967500Y-93480200D01*
X164650000Y-91810000D02*
X164963000Y-93445000D01*
X164100000Y-91810000D02*
X164650000Y-91810000D01*
X164650000Y-91810000D02*
X164100000Y-91810000D01*
X165540900Y-91810000D02*
X164650000Y-91810000D01*
X165790900Y-91810000D02*
X165540900Y-91810000D01*
X166080900Y-91788500D02*
X165790900Y-91810000D01*
X148941900Y-82545400D02*
X149036400Y-83039500D01*
X148939700Y-82533800D02*
X148941900Y-82545400D01*
X148937500Y-82510300D02*
X148939700Y-82533800D01*
X148937500Y-82498500D02*
X148937500Y-82510300D01*
X148937500Y-82248500D02*
X148937500Y-82498500D01*
X148616000Y-81800000D02*
X148937500Y-82248500D01*
D32*
X150700000Y-90200000D02*
X150023800Y-89875600D01*
X151250000Y-90200000D02*
X150700000Y-90200000D01*
D31*
X151750000Y-83150000D02*
X152000000Y-82950000D01*
X151750000Y-83400000D02*
X151750000Y-83150000D01*
X151750000Y-83415100D02*
X151750000Y-83400000D01*
X151746400Y-83445100D02*
X151750000Y-83415100D01*
X151742700Y-83459900D02*
X151746400Y-83445100D01*
X151622900Y-83945000D02*
X151742700Y-83459900D01*
X163550000Y-91810000D02*
X164100000Y-91810000D01*
X162965700Y-90926400D02*
X163550000Y-91810000D01*
X162941800Y-90890200D02*
X162965700Y-90926400D01*
X162903200Y-90812300D02*
X162941800Y-90890200D01*
X162889000Y-90771900D02*
X162903200Y-90812300D01*
X162492200Y-89641200D02*
X162889000Y-90771900D01*
X162469400Y-89568100D02*
X162492200Y-89641200D01*
X162015200Y-87921500D02*
X162469400Y-89568100D01*
X161990900Y-87833200D02*
X162015200Y-87921500D01*
X161983300Y-87650900D02*
X161990900Y-87833200D01*
X162000100Y-87561300D02*
X161983300Y-87650900D01*
X162180000Y-86601000D02*
X162000100Y-87561300D01*
X161545100Y-85287100D02*
X161328600Y-85225400D01*
X161902000Y-85556600D02*
X161545100Y-85287100D01*
X162138700Y-85938500D02*
X161902000Y-85556600D01*
X162221300Y-86380200D02*
X162138700Y-85938500D01*
X162180000Y-86601000D02*
X162221300Y-86380200D01*
X159051200Y-84577100D02*
X161328600Y-85225400D01*
X159015500Y-84567000D02*
X159051200Y-84577100D01*
X158945100Y-84539600D02*
X159015500Y-84567000D01*
X158911400Y-84522700D02*
X158945100Y-84539600D01*
X157653400Y-83891700D02*
X158911400Y-84522700D01*
X157641900Y-83886000D02*
X157653400Y-83891700D01*
X157620100Y-83873800D02*
X157641900Y-83886000D01*
X157609500Y-83867200D02*
X157620100Y-83873800D01*
X157609500Y-83867100D02*
X157609500Y-83867200D01*
X158150000Y-83150000D02*
X158400000Y-82950000D01*
X158150000Y-83400000D02*
X158150000Y-83150000D01*
X158150000Y-83465600D02*
X158150000Y-83400000D01*
X158085300Y-83580300D02*
X158150000Y-83465600D01*
X158029100Y-83614100D02*
X158085300Y-83580300D01*
X157609500Y-83867100D02*
X158029100Y-83614100D01*
X148572300Y-83481100D02*
X149036400Y-83039500D01*
X148537500Y-83514200D02*
X148572300Y-83481100D01*
X148448100Y-83550000D02*
X148537500Y-83514200D01*
X148400000Y-83550000D02*
X148448100Y-83550000D01*
X148150000Y-83550000D02*
X148400000Y-83550000D01*
X148100000Y-83600000D02*
X148150000Y-83550000D01*
X148200000Y-89732900D02*
X148200000Y-89500500D01*
X148549300Y-90598400D02*
X148200000Y-89732900D01*
X148558300Y-90620700D02*
X148549300Y-90598400D01*
X148567500Y-90667900D02*
X148558300Y-90620700D01*
X148567500Y-90692000D02*
X148567500Y-90667900D01*
X148567500Y-90942000D02*
X148567500Y-90692000D01*
X148762000Y-91200000D02*
X148567500Y-90942000D01*
X149417300Y-90826400D02*
X150023800Y-89875600D01*
X149382800Y-90880400D02*
X149417300Y-90826400D01*
X149270700Y-90942000D02*
X149382800Y-90880400D01*
X149206500Y-90942000D02*
X149270700Y-90942000D01*
X148956500Y-90942000D02*
X149206500Y-90942000D01*
X148762000Y-91200000D02*
X148956500Y-90942000D01*
X155213900Y-83400000D02*
X154759400Y-83958300D01*
X155213900Y-83150000D02*
X155213900Y-83400000D01*
X155200000Y-82950000D02*
X155213900Y-83150000D01*
X154357400Y-86043600D02*
X153138300Y-88181000D01*
X155838300Y-94184400D02*
X156727200Y-95248600D01*
X155721900Y-94044800D02*
X155838300Y-94184400D01*
X155632200Y-93693800D02*
X155721900Y-94044800D01*
X155667200Y-93516800D02*
X155632200Y-93693800D01*
X155841900Y-92627800D02*
X155667200Y-93516800D01*
X155853300Y-92570100D02*
X155841900Y-92627800D01*
X155892600Y-92459300D02*
X155853300Y-92570100D01*
X155920100Y-92407400D02*
X155892600Y-92459300D01*
X156056300Y-92150300D02*
X155920100Y-92407400D01*
X154239800Y-85568000D02*
X154357400Y-86043600D01*
X154236200Y-85553200D02*
X154239800Y-85568000D01*
X154232500Y-85523300D02*
X154236200Y-85553200D01*
X154232500Y-85508000D02*
X154232500Y-85523300D01*
X154232500Y-85258000D02*
X154232500Y-85508000D01*
X154038000Y-85000000D02*
X154232500Y-85258000D01*
X153138300Y-88181000D02*
X156056300Y-92150300D01*
D32*
X156593400Y-92122600D02*
X156056300Y-92150300D01*
X156725300Y-92115700D02*
X156593400Y-92122600D01*
X156974900Y-92205100D02*
X156725300Y-92115700D01*
X157170700Y-92383900D02*
X156974900Y-92205100D01*
X157282300Y-92624400D02*
X157170700Y-92383900D01*
X157287400Y-92756300D02*
X157282300Y-92624400D01*
X157289900Y-92820000D02*
X157287400Y-92756300D01*
X157395800Y-93131300D02*
X157484000Y-93200900D01*
X157294300Y-92932100D02*
X157395800Y-93131300D01*
X157289900Y-92820000D02*
X157294300Y-92932100D01*
X157800000Y-93450000D02*
X157484000Y-93200900D01*
X158350000Y-93450000D02*
X157800000Y-93450000D01*
X151800000Y-88250000D02*
X151250000Y-88250000D01*
X153138300Y-88181000D02*
X151800000Y-88250000D01*
X156391900Y-92133000D02*
X156121200Y-92274400D01*
X156391900Y-92133000D02*
X156108000Y-92020200D01*
X152802700Y-88198300D02*
X153073400Y-88056900D01*
X152802700Y-88198300D02*
X153086600Y-88311100D01*
X171810000Y-89844000D02*
X172208000Y-90178500D01*
X171700000Y-89844000D02*
X171810000Y-89844000D01*
X171687800Y-89844000D02*
X171700000Y-89844000D01*
X171664300Y-89838800D02*
X171687800Y-89844000D01*
X171653300Y-89833600D02*
X171664300Y-89838800D01*
X170450000Y-89270000D02*
X171653300Y-89833600D01*
X169900000Y-89270000D02*
X170450000Y-89270000D01*
X171810000Y-91751200D02*
X172208000Y-91702500D01*
X171700000Y-91751200D02*
X171810000Y-91751200D01*
X170700000Y-91751200D02*
X171700000Y-91751200D01*
X170590000Y-91751200D02*
X170700000Y-91751200D01*
X169900000Y-91800000D02*
X170590000Y-91751200D01*
X171810000Y-86730000D02*
X172208000Y-86703900D01*
X171700000Y-86730000D02*
X171810000Y-86730000D01*
X170450000Y-86730000D02*
X171700000Y-86730000D01*
X169900000Y-86730000D02*
X170450000Y-86730000D01*
X171810000Y-88000000D02*
X172208000Y-88227900D01*
X171700000Y-88000000D02*
X171810000Y-88000000D01*
X170450000Y-88000000D02*
X171700000Y-88000000D01*
X169900000Y-88000000D02*
X170450000Y-88000000D01*
X169350000Y-90540000D02*
X169900000Y-90540000D01*
X169169800Y-90974900D02*
X169350000Y-90540000D01*
X169143600Y-91038100D02*
X169169800Y-90974900D01*
X169067400Y-91150000D02*
X169143600Y-91038100D01*
X169018300Y-91197400D02*
X169067400Y-91150000D01*
X168884400Y-91326600D02*
X169018300Y-91197400D01*
X168800600Y-91453200D02*
X168792900Y-91504000D01*
X168847400Y-91362300D02*
X168800600Y-91453200D01*
X168884400Y-91326600D02*
X168847400Y-91362300D01*
X168497700Y-93475700D02*
X168792900Y-91504000D01*
X168496500Y-93487900D02*
X168496500Y-93492000D01*
X168497100Y-93479700D02*
X168496500Y-93487900D01*
X168497700Y-93475700D02*
X168497100Y-93479700D01*
X168496500Y-93602000D02*
X168496500Y-93492000D01*
X168162000Y-94000000D02*
X168496500Y-93602000D01*
X171802000Y-85096500D02*
X172200000Y-84762000D01*
X171692000Y-85096500D02*
X171802000Y-85096500D01*
X171668300Y-85098800D02*
X171660700Y-85101000D01*
X171684100Y-85096500D02*
X171668300Y-85098800D01*
X171692000Y-85096500D02*
X171684100Y-85096500D01*
X170450000Y-85460000D02*
X171660700Y-85101000D01*
X169900000Y-85460000D02*
X170450000Y-85460000D01*
D31*
X167690900Y-92038500D02*
X167400900Y-91788500D01*
X167690900Y-92288500D02*
X167690900Y-92038500D01*
X167699900Y-92359000D02*
X167708700Y-92381200D01*
X167690900Y-92312100D02*
X167699900Y-92359000D01*
X167690900Y-92288500D02*
X167690900Y-92312100D01*
X167890400Y-92836200D02*
X167708700Y-92381200D01*
X178517800Y-86558800D02*
X175730400Y-89525500D01*
X178553200Y-86521100D02*
X178517800Y-86558800D01*
X178648200Y-86480000D02*
X178553200Y-86521100D01*
X178700000Y-86480000D02*
X178648200Y-86480000D01*
X178950000Y-86480000D02*
X178700000Y-86480000D01*
X180700000Y-85730000D02*
X178950000Y-86480000D01*
D32*
X154810000Y-81444000D02*
X155200000Y-81450000D01*
X154700000Y-81444000D02*
X154810000Y-81444000D01*
X154108000Y-81444000D02*
X154700000Y-81444000D01*
X153998000Y-81444000D02*
X154108000Y-81444000D01*
X153600000Y-81438000D02*
X153998000Y-81444000D01*
X151610000Y-81444000D02*
X152000000Y-81450000D01*
X151500000Y-81444000D02*
X151610000Y-81444000D01*
X150908000Y-81444000D02*
X151500000Y-81444000D01*
X150798000Y-81444000D02*
X150908000Y-81444000D01*
X150400000Y-81438000D02*
X150798000Y-81444000D01*
X158010000Y-81444000D02*
X158400000Y-81450000D01*
X157900000Y-81444000D02*
X158010000Y-81444000D01*
X157308000Y-81444000D02*
X157900000Y-81444000D01*
X157198000Y-81444000D02*
X157308000Y-81444000D01*
X156800000Y-81438000D02*
X157198000Y-81444000D01*
X174100600Y-90332900D02*
X176760000Y-91755700D01*
X173973600Y-90264900D02*
X174100600Y-90332900D01*
X173799200Y-90035600D02*
X173973600Y-90264900D01*
X173736200Y-89753400D02*
X173799200Y-90035600D01*
X173796300Y-89471700D02*
X173736200Y-89753400D01*
X173882300Y-89356200D02*
X173796300Y-89471700D01*
X175250400Y-87517600D02*
X173882300Y-89356200D01*
X178810000Y-93759300D02*
X180700000Y-94040000D01*
X178700000Y-93759300D02*
X178810000Y-93759300D01*
X177092700Y-93759300D02*
X178700000Y-93759300D01*
X165624200Y-89624300D02*
X168559600Y-90722100D01*
X165162800Y-89604000D02*
X165030500Y-89690700D01*
X165476800Y-89569100D02*
X165162800Y-89604000D01*
X165624200Y-89624300D02*
X165476800Y-89569100D01*
X164957400Y-89738700D02*
X165030500Y-89690700D01*
X164888500Y-89783800D02*
X164957400Y-89738700D01*
X164731800Y-89830500D02*
X164888500Y-89783800D01*
X164650000Y-89830500D02*
X164731800Y-89830500D01*
X163550000Y-89830500D02*
X164650000Y-89830500D01*
X163405100Y-89830600D02*
X163550000Y-89830500D01*
X163150700Y-89689400D02*
X163405100Y-89830600D01*
X162997500Y-89443300D02*
X163150700Y-89689400D01*
X162983000Y-89152700D02*
X162997500Y-89443300D01*
X163047000Y-89022600D02*
X162983000Y-89152700D01*
X163550000Y-88000000D02*
X163047000Y-89022600D01*
X164100000Y-88000000D02*
X163550000Y-88000000D01*
X165610000Y-88000000D02*
X166000000Y-88001000D01*
X165500000Y-88000000D02*
X165610000Y-88000000D01*
X164650000Y-88000000D02*
X165500000Y-88000000D01*
X164100000Y-88000000D02*
X164650000Y-88000000D01*
X178810000Y-90380000D02*
X180700000Y-91270000D01*
X178700000Y-90380000D02*
X178810000Y-90380000D01*
X178680500Y-90380000D02*
X178700000Y-90380000D01*
X178644000Y-90366700D02*
X178680500Y-90380000D01*
X178629200Y-90354200D02*
X178644000Y-90366700D01*
X178149500Y-89951200D02*
X178629200Y-90354200D01*
D31*
X176576500Y-86884400D02*
X177210700Y-82027200D01*
X176563600Y-86983400D02*
X176576500Y-86884400D01*
X176490000Y-87168800D02*
X176563600Y-86983400D01*
X176431600Y-87249600D02*
X176490000Y-87168800D01*
X175899300Y-87986400D02*
X176431600Y-87249600D01*
X175890700Y-87998100D02*
X175899300Y-87986400D01*
X175871800Y-88022400D02*
X175890700Y-87998100D01*
X175861900Y-88034100D02*
X175871800Y-88022400D01*
X174412200Y-89750500D02*
X175861900Y-88034100D01*
X174058700Y-94282300D02*
X174058700Y-92530800D01*
X174058700Y-94532300D02*
X174058700Y-94282300D01*
X174041100Y-94782300D02*
X174058700Y-94532300D01*
X178669200Y-82208100D02*
X177210700Y-82027200D01*
X178692200Y-82210000D02*
X178700000Y-82210000D01*
X178677000Y-82209100D02*
X178692200Y-82210000D01*
X178669200Y-82208100D02*
X178677000Y-82209100D01*
X178950000Y-82210000D02*
X178700000Y-82210000D01*
X180700000Y-82960000D02*
X178950000Y-82210000D01*
D32*
X165610000Y-86730000D02*
X166000000Y-86681000D01*
X165500000Y-86730000D02*
X165610000Y-86730000D01*
X164650000Y-86730000D02*
X165500000Y-86730000D01*
X164100000Y-86730000D02*
X164650000Y-86730000D01*
X163550000Y-86730000D02*
X162786900Y-87708700D01*
X164100000Y-86730000D02*
X163550000Y-86730000D01*
X158900000Y-92800000D02*
X161000000Y-91460000D01*
X158350000Y-92800000D02*
X158900000Y-92800000D01*
D33*
X166559600Y-85847000D02*
X165858500Y-85704900D01*
X166600600Y-85855400D02*
X166559600Y-85847000D01*
X166674600Y-85893500D02*
X166600600Y-85855400D01*
X166705000Y-85922000D02*
X166674600Y-85893500D01*
X167024800Y-86221300D02*
X166705000Y-85922000D01*
X167079000Y-86251000D02*
X167100000Y-86251000D01*
X167040100Y-86235600D02*
X167079000Y-86251000D01*
X167024800Y-86221300D02*
X167040100Y-86235600D01*
X167200000Y-86251000D02*
X167100000Y-86251000D01*
X167600000Y-86681000D02*
X167200000Y-86251000D01*
D32*
X167990000Y-87111000D02*
X167600000Y-86681000D01*
X168100000Y-87111000D02*
X167990000Y-87111000D01*
X168116200Y-87111000D02*
X168100000Y-87111000D01*
X168147100Y-87120300D02*
X168116200Y-87111000D01*
X168160500Y-87129100D02*
X168147100Y-87120300D01*
X168270700Y-87201600D02*
X168160500Y-87129100D01*
X168331200Y-87241500D02*
X168270700Y-87201600D01*
X168404600Y-87366700D02*
X168331200Y-87241500D01*
X168409700Y-87439300D02*
X168404600Y-87366700D01*
X168544600Y-89361700D02*
X168409700Y-87439300D01*
X164650000Y-85460000D02*
X165858500Y-85704900D01*
X164100000Y-85460000D02*
X164650000Y-85460000D01*
X163550000Y-85460000D02*
X162615400Y-85000000D01*
X164100000Y-85460000D02*
X163550000Y-85460000D01*
X157273300Y-94877000D02*
X156452700Y-93671200D01*
X157280500Y-94887900D02*
X157273300Y-94877000D01*
X157372300Y-95028800D02*
X157280500Y-94887900D01*
X157451300Y-95125200D02*
X157484000Y-95150900D01*
X157395200Y-95063900D02*
X157451300Y-95125200D01*
X157372300Y-95028800D02*
X157395200Y-95063900D01*
X157800000Y-95400000D02*
X157484000Y-95150900D01*
X158350000Y-95400000D02*
X157800000Y-95400000D01*
X170450000Y-82920000D02*
X171792100Y-81756300D01*
X169900000Y-82920000D02*
X170450000Y-82920000D01*
X169350000Y-82920000D02*
X169900000Y-82920000D01*
X168887800Y-82949800D02*
X169350000Y-82920000D01*
X168845300Y-82951200D02*
X168887800Y-82949800D01*
X168208000Y-82951200D02*
X168845300Y-82951200D01*
X168098000Y-82951200D02*
X168208000Y-82951200D01*
X167668000Y-83065900D02*
X168098000Y-82951200D01*
X174141600Y-86368500D02*
X175782700Y-86780800D01*
X174003500Y-86333700D02*
X174141600Y-86368500D01*
X173756800Y-86195000D02*
X174003500Y-86333700D01*
X173555100Y-85996400D02*
X173756800Y-86195000D01*
X173411800Y-85750200D02*
X173555100Y-85996400D01*
X173375400Y-85613500D02*
X173411800Y-85750200D01*
X173008000Y-84237400D02*
X173375400Y-85613500D01*
X172813400Y-84007000D02*
X172708000Y-84007000D01*
X172980700Y-84135300D02*
X172813400Y-84007000D01*
X173008000Y-84237400D02*
X172980700Y-84135300D01*
X171692000Y-84007000D02*
X172708000Y-84007000D01*
X171657400Y-84008700D02*
X171645900Y-84010400D01*
X171680600Y-84007000D02*
X171657400Y-84008700D01*
X171692000Y-84007000D02*
X171680600Y-84007000D01*
X170450000Y-84190000D02*
X171645900Y-84010400D01*
X169900000Y-84190000D02*
X170450000Y-84190000D01*
X168098000Y-84275900D02*
X167668000Y-84665900D01*
X168208000Y-84275900D02*
X168098000Y-84275900D01*
X168216300Y-84275600D02*
X168208000Y-84275900D01*
X169350000Y-84190000D02*
X168216300Y-84275600D01*
X169900000Y-84190000D02*
X169350000Y-84190000D01*
X163550000Y-82920000D02*
X162313700Y-83433600D01*
X164100000Y-82920000D02*
X163550000Y-82920000D01*
X165918000Y-82920000D02*
X166348000Y-83065900D01*
X165808000Y-82920000D02*
X165918000Y-82920000D01*
X164650000Y-82920000D02*
X165808000Y-82920000D01*
X164100000Y-82920000D02*
X164650000Y-82920000D01*
X159303100Y-88563300D02*
X161000000Y-86380000D01*
X159283900Y-88587900D02*
X159303100Y-88563300D01*
X159240500Y-88631600D02*
X159283900Y-88587900D01*
X159216000Y-88650900D02*
X159240500Y-88631600D01*
X158900000Y-88900000D02*
X159216000Y-88650900D01*
X158350000Y-88900000D02*
X158900000Y-88900000D01*
X165918000Y-84275900D02*
X166348000Y-84665900D01*
X165808000Y-84275900D02*
X165918000Y-84275900D01*
X165799800Y-84275600D02*
X165808000Y-84275900D01*
X164650000Y-84190000D02*
X165799800Y-84275600D01*
X164100000Y-84190000D02*
X164650000Y-84190000D01*
X163550000Y-84190000D02*
X164100000Y-84190000D01*
X162263600Y-84092200D02*
X163550000Y-84190000D01*
X162243300Y-84090700D02*
X162263600Y-84092200D01*
X162202100Y-84084900D02*
X162243300Y-84090700D01*
X162181800Y-84080800D02*
X162202100Y-84084900D01*
X161000000Y-83840000D02*
X162181800Y-84080800D01*
X157800000Y-94100000D02*
X158350000Y-94100000D01*
X157484000Y-93850900D02*
X157800000Y-94100000D01*
X157464100Y-93835300D02*
X157484000Y-93850900D01*
X157427400Y-93800000D02*
X157464100Y-93835300D01*
X157410700Y-93780300D02*
X157427400Y-93800000D01*
X157090100Y-93402300D02*
X157410700Y-93780300D01*
X157052400Y-93354800D02*
X157090100Y-93402300D01*
X156627400Y-92782200D02*
X157052400Y-93354800D01*
X167205100Y-88573500D02*
X167119400Y-88850400D01*
X167210000Y-88549200D02*
X167210000Y-88541000D01*
X167207500Y-88565600D02*
X167210000Y-88549200D01*
X167205100Y-88573500D02*
X167207500Y-88565600D01*
X167210000Y-88431000D02*
X167210000Y-88541000D01*
X167600000Y-88001000D02*
X167210000Y-88431000D01*
X178810000Y-89290700D02*
X180700000Y-88500000D01*
X178700000Y-89290700D02*
X178810000Y-89290700D01*
X178149500Y-89290700D02*
X178700000Y-89290700D01*
X177494200Y-89798700D02*
X177489500Y-89926500D01*
X177599000Y-89564300D02*
X177494200Y-89798700D01*
X177784000Y-89386300D02*
X177599000Y-89564300D01*
X178021100Y-89290700D02*
X177784000Y-89386300D01*
X178149500Y-89290700D02*
X178021100Y-89290700D01*
X177420000Y-91780400D02*
X177489500Y-89926500D01*
X177414600Y-91926500D02*
X177420000Y-91780400D01*
X177281100Y-92187100D02*
X177414600Y-91926500D01*
X177051000Y-92366400D02*
X177281100Y-92187100D01*
X176765600Y-92432200D02*
X177051000Y-92366400D01*
X176622400Y-92401700D02*
X176765600Y-92432200D01*
X174196300Y-91884800D02*
X176622400Y-92401700D01*
X174196300Y-91884800D02*
X174168200Y-91879400D01*
X173266500Y-91727900D02*
X174168200Y-91879400D01*
X172999400Y-91131200D02*
X173266500Y-91727900D01*
X172811100Y-90948900D02*
X172720300Y-90947500D01*
X172962300Y-91048400D02*
X172811100Y-90948900D01*
X172999400Y-91131200D02*
X172962300Y-91048400D01*
X171695700Y-90933500D02*
X172720300Y-90947500D01*
X171631100Y-90932600D02*
X171695700Y-90933500D01*
X171513400Y-90879500D02*
X171631100Y-90932600D01*
X171469800Y-90831400D02*
X171513400Y-90879500D01*
X170865500Y-90163800D02*
X171469800Y-90831400D01*
X170568600Y-89979500D02*
X170450000Y-89979500D01*
X170785500Y-90075600D02*
X170568600Y-89979500D01*
X170865500Y-90163800D02*
X170785500Y-90075600D01*
X169350000Y-89979500D02*
X170450000Y-89979500D01*
X169350000Y-89979500D02*
X169319000Y-89980400D01*
X168581100Y-90021200D02*
X169319000Y-89980400D01*
X168438900Y-90029100D02*
X168581100Y-90021200D01*
X168172600Y-89925800D02*
X168438900Y-90029100D01*
X168072700Y-89823800D02*
X168172600Y-89925800D01*
X167119400Y-88850400D02*
X168072700Y-89823800D01*
X164650000Y-89270000D02*
X167119400Y-88850400D01*
X164100000Y-89270000D02*
X164650000Y-89270000D01*
X157800000Y-87600000D02*
X158350000Y-87600000D01*
X157123800Y-87275600D02*
X157800000Y-87600000D01*
X143990000Y-88590000D02*
X143475000Y-88500000D01*
X144100000Y-88590000D02*
X143990000Y-88590000D01*
X144101300Y-88590000D02*
X144100000Y-88590000D01*
X148207700Y-88640100D02*
X144101300Y-88590000D01*
X148220700Y-88640400D02*
X148207700Y-88640100D01*
X148975800Y-88665300D02*
X148220700Y-88640400D01*
X149150000Y-89268100D02*
X148975800Y-88665300D01*
X149150000Y-89500500D02*
X149150000Y-89268100D01*
X150700000Y-86950000D02*
X151250000Y-86950000D01*
X150384000Y-87199100D02*
X150700000Y-86950000D01*
X150207900Y-87432000D02*
X150194400Y-87529800D01*
X150306100Y-87260600D02*
X150207900Y-87432000D01*
X150384000Y-87199100D02*
X150306100Y-87260600D01*
X150191600Y-87549900D02*
X150194400Y-87529800D01*
X150170200Y-87703600D02*
X150191600Y-87549900D01*
X150006000Y-87967500D02*
X150170200Y-87703600D01*
X149877400Y-88054600D02*
X150006000Y-87967500D01*
X148975800Y-88665300D02*
X149877400Y-88054600D01*
X143990000Y-87860500D02*
X143475000Y-87850000D01*
X144100000Y-87860500D02*
X143990000Y-87860500D01*
X146100000Y-87860500D02*
X144100000Y-87860500D01*
X146109600Y-87860400D02*
X146100000Y-87860500D01*
X149357700Y-87759400D02*
X146109600Y-87860400D01*
X151800000Y-87600000D02*
X151250000Y-87600000D01*
X152116000Y-87350900D02*
X151800000Y-87600000D01*
X151963400Y-86439600D02*
X151800000Y-86439500D01*
X152228800Y-86628600D02*
X151963400Y-86439600D01*
X152335700Y-86936500D02*
X152228800Y-86628600D01*
X152244000Y-87250100D02*
X152335700Y-86936500D01*
X152116000Y-87350900D02*
X152244000Y-87250100D01*
X150700000Y-86439500D02*
X151800000Y-86439500D01*
X150383200Y-86534200D02*
X150310700Y-86619700D01*
X150587700Y-86439500D02*
X150383200Y-86534200D01*
X150700000Y-86439500D02*
X150587700Y-86439500D01*
X149990100Y-86997700D02*
X150310700Y-86619700D01*
X149796100Y-87340600D02*
X149777800Y-87471900D01*
X149904400Y-87098700D02*
X149796100Y-87340600D01*
X149990100Y-86997700D02*
X149904400Y-87098700D01*
X149775000Y-87492100D02*
X149777800Y-87471900D01*
X149759100Y-87607500D02*
X149775000Y-87492100D01*
X149582800Y-87760400D02*
X149759100Y-87607500D01*
X149466100Y-87759900D02*
X149582800Y-87760400D01*
X149357700Y-87759400D02*
X149466100Y-87759900D01*
X149353800Y-87712200D02*
X149357700Y-87759400D01*
X149348400Y-87647600D02*
X149353800Y-87712200D01*
X149349900Y-87520100D02*
X149348400Y-87647600D01*
X149356700Y-87456800D02*
X149349900Y-87520100D01*
X149357500Y-87449400D02*
X149356700Y-87456800D01*
X149357500Y-87339400D02*
X149357500Y-87449400D01*
X149150000Y-86899500D02*
X149357500Y-87339400D01*
D31*
X144229100Y-92205700D02*
X143566200Y-91244200D01*
X144399500Y-92360800D02*
X144473900Y-92382500D01*
X144273300Y-92269800D02*
X144399500Y-92360800D01*
X144229100Y-92205700D02*
X144273300Y-92269800D01*
X145174100Y-92586700D02*
X144473900Y-92382500D01*
X145229400Y-92602800D02*
X145174100Y-92586700D01*
X145335100Y-92651000D02*
X145229400Y-92602800D01*
X145384500Y-92682900D02*
X145335100Y-92651000D01*
X146664300Y-93510000D02*
X145384500Y-92682900D01*
X146764100Y-93550100D02*
X146800000Y-93550000D01*
X146694600Y-93529600D02*
X146764100Y-93550100D01*
X146664300Y-93510000D02*
X146694600Y-93529600D01*
X147050000Y-93550000D02*
X146800000Y-93550000D01*
X147100000Y-93600000D02*
X147050000Y-93550000D01*
D32*
X143475000Y-89710000D02*
X143475000Y-89800000D01*
X143475000Y-89600000D02*
X143475000Y-89710000D01*
X143475000Y-89350000D02*
X143475000Y-89600000D01*
X143475000Y-89240000D02*
X143475000Y-89350000D01*
X143475000Y-89150000D02*
X143475000Y-89240000D01*
X143389800Y-90807900D02*
X143566200Y-91244200D01*
X143390300Y-90734700D02*
X143389800Y-90807900D01*
X143379600Y-90612000D02*
X143390300Y-90734700D01*
X143379600Y-90548400D02*
X143379600Y-90612000D01*
X143379600Y-90000000D02*
X143379600Y-90548400D01*
X143379600Y-89890000D02*
X143379600Y-90000000D01*
X143475000Y-89800000D02*
X143379600Y-89890000D01*
X143440300Y-90932700D02*
X143662300Y-91142400D01*
X143440300Y-90932700D02*
X143426300Y-91237800D01*
D31*
X144850000Y-86451800D02*
X145350000Y-86300000D01*
X144600000Y-86451800D02*
X144850000Y-86451800D01*
X144049700Y-86451800D02*
X144600000Y-86451800D01*
X142150000Y-83350000D02*
X143150000Y-83350000D01*
X141900000Y-83350000D02*
X142150000Y-83350000D01*
X140200000Y-83350000D02*
X141900000Y-83350000D01*
X139950000Y-83350000D02*
X140200000Y-83350000D01*
X138950000Y-83350000D02*
X139950000Y-83350000D01*
X145725900Y-94993000D02*
X144950000Y-93355200D01*
X145737800Y-95018100D02*
X145725900Y-94993000D01*
X145750000Y-95072400D02*
X145737800Y-95018100D01*
X145750000Y-95100000D02*
X145750000Y-95072400D01*
X145750000Y-95350000D02*
X145750000Y-95100000D01*
X145950000Y-95600000D02*
X145750000Y-95350000D01*
X142150000Y-93650000D02*
X143150000Y-93650000D01*
X141900000Y-93650000D02*
X142150000Y-93650000D01*
X140200000Y-93650000D02*
X141900000Y-93650000D01*
X139950000Y-93650000D02*
X140200000Y-93650000D01*
X138950000Y-93650000D02*
X139950000Y-93650000D01*
X147243500Y-95600000D02*
X147438000Y-95600000D01*
X146993500Y-95600000D02*
X147243500Y-95600000D01*
X146400000Y-95600000D02*
X146993500Y-95600000D01*
X146150000Y-95600000D02*
X146400000Y-95600000D01*
X145950000Y-95600000D02*
X146150000Y-95600000D01*
X144600000Y-90548400D02*
X144040100Y-90548400D01*
X144850000Y-90548400D02*
X144600000Y-90548400D01*
X145350000Y-90700000D02*
X144850000Y-90548400D01*
X144049300Y-82850000D02*
X143150000Y-83350000D01*
X144049300Y-82600000D02*
X144049300Y-82850000D01*
X144049300Y-82050000D02*
X144049300Y-82600000D01*
X144150000Y-93355200D02*
X143150000Y-93650000D01*
X144400000Y-93355200D02*
X144150000Y-93355200D01*
X144950000Y-93355200D02*
X144400000Y-93355200D01*
D32*
X151800000Y-92150000D02*
X151250000Y-92150000D01*
X152116000Y-91900900D02*
X151800000Y-92150000D01*
X152250200Y-91750100D02*
X152275000Y-91686900D01*
X152169500Y-91858700D02*
X152250200Y-91750100D01*
X152116000Y-91900900D02*
X152169500Y-91858700D01*
X152476500Y-91175000D02*
X152275000Y-91686900D01*
X153202000Y-83296500D02*
X153600000Y-82962000D01*
X153202000Y-83406500D02*
X153202000Y-83296500D01*
X153202000Y-83411300D02*
X153202000Y-83406500D01*
X153201200Y-83420700D02*
X153202000Y-83411300D01*
X153200400Y-83425200D02*
X153201200Y-83420700D01*
X152738700Y-86102900D02*
X153200400Y-83425200D01*
X150398600Y-83406500D02*
X150398600Y-84365000D01*
X150398600Y-83296500D02*
X150398600Y-83406500D01*
X150400000Y-82962000D02*
X150398600Y-83296500D01*
X150700000Y-91500000D02*
X151250000Y-91500000D01*
X149972200Y-91681300D02*
X150700000Y-91500000D01*
X157800000Y-86950000D02*
X158350000Y-86950000D01*
X156974200Y-84047900D02*
X157800000Y-86950000D01*
X156961600Y-84003600D02*
X156974200Y-84047900D01*
X156949000Y-83913300D02*
X156961600Y-84003600D01*
X156949000Y-83867100D02*
X156949000Y-83913300D01*
X156949000Y-83406500D02*
X156949000Y-83867100D01*
X156949000Y-83296500D02*
X156949000Y-83406500D01*
X156800000Y-82962000D02*
X156949000Y-83296500D01*
D34*
G36*
X141464635Y-94400000D02*
X141494409Y-94558237D01*
X141587927Y-94703567D01*
X141730619Y-94801064D01*
X141900000Y-94835365D01*
X143660766Y-94835365D01*
X143638007Y-94858124D01*
X143573000Y-95015064D01*
X143573000Y-95366250D01*
X143679750Y-95473000D01*
X144323000Y-95473000D01*
X144323000Y-95453000D01*
X144577000Y-95453000D01*
X144577000Y-95473000D01*
X144597000Y-95473000D01*
X144597000Y-95727000D01*
X144577000Y-95727000D01*
X144577000Y-95747000D01*
X144323000Y-95747000D01*
X144323000Y-95727000D01*
X143679750Y-95727000D01*
X143573000Y-95833750D01*
X143573000Y-96123000D01*
X137477000Y-96123000D01*
X137477000Y-94764428D01*
X137530619Y-94801064D01*
X137700000Y-94835365D01*
X140200000Y-94835365D01*
X140358237Y-94805591D01*
X140503567Y-94712073D01*
X140601064Y-94569381D01*
X140635365Y-94400000D01*
X140635365Y-94327000D01*
X141464635Y-94327000D01*
X141464635Y-94400000D01*
X141464635Y-94400000D01*
G37*
X141464635Y-94400000D02*
X141494409Y-94558237D01*
X141587927Y-94703567D01*
X141730619Y-94801064D01*
X141900000Y-94835365D01*
X143660766Y-94835365D01*
X143638007Y-94858124D01*
X143573000Y-95015064D01*
X143573000Y-95366250D01*
X143679750Y-95473000D01*
X144323000Y-95473000D01*
X144323000Y-95453000D01*
X144577000Y-95453000D01*
X144577000Y-95473000D01*
X144597000Y-95473000D01*
X144597000Y-95727000D01*
X144577000Y-95727000D01*
X144577000Y-95747000D01*
X144323000Y-95747000D01*
X144323000Y-95727000D01*
X143679750Y-95727000D01*
X143573000Y-95833750D01*
X143573000Y-96123000D01*
X137477000Y-96123000D01*
X137477000Y-94764428D01*
X137530619Y-94801064D01*
X137700000Y-94835365D01*
X140200000Y-94835365D01*
X140358237Y-94805591D01*
X140503567Y-94712073D01*
X140601064Y-94569381D01*
X140635365Y-94400000D01*
X140635365Y-94327000D01*
X141464635Y-94327000D01*
X141464635Y-94400000D01*
G36*
X156122619Y-83807564D02*
X156292000Y-83841865D01*
X156412000Y-83841865D01*
X156412000Y-83913300D01*
X156419316Y-83950078D01*
X156417153Y-83987511D01*
X156429753Y-84077811D01*
X156442065Y-84113179D01*
X156445086Y-84150509D01*
X156457686Y-84194809D01*
X156457700Y-84194837D01*
X156457703Y-84194870D01*
X157113233Y-86498591D01*
X156969923Y-86498466D01*
X156684240Y-86616508D01*
X156465476Y-86834890D01*
X156346935Y-87120367D01*
X156346666Y-87429477D01*
X156464708Y-87715160D01*
X156683090Y-87933924D01*
X156968567Y-88052465D01*
X157189195Y-88052657D01*
X157149941Y-88250000D01*
X157197669Y-88489943D01*
X157254502Y-88575000D01*
X157197669Y-88660057D01*
X157149941Y-88900000D01*
X157197669Y-89139943D01*
X157254502Y-89225000D01*
X157197669Y-89310057D01*
X157149941Y-89550000D01*
X157197669Y-89789943D01*
X157254502Y-89875000D01*
X157197669Y-89960057D01*
X157149941Y-90200000D01*
X157197669Y-90439943D01*
X157254502Y-90525000D01*
X157197669Y-90610057D01*
X157149941Y-90850000D01*
X157197669Y-91089943D01*
X157255150Y-91175970D01*
X157204290Y-91304402D01*
X157289451Y-91400000D01*
X157493189Y-91400000D01*
X157536998Y-91429272D01*
X157776941Y-91477000D01*
X158923059Y-91477000D01*
X159163002Y-91429272D01*
X159206811Y-91400000D01*
X159410549Y-91400000D01*
X159495710Y-91304402D01*
X159444850Y-91175970D01*
X159502331Y-91089943D01*
X159550059Y-90850000D01*
X159502331Y-90610057D01*
X159445498Y-90525000D01*
X159502331Y-90439943D01*
X159550059Y-90200000D01*
X159502331Y-89960057D01*
X159445498Y-89875000D01*
X159502331Y-89789943D01*
X159550059Y-89550000D01*
X159502331Y-89310057D01*
X159445498Y-89225000D01*
X159502331Y-89139943D01*
X159509637Y-89103214D01*
X159548441Y-89072625D01*
X159548442Y-89072623D01*
X159572802Y-89053434D01*
X159594200Y-89028398D01*
X159621522Y-89010006D01*
X159664922Y-88966306D01*
X159682771Y-88939393D01*
X159707226Y-88918300D01*
X159726426Y-88893700D01*
X159726677Y-88893202D01*
X159727097Y-88892838D01*
X159823131Y-88769276D01*
X159822796Y-89153093D01*
X160001606Y-89585846D01*
X160332412Y-89917230D01*
X160764853Y-90096795D01*
X161233093Y-90097204D01*
X161665846Y-89918394D01*
X161822311Y-89762202D01*
X161823107Y-89769680D01*
X161845907Y-89842780D01*
X161851692Y-89853403D01*
X161853394Y-89865378D01*
X162250194Y-90996078D01*
X162250280Y-90996223D01*
X162250304Y-90996392D01*
X162264504Y-91036792D01*
X162285726Y-91072654D01*
X162296587Y-91112881D01*
X162335187Y-91190781D01*
X162360911Y-91224173D01*
X162376827Y-91263207D01*
X162400727Y-91299407D01*
X162400905Y-91299587D01*
X162401000Y-91299820D01*
X162896541Y-92049196D01*
X162900496Y-92069077D01*
X163047251Y-92288711D01*
X163266885Y-92435466D01*
X163376389Y-92457248D01*
X163414745Y-92473351D01*
X163458395Y-92473560D01*
X163525962Y-92487000D01*
X164090309Y-92487000D01*
X164203847Y-93080082D01*
X164167435Y-93065000D01*
X163871750Y-93065000D01*
X163765000Y-93171750D01*
X163765000Y-93873000D01*
X163785000Y-93873000D01*
X163785000Y-94127000D01*
X163765000Y-94127000D01*
X163765000Y-94828250D01*
X163871750Y-94935000D01*
X164167435Y-94935000D01*
X164324376Y-94869993D01*
X164396568Y-94797801D01*
X164405427Y-94811567D01*
X164548119Y-94909064D01*
X164717500Y-94943365D01*
X165606500Y-94943365D01*
X165764737Y-94913591D01*
X165901729Y-94825439D01*
X166024119Y-94909064D01*
X166193500Y-94943365D01*
X167082500Y-94943365D01*
X167240737Y-94913591D01*
X167386067Y-94820073D01*
X167398856Y-94801356D01*
X167405427Y-94811567D01*
X167548119Y-94909064D01*
X167717500Y-94943365D01*
X168606500Y-94943365D01*
X168764737Y-94913591D01*
X168910067Y-94820073D01*
X169007564Y-94677381D01*
X169041865Y-94508000D01*
X169041865Y-94197364D01*
X171754100Y-94197364D01*
X171754100Y-94548550D01*
X171860850Y-94655300D01*
X172594100Y-94655300D01*
X172594100Y-93962050D01*
X172487350Y-93855300D01*
X172096165Y-93855300D01*
X171939224Y-93920307D01*
X171819107Y-94040424D01*
X171754100Y-94197364D01*
X169041865Y-94197364D01*
X169041865Y-93492000D01*
X169039849Y-93481287D01*
X169188957Y-92485365D01*
X170700000Y-92485365D01*
X170858237Y-92455591D01*
X171003567Y-92362073D01*
X171054042Y-92288200D01*
X171291203Y-92288200D01*
X171294409Y-92305237D01*
X171387927Y-92450567D01*
X171530619Y-92548064D01*
X171700000Y-92582365D01*
X172716000Y-92582365D01*
X172874237Y-92552591D01*
X173012375Y-92463701D01*
X173111267Y-92504765D01*
X173281722Y-92504913D01*
X173281566Y-92684677D01*
X173381700Y-92927019D01*
X173381700Y-93869401D01*
X173380585Y-93869611D01*
X173346035Y-93855300D01*
X172954850Y-93855300D01*
X172848100Y-93962050D01*
X172848100Y-94655300D01*
X172868100Y-94655300D01*
X172868100Y-94909300D01*
X172848100Y-94909300D01*
X172848100Y-95602550D01*
X172954850Y-95709300D01*
X173346035Y-95709300D01*
X173383389Y-95693828D01*
X173501100Y-95717665D01*
X174581100Y-95717665D01*
X174739337Y-95687891D01*
X174884667Y-95594373D01*
X174982164Y-95451681D01*
X175016465Y-95282300D01*
X175016465Y-94282300D01*
X174986691Y-94124063D01*
X174893173Y-93978733D01*
X174750481Y-93881236D01*
X174735700Y-93878243D01*
X174735700Y-92926533D01*
X174835565Y-92686033D01*
X174835666Y-92570075D01*
X175573000Y-92727170D01*
X175573000Y-96123000D01*
X149833500Y-96123000D01*
X149833500Y-95833750D01*
X149726750Y-95727000D01*
X149089000Y-95727000D01*
X149089000Y-95747000D01*
X148835000Y-95747000D01*
X148835000Y-95727000D01*
X148815000Y-95727000D01*
X148815000Y-95473000D01*
X148835000Y-95473000D01*
X148835000Y-94771750D01*
X149089000Y-94771750D01*
X149089000Y-95473000D01*
X149726750Y-95473000D01*
X149833500Y-95366250D01*
X149833500Y-95007064D01*
X149768493Y-94850124D01*
X149668369Y-94750000D01*
X150049941Y-94750000D01*
X150097669Y-94989943D01*
X150154502Y-95075000D01*
X150097669Y-95160057D01*
X150049941Y-95400000D01*
X150097669Y-95639943D01*
X150233585Y-95843356D01*
X150436998Y-95979272D01*
X150676941Y-96027000D01*
X151823059Y-96027000D01*
X152063002Y-95979272D01*
X152266415Y-95843356D01*
X152402331Y-95639943D01*
X152450059Y-95400000D01*
X152402331Y-95160057D01*
X152345498Y-95075000D01*
X152402331Y-94989943D01*
X152450059Y-94750000D01*
X152402331Y-94510057D01*
X152344850Y-94424030D01*
X152395710Y-94295598D01*
X152310549Y-94200000D01*
X152106811Y-94200000D01*
X152063002Y-94170728D01*
X151823059Y-94123000D01*
X150676941Y-94123000D01*
X150436998Y-94170728D01*
X150393189Y-94200000D01*
X150189451Y-94200000D01*
X150104290Y-94295598D01*
X150155150Y-94424030D01*
X150097669Y-94510057D01*
X150049941Y-94750000D01*
X149668369Y-94750000D01*
X149648376Y-94730007D01*
X149491435Y-94665000D01*
X149195750Y-94665000D01*
X149089000Y-94771750D01*
X148835000Y-94771750D01*
X148728250Y-94665000D01*
X148432565Y-94665000D01*
X148275624Y-94730007D01*
X148203432Y-94802199D01*
X148194573Y-94788433D01*
X148051881Y-94690936D01*
X147882500Y-94656635D01*
X146993500Y-94656635D01*
X146835263Y-94686409D01*
X146689933Y-94779927D01*
X146689291Y-94780867D01*
X146569381Y-94698936D01*
X146400000Y-94664635D01*
X146319467Y-94664635D01*
X145929308Y-93841071D01*
X146296834Y-94078593D01*
X146296837Y-94078594D01*
X146326897Y-94098039D01*
X146417115Y-94133845D01*
X146456287Y-94154397D01*
X146487927Y-94203567D01*
X146630619Y-94301064D01*
X146800000Y-94335365D01*
X147400000Y-94335365D01*
X147558237Y-94305591D01*
X147599412Y-94279095D01*
X147715065Y-94327000D01*
X147866250Y-94327000D01*
X147973000Y-94220250D01*
X147973000Y-93727000D01*
X148227000Y-93727000D01*
X148227000Y-94220250D01*
X148333750Y-94327000D01*
X148484935Y-94327000D01*
X148641876Y-94261993D01*
X148761993Y-94141876D01*
X148827000Y-93984936D01*
X148827000Y-93833750D01*
X148720250Y-93727000D01*
X148227000Y-93727000D01*
X147973000Y-93727000D01*
X147953000Y-93727000D01*
X147953000Y-93645598D01*
X150104290Y-93645598D01*
X150155534Y-93775000D01*
X150104290Y-93904402D01*
X150189451Y-94000000D01*
X150388929Y-94000000D01*
X150573000Y-94077000D01*
X151123000Y-94077000D01*
X151123000Y-93473000D01*
X151377000Y-93473000D01*
X151377000Y-94077000D01*
X151927000Y-94077000D01*
X152111071Y-94000000D01*
X152310549Y-94000000D01*
X152395710Y-93904402D01*
X152344466Y-93775000D01*
X152395710Y-93645598D01*
X152310549Y-93550000D01*
X152111071Y-93550000D01*
X151927000Y-93473000D01*
X151377000Y-93473000D01*
X151123000Y-93473000D01*
X150573000Y-93473000D01*
X150388929Y-93550000D01*
X150189451Y-93550000D01*
X150104290Y-93645598D01*
X147953000Y-93645598D01*
X147953000Y-93473000D01*
X147973000Y-93473000D01*
X147973000Y-92979750D01*
X148227000Y-92979750D01*
X148227000Y-93473000D01*
X148720250Y-93473000D01*
X148827000Y-93366250D01*
X148827000Y-93215064D01*
X148761993Y-93058124D01*
X148641876Y-92938007D01*
X148484935Y-92873000D01*
X148333750Y-92873000D01*
X148227000Y-92979750D01*
X147973000Y-92979750D01*
X147866250Y-92873000D01*
X147715065Y-92873000D01*
X147600733Y-92920358D01*
X147569381Y-92898936D01*
X147400000Y-92864635D01*
X146912974Y-92864635D01*
X146155287Y-92374962D01*
X146258237Y-92355591D01*
X146403567Y-92262073D01*
X146501064Y-92119381D01*
X146517896Y-92036265D01*
X146551624Y-92069993D01*
X146708565Y-92135000D01*
X147004250Y-92135000D01*
X147111000Y-92028250D01*
X147111000Y-91327000D01*
X147091000Y-91327000D01*
X147091000Y-91073000D01*
X147111000Y-91073000D01*
X147111000Y-91053000D01*
X147365000Y-91053000D01*
X147365000Y-91073000D01*
X147385000Y-91073000D01*
X147385000Y-91327000D01*
X147365000Y-91327000D01*
X147365000Y-92028250D01*
X147471750Y-92135000D01*
X147767435Y-92135000D01*
X147924376Y-92069993D01*
X147996568Y-91997801D01*
X148005427Y-92011567D01*
X148148119Y-92109064D01*
X148317500Y-92143365D01*
X149206500Y-92143365D01*
X149315163Y-92122919D01*
X149531490Y-92339624D01*
X149816967Y-92458165D01*
X150126077Y-92458434D01*
X150139678Y-92452814D01*
X150154502Y-92475000D01*
X150097669Y-92560057D01*
X150049941Y-92800000D01*
X150097669Y-93039943D01*
X150155150Y-93125970D01*
X150104290Y-93254402D01*
X150189451Y-93350000D01*
X150393189Y-93350000D01*
X150436998Y-93379272D01*
X150676941Y-93427000D01*
X151823059Y-93427000D01*
X152063002Y-93379272D01*
X152106811Y-93350000D01*
X152310549Y-93350000D01*
X152395710Y-93254402D01*
X152344850Y-93125970D01*
X152402331Y-93039943D01*
X152450059Y-92800000D01*
X152402331Y-92560057D01*
X152345498Y-92475000D01*
X152402331Y-92389943D01*
X152409637Y-92353214D01*
X152448441Y-92322625D01*
X152448496Y-92322561D01*
X152448570Y-92322523D01*
X152502070Y-92280323D01*
X152548027Y-92226484D01*
X152600525Y-92178992D01*
X152681224Y-92070392D01*
X152711693Y-92006126D01*
X152750090Y-91946260D01*
X152770506Y-91894234D01*
X152916060Y-91834092D01*
X153134824Y-91615710D01*
X153253365Y-91330233D01*
X153253634Y-91021123D01*
X153135592Y-90735440D01*
X152917210Y-90516676D01*
X152631733Y-90398135D01*
X152410685Y-90397943D01*
X152450059Y-90200000D01*
X152402331Y-89960057D01*
X152345498Y-89875000D01*
X152402331Y-89789943D01*
X152450059Y-89550000D01*
X152402331Y-89310057D01*
X152344850Y-89224030D01*
X152395710Y-89095598D01*
X152310549Y-89000000D01*
X152106811Y-89000000D01*
X152063002Y-88970728D01*
X151823059Y-88923000D01*
X150676941Y-88923000D01*
X150436998Y-88970728D01*
X150393189Y-89000000D01*
X150189451Y-89000000D01*
X150104290Y-89095598D01*
X150105507Y-89098671D01*
X149869923Y-89098466D01*
X149864940Y-89100525D01*
X149837788Y-88964023D01*
X149730151Y-88802933D01*
X150127132Y-88534038D01*
X150155150Y-88575970D01*
X150104290Y-88704402D01*
X150189451Y-88800000D01*
X150393189Y-88800000D01*
X150436998Y-88829272D01*
X150676941Y-88877000D01*
X151823059Y-88877000D01*
X152063002Y-88829272D01*
X152106811Y-88800000D01*
X152310549Y-88800000D01*
X152346599Y-88759532D01*
X152709592Y-88740817D01*
X155264522Y-92216240D01*
X155254547Y-92232987D01*
X155215247Y-92343787D01*
X155208092Y-92392955D01*
X155189139Y-92438880D01*
X155177739Y-92496579D01*
X155177739Y-92496930D01*
X155177605Y-92497257D01*
X155002910Y-93386234D01*
X154968060Y-93562473D01*
X154968080Y-93580578D01*
X154962062Y-93597654D01*
X154968229Y-93712059D01*
X154968358Y-93826625D01*
X154975305Y-93843344D01*
X154976280Y-93861424D01*
X155065980Y-94212424D01*
X155073710Y-94228568D01*
X155075603Y-94246367D01*
X155130494Y-94347163D01*
X155180056Y-94450674D01*
X155193375Y-94462631D01*
X155201936Y-94478351D01*
X155318336Y-94617951D01*
X155318568Y-94618139D01*
X155318711Y-94618400D01*
X155950091Y-95374294D01*
X155950066Y-95402477D01*
X156068108Y-95688160D01*
X156286490Y-95906924D01*
X156571967Y-96025465D01*
X156881077Y-96025734D01*
X157166760Y-95907692D01*
X157292622Y-95782050D01*
X157333585Y-95843356D01*
X157536998Y-95979272D01*
X157776941Y-96027000D01*
X158923059Y-96027000D01*
X159163002Y-95979272D01*
X159366415Y-95843356D01*
X159502331Y-95639943D01*
X159550059Y-95400000D01*
X159502331Y-95160057D01*
X159445498Y-95075000D01*
X159502331Y-94989943D01*
X159550059Y-94750000D01*
X159502331Y-94510057D01*
X159445498Y-94425000D01*
X159502331Y-94339943D01*
X159523454Y-94233750D01*
X159823000Y-94233750D01*
X159823000Y-94834935D01*
X159888007Y-94991876D01*
X160008124Y-95111993D01*
X160165064Y-95177000D01*
X160766250Y-95177000D01*
X160873000Y-95070250D01*
X160873000Y-94127000D01*
X161127000Y-94127000D01*
X161127000Y-95070250D01*
X161233750Y-95177000D01*
X161834936Y-95177000D01*
X161991876Y-95111993D01*
X162087819Y-95016050D01*
X171754100Y-95016050D01*
X171754100Y-95367236D01*
X171819107Y-95524176D01*
X171939224Y-95644293D01*
X172096165Y-95709300D01*
X172487350Y-95709300D01*
X172594100Y-95602550D01*
X172594100Y-94909300D01*
X171860850Y-94909300D01*
X171754100Y-95016050D01*
X162087819Y-95016050D01*
X162111993Y-94991876D01*
X162177000Y-94834935D01*
X162177000Y-94233750D01*
X162766500Y-94233750D01*
X162766500Y-94592936D01*
X162831507Y-94749876D01*
X162951624Y-94869993D01*
X163108565Y-94935000D01*
X163404250Y-94935000D01*
X163511000Y-94828250D01*
X163511000Y-94127000D01*
X162873250Y-94127000D01*
X162766500Y-94233750D01*
X162177000Y-94233750D01*
X162070250Y-94127000D01*
X161127000Y-94127000D01*
X160873000Y-94127000D01*
X159929750Y-94127000D01*
X159823000Y-94233750D01*
X159523454Y-94233750D01*
X159550059Y-94100000D01*
X159502331Y-93860057D01*
X159445498Y-93775000D01*
X159502331Y-93689943D01*
X159550059Y-93450000D01*
X159502331Y-93210057D01*
X159472269Y-93165065D01*
X159823000Y-93165065D01*
X159823000Y-93766250D01*
X159929750Y-93873000D01*
X160873000Y-93873000D01*
X160873000Y-92929750D01*
X161127000Y-92929750D01*
X161127000Y-93873000D01*
X162070250Y-93873000D01*
X162177000Y-93766250D01*
X162177000Y-93407064D01*
X162766500Y-93407064D01*
X162766500Y-93766250D01*
X162873250Y-93873000D01*
X163511000Y-93873000D01*
X163511000Y-93171750D01*
X163404250Y-93065000D01*
X163108565Y-93065000D01*
X162951624Y-93130007D01*
X162831507Y-93250124D01*
X162766500Y-93407064D01*
X162177000Y-93407064D01*
X162177000Y-93165065D01*
X162111993Y-93008124D01*
X161991876Y-92888007D01*
X161834936Y-92823000D01*
X161233750Y-92823000D01*
X161127000Y-92929750D01*
X160873000Y-92929750D01*
X160766250Y-92823000D01*
X160165064Y-92823000D01*
X160008124Y-92888007D01*
X159888007Y-93008124D01*
X159823000Y-93165065D01*
X159472269Y-93165065D01*
X159445498Y-93125000D01*
X159487510Y-93062124D01*
X160394848Y-92483156D01*
X160764853Y-92636795D01*
X161233093Y-92637204D01*
X161665846Y-92458394D01*
X161997230Y-92127588D01*
X162176795Y-91695147D01*
X162177204Y-91226907D01*
X161998394Y-90794154D01*
X161667588Y-90462770D01*
X161235147Y-90283205D01*
X160766907Y-90282796D01*
X160334154Y-90461606D01*
X160002770Y-90792412D01*
X159823205Y-91224853D01*
X159822900Y-91574091D01*
X159449464Y-91812379D01*
X159495710Y-91695598D01*
X159410549Y-91600000D01*
X159206811Y-91600000D01*
X159163002Y-91570728D01*
X158923059Y-91523000D01*
X157776941Y-91523000D01*
X157536998Y-91570728D01*
X157493189Y-91600000D01*
X157289451Y-91600000D01*
X157204290Y-91695598D01*
X157221334Y-91738637D01*
X157157698Y-91700171D01*
X157156775Y-91700031D01*
X157155974Y-91699550D01*
X156906374Y-91610150D01*
X156905425Y-91610009D01*
X156904602Y-91609519D01*
X156801733Y-91594593D01*
X156699125Y-91579339D01*
X156698197Y-91579571D01*
X156697246Y-91579433D01*
X156565347Y-91586333D01*
X156565345Y-91586333D01*
X156485003Y-91590477D01*
X153944275Y-88134371D01*
X154749723Y-86722210D01*
X154796960Y-86702692D01*
X155015724Y-86484310D01*
X155134265Y-86198833D01*
X155134495Y-85935000D01*
X155328250Y-85935000D01*
X155435000Y-85828250D01*
X155435000Y-85127000D01*
X155689000Y-85127000D01*
X155689000Y-85828250D01*
X155795750Y-85935000D01*
X156091435Y-85935000D01*
X156248376Y-85869993D01*
X156368493Y-85749876D01*
X156433500Y-85592936D01*
X156433500Y-85233750D01*
X156326750Y-85127000D01*
X155689000Y-85127000D01*
X155435000Y-85127000D01*
X155415000Y-85127000D01*
X155415000Y-84873000D01*
X155435000Y-84873000D01*
X155435000Y-84357405D01*
X155512091Y-84171750D01*
X155689000Y-84171750D01*
X155689000Y-84873000D01*
X156326750Y-84873000D01*
X156433500Y-84766250D01*
X156433500Y-84407064D01*
X156368493Y-84250124D01*
X156248376Y-84130007D01*
X156091435Y-84065000D01*
X155795750Y-84065000D01*
X155689000Y-84171750D01*
X155512091Y-84171750D01*
X155536265Y-84113533D01*
X155536297Y-84076312D01*
X155738316Y-83828155D01*
X155858237Y-83805591D01*
X155992905Y-83718934D01*
X156122619Y-83807564D01*
X156122619Y-83807564D01*
G37*
X156122619Y-83807564D02*
X156292000Y-83841865D01*
X156412000Y-83841865D01*
X156412000Y-83913300D01*
X156419316Y-83950078D01*
X156417153Y-83987511D01*
X156429753Y-84077811D01*
X156442065Y-84113179D01*
X156445086Y-84150509D01*
X156457686Y-84194809D01*
X156457700Y-84194837D01*
X156457703Y-84194870D01*
X157113233Y-86498591D01*
X156969923Y-86498466D01*
X156684240Y-86616508D01*
X156465476Y-86834890D01*
X156346935Y-87120367D01*
X156346666Y-87429477D01*
X156464708Y-87715160D01*
X156683090Y-87933924D01*
X156968567Y-88052465D01*
X157189195Y-88052657D01*
X157149941Y-88250000D01*
X157197669Y-88489943D01*
X157254502Y-88575000D01*
X157197669Y-88660057D01*
X157149941Y-88900000D01*
X157197669Y-89139943D01*
X157254502Y-89225000D01*
X157197669Y-89310057D01*
X157149941Y-89550000D01*
X157197669Y-89789943D01*
X157254502Y-89875000D01*
X157197669Y-89960057D01*
X157149941Y-90200000D01*
X157197669Y-90439943D01*
X157254502Y-90525000D01*
X157197669Y-90610057D01*
X157149941Y-90850000D01*
X157197669Y-91089943D01*
X157255150Y-91175970D01*
X157204290Y-91304402D01*
X157289451Y-91400000D01*
X157493189Y-91400000D01*
X157536998Y-91429272D01*
X157776941Y-91477000D01*
X158923059Y-91477000D01*
X159163002Y-91429272D01*
X159206811Y-91400000D01*
X159410549Y-91400000D01*
X159495710Y-91304402D01*
X159444850Y-91175970D01*
X159502331Y-91089943D01*
X159550059Y-90850000D01*
X159502331Y-90610057D01*
X159445498Y-90525000D01*
X159502331Y-90439943D01*
X159550059Y-90200000D01*
X159502331Y-89960057D01*
X159445498Y-89875000D01*
X159502331Y-89789943D01*
X159550059Y-89550000D01*
X159502331Y-89310057D01*
X159445498Y-89225000D01*
X159502331Y-89139943D01*
X159509637Y-89103214D01*
X159548441Y-89072625D01*
X159548442Y-89072623D01*
X159572802Y-89053434D01*
X159594200Y-89028398D01*
X159621522Y-89010006D01*
X159664922Y-88966306D01*
X159682771Y-88939393D01*
X159707226Y-88918300D01*
X159726426Y-88893700D01*
X159726677Y-88893202D01*
X159727097Y-88892838D01*
X159823131Y-88769276D01*
X159822796Y-89153093D01*
X160001606Y-89585846D01*
X160332412Y-89917230D01*
X160764853Y-90096795D01*
X161233093Y-90097204D01*
X161665846Y-89918394D01*
X161822311Y-89762202D01*
X161823107Y-89769680D01*
X161845907Y-89842780D01*
X161851692Y-89853403D01*
X161853394Y-89865378D01*
X162250194Y-90996078D01*
X162250280Y-90996223D01*
X162250304Y-90996392D01*
X162264504Y-91036792D01*
X162285726Y-91072654D01*
X162296587Y-91112881D01*
X162335187Y-91190781D01*
X162360911Y-91224173D01*
X162376827Y-91263207D01*
X162400727Y-91299407D01*
X162400905Y-91299587D01*
X162401000Y-91299820D01*
X162896541Y-92049196D01*
X162900496Y-92069077D01*
X163047251Y-92288711D01*
X163266885Y-92435466D01*
X163376389Y-92457248D01*
X163414745Y-92473351D01*
X163458395Y-92473560D01*
X163525962Y-92487000D01*
X164090309Y-92487000D01*
X164203847Y-93080082D01*
X164167435Y-93065000D01*
X163871750Y-93065000D01*
X163765000Y-93171750D01*
X163765000Y-93873000D01*
X163785000Y-93873000D01*
X163785000Y-94127000D01*
X163765000Y-94127000D01*
X163765000Y-94828250D01*
X163871750Y-94935000D01*
X164167435Y-94935000D01*
X164324376Y-94869993D01*
X164396568Y-94797801D01*
X164405427Y-94811567D01*
X164548119Y-94909064D01*
X164717500Y-94943365D01*
X165606500Y-94943365D01*
X165764737Y-94913591D01*
X165901729Y-94825439D01*
X166024119Y-94909064D01*
X166193500Y-94943365D01*
X167082500Y-94943365D01*
X167240737Y-94913591D01*
X167386067Y-94820073D01*
X167398856Y-94801356D01*
X167405427Y-94811567D01*
X167548119Y-94909064D01*
X167717500Y-94943365D01*
X168606500Y-94943365D01*
X168764737Y-94913591D01*
X168910067Y-94820073D01*
X169007564Y-94677381D01*
X169041865Y-94508000D01*
X169041865Y-94197364D01*
X171754100Y-94197364D01*
X171754100Y-94548550D01*
X171860850Y-94655300D01*
X172594100Y-94655300D01*
X172594100Y-93962050D01*
X172487350Y-93855300D01*
X172096165Y-93855300D01*
X171939224Y-93920307D01*
X171819107Y-94040424D01*
X171754100Y-94197364D01*
X169041865Y-94197364D01*
X169041865Y-93492000D01*
X169039849Y-93481287D01*
X169188957Y-92485365D01*
X170700000Y-92485365D01*
X170858237Y-92455591D01*
X171003567Y-92362073D01*
X171054042Y-92288200D01*
X171291203Y-92288200D01*
X171294409Y-92305237D01*
X171387927Y-92450567D01*
X171530619Y-92548064D01*
X171700000Y-92582365D01*
X172716000Y-92582365D01*
X172874237Y-92552591D01*
X173012375Y-92463701D01*
X173111267Y-92504765D01*
X173281722Y-92504913D01*
X173281566Y-92684677D01*
X173381700Y-92927019D01*
X173381700Y-93869401D01*
X173380585Y-93869611D01*
X173346035Y-93855300D01*
X172954850Y-93855300D01*
X172848100Y-93962050D01*
X172848100Y-94655300D01*
X172868100Y-94655300D01*
X172868100Y-94909300D01*
X172848100Y-94909300D01*
X172848100Y-95602550D01*
X172954850Y-95709300D01*
X173346035Y-95709300D01*
X173383389Y-95693828D01*
X173501100Y-95717665D01*
X174581100Y-95717665D01*
X174739337Y-95687891D01*
X174884667Y-95594373D01*
X174982164Y-95451681D01*
X175016465Y-95282300D01*
X175016465Y-94282300D01*
X174986691Y-94124063D01*
X174893173Y-93978733D01*
X174750481Y-93881236D01*
X174735700Y-93878243D01*
X174735700Y-92926533D01*
X174835565Y-92686033D01*
X174835666Y-92570075D01*
X175573000Y-92727170D01*
X175573000Y-96123000D01*
X149833500Y-96123000D01*
X149833500Y-95833750D01*
X149726750Y-95727000D01*
X149089000Y-95727000D01*
X149089000Y-95747000D01*
X148835000Y-95747000D01*
X148835000Y-95727000D01*
X148815000Y-95727000D01*
X148815000Y-95473000D01*
X148835000Y-95473000D01*
X148835000Y-94771750D01*
X149089000Y-94771750D01*
X149089000Y-95473000D01*
X149726750Y-95473000D01*
X149833500Y-95366250D01*
X149833500Y-95007064D01*
X149768493Y-94850124D01*
X149668369Y-94750000D01*
X150049941Y-94750000D01*
X150097669Y-94989943D01*
X150154502Y-95075000D01*
X150097669Y-95160057D01*
X150049941Y-95400000D01*
X150097669Y-95639943D01*
X150233585Y-95843356D01*
X150436998Y-95979272D01*
X150676941Y-96027000D01*
X151823059Y-96027000D01*
X152063002Y-95979272D01*
X152266415Y-95843356D01*
X152402331Y-95639943D01*
X152450059Y-95400000D01*
X152402331Y-95160057D01*
X152345498Y-95075000D01*
X152402331Y-94989943D01*
X152450059Y-94750000D01*
X152402331Y-94510057D01*
X152344850Y-94424030D01*
X152395710Y-94295598D01*
X152310549Y-94200000D01*
X152106811Y-94200000D01*
X152063002Y-94170728D01*
X151823059Y-94123000D01*
X150676941Y-94123000D01*
X150436998Y-94170728D01*
X150393189Y-94200000D01*
X150189451Y-94200000D01*
X150104290Y-94295598D01*
X150155150Y-94424030D01*
X150097669Y-94510057D01*
X150049941Y-94750000D01*
X149668369Y-94750000D01*
X149648376Y-94730007D01*
X149491435Y-94665000D01*
X149195750Y-94665000D01*
X149089000Y-94771750D01*
X148835000Y-94771750D01*
X148728250Y-94665000D01*
X148432565Y-94665000D01*
X148275624Y-94730007D01*
X148203432Y-94802199D01*
X148194573Y-94788433D01*
X148051881Y-94690936D01*
X147882500Y-94656635D01*
X146993500Y-94656635D01*
X146835263Y-94686409D01*
X146689933Y-94779927D01*
X146689291Y-94780867D01*
X146569381Y-94698936D01*
X146400000Y-94664635D01*
X146319467Y-94664635D01*
X145929308Y-93841071D01*
X146296834Y-94078593D01*
X146296837Y-94078594D01*
X146326897Y-94098039D01*
X146417115Y-94133845D01*
X146456287Y-94154397D01*
X146487927Y-94203567D01*
X146630619Y-94301064D01*
X146800000Y-94335365D01*
X147400000Y-94335365D01*
X147558237Y-94305591D01*
X147599412Y-94279095D01*
X147715065Y-94327000D01*
X147866250Y-94327000D01*
X147973000Y-94220250D01*
X147973000Y-93727000D01*
X148227000Y-93727000D01*
X148227000Y-94220250D01*
X148333750Y-94327000D01*
X148484935Y-94327000D01*
X148641876Y-94261993D01*
X148761993Y-94141876D01*
X148827000Y-93984936D01*
X148827000Y-93833750D01*
X148720250Y-93727000D01*
X148227000Y-93727000D01*
X147973000Y-93727000D01*
X147953000Y-93727000D01*
X147953000Y-93645598D01*
X150104290Y-93645598D01*
X150155534Y-93775000D01*
X150104290Y-93904402D01*
X150189451Y-94000000D01*
X150388929Y-94000000D01*
X150573000Y-94077000D01*
X151123000Y-94077000D01*
X151123000Y-93473000D01*
X151377000Y-93473000D01*
X151377000Y-94077000D01*
X151927000Y-94077000D01*
X152111071Y-94000000D01*
X152310549Y-94000000D01*
X152395710Y-93904402D01*
X152344466Y-93775000D01*
X152395710Y-93645598D01*
X152310549Y-93550000D01*
X152111071Y-93550000D01*
X151927000Y-93473000D01*
X151377000Y-93473000D01*
X151123000Y-93473000D01*
X150573000Y-93473000D01*
X150388929Y-93550000D01*
X150189451Y-93550000D01*
X150104290Y-93645598D01*
X147953000Y-93645598D01*
X147953000Y-93473000D01*
X147973000Y-93473000D01*
X147973000Y-92979750D01*
X148227000Y-92979750D01*
X148227000Y-93473000D01*
X148720250Y-93473000D01*
X148827000Y-93366250D01*
X148827000Y-93215064D01*
X148761993Y-93058124D01*
X148641876Y-92938007D01*
X148484935Y-92873000D01*
X148333750Y-92873000D01*
X148227000Y-92979750D01*
X147973000Y-92979750D01*
X147866250Y-92873000D01*
X147715065Y-92873000D01*
X147600733Y-92920358D01*
X147569381Y-92898936D01*
X147400000Y-92864635D01*
X146912974Y-92864635D01*
X146155287Y-92374962D01*
X146258237Y-92355591D01*
X146403567Y-92262073D01*
X146501064Y-92119381D01*
X146517896Y-92036265D01*
X146551624Y-92069993D01*
X146708565Y-92135000D01*
X147004250Y-92135000D01*
X147111000Y-92028250D01*
X147111000Y-91327000D01*
X147091000Y-91327000D01*
X147091000Y-91073000D01*
X147111000Y-91073000D01*
X147111000Y-91053000D01*
X147365000Y-91053000D01*
X147365000Y-91073000D01*
X147385000Y-91073000D01*
X147385000Y-91327000D01*
X147365000Y-91327000D01*
X147365000Y-92028250D01*
X147471750Y-92135000D01*
X147767435Y-92135000D01*
X147924376Y-92069993D01*
X147996568Y-91997801D01*
X148005427Y-92011567D01*
X148148119Y-92109064D01*
X148317500Y-92143365D01*
X149206500Y-92143365D01*
X149315163Y-92122919D01*
X149531490Y-92339624D01*
X149816967Y-92458165D01*
X150126077Y-92458434D01*
X150139678Y-92452814D01*
X150154502Y-92475000D01*
X150097669Y-92560057D01*
X150049941Y-92800000D01*
X150097669Y-93039943D01*
X150155150Y-93125970D01*
X150104290Y-93254402D01*
X150189451Y-93350000D01*
X150393189Y-93350000D01*
X150436998Y-93379272D01*
X150676941Y-93427000D01*
X151823059Y-93427000D01*
X152063002Y-93379272D01*
X152106811Y-93350000D01*
X152310549Y-93350000D01*
X152395710Y-93254402D01*
X152344850Y-93125970D01*
X152402331Y-93039943D01*
X152450059Y-92800000D01*
X152402331Y-92560057D01*
X152345498Y-92475000D01*
X152402331Y-92389943D01*
X152409637Y-92353214D01*
X152448441Y-92322625D01*
X152448496Y-92322561D01*
X152448570Y-92322523D01*
X152502070Y-92280323D01*
X152548027Y-92226484D01*
X152600525Y-92178992D01*
X152681224Y-92070392D01*
X152711693Y-92006126D01*
X152750090Y-91946260D01*
X152770506Y-91894234D01*
X152916060Y-91834092D01*
X153134824Y-91615710D01*
X153253365Y-91330233D01*
X153253634Y-91021123D01*
X153135592Y-90735440D01*
X152917210Y-90516676D01*
X152631733Y-90398135D01*
X152410685Y-90397943D01*
X152450059Y-90200000D01*
X152402331Y-89960057D01*
X152345498Y-89875000D01*
X152402331Y-89789943D01*
X152450059Y-89550000D01*
X152402331Y-89310057D01*
X152344850Y-89224030D01*
X152395710Y-89095598D01*
X152310549Y-89000000D01*
X152106811Y-89000000D01*
X152063002Y-88970728D01*
X151823059Y-88923000D01*
X150676941Y-88923000D01*
X150436998Y-88970728D01*
X150393189Y-89000000D01*
X150189451Y-89000000D01*
X150104290Y-89095598D01*
X150105507Y-89098671D01*
X149869923Y-89098466D01*
X149864940Y-89100525D01*
X149837788Y-88964023D01*
X149730151Y-88802933D01*
X150127132Y-88534038D01*
X150155150Y-88575970D01*
X150104290Y-88704402D01*
X150189451Y-88800000D01*
X150393189Y-88800000D01*
X150436998Y-88829272D01*
X150676941Y-88877000D01*
X151823059Y-88877000D01*
X152063002Y-88829272D01*
X152106811Y-88800000D01*
X152310549Y-88800000D01*
X152346599Y-88759532D01*
X152709592Y-88740817D01*
X155264522Y-92216240D01*
X155254547Y-92232987D01*
X155215247Y-92343787D01*
X155208092Y-92392955D01*
X155189139Y-92438880D01*
X155177739Y-92496579D01*
X155177739Y-92496930D01*
X155177605Y-92497257D01*
X155002910Y-93386234D01*
X154968060Y-93562473D01*
X154968080Y-93580578D01*
X154962062Y-93597654D01*
X154968229Y-93712059D01*
X154968358Y-93826625D01*
X154975305Y-93843344D01*
X154976280Y-93861424D01*
X155065980Y-94212424D01*
X155073710Y-94228568D01*
X155075603Y-94246367D01*
X155130494Y-94347163D01*
X155180056Y-94450674D01*
X155193375Y-94462631D01*
X155201936Y-94478351D01*
X155318336Y-94617951D01*
X155318568Y-94618139D01*
X155318711Y-94618400D01*
X155950091Y-95374294D01*
X155950066Y-95402477D01*
X156068108Y-95688160D01*
X156286490Y-95906924D01*
X156571967Y-96025465D01*
X156881077Y-96025734D01*
X157166760Y-95907692D01*
X157292622Y-95782050D01*
X157333585Y-95843356D01*
X157536998Y-95979272D01*
X157776941Y-96027000D01*
X158923059Y-96027000D01*
X159163002Y-95979272D01*
X159366415Y-95843356D01*
X159502331Y-95639943D01*
X159550059Y-95400000D01*
X159502331Y-95160057D01*
X159445498Y-95075000D01*
X159502331Y-94989943D01*
X159550059Y-94750000D01*
X159502331Y-94510057D01*
X159445498Y-94425000D01*
X159502331Y-94339943D01*
X159523454Y-94233750D01*
X159823000Y-94233750D01*
X159823000Y-94834935D01*
X159888007Y-94991876D01*
X160008124Y-95111993D01*
X160165064Y-95177000D01*
X160766250Y-95177000D01*
X160873000Y-95070250D01*
X160873000Y-94127000D01*
X161127000Y-94127000D01*
X161127000Y-95070250D01*
X161233750Y-95177000D01*
X161834936Y-95177000D01*
X161991876Y-95111993D01*
X162087819Y-95016050D01*
X171754100Y-95016050D01*
X171754100Y-95367236D01*
X171819107Y-95524176D01*
X171939224Y-95644293D01*
X172096165Y-95709300D01*
X172487350Y-95709300D01*
X172594100Y-95602550D01*
X172594100Y-94909300D01*
X171860850Y-94909300D01*
X171754100Y-95016050D01*
X162087819Y-95016050D01*
X162111993Y-94991876D01*
X162177000Y-94834935D01*
X162177000Y-94233750D01*
X162766500Y-94233750D01*
X162766500Y-94592936D01*
X162831507Y-94749876D01*
X162951624Y-94869993D01*
X163108565Y-94935000D01*
X163404250Y-94935000D01*
X163511000Y-94828250D01*
X163511000Y-94127000D01*
X162873250Y-94127000D01*
X162766500Y-94233750D01*
X162177000Y-94233750D01*
X162070250Y-94127000D01*
X161127000Y-94127000D01*
X160873000Y-94127000D01*
X159929750Y-94127000D01*
X159823000Y-94233750D01*
X159523454Y-94233750D01*
X159550059Y-94100000D01*
X159502331Y-93860057D01*
X159445498Y-93775000D01*
X159502331Y-93689943D01*
X159550059Y-93450000D01*
X159502331Y-93210057D01*
X159472269Y-93165065D01*
X159823000Y-93165065D01*
X159823000Y-93766250D01*
X159929750Y-93873000D01*
X160873000Y-93873000D01*
X160873000Y-92929750D01*
X161127000Y-92929750D01*
X161127000Y-93873000D01*
X162070250Y-93873000D01*
X162177000Y-93766250D01*
X162177000Y-93407064D01*
X162766500Y-93407064D01*
X162766500Y-93766250D01*
X162873250Y-93873000D01*
X163511000Y-93873000D01*
X163511000Y-93171750D01*
X163404250Y-93065000D01*
X163108565Y-93065000D01*
X162951624Y-93130007D01*
X162831507Y-93250124D01*
X162766500Y-93407064D01*
X162177000Y-93407064D01*
X162177000Y-93165065D01*
X162111993Y-93008124D01*
X161991876Y-92888007D01*
X161834936Y-92823000D01*
X161233750Y-92823000D01*
X161127000Y-92929750D01*
X160873000Y-92929750D01*
X160766250Y-92823000D01*
X160165064Y-92823000D01*
X160008124Y-92888007D01*
X159888007Y-93008124D01*
X159823000Y-93165065D01*
X159472269Y-93165065D01*
X159445498Y-93125000D01*
X159487510Y-93062124D01*
X160394848Y-92483156D01*
X160764853Y-92636795D01*
X161233093Y-92637204D01*
X161665846Y-92458394D01*
X161997230Y-92127588D01*
X162176795Y-91695147D01*
X162177204Y-91226907D01*
X161998394Y-90794154D01*
X161667588Y-90462770D01*
X161235147Y-90283205D01*
X160766907Y-90282796D01*
X160334154Y-90461606D01*
X160002770Y-90792412D01*
X159823205Y-91224853D01*
X159822900Y-91574091D01*
X159449464Y-91812379D01*
X159495710Y-91695598D01*
X159410549Y-91600000D01*
X159206811Y-91600000D01*
X159163002Y-91570728D01*
X158923059Y-91523000D01*
X157776941Y-91523000D01*
X157536998Y-91570728D01*
X157493189Y-91600000D01*
X157289451Y-91600000D01*
X157204290Y-91695598D01*
X157221334Y-91738637D01*
X157157698Y-91700171D01*
X157156775Y-91700031D01*
X157155974Y-91699550D01*
X156906374Y-91610150D01*
X156905425Y-91610009D01*
X156904602Y-91609519D01*
X156801733Y-91594593D01*
X156699125Y-91579339D01*
X156698197Y-91579571D01*
X156697246Y-91579433D01*
X156565347Y-91586333D01*
X156565345Y-91586333D01*
X156485003Y-91590477D01*
X153944275Y-88134371D01*
X154749723Y-86722210D01*
X154796960Y-86702692D01*
X155015724Y-86484310D01*
X155134265Y-86198833D01*
X155134495Y-85935000D01*
X155328250Y-85935000D01*
X155435000Y-85828250D01*
X155435000Y-85127000D01*
X155689000Y-85127000D01*
X155689000Y-85828250D01*
X155795750Y-85935000D01*
X156091435Y-85935000D01*
X156248376Y-85869993D01*
X156368493Y-85749876D01*
X156433500Y-85592936D01*
X156433500Y-85233750D01*
X156326750Y-85127000D01*
X155689000Y-85127000D01*
X155435000Y-85127000D01*
X155415000Y-85127000D01*
X155415000Y-84873000D01*
X155435000Y-84873000D01*
X155435000Y-84357405D01*
X155512091Y-84171750D01*
X155689000Y-84171750D01*
X155689000Y-84873000D01*
X156326750Y-84873000D01*
X156433500Y-84766250D01*
X156433500Y-84407064D01*
X156368493Y-84250124D01*
X156248376Y-84130007D01*
X156091435Y-84065000D01*
X155795750Y-84065000D01*
X155689000Y-84171750D01*
X155512091Y-84171750D01*
X155536265Y-84113533D01*
X155536297Y-84076312D01*
X155738316Y-83828155D01*
X155858237Y-83805591D01*
X155992905Y-83718934D01*
X156122619Y-83807564D01*
G36*
X165435871Y-90127193D02*
X165435992Y-90127213D01*
X165436094Y-90127276D01*
X167376963Y-90853135D01*
X166860900Y-90853135D01*
X166736493Y-90876544D01*
X166620900Y-90853135D01*
X165540900Y-90853135D01*
X165382663Y-90882909D01*
X165237333Y-90976427D01*
X165139836Y-91119119D01*
X165137025Y-91133000D01*
X164986223Y-91133000D01*
X165026409Y-91116866D01*
X165218514Y-90928909D01*
X165287614Y-90767546D01*
X165206381Y-90665000D01*
X164227000Y-90665000D01*
X164227000Y-90687000D01*
X163973000Y-90687000D01*
X163973000Y-90665000D01*
X163953000Y-90665000D01*
X163953000Y-90415000D01*
X163973000Y-90415000D01*
X163973000Y-90393000D01*
X164227000Y-90393000D01*
X164227000Y-90415000D01*
X165206381Y-90415000D01*
X165287614Y-90312454D01*
X165238082Y-90196787D01*
X165251501Y-90188003D01*
X165251783Y-90187726D01*
X165252149Y-90187578D01*
X165325250Y-90139578D01*
X165325251Y-90139577D01*
X165349740Y-90123528D01*
X165408613Y-90116985D01*
X165435871Y-90127193D01*
X165435871Y-90127193D01*
G37*
X165435871Y-90127193D02*
X165435992Y-90127213D01*
X165436094Y-90127276D01*
X167376963Y-90853135D01*
X166860900Y-90853135D01*
X166736493Y-90876544D01*
X166620900Y-90853135D01*
X165540900Y-90853135D01*
X165382663Y-90882909D01*
X165237333Y-90976427D01*
X165139836Y-91119119D01*
X165137025Y-91133000D01*
X164986223Y-91133000D01*
X165026409Y-91116866D01*
X165218514Y-90928909D01*
X165287614Y-90767546D01*
X165206381Y-90665000D01*
X164227000Y-90665000D01*
X164227000Y-90687000D01*
X163973000Y-90687000D01*
X163973000Y-90665000D01*
X163953000Y-90665000D01*
X163953000Y-90415000D01*
X163973000Y-90415000D01*
X163973000Y-90393000D01*
X164227000Y-90393000D01*
X164227000Y-90415000D01*
X165206381Y-90415000D01*
X165287614Y-90312454D01*
X165238082Y-90196787D01*
X165251501Y-90188003D01*
X165251783Y-90187726D01*
X165252149Y-90187578D01*
X165325250Y-90139578D01*
X165325251Y-90139577D01*
X165349740Y-90123528D01*
X165408613Y-90116985D01*
X165435871Y-90127193D01*
G36*
X151397000Y-90873000D02*
X151103000Y-90873000D01*
X151103000Y-90827000D01*
X151397000Y-90827000D01*
X151397000Y-90873000D01*
X151397000Y-90873000D01*
G37*
X151397000Y-90873000D02*
X151103000Y-90873000D01*
X151103000Y-90827000D01*
X151397000Y-90827000D01*
X151397000Y-90873000D01*
G36*
X148327000Y-86772520D02*
X148347000Y-86772520D01*
X148347000Y-87026520D01*
X148327000Y-87026520D01*
X148327000Y-87046520D01*
X148073000Y-87046520D01*
X148073000Y-87026520D01*
X148053000Y-87026520D01*
X148053000Y-86772520D01*
X148073000Y-86772520D01*
X148073000Y-86752520D01*
X148327000Y-86752520D01*
X148327000Y-86772520D01*
X148327000Y-86772520D01*
G37*
X148327000Y-86772520D02*
X148347000Y-86772520D01*
X148347000Y-87026520D01*
X148327000Y-87026520D01*
X148327000Y-87046520D01*
X148073000Y-87046520D01*
X148073000Y-87026520D01*
X148053000Y-87026520D01*
X148053000Y-86772520D01*
X148073000Y-86772520D01*
X148073000Y-86752520D01*
X148327000Y-86752520D01*
X148327000Y-86772520D01*
G36*
X149579927Y-83710067D02*
X149722619Y-83807564D01*
X149834508Y-83830222D01*
X149740276Y-83924290D01*
X149621735Y-84209767D01*
X149621466Y-84518877D01*
X149739508Y-84804560D01*
X149957890Y-85023324D01*
X150243367Y-85141865D01*
X150552477Y-85142134D01*
X150838160Y-85024092D01*
X151056924Y-84805710D01*
X151153074Y-84574157D01*
X151182190Y-84603324D01*
X151467667Y-84721865D01*
X151776777Y-84722134D01*
X152062460Y-84604092D01*
X152281224Y-84385710D01*
X152399765Y-84100233D01*
X152399995Y-83835365D01*
X152500000Y-83835365D01*
X152587596Y-83818883D01*
X152308055Y-85440125D01*
X152299140Y-85443808D01*
X152080376Y-85662190D01*
X151979262Y-85905700D01*
X151963729Y-85902600D01*
X151800329Y-85902500D01*
X151800164Y-85902533D01*
X151800000Y-85902500D01*
X150587700Y-85902500D01*
X150576740Y-85904680D01*
X150565701Y-85902951D01*
X150474364Y-85925044D01*
X150382199Y-85943377D01*
X150372908Y-85949585D01*
X150362047Y-85952212D01*
X150157546Y-86046912D01*
X150148487Y-86053518D01*
X150137708Y-86056599D01*
X150064148Y-86115014D01*
X149988246Y-86170359D01*
X149982405Y-86179928D01*
X149973625Y-86186900D01*
X149901164Y-86272354D01*
X149890626Y-86284778D01*
X149873051Y-86191373D01*
X149779533Y-86046043D01*
X149636841Y-85948546D01*
X149574291Y-85935879D01*
X149633500Y-85792936D01*
X149633500Y-85433750D01*
X149526750Y-85327000D01*
X148889000Y-85327000D01*
X148889000Y-85347000D01*
X148635000Y-85347000D01*
X148635000Y-85327000D01*
X148615000Y-85327000D01*
X148615000Y-85073000D01*
X148635000Y-85073000D01*
X148635000Y-84371750D01*
X148889000Y-84371750D01*
X148889000Y-85073000D01*
X149526750Y-85073000D01*
X149633500Y-84966250D01*
X149633500Y-84607064D01*
X149568493Y-84450124D01*
X149448376Y-84330007D01*
X149291435Y-84265000D01*
X148995750Y-84265000D01*
X148889000Y-84371750D01*
X148635000Y-84371750D01*
X148564689Y-84301439D01*
X148703567Y-84212073D01*
X148736593Y-84163738D01*
X148789174Y-84142682D01*
X148896162Y-84073007D01*
X149004080Y-84004743D01*
X149038880Y-83971643D01*
X149038919Y-83971587D01*
X149038975Y-83971552D01*
X149210621Y-83808228D01*
X149475960Y-83698592D01*
X149534767Y-83639887D01*
X149579927Y-83710067D01*
X149579927Y-83710067D01*
G37*
X149579927Y-83710067D02*
X149722619Y-83807564D01*
X149834508Y-83830222D01*
X149740276Y-83924290D01*
X149621735Y-84209767D01*
X149621466Y-84518877D01*
X149739508Y-84804560D01*
X149957890Y-85023324D01*
X150243367Y-85141865D01*
X150552477Y-85142134D01*
X150838160Y-85024092D01*
X151056924Y-84805710D01*
X151153074Y-84574157D01*
X151182190Y-84603324D01*
X151467667Y-84721865D01*
X151776777Y-84722134D01*
X152062460Y-84604092D01*
X152281224Y-84385710D01*
X152399765Y-84100233D01*
X152399995Y-83835365D01*
X152500000Y-83835365D01*
X152587596Y-83818883D01*
X152308055Y-85440125D01*
X152299140Y-85443808D01*
X152080376Y-85662190D01*
X151979262Y-85905700D01*
X151963729Y-85902600D01*
X151800329Y-85902500D01*
X151800164Y-85902533D01*
X151800000Y-85902500D01*
X150587700Y-85902500D01*
X150576740Y-85904680D01*
X150565701Y-85902951D01*
X150474364Y-85925044D01*
X150382199Y-85943377D01*
X150372908Y-85949585D01*
X150362047Y-85952212D01*
X150157546Y-86046912D01*
X150148487Y-86053518D01*
X150137708Y-86056599D01*
X150064148Y-86115014D01*
X149988246Y-86170359D01*
X149982405Y-86179928D01*
X149973625Y-86186900D01*
X149901164Y-86272354D01*
X149890626Y-86284778D01*
X149873051Y-86191373D01*
X149779533Y-86046043D01*
X149636841Y-85948546D01*
X149574291Y-85935879D01*
X149633500Y-85792936D01*
X149633500Y-85433750D01*
X149526750Y-85327000D01*
X148889000Y-85327000D01*
X148889000Y-85347000D01*
X148635000Y-85347000D01*
X148635000Y-85327000D01*
X148615000Y-85327000D01*
X148615000Y-85073000D01*
X148635000Y-85073000D01*
X148635000Y-84371750D01*
X148889000Y-84371750D01*
X148889000Y-85073000D01*
X149526750Y-85073000D01*
X149633500Y-84966250D01*
X149633500Y-84607064D01*
X149568493Y-84450124D01*
X149448376Y-84330007D01*
X149291435Y-84265000D01*
X148995750Y-84265000D01*
X148889000Y-84371750D01*
X148635000Y-84371750D01*
X148564689Y-84301439D01*
X148703567Y-84212073D01*
X148736593Y-84163738D01*
X148789174Y-84142682D01*
X148896162Y-84073007D01*
X149004080Y-84004743D01*
X149038880Y-83971643D01*
X149038919Y-83971587D01*
X149038975Y-83971552D01*
X149210621Y-83808228D01*
X149475960Y-83698592D01*
X149534767Y-83639887D01*
X149579927Y-83710067D01*
G36*
X175573000Y-81984285D02*
X175555591Y-81891763D01*
X175462073Y-81746433D01*
X175319381Y-81648936D01*
X175150000Y-81614635D01*
X173650000Y-81614635D01*
X173491763Y-81644409D01*
X173346433Y-81737927D01*
X173248936Y-81880619D01*
X173214635Y-82050000D01*
X173214635Y-83550000D01*
X173233979Y-83652806D01*
X173140187Y-83580878D01*
X173135000Y-83578322D01*
X173135000Y-83471750D01*
X173028250Y-83365000D01*
X172327000Y-83365000D01*
X172327000Y-83385000D01*
X172073000Y-83385000D01*
X172073000Y-83365000D01*
X171371750Y-83365000D01*
X171265000Y-83471750D01*
X171265000Y-83524581D01*
X170781902Y-83597133D01*
X170733115Y-83564534D01*
X170685185Y-83555000D01*
X170733115Y-83545466D01*
X170952749Y-83398711D01*
X171099504Y-83179077D01*
X171126304Y-83044347D01*
X171265000Y-82924087D01*
X171265000Y-83004250D01*
X171371750Y-83111000D01*
X172073000Y-83111000D01*
X172073000Y-83091000D01*
X172327000Y-83091000D01*
X172327000Y-83111000D01*
X173028250Y-83111000D01*
X173135000Y-83004250D01*
X173135000Y-82708565D01*
X173069993Y-82551624D01*
X172949876Y-82431507D01*
X172792936Y-82366500D01*
X172433750Y-82366500D01*
X172327002Y-82473248D01*
X172327002Y-82366500D01*
X172280638Y-82366500D01*
X172450424Y-82197010D01*
X172568965Y-81911533D01*
X172569234Y-81602423D01*
X172451192Y-81316740D01*
X172232810Y-81097976D01*
X171947333Y-80979435D01*
X171638223Y-80979166D01*
X171352540Y-81097208D01*
X171133776Y-81315590D01*
X171015235Y-81601067D01*
X171015132Y-81719236D01*
X170411073Y-82243000D01*
X169325962Y-82243000D01*
X169066885Y-82294534D01*
X168891957Y-82411417D01*
X168861692Y-82413369D01*
X168836454Y-82414200D01*
X168614821Y-82414200D01*
X168613591Y-82407663D01*
X168520073Y-82262333D01*
X168377381Y-82164836D01*
X168208000Y-82130535D01*
X167128000Y-82130535D01*
X167003593Y-82153944D01*
X166888000Y-82130535D01*
X165808000Y-82130535D01*
X165649763Y-82160309D01*
X165504433Y-82253827D01*
X165416173Y-82383000D01*
X165065513Y-82383000D01*
X164933115Y-82294534D01*
X164674038Y-82243000D01*
X163525962Y-82243000D01*
X163266885Y-82294534D01*
X163047251Y-82441289D01*
X162949140Y-82588122D01*
X162626493Y-82722160D01*
X162468933Y-82656735D01*
X162159823Y-82656466D01*
X161874140Y-82774508D01*
X161736553Y-82911855D01*
X161667588Y-82842770D01*
X161235147Y-82663205D01*
X160766907Y-82662796D01*
X160334154Y-82841606D01*
X160002770Y-83172412D01*
X159823205Y-83604853D01*
X159822796Y-84073093D01*
X159832048Y-84095485D01*
X159236555Y-83925968D01*
X159235997Y-83925923D01*
X159235498Y-83925668D01*
X159230912Y-83924370D01*
X159220222Y-83920210D01*
X159214882Y-83917532D01*
X159214880Y-83917531D01*
X159009857Y-83814694D01*
X159058237Y-83805591D01*
X159203567Y-83712073D01*
X159301064Y-83569381D01*
X159335365Y-83400000D01*
X159335365Y-82500000D01*
X159305591Y-82341763D01*
X159213130Y-82198076D01*
X159301064Y-82069381D01*
X159335365Y-81900000D01*
X159335365Y-81000000D01*
X159312221Y-80877000D01*
X175573000Y-80877000D01*
X175573000Y-81984285D01*
X175573000Y-81984285D01*
G37*
X175573000Y-81984285D02*
X175555591Y-81891763D01*
X175462073Y-81746433D01*
X175319381Y-81648936D01*
X175150000Y-81614635D01*
X173650000Y-81614635D01*
X173491763Y-81644409D01*
X173346433Y-81737927D01*
X173248936Y-81880619D01*
X173214635Y-82050000D01*
X173214635Y-83550000D01*
X173233979Y-83652806D01*
X173140187Y-83580878D01*
X173135000Y-83578322D01*
X173135000Y-83471750D01*
X173028250Y-83365000D01*
X172327000Y-83365000D01*
X172327000Y-83385000D01*
X172073000Y-83385000D01*
X172073000Y-83365000D01*
X171371750Y-83365000D01*
X171265000Y-83471750D01*
X171265000Y-83524581D01*
X170781902Y-83597133D01*
X170733115Y-83564534D01*
X170685185Y-83555000D01*
X170733115Y-83545466D01*
X170952749Y-83398711D01*
X171099504Y-83179077D01*
X171126304Y-83044347D01*
X171265000Y-82924087D01*
X171265000Y-83004250D01*
X171371750Y-83111000D01*
X172073000Y-83111000D01*
X172073000Y-83091000D01*
X172327000Y-83091000D01*
X172327000Y-83111000D01*
X173028250Y-83111000D01*
X173135000Y-83004250D01*
X173135000Y-82708565D01*
X173069993Y-82551624D01*
X172949876Y-82431507D01*
X172792936Y-82366500D01*
X172433750Y-82366500D01*
X172327002Y-82473248D01*
X172327002Y-82366500D01*
X172280638Y-82366500D01*
X172450424Y-82197010D01*
X172568965Y-81911533D01*
X172569234Y-81602423D01*
X172451192Y-81316740D01*
X172232810Y-81097976D01*
X171947333Y-80979435D01*
X171638223Y-80979166D01*
X171352540Y-81097208D01*
X171133776Y-81315590D01*
X171015235Y-81601067D01*
X171015132Y-81719236D01*
X170411073Y-82243000D01*
X169325962Y-82243000D01*
X169066885Y-82294534D01*
X168891957Y-82411417D01*
X168861692Y-82413369D01*
X168836454Y-82414200D01*
X168614821Y-82414200D01*
X168613591Y-82407663D01*
X168520073Y-82262333D01*
X168377381Y-82164836D01*
X168208000Y-82130535D01*
X167128000Y-82130535D01*
X167003593Y-82153944D01*
X166888000Y-82130535D01*
X165808000Y-82130535D01*
X165649763Y-82160309D01*
X165504433Y-82253827D01*
X165416173Y-82383000D01*
X165065513Y-82383000D01*
X164933115Y-82294534D01*
X164674038Y-82243000D01*
X163525962Y-82243000D01*
X163266885Y-82294534D01*
X163047251Y-82441289D01*
X162949140Y-82588122D01*
X162626493Y-82722160D01*
X162468933Y-82656735D01*
X162159823Y-82656466D01*
X161874140Y-82774508D01*
X161736553Y-82911855D01*
X161667588Y-82842770D01*
X161235147Y-82663205D01*
X160766907Y-82662796D01*
X160334154Y-82841606D01*
X160002770Y-83172412D01*
X159823205Y-83604853D01*
X159822796Y-84073093D01*
X159832048Y-84095485D01*
X159236555Y-83925968D01*
X159235997Y-83925923D01*
X159235498Y-83925668D01*
X159230912Y-83924370D01*
X159220222Y-83920210D01*
X159214882Y-83917532D01*
X159214880Y-83917531D01*
X159009857Y-83814694D01*
X159058237Y-83805591D01*
X159203567Y-83712073D01*
X159301064Y-83569381D01*
X159335365Y-83400000D01*
X159335365Y-82500000D01*
X159305591Y-82341763D01*
X159213130Y-82198076D01*
X159301064Y-82069381D01*
X159335365Y-81900000D01*
X159335365Y-81000000D01*
X159312221Y-80877000D01*
X175573000Y-80877000D01*
X175573000Y-81984285D01*
G36*
X145585500Y-81016564D02*
X145585500Y-81566250D01*
X145692250Y-81673000D01*
X146457000Y-81673000D01*
X146457000Y-81653000D01*
X146711000Y-81653000D01*
X146711000Y-81673000D01*
X147475750Y-81673000D01*
X147582500Y-81566250D01*
X147582500Y-81016564D01*
X147524690Y-80877000D01*
X147681097Y-80877000D01*
X147643436Y-80932119D01*
X147609135Y-81101500D01*
X147609135Y-82498500D01*
X147638909Y-82656737D01*
X147732427Y-82802067D01*
X147823999Y-82864635D01*
X147800000Y-82864635D01*
X147641763Y-82894409D01*
X147601075Y-82920591D01*
X147569381Y-82898936D01*
X147400000Y-82864635D01*
X147387376Y-82864635D01*
X147397376Y-82860493D01*
X147517493Y-82740376D01*
X147582500Y-82583436D01*
X147582500Y-82033750D01*
X147475750Y-81927000D01*
X146711000Y-81927000D01*
X146711000Y-82818750D01*
X146763713Y-82871463D01*
X146641763Y-82894409D01*
X146496433Y-82987927D01*
X146463519Y-83036098D01*
X146462265Y-83036357D01*
X146439065Y-83046157D01*
X146438745Y-83046374D01*
X146438365Y-83046453D01*
X144835365Y-83725703D01*
X144835365Y-82600000D01*
X144805591Y-82441763D01*
X144758400Y-82368427D01*
X144826165Y-82205233D01*
X144826314Y-82033750D01*
X145585500Y-82033750D01*
X145585500Y-82583436D01*
X145650507Y-82740376D01*
X145770624Y-82860493D01*
X145927565Y-82925500D01*
X146350250Y-82925500D01*
X146457000Y-82818750D01*
X146457000Y-81927000D01*
X145692250Y-81927000D01*
X145585500Y-82033750D01*
X144826314Y-82033750D01*
X144826434Y-81896123D01*
X144708392Y-81610440D01*
X144490010Y-81391676D01*
X144204533Y-81273135D01*
X143895423Y-81272866D01*
X143609740Y-81390908D01*
X143390976Y-81609290D01*
X143272435Y-81894767D01*
X143272200Y-82164635D01*
X141900000Y-82164635D01*
X141741763Y-82194409D01*
X141596433Y-82287927D01*
X141498936Y-82430619D01*
X141464635Y-82600000D01*
X141464635Y-82673000D01*
X140635365Y-82673000D01*
X140635365Y-82600000D01*
X140605591Y-82441763D01*
X140512073Y-82296433D01*
X140369381Y-82198936D01*
X140200000Y-82164635D01*
X137700000Y-82164635D01*
X137541763Y-82194409D01*
X137477000Y-82236083D01*
X137477000Y-80877000D01*
X145643310Y-80877000D01*
X145585500Y-81016564D01*
X145585500Y-81016564D01*
G37*
X145585500Y-81016564D02*
X145585500Y-81566250D01*
X145692250Y-81673000D01*
X146457000Y-81673000D01*
X146457000Y-81653000D01*
X146711000Y-81653000D01*
X146711000Y-81673000D01*
X147475750Y-81673000D01*
X147582500Y-81566250D01*
X147582500Y-81016564D01*
X147524690Y-80877000D01*
X147681097Y-80877000D01*
X147643436Y-80932119D01*
X147609135Y-81101500D01*
X147609135Y-82498500D01*
X147638909Y-82656737D01*
X147732427Y-82802067D01*
X147823999Y-82864635D01*
X147800000Y-82864635D01*
X147641763Y-82894409D01*
X147601075Y-82920591D01*
X147569381Y-82898936D01*
X147400000Y-82864635D01*
X147387376Y-82864635D01*
X147397376Y-82860493D01*
X147517493Y-82740376D01*
X147582500Y-82583436D01*
X147582500Y-82033750D01*
X147475750Y-81927000D01*
X146711000Y-81927000D01*
X146711000Y-82818750D01*
X146763713Y-82871463D01*
X146641763Y-82894409D01*
X146496433Y-82987927D01*
X146463519Y-83036098D01*
X146462265Y-83036357D01*
X146439065Y-83046157D01*
X146438745Y-83046374D01*
X146438365Y-83046453D01*
X144835365Y-83725703D01*
X144835365Y-82600000D01*
X144805591Y-82441763D01*
X144758400Y-82368427D01*
X144826165Y-82205233D01*
X144826314Y-82033750D01*
X145585500Y-82033750D01*
X145585500Y-82583436D01*
X145650507Y-82740376D01*
X145770624Y-82860493D01*
X145927565Y-82925500D01*
X146350250Y-82925500D01*
X146457000Y-82818750D01*
X146457000Y-81927000D01*
X145692250Y-81927000D01*
X145585500Y-82033750D01*
X144826314Y-82033750D01*
X144826434Y-81896123D01*
X144708392Y-81610440D01*
X144490010Y-81391676D01*
X144204533Y-81273135D01*
X143895423Y-81272866D01*
X143609740Y-81390908D01*
X143390976Y-81609290D01*
X143272435Y-81894767D01*
X143272200Y-82164635D01*
X141900000Y-82164635D01*
X141741763Y-82194409D01*
X141596433Y-82287927D01*
X141498936Y-82430619D01*
X141464635Y-82600000D01*
X141464635Y-82673000D01*
X140635365Y-82673000D01*
X140635365Y-82600000D01*
X140605591Y-82441763D01*
X140512073Y-82296433D01*
X140369381Y-82198936D01*
X140200000Y-82164635D01*
X137700000Y-82164635D01*
X137541763Y-82194409D01*
X137477000Y-82236083D01*
X137477000Y-80877000D01*
X145643310Y-80877000D01*
X145585500Y-81016564D01*
M02*
