G04 #@! TF.FileFunction,Soldermask,Bot*
%FSLAX46Y46*%
G04 Gerber Fmt 4.6, Leading zero omitted, Abs format (unit mm)*
G04 Created by KiCad (PCBNEW (after 2015-mar-04 BZR unknown)-product) date 16.05.2015 18:47:26*
%MOMM*%
G01*
G04 APERTURE LIST*
%ADD10C,0.100000*%
%ADD11R,1.089000X1.216000*%
%ADD12R,1.216000X1.089000*%
%ADD13R,1.114400X1.114400*%
%ADD14O,1.701140X0.708000*%
%ADD15R,1.701140X0.708000*%
%ADD16R,1.280000X1.200000*%
%ADD17R,1.200000X1.100000*%
%ADD18R,0.901040X0.598780*%
%ADD19C,1.700000*%
%ADD20R,1.700000X1.700000*%
%ADD21R,4.200000X2.200000*%
%ADD22R,1.100000X1.200000*%
G04 APERTURE END LIST*
D10*
D11*
X166762000Y-88600000D03*
X165238000Y-88600000D03*
D12*
X163200000Y-93438000D03*
X163200000Y-94962000D03*
X173600000Y-93438000D03*
X173600000Y-94962000D03*
D13*
X177889000Y-81984000D03*
X176111000Y-81984000D03*
X177000000Y-84016000D03*
X176111000Y-89016000D03*
X177889000Y-89016000D03*
X177000000Y-86984000D03*
D14*
X171394000Y-94905000D03*
D15*
X165806000Y-94905000D03*
D14*
X171394000Y-93635000D03*
X171394000Y-92365000D03*
X171394000Y-91095000D03*
X165806000Y-93635000D03*
X165806000Y-92365000D03*
X165806000Y-91095000D03*
X169194000Y-86905000D03*
D15*
X163606000Y-86905000D03*
D14*
X169194000Y-85635000D03*
X169194000Y-84365000D03*
X169194000Y-83095000D03*
X163606000Y-85635000D03*
X163606000Y-84365000D03*
X163606000Y-83095000D03*
D16*
X172460000Y-83600000D03*
X171140000Y-83600000D03*
X172460000Y-87200000D03*
X171140000Y-87200000D03*
D17*
X174200000Y-87250000D03*
X174200000Y-88750000D03*
D18*
X170700840Y-85798780D03*
X172499160Y-85798780D03*
X172499160Y-85001220D03*
X170700840Y-85001220D03*
D19*
X161000000Y-83840000D03*
D20*
X161000000Y-94000000D03*
D19*
X161000000Y-91460000D03*
X161000000Y-88920000D03*
X161000000Y-86380000D03*
D21*
X180660000Y-84590000D03*
X180660000Y-87130000D03*
X180660000Y-89670000D03*
X180660000Y-92210000D03*
D19*
X176600000Y-95200000D03*
D22*
X171050000Y-82000000D03*
X172550000Y-82000000D03*
X172550000Y-88800000D03*
X171050000Y-88800000D03*
D20*
X174400000Y-82800000D03*
D19*
X174400000Y-85340000D03*
M02*
