G04 #@! TF.FileFunction,Copper,L2,Bot,Signal*
%FSLAX46Y46*%
G04 Gerber Fmt 4.6, Leading zero omitted, Abs format (unit mm)*
G04 Created by KiCad (PCBNEW (after 2015-mar-04 BZR unknown)-product) date 16.05.2015 18:47:26*
%MOMM*%
G01*
G04 APERTURE LIST*
%ADD10C,0.100000*%
%ADD11R,0.889000X1.016000*%
%ADD12R,1.016000X0.889000*%
%ADD13R,0.914400X0.914400*%
%ADD14O,1.501140X0.508000*%
%ADD15R,1.501140X0.508000*%
%ADD16R,1.080000X1.000000*%
%ADD17R,1.000000X0.900000*%
%ADD18R,0.701040X0.398780*%
%ADD19C,1.500000*%
%ADD20R,1.500000X1.500000*%
%ADD21R,4.000000X2.000000*%
%ADD22R,0.900000X1.000000*%
%ADD23C,0.700000*%
%ADD24C,0.500000*%
%ADD25C,0.220000*%
%ADD26C,0.400000*%
G04 APERTURE END LIST*
D10*
D11*
X166762000Y-88600000D03*
X165238000Y-88600000D03*
D12*
X163200000Y-93438000D03*
X163200000Y-94962000D03*
X173600000Y-93438000D03*
X173600000Y-94962000D03*
D13*
X177889000Y-81984000D03*
X176111000Y-81984000D03*
X177000000Y-84016000D03*
X176111000Y-89016000D03*
X177889000Y-89016000D03*
X177000000Y-86984000D03*
D14*
X171394000Y-94905000D03*
D15*
X165806000Y-94905000D03*
D14*
X171394000Y-93635000D03*
X171394000Y-92365000D03*
X171394000Y-91095000D03*
X165806000Y-93635000D03*
X165806000Y-92365000D03*
X165806000Y-91095000D03*
X169194000Y-86905000D03*
D15*
X163606000Y-86905000D03*
D14*
X169194000Y-85635000D03*
X169194000Y-84365000D03*
X169194000Y-83095000D03*
X163606000Y-85635000D03*
X163606000Y-84365000D03*
X163606000Y-83095000D03*
D16*
X172460000Y-83600000D03*
X171140000Y-83600000D03*
X172460000Y-87200000D03*
X171140000Y-87200000D03*
D17*
X174200000Y-87250000D03*
X174200000Y-88750000D03*
D18*
X170700840Y-85798780D03*
X172499160Y-85798780D03*
X172499160Y-85001220D03*
X170700840Y-85001220D03*
D19*
X161000000Y-83840000D03*
D20*
X161000000Y-94000000D03*
D19*
X161000000Y-91460000D03*
X161000000Y-88920000D03*
X161000000Y-86380000D03*
D21*
X180660000Y-84590000D03*
X180660000Y-87130000D03*
X180660000Y-89670000D03*
X180660000Y-92210000D03*
D19*
X176600000Y-95200000D03*
D22*
X171050000Y-82000000D03*
X172550000Y-82000000D03*
X172550000Y-88800000D03*
X171050000Y-88800000D03*
D20*
X174400000Y-82800000D03*
D19*
X174400000Y-85340000D03*
D23*
X175585300Y-90345300D03*
X152954100Y-89837000D03*
X149935000Y-94011400D03*
X149762800Y-85583100D03*
X145824000Y-83036600D03*
X143443700Y-95224900D03*
X156749300Y-91778700D03*
X147514800Y-92272100D03*
X156077200Y-86123400D03*
X176132100Y-83011300D03*
X169741300Y-81989900D03*
X176577800Y-91439900D03*
X163068500Y-91110900D03*
X167008000Y-81896500D03*
X152567600Y-93271400D03*
X159149200Y-84110200D03*
X171096300Y-95949500D03*
X169200000Y-95800000D03*
X166800000Y-95800000D03*
X164308600Y-95949600D03*
X155600000Y-95800000D03*
X152800000Y-95800000D03*
X154717600Y-92497300D03*
X156000000Y-90000000D03*
X156154800Y-87948000D03*
X152269500Y-85143400D03*
X160000000Y-81200000D03*
X149942500Y-90338800D03*
X157180600Y-84093900D03*
X155427200Y-83900600D03*
X151631200Y-83964700D03*
X149018200Y-83042900D03*
X154363000Y-86082300D03*
X157234300Y-95949900D03*
X176838800Y-89975000D03*
X177860700Y-83011300D03*
X168054600Y-92473900D03*
X175041200Y-94182400D03*
X178090000Y-84312500D03*
X178090000Y-86657800D03*
X168554300Y-90439200D03*
X164994500Y-86183200D03*
X164338600Y-92884700D03*
X156934800Y-94299300D03*
X168570000Y-89087600D03*
X165112000Y-84844400D03*
X174558700Y-90234300D03*
X173413200Y-89692600D03*
X162296800Y-83396100D03*
X156718800Y-93422100D03*
X172913600Y-92218100D03*
X157113300Y-87298400D03*
X143973000Y-82029900D03*
X144970100Y-93486200D03*
X144019800Y-86320500D03*
X144030000Y-90678900D03*
X152856700Y-86260900D03*
X152486700Y-91848400D03*
X150551000Y-84404900D03*
X149081500Y-92376500D03*
D24*
X156154800Y-87948000D02*
X156077200Y-86123400D01*
X155600000Y-95800000D02*
X154717600Y-92497300D01*
X152800000Y-95800000D02*
X152567600Y-93271400D01*
X156749300Y-91778700D02*
X156000000Y-90000000D01*
X177451500Y-90674200D02*
X176577800Y-91439900D01*
X177768500Y-90175500D02*
X177768500Y-89975000D01*
X177602700Y-90541700D02*
X177768500Y-90175500D01*
X177451500Y-90674200D02*
X177602700Y-90541700D01*
X177768500Y-89473200D02*
X177768500Y-89975000D01*
X177768500Y-89223200D02*
X177768500Y-89473200D01*
X177889000Y-89016000D02*
X177768500Y-89223200D01*
X160500000Y-94500000D02*
X161000000Y-94000000D01*
X160250000Y-94500000D02*
X160500000Y-94500000D01*
X160213400Y-94502400D02*
X160201200Y-94504800D01*
X160237800Y-94500000D02*
X160213400Y-94502400D01*
X160250000Y-94500000D02*
X160237800Y-94500000D01*
X157098400Y-95122000D02*
X160201200Y-94504800D01*
X156976600Y-95146200D02*
X157098400Y-95122000D01*
X156728600Y-95121800D02*
X156976600Y-95146200D01*
X156499700Y-95027100D02*
X156728600Y-95121800D01*
X156306900Y-94869100D02*
X156499700Y-95027100D01*
X156238000Y-94766200D02*
X156306900Y-94869100D01*
X154717600Y-92497300D02*
X156238000Y-94766200D01*
X157541400Y-85816700D02*
X156077200Y-86123400D01*
X158658000Y-85070700D02*
X158747800Y-84895200D01*
X158404900Y-85373800D02*
X158658000Y-85070700D01*
X158093600Y-85611600D02*
X158404900Y-85373800D01*
X157734600Y-85776200D02*
X158093600Y-85611600D01*
X157541400Y-85816700D02*
X157734600Y-85776200D01*
X159149200Y-84110200D02*
X158747800Y-84895200D01*
X156077200Y-86123400D02*
X152954100Y-89837000D01*
X166462400Y-85076100D02*
X167008000Y-81896500D01*
X166452600Y-85133400D02*
X166462400Y-85076100D01*
X166423000Y-85246900D02*
X166452600Y-85133400D01*
X166403800Y-85301000D02*
X166423000Y-85246900D01*
X165446800Y-88008700D02*
X166403800Y-85301000D01*
X165432500Y-88070700D02*
X165432500Y-88092000D01*
X165439700Y-88028900D02*
X165432500Y-88070700D01*
X165446800Y-88008700D02*
X165439700Y-88028900D01*
X165432500Y-88342000D02*
X165432500Y-88092000D01*
X165238000Y-88600000D02*
X165432500Y-88342000D01*
X167405300Y-89574300D02*
X166436800Y-89987200D01*
X167715600Y-89255000D02*
X167713400Y-89100400D01*
X167547000Y-89514000D02*
X167715600Y-89255000D01*
X167405300Y-89574300D02*
X167547000Y-89514000D01*
X167713100Y-89100400D02*
X167713400Y-89100400D01*
X167710300Y-88910400D02*
X167713100Y-89100400D01*
X167866700Y-88562400D02*
X167710300Y-88910400D01*
X168154500Y-88314400D02*
X167866700Y-88562400D01*
X168521800Y-88211200D02*
X168154500Y-88314400D01*
X168709200Y-88242100D02*
X168521800Y-88211200D01*
X170559400Y-88546700D02*
X168709200Y-88242100D01*
X170589800Y-88550000D02*
X170600000Y-88550000D01*
X170569300Y-88548300D02*
X170589800Y-88550000D01*
X170559400Y-88546700D02*
X170569300Y-88548300D01*
X170850000Y-88550000D02*
X170600000Y-88550000D01*
X171050000Y-88800000D02*
X170850000Y-88550000D01*
X152567600Y-93271400D02*
X154717600Y-92497300D01*
X165432500Y-88858000D02*
X165238000Y-88600000D01*
X165432500Y-89108000D02*
X165432500Y-88858000D01*
X165485200Y-89272400D02*
X165532400Y-89307900D01*
X165432500Y-89167100D02*
X165485200Y-89272400D01*
X165432500Y-89108000D02*
X165432500Y-89167100D01*
X166436800Y-89987200D02*
X165532400Y-89307900D01*
X176577800Y-91439900D02*
X175585300Y-90345300D01*
X152954100Y-89837000D02*
X154717600Y-92497300D01*
X145625100Y-94146500D02*
X147514800Y-92272100D01*
X145804500Y-94674200D02*
X145625100Y-94146500D01*
X145672300Y-94766300D02*
X145804500Y-94674200D01*
X145600000Y-94800000D02*
X145672300Y-94766300D01*
X143443700Y-95224900D02*
X145600000Y-94800000D01*
X163068500Y-93243500D02*
X163200000Y-93438000D01*
X163068500Y-92993500D02*
X163068500Y-93243500D01*
X163068500Y-91110900D02*
X163068500Y-92993500D01*
X165309400Y-91095000D02*
X165806000Y-91095000D01*
X163068500Y-91110900D02*
X165309400Y-91095000D01*
X162942000Y-93632500D02*
X163200000Y-93438000D01*
X162692000Y-93632500D02*
X162942000Y-93632500D01*
X161750000Y-93632500D02*
X162692000Y-93632500D01*
X161500000Y-93632500D02*
X161750000Y-93632500D01*
X161000000Y-94000000D02*
X161500000Y-93632500D01*
X149762800Y-85583100D02*
X147514800Y-92272100D01*
X145824000Y-83036600D02*
X149762800Y-85583100D01*
X166302600Y-91095000D02*
X165806000Y-91095000D01*
X166436800Y-89987200D02*
X166302600Y-91095000D01*
X176132100Y-82441200D02*
X176132100Y-83011300D01*
X176132100Y-82191200D02*
X176132100Y-82441200D01*
X176111000Y-81984000D02*
X176132100Y-82191200D01*
X156749300Y-91778700D02*
X154717600Y-92497300D01*
X169690600Y-83095000D02*
X169741300Y-81989900D01*
X169194000Y-83095000D02*
X169690600Y-83095000D01*
X155427200Y-83900600D02*
X157180600Y-84093900D01*
X151186000Y-85990000D02*
X149942500Y-90338800D01*
X151218700Y-85854400D02*
X151225700Y-85808900D01*
X151198800Y-85945300D02*
X151218700Y-85854400D01*
X151186000Y-85990000D02*
X151198800Y-85945300D01*
X151350300Y-85001500D02*
X151225700Y-85808900D01*
X151355400Y-84968200D02*
X151350300Y-85001500D01*
X151371100Y-84900200D02*
X151355400Y-84968200D01*
X151381200Y-84867600D02*
X151371100Y-84900200D01*
X151439300Y-84680700D02*
X151381200Y-84867600D01*
X151439300Y-84680700D02*
X151449600Y-84644800D01*
X151631200Y-83964700D02*
X151449600Y-84644800D01*
X151026000Y-83605200D02*
X151631200Y-83964700D01*
X150850100Y-83521700D02*
X150786200Y-83505000D01*
X150970100Y-83572000D02*
X150850100Y-83521700D01*
X151026000Y-83605200D02*
X150970100Y-83572000D01*
X149018200Y-83042900D02*
X150786200Y-83505000D01*
X151631200Y-83964700D02*
X155427200Y-83900600D01*
X155591600Y-85330200D02*
X154363000Y-86082300D01*
X155674100Y-85279700D02*
X155591600Y-85330200D01*
X155855200Y-85215100D02*
X155674100Y-85279700D01*
X155950400Y-85202000D02*
X155855200Y-85215100D01*
X157307400Y-85015300D02*
X155950400Y-85202000D01*
X158014400Y-84525400D02*
X158056900Y-84405600D01*
X157866500Y-84734900D02*
X158014400Y-84525400D01*
X157668800Y-84895800D02*
X157866500Y-84734900D01*
X157433600Y-84998000D02*
X157668800Y-84895800D01*
X157307400Y-85015300D02*
X157433600Y-84998000D01*
X158272900Y-83798500D02*
X158056900Y-84405600D01*
X158321200Y-83662300D02*
X158272900Y-83798500D01*
X158496600Y-83431800D02*
X158321200Y-83662300D01*
X158615800Y-83348200D02*
X158496600Y-83431800D01*
X159984900Y-82389900D02*
X158615800Y-83348200D01*
X160142800Y-82279500D02*
X159984900Y-82389900D01*
X160494900Y-82132700D02*
X160142800Y-82279500D01*
X160684100Y-82098300D02*
X160494900Y-82132700D01*
X166842000Y-80981300D02*
X160684100Y-82098300D01*
X167045400Y-80944600D02*
X166842000Y-80981300D01*
X167444200Y-81049500D02*
X167045400Y-80944600D01*
X167602700Y-81181400D02*
X167444200Y-81049500D01*
X168107700Y-81601300D02*
X167602700Y-81181400D01*
X162942000Y-95156500D02*
X163200000Y-94962000D01*
X162692000Y-95156500D02*
X162942000Y-95156500D01*
X162656300Y-95158800D02*
X162644300Y-95161100D01*
X162680200Y-95156500D02*
X162656300Y-95158800D01*
X162692000Y-95156500D02*
X162680200Y-95156500D01*
X161859500Y-95313600D02*
X162644300Y-95161100D01*
X161828100Y-95318800D02*
X161859500Y-95313600D01*
X157234300Y-95949900D02*
X161828100Y-95318800D01*
X171175000Y-81500000D02*
X171175000Y-81029900D01*
X171175000Y-81750000D02*
X171175000Y-81500000D01*
X171050000Y-82000000D02*
X171175000Y-81750000D01*
X167011900Y-87935000D02*
X168000100Y-86710100D01*
X166956400Y-88049300D02*
X166956500Y-88092000D01*
X166985000Y-87968300D02*
X166956400Y-88049300D01*
X167011900Y-87935000D02*
X166985000Y-87968300D01*
X166956500Y-88342000D02*
X166956500Y-88092000D01*
X166762000Y-88600000D02*
X166956500Y-88342000D01*
X167870700Y-85745900D02*
X168000100Y-86710100D01*
X167867000Y-85717900D02*
X167870700Y-85745900D01*
X167863300Y-85662700D02*
X167867000Y-85717900D01*
X167863300Y-85635000D02*
X167863300Y-85662700D01*
X167863300Y-83095000D02*
X167863300Y-85635000D01*
X167863300Y-83059400D02*
X167863300Y-83095000D01*
X167869400Y-82988300D02*
X167863300Y-83059400D01*
X167875300Y-82953800D02*
X167869400Y-82988300D01*
X168107700Y-81601300D02*
X167875300Y-82953800D01*
X168697400Y-86905000D02*
X168000100Y-86710100D01*
X169194000Y-86905000D02*
X168697400Y-86905000D01*
X177860700Y-82191200D02*
X177889000Y-81984000D01*
X177860700Y-82441200D02*
X177860700Y-82191200D01*
X177860700Y-83011300D02*
X177860700Y-82441200D01*
X169419300Y-81117300D02*
X168107700Y-81601300D01*
X169469400Y-81098900D02*
X169419300Y-81117300D01*
X169573600Y-81073500D02*
X169469400Y-81098900D01*
X169626800Y-81066900D02*
X169573600Y-81073500D01*
X170532400Y-80954600D02*
X169626800Y-81066900D01*
X170549200Y-80952500D02*
X170532400Y-80954600D01*
X170582700Y-80950400D02*
X170549200Y-80952500D01*
X170600000Y-80950400D02*
X170582700Y-80950400D01*
X170850000Y-80950400D02*
X170600000Y-80950400D01*
X170894600Y-80950300D02*
X170850000Y-80950400D01*
X170983800Y-80965000D02*
X170894600Y-80950300D01*
X171026600Y-80979500D02*
X170983800Y-80965000D01*
X171175000Y-81029900D02*
X171026600Y-80979500D01*
X165305400Y-94909000D02*
X165806000Y-94905000D01*
X165055400Y-94909000D02*
X165305400Y-94909000D01*
X163708000Y-94909000D02*
X165055400Y-94909000D01*
X163458000Y-94909000D02*
X163708000Y-94909000D01*
X163200000Y-94962000D02*
X163458000Y-94909000D01*
X177681800Y-81776800D02*
X177889000Y-81984000D01*
X177681800Y-81526800D02*
X177681800Y-81776800D01*
X177597000Y-81324300D02*
X177526300Y-81295300D01*
X177681900Y-81450800D02*
X177597000Y-81324300D01*
X177681800Y-81526800D02*
X177681900Y-81450800D01*
X176785900Y-80993200D02*
X177526300Y-81295300D01*
X176624600Y-80950500D02*
X176568200Y-80950500D01*
X176734500Y-80972200D02*
X176624600Y-80950500D01*
X176785900Y-80993200D02*
X176734500Y-80972200D01*
X173777800Y-80950500D02*
X176568200Y-80950500D01*
X173777700Y-80950500D02*
X173777800Y-80950500D01*
X173000100Y-80950400D02*
X173777700Y-80950500D01*
X173000000Y-80950400D02*
X173000100Y-80950400D01*
X172100000Y-80950400D02*
X173000000Y-80950400D01*
X172099800Y-80950400D02*
X172100000Y-80950400D01*
X171800200Y-80950500D02*
X172099800Y-80950400D01*
X171799800Y-80950500D02*
X171800200Y-80950500D01*
X171500200Y-80950400D02*
X171799800Y-80950500D01*
X171365900Y-80965100D02*
X171323400Y-80979500D01*
X171455000Y-80950400D02*
X171365900Y-80965100D01*
X171500200Y-80950400D02*
X171455000Y-80950400D01*
X171175000Y-81029900D02*
X171323400Y-80979500D01*
X176422500Y-89676300D02*
X176838800Y-89975000D01*
X176373500Y-89641300D02*
X176422500Y-89676300D01*
X176318200Y-89533700D02*
X176373500Y-89641300D01*
X176318200Y-89473200D02*
X176318200Y-89533700D01*
X176318200Y-89223200D02*
X176318200Y-89473200D01*
X176111000Y-89016000D02*
X176318200Y-89223200D01*
X174249100Y-94723900D02*
X175041200Y-94182400D01*
X174218000Y-94745100D02*
X174249100Y-94723900D01*
X174145800Y-94767500D02*
X174218000Y-94745100D01*
X174108000Y-94767500D02*
X174145800Y-94767500D01*
X173858000Y-94767500D02*
X174108000Y-94767500D01*
X173600000Y-94962000D02*
X173858000Y-94767500D01*
X171890600Y-94905000D02*
X171394000Y-94905000D01*
X173092000Y-94905000D02*
X171890600Y-94905000D01*
X173342000Y-94905000D02*
X173092000Y-94905000D01*
X173600000Y-94962000D02*
X173342000Y-94905000D01*
X170897400Y-94905000D02*
X171394000Y-94905000D01*
X168054600Y-92473900D02*
X170897400Y-94905000D01*
D25*
X172505000Y-83210000D02*
X172460000Y-83600000D01*
X172505000Y-83100000D02*
X172505000Y-83210000D01*
X172505000Y-82500000D02*
X172505000Y-83100000D01*
X172505000Y-82390000D02*
X172505000Y-82500000D01*
X172550000Y-82000000D02*
X172505000Y-82390000D01*
X177347200Y-84312500D02*
X177000000Y-84016000D01*
X177457200Y-84312500D02*
X177347200Y-84312500D01*
X178090000Y-84312500D02*
X177457200Y-84312500D01*
X175040000Y-83440000D02*
X174400000Y-82800000D01*
X175150000Y-83440000D02*
X175040000Y-83440000D01*
X175161300Y-83440000D02*
X175150000Y-83440000D01*
X175183400Y-83444600D02*
X175161300Y-83440000D01*
X175193800Y-83449100D02*
X175183400Y-83444600D01*
X175823400Y-83722400D02*
X175193800Y-83449100D01*
X176375200Y-83771400D02*
X176537000Y-83672300D01*
X175996700Y-83797800D02*
X176375200Y-83771400D01*
X175823400Y-83722400D02*
X175996700Y-83797800D01*
X176542800Y-83668800D02*
X176537000Y-83672300D01*
X176652800Y-83668800D02*
X176542800Y-83668800D01*
X177000000Y-84016000D02*
X176652800Y-83668800D01*
X172479600Y-84911800D02*
X172499200Y-85001200D01*
X172479600Y-84801800D02*
X172479600Y-84911800D01*
X172479600Y-84100000D02*
X172479600Y-84801800D01*
X172479600Y-83990000D02*
X172479600Y-84100000D01*
X172460000Y-83600000D02*
X172479600Y-83990000D01*
X172890000Y-83210000D02*
X172460000Y-83600000D01*
X173000000Y-83210000D02*
X172890000Y-83210000D01*
X173650000Y-83210000D02*
X173000000Y-83210000D01*
X173760000Y-83210000D02*
X173650000Y-83210000D01*
X174400000Y-82800000D02*
X173760000Y-83210000D01*
X168554300Y-90439200D02*
X170020900Y-90939400D01*
X170440500Y-90572500D02*
X170020900Y-90939400D01*
X170456400Y-90558600D02*
X170440500Y-90572500D01*
X170489000Y-90533400D02*
X170456400Y-90558600D01*
X170506000Y-90521800D02*
X170489000Y-90533400D01*
X172162000Y-89390800D02*
X170506000Y-90521800D01*
X172210000Y-89327200D02*
X172210000Y-89300000D01*
X172184500Y-89375500D02*
X172210000Y-89327200D01*
X172162000Y-89390800D02*
X172184500Y-89375500D01*
X172210000Y-89190000D02*
X172210000Y-89300000D01*
X172550000Y-88800000D02*
X172210000Y-89190000D01*
X172505000Y-88410000D02*
X172550000Y-88800000D01*
X172505000Y-88300000D02*
X172505000Y-88410000D01*
X172505000Y-87700000D02*
X172505000Y-88300000D01*
X172505000Y-87590000D02*
X172505000Y-87700000D01*
X172460000Y-87200000D02*
X172505000Y-87590000D01*
X173810000Y-88775000D02*
X174200000Y-88750000D01*
X173700000Y-88775000D02*
X173810000Y-88775000D01*
X173000000Y-88775000D02*
X173700000Y-88775000D01*
X172890000Y-88775000D02*
X173000000Y-88775000D01*
X172550000Y-88800000D02*
X172890000Y-88775000D01*
X170897400Y-93635000D02*
X171394000Y-93635000D01*
X170378800Y-92633500D02*
X170897400Y-93635000D01*
X170359900Y-92597100D02*
X170378800Y-92633500D01*
X170332500Y-92519100D02*
X170359900Y-92597100D01*
X170324400Y-92478000D02*
X170332500Y-92519100D01*
X170020900Y-90939400D02*
X170324400Y-92478000D01*
X172479600Y-85888200D02*
X172499200Y-85798800D01*
X172479600Y-85998200D02*
X172479600Y-85888200D01*
X172479600Y-86700000D02*
X172479600Y-85998200D01*
X172479600Y-86810000D02*
X172479600Y-86700000D01*
X172460000Y-87200000D02*
X172479600Y-86810000D01*
X177347200Y-86657800D02*
X177000000Y-86984000D01*
X177457200Y-86657800D02*
X177347200Y-86657800D01*
X178090000Y-86657800D02*
X177457200Y-86657800D01*
X176652800Y-87331200D02*
X177000000Y-86984000D01*
X176542800Y-87331200D02*
X176652800Y-87331200D01*
X176515700Y-87334200D02*
X176507200Y-87337100D01*
X176533800Y-87331200D02*
X176515700Y-87334200D01*
X176542800Y-87331200D02*
X176533800Y-87331200D01*
X175369200Y-87726000D02*
X176507200Y-87337100D01*
X175189200Y-87808500D02*
X175136400Y-87846900D01*
X175306600Y-87747400D02*
X175189200Y-87808500D01*
X175369200Y-87726000D02*
X175306600Y-87747400D01*
X174635300Y-88211000D02*
X175136400Y-87846900D01*
X174590000Y-88273600D02*
X174590000Y-88300000D01*
X174613900Y-88226500D02*
X174590000Y-88273600D01*
X174635300Y-88211000D02*
X174613900Y-88226500D01*
X174590000Y-88410000D02*
X174590000Y-88300000D01*
X174200000Y-88750000D02*
X174590000Y-88410000D01*
D24*
X175435900Y-93340200D02*
X174606500Y-92951500D01*
X175576900Y-93406300D02*
X175435900Y-93340200D01*
X175800400Y-93623000D02*
X175576900Y-93406300D01*
X175870800Y-93761800D02*
X175800400Y-93623000D01*
X176600000Y-95200000D02*
X175870800Y-93761800D01*
X173858000Y-93243500D02*
X173600000Y-93438000D01*
X174108000Y-93243500D02*
X173858000Y-93243500D01*
X174219300Y-93220600D02*
X174250700Y-93198800D01*
X174146300Y-93243500D02*
X174219300Y-93220600D01*
X174108000Y-93243500D02*
X174146300Y-93243500D01*
X174606500Y-92951500D02*
X174250700Y-93198800D01*
X174606600Y-92951500D02*
X174606500Y-92951500D01*
X174542700Y-92734200D02*
X174494400Y-92675700D01*
X174600100Y-92875200D02*
X174542700Y-92734200D01*
X174606600Y-92951500D02*
X174600100Y-92875200D01*
X173631900Y-91627200D02*
X174494400Y-92675700D01*
X173237700Y-91330500D02*
X173073800Y-91301900D01*
X173525500Y-91498000D02*
X173237700Y-91330500D01*
X173631900Y-91627200D02*
X173525500Y-91498000D01*
X171890600Y-91095000D02*
X173073800Y-91301900D01*
X171394000Y-91095000D02*
X171890600Y-91095000D01*
D25*
X165309400Y-93635000D02*
X165806000Y-93635000D01*
X164338600Y-92884700D02*
X165309400Y-93635000D01*
X162965400Y-87049000D02*
X163606000Y-86905000D01*
X162965400Y-87159000D02*
X162965400Y-87049000D01*
X162965400Y-87170600D02*
X162965400Y-87159000D01*
X162960500Y-87193400D02*
X162965400Y-87170600D01*
X162955700Y-87204100D02*
X162960500Y-87193400D01*
X161985000Y-89362900D02*
X162955700Y-87204100D01*
X161977500Y-89379200D02*
X161985000Y-89362900D01*
X161000000Y-91460000D02*
X161977500Y-89379200D01*
X164246600Y-86761000D02*
X163606000Y-86905000D01*
X164356600Y-86761000D02*
X164246600Y-86761000D01*
X164418000Y-86744800D02*
X164433400Y-86729800D01*
X164378200Y-86761000D02*
X164418000Y-86744800D01*
X164356600Y-86761000D02*
X164378200Y-86761000D01*
X164994500Y-86183200D02*
X164433400Y-86729800D01*
X168304400Y-89637900D02*
X168570000Y-89087600D01*
X168261100Y-89727800D02*
X168304400Y-89637900D01*
X168144400Y-89893400D02*
X168261100Y-89727800D01*
X168073900Y-89964700D02*
X168144400Y-89893400D01*
X168073700Y-89964600D02*
X168073900Y-89964700D01*
X168024200Y-90019900D02*
X168009900Y-90039500D01*
X168056300Y-89982200D02*
X168024200Y-90019900D01*
X168073700Y-89964600D02*
X168056300Y-89982200D01*
X166302600Y-92365000D02*
X168009900Y-90039500D01*
X165806000Y-92365000D02*
X166302600Y-92365000D01*
X163109400Y-83095000D02*
X163606000Y-83095000D01*
X162943600Y-83606000D02*
X163109400Y-83095000D01*
X162915800Y-83691700D02*
X162943600Y-83606000D01*
X162816700Y-83843700D02*
X162915800Y-83691700D01*
X162748900Y-83904000D02*
X162816700Y-83843700D01*
X162721100Y-83928800D02*
X162748900Y-83904000D01*
X162556100Y-84155600D02*
X162537200Y-84248300D01*
X162650500Y-83991700D02*
X162556100Y-84155600D01*
X162721100Y-83928800D02*
X162650500Y-83991700D01*
X162058200Y-86595900D02*
X162537200Y-84248300D01*
X162045200Y-86659300D02*
X162058200Y-86595900D01*
X162004800Y-86781100D02*
X162045200Y-86659300D01*
X161977500Y-86839200D02*
X162004800Y-86781100D01*
X161000000Y-88920000D02*
X161977500Y-86839200D01*
X164102600Y-83095000D02*
X165112000Y-84844400D01*
X163606000Y-83095000D02*
X164102600Y-83095000D01*
X161000000Y-88920000D02*
X156934800Y-94299300D01*
X178770000Y-90560000D02*
X180660000Y-89670000D01*
X178660000Y-90560000D02*
X178770000Y-90560000D01*
X178598600Y-90576200D02*
X178583300Y-90591200D01*
X178638400Y-90560000D02*
X178598600Y-90576200D01*
X178660000Y-90560000D02*
X178638400Y-90560000D01*
X177128700Y-92006200D02*
X178583300Y-90591200D01*
X177013400Y-92118400D02*
X177128700Y-92006200D01*
X176713600Y-92234600D02*
X177013400Y-92118400D01*
X176392300Y-92224500D02*
X176713600Y-92234600D01*
X176100500Y-92089700D02*
X176392300Y-92224500D01*
X175992500Y-91970600D02*
X176100500Y-92089700D01*
X175000000Y-90876000D02*
X175992500Y-91970600D01*
X174980600Y-90854700D02*
X175000000Y-90876000D01*
X174945800Y-90810100D02*
X174980600Y-90854700D01*
X174929600Y-90786100D02*
X174945800Y-90810100D01*
X174558700Y-90234300D02*
X174929600Y-90786100D01*
X174474100Y-89559600D02*
X173413200Y-89692600D01*
X174477400Y-89559200D02*
X174474100Y-89559600D01*
X174739400Y-89527600D02*
X174477400Y-89559200D01*
X174995100Y-89379700D02*
X175020200Y-89279900D01*
X174841400Y-89515300D02*
X174995100Y-89379700D01*
X174739400Y-89527600D02*
X174841400Y-89515300D01*
X175226800Y-88452200D02*
X175020200Y-89279900D01*
X175262400Y-88309200D02*
X175226800Y-88452200D01*
X175492200Y-88123600D02*
X175262400Y-88309200D01*
X175639400Y-88118900D02*
X175492200Y-88123600D01*
X178656400Y-88020100D02*
X175639400Y-88118900D01*
X178660000Y-88020000D02*
X178656400Y-88020100D01*
X178770000Y-88020000D02*
X178660000Y-88020000D01*
X180660000Y-87130000D02*
X178770000Y-88020000D01*
X161977500Y-84299200D02*
X161000000Y-86380000D01*
X162010900Y-84221200D02*
X162020500Y-84193600D01*
X161989500Y-84273600D02*
X162010900Y-84221200D01*
X161977500Y-84299200D02*
X161989500Y-84273600D01*
X162296800Y-83396100D02*
X162020500Y-84193600D01*
X157435000Y-92171300D02*
X156718800Y-93422100D01*
X157469800Y-92103900D02*
X157479700Y-92080100D01*
X157447400Y-92149800D02*
X157469800Y-92103900D01*
X157435000Y-92171300D02*
X157447400Y-92149800D01*
X160001700Y-85968100D02*
X157479700Y-92080100D01*
X160022500Y-85920800D02*
X160001700Y-85968100D01*
X161000000Y-83840000D02*
X160022500Y-85920800D01*
X171890600Y-92365000D02*
X172913600Y-92218100D01*
X171394000Y-92365000D02*
X171890600Y-92365000D01*
X169690600Y-85635000D02*
X169194000Y-85635000D01*
X170337900Y-85708700D02*
X169690600Y-85635000D01*
X170347300Y-85709400D02*
X170350300Y-85709400D01*
X170341000Y-85709000D02*
X170347300Y-85709400D01*
X170337900Y-85708700D02*
X170341000Y-85709000D01*
X170460300Y-85709400D02*
X170350300Y-85709400D01*
X170700800Y-85798800D02*
X170460300Y-85709400D01*
X170920400Y-86810000D02*
X171140000Y-87200000D01*
X170920400Y-86700000D02*
X170920400Y-86810000D01*
X170920400Y-85998200D02*
X170920400Y-86700000D01*
X170920400Y-85888200D02*
X170920400Y-85998200D01*
X170700800Y-85798800D02*
X170920400Y-85888200D01*
X170460300Y-84911800D02*
X170700800Y-85001200D01*
X170350300Y-84911800D02*
X170460300Y-84911800D01*
X170330100Y-84911800D02*
X170350300Y-84911800D01*
X170292500Y-84897600D02*
X170330100Y-84911800D01*
X170277400Y-84884200D02*
X170292500Y-84897600D01*
X169690600Y-84365000D02*
X170277400Y-84884200D01*
X169194000Y-84365000D02*
X169690600Y-84365000D01*
X170920400Y-83990000D02*
X171140000Y-83600000D01*
X170920400Y-84100000D02*
X170920400Y-83990000D01*
X170920400Y-84801800D02*
X170920400Y-84100000D01*
X170920400Y-84911800D02*
X170920400Y-84801800D01*
X170700800Y-85001200D02*
X170920400Y-84911800D01*
X163606000Y-84365000D02*
X163606000Y-85635000D01*
X164102600Y-85635000D02*
X163606000Y-85635000D01*
X164896800Y-85518300D02*
X164102600Y-85635000D01*
X164936000Y-85512500D02*
X164896800Y-85518300D01*
X165014700Y-85510300D02*
X164936000Y-85512500D01*
X165053300Y-85513700D02*
X165014700Y-85510300D01*
X165053200Y-85513900D02*
X165053300Y-85513700D01*
X165781900Y-84644900D02*
X165678900Y-84483500D01*
X165786100Y-85029100D02*
X165781900Y-84644900D01*
X165586700Y-85357400D02*
X165786100Y-85029100D01*
X165243900Y-85530800D02*
X165586700Y-85357400D01*
X165053200Y-85513900D02*
X165243900Y-85530800D01*
X164595200Y-82781400D02*
X165678900Y-84483500D01*
X164252700Y-82511100D02*
X164102600Y-82511000D01*
X164514600Y-82655000D02*
X164252700Y-82511100D01*
X164595200Y-82781400D02*
X164514600Y-82655000D01*
X163109400Y-82511000D02*
X164102600Y-82511000D01*
X163058500Y-82513000D02*
X163041800Y-82514900D01*
X163092100Y-82511000D02*
X163058500Y-82513000D01*
X163109400Y-82511000D02*
X163092100Y-82511000D01*
X160875100Y-82767200D02*
X163041800Y-82514900D01*
X159901300Y-83762000D02*
X159928600Y-83976200D01*
X160016500Y-83344100D02*
X159901300Y-83762000D01*
X160282600Y-83004200D02*
X160016500Y-83344100D01*
X160660700Y-82792100D02*
X160282600Y-83004200D01*
X160875100Y-82767200D02*
X160660700Y-82792100D01*
X159933000Y-84010500D02*
X159928600Y-83976200D01*
X159950700Y-84149100D02*
X159933000Y-84010500D01*
X159888500Y-84422200D02*
X159950700Y-84149100D01*
X159812000Y-84540300D02*
X159888500Y-84422200D01*
X159236000Y-85427800D02*
X159812000Y-84540300D01*
X159131500Y-85588900D02*
X159236000Y-85427800D01*
X158870500Y-85878700D02*
X159131500Y-85588900D01*
X158720500Y-85999800D02*
X158870500Y-85878700D01*
X157113300Y-87298400D02*
X158720500Y-85999800D01*
D24*
X144019800Y-86320500D02*
X143973000Y-82029900D01*
X144970100Y-93486200D02*
X144030000Y-90678900D01*
X144030000Y-90678900D02*
X144019800Y-86320500D01*
D25*
X152174600Y-89966200D02*
X152486700Y-91848400D01*
X152163000Y-89896500D02*
X152174600Y-89966200D01*
X152165100Y-89754000D02*
X152163000Y-89896500D01*
X152179000Y-89683500D02*
X152165100Y-89754000D01*
X152856700Y-86260900D02*
X152179000Y-89683500D01*
X149152900Y-90311500D02*
X149081500Y-92376500D01*
X149154800Y-90258400D02*
X149152900Y-90311500D01*
X149172300Y-90154900D02*
X149154800Y-90258400D01*
X149187900Y-90104800D02*
X149172300Y-90154900D01*
X150517400Y-85817100D02*
X149187900Y-90104800D01*
X150553000Y-85641500D02*
X150552900Y-85581800D01*
X150535000Y-85760400D02*
X150553000Y-85641500D01*
X150517400Y-85817100D02*
X150535000Y-85760400D01*
X150551000Y-84404900D02*
X150552900Y-85581800D01*
X174400000Y-86800000D02*
X174400000Y-85340000D01*
X174400000Y-86910000D02*
X174400000Y-86800000D01*
X174200000Y-87250000D02*
X174400000Y-86910000D01*
D26*
G36*
X170179824Y-82522848D02*
X170151043Y-82495850D01*
X170025307Y-82417529D01*
X169886707Y-82365242D01*
X169740570Y-82341000D01*
X169244000Y-82341000D01*
X169244000Y-83045000D01*
X169264000Y-83045000D01*
X169264000Y-83145000D01*
X169244000Y-83145000D01*
X169244000Y-83165000D01*
X169144000Y-83165000D01*
X169144000Y-83145000D01*
X169124000Y-83145000D01*
X169124000Y-83045000D01*
X169144000Y-83045000D01*
X169144000Y-82341000D01*
X168660416Y-82341000D01*
X168702521Y-82095964D01*
X169650283Y-81746225D01*
X169650972Y-81745971D01*
X169651251Y-81745869D01*
X169664847Y-81740876D01*
X169694585Y-81733626D01*
X169709253Y-81731807D01*
X169709288Y-81731803D01*
X169709291Y-81731802D01*
X170177968Y-81673683D01*
X170177968Y-82500000D01*
X170179824Y-82522848D01*
X170179824Y-82522848D01*
G37*
X170179824Y-82522848D02*
X170151043Y-82495850D01*
X170025307Y-82417529D01*
X169886707Y-82365242D01*
X169740570Y-82341000D01*
X169244000Y-82341000D01*
X169244000Y-83045000D01*
X169264000Y-83045000D01*
X169264000Y-83145000D01*
X169244000Y-83145000D01*
X169244000Y-83165000D01*
X169144000Y-83165000D01*
X169144000Y-83145000D01*
X169124000Y-83145000D01*
X169124000Y-83045000D01*
X169144000Y-83045000D01*
X169144000Y-82341000D01*
X168660416Y-82341000D01*
X168702521Y-82095964D01*
X169650283Y-81746225D01*
X169650972Y-81745971D01*
X169651251Y-81745869D01*
X169664847Y-81740876D01*
X169694585Y-81733626D01*
X169709253Y-81731807D01*
X169709288Y-81731803D01*
X169709291Y-81731802D01*
X170177968Y-81673683D01*
X170177968Y-82500000D01*
X170179824Y-82522848D01*
G36*
X171120000Y-88850000D02*
X171100000Y-88850000D01*
X171100000Y-88870000D01*
X171000000Y-88870000D01*
X171000000Y-88850000D01*
X170225000Y-88850000D01*
X170100000Y-88975000D01*
X170100000Y-89250754D01*
X170100000Y-89349245D01*
X170119215Y-89445844D01*
X170156906Y-89536839D01*
X170211624Y-89618731D01*
X170281268Y-89688375D01*
X170363161Y-89743094D01*
X170454155Y-89780785D01*
X170550754Y-89800000D01*
X170623113Y-89800000D01*
X170207087Y-90084134D01*
X170207085Y-90084135D01*
X170190272Y-90095609D01*
X170181036Y-90103333D01*
X170170746Y-90109591D01*
X170164859Y-90114076D01*
X170132260Y-90139276D01*
X170123295Y-90147725D01*
X170113176Y-90154748D01*
X170107570Y-90159579D01*
X170091670Y-90173479D01*
X170091666Y-90173483D01*
X170091628Y-90173516D01*
X169902376Y-90338998D01*
X169254851Y-90118153D01*
X169237460Y-90075958D01*
X169153895Y-89950182D01*
X169047492Y-89843034D01*
X168935622Y-89767576D01*
X169046353Y-89697304D01*
X169155707Y-89593169D01*
X169242751Y-89469776D01*
X169304170Y-89331826D01*
X169337625Y-89184574D01*
X169340033Y-89012098D01*
X169310703Y-88863969D01*
X169253160Y-88724358D01*
X169169595Y-88598582D01*
X169063192Y-88491434D01*
X168938003Y-88406993D01*
X168798797Y-88348476D01*
X168650876Y-88318113D01*
X168499875Y-88317058D01*
X168351545Y-88345354D01*
X168211536Y-88401921D01*
X168085180Y-88484606D01*
X167977291Y-88590259D01*
X167891979Y-88714855D01*
X167832492Y-88853649D01*
X167801096Y-89001354D01*
X167798988Y-89152344D01*
X167826247Y-89300868D01*
X167849824Y-89360417D01*
X167827087Y-89407527D01*
X167827078Y-89407549D01*
X167826900Y-89407914D01*
X167802619Y-89458324D01*
X167736547Y-89552083D01*
X167703162Y-89585846D01*
X167702038Y-89586755D01*
X167696798Y-89591981D01*
X167679398Y-89609581D01*
X167669289Y-89622031D01*
X167657600Y-89633004D01*
X167652763Y-89638604D01*
X167620663Y-89676305D01*
X167611404Y-89689620D01*
X167600446Y-89701573D01*
X167596043Y-89707520D01*
X167582156Y-89726553D01*
X166906558Y-90646780D01*
X166871084Y-90597196D01*
X166763043Y-90495850D01*
X166637307Y-90417529D01*
X166498707Y-90365242D01*
X166352570Y-90341000D01*
X165856000Y-90341000D01*
X165856000Y-91045000D01*
X165876000Y-91045000D01*
X165876000Y-91145000D01*
X165856000Y-91145000D01*
X165856000Y-91165000D01*
X165756000Y-91165000D01*
X165756000Y-91145000D01*
X165756000Y-91045000D01*
X165756000Y-90341000D01*
X165259430Y-90341000D01*
X165188000Y-90352849D01*
X165188000Y-89483000D01*
X165188000Y-88650000D01*
X165188000Y-88550000D01*
X165188000Y-87717000D01*
X165063000Y-87592000D01*
X164744254Y-87592000D01*
X164647655Y-87611215D01*
X164556661Y-87648906D01*
X164474768Y-87703625D01*
X164405124Y-87773269D01*
X164350406Y-87855161D01*
X164312715Y-87946156D01*
X164293500Y-88042755D01*
X164293500Y-88141246D01*
X164293500Y-88425000D01*
X164418500Y-88550000D01*
X165188000Y-88550000D01*
X165188000Y-88650000D01*
X164418500Y-88650000D01*
X164293500Y-88775000D01*
X164293500Y-89058754D01*
X164293500Y-89157245D01*
X164312715Y-89253844D01*
X164350406Y-89344839D01*
X164405124Y-89426731D01*
X164474768Y-89496375D01*
X164556661Y-89551094D01*
X164647655Y-89588785D01*
X164744254Y-89608000D01*
X165063000Y-89608000D01*
X165188000Y-89483000D01*
X165188000Y-90352849D01*
X165113293Y-90365242D01*
X164974693Y-90417529D01*
X164848957Y-90495850D01*
X164740916Y-90597196D01*
X164654723Y-90717673D01*
X164593690Y-90852650D01*
X164574174Y-90927924D01*
X164682420Y-91045000D01*
X165756000Y-91045000D01*
X165756000Y-91145000D01*
X164682420Y-91145000D01*
X164574174Y-91262076D01*
X164593690Y-91337350D01*
X164654723Y-91472327D01*
X164740916Y-91592804D01*
X164848957Y-91694150D01*
X164974693Y-91772471D01*
X164983264Y-91775704D01*
X164930780Y-91803611D01*
X164828843Y-91886749D01*
X164744995Y-91988104D01*
X164682430Y-92103814D01*
X164657745Y-92183555D01*
X164567397Y-92145576D01*
X164419476Y-92115213D01*
X164268475Y-92114158D01*
X164120145Y-92142454D01*
X163980136Y-92199021D01*
X163853780Y-92281706D01*
X163745891Y-92387359D01*
X163673215Y-92493500D01*
X163658754Y-92493500D01*
X163375000Y-92493500D01*
X163250000Y-92618500D01*
X163250000Y-93388000D01*
X163270000Y-93388000D01*
X163270000Y-93488000D01*
X163250000Y-93488000D01*
X163250000Y-93508000D01*
X163150000Y-93508000D01*
X163150000Y-93488000D01*
X163130000Y-93488000D01*
X163130000Y-93388000D01*
X163150000Y-93388000D01*
X163150000Y-92618500D01*
X163025000Y-92493500D01*
X162741246Y-92493500D01*
X162642755Y-92493500D01*
X162546156Y-92512715D01*
X162455161Y-92550406D01*
X162373269Y-92605124D01*
X162303625Y-92674768D01*
X162248906Y-92756661D01*
X162211215Y-92847655D01*
X162192000Y-92944254D01*
X162192000Y-93011523D01*
X162138375Y-92931268D01*
X162068731Y-92861624D01*
X161986839Y-92806906D01*
X161895844Y-92769215D01*
X161799245Y-92750000D01*
X161700754Y-92750000D01*
X161175000Y-92750000D01*
X161050000Y-92875000D01*
X161050000Y-93950000D01*
X161070000Y-93950000D01*
X161070000Y-94050000D01*
X161050000Y-94050000D01*
X161050000Y-94070000D01*
X160950000Y-94070000D01*
X160950000Y-94050000D01*
X160950000Y-93950000D01*
X160950000Y-92875000D01*
X160825000Y-92750000D01*
X160299246Y-92750000D01*
X160200755Y-92750000D01*
X160104156Y-92769215D01*
X160013161Y-92806906D01*
X159931269Y-92861624D01*
X159861625Y-92931268D01*
X159806906Y-93013161D01*
X159769215Y-93104155D01*
X159750000Y-93200754D01*
X159750000Y-93825000D01*
X159875000Y-93950000D01*
X160950000Y-93950000D01*
X160950000Y-94050000D01*
X159875000Y-94050000D01*
X159750000Y-94175000D01*
X159750000Y-94799246D01*
X159769215Y-94895845D01*
X159780781Y-94923769D01*
X157519393Y-95234440D01*
X157463097Y-95210776D01*
X157315176Y-95180413D01*
X157164175Y-95179358D01*
X157015845Y-95207654D01*
X156875836Y-95264221D01*
X156749480Y-95346906D01*
X156641591Y-95452559D01*
X156556279Y-95577155D01*
X156496792Y-95715949D01*
X156465396Y-95863654D01*
X156463288Y-96014644D01*
X156484459Y-96130000D01*
X143200000Y-96130000D01*
X143200000Y-95000000D01*
X145600000Y-95000000D01*
X145600000Y-93929121D01*
X145642851Y-93868376D01*
X145704270Y-93730426D01*
X145737725Y-93583174D01*
X145740133Y-93410698D01*
X145710803Y-93262569D01*
X145653260Y-93122958D01*
X145600000Y-93042794D01*
X145600000Y-80870000D01*
X163701673Y-80870000D01*
X160564518Y-81439058D01*
X160564502Y-81439062D01*
X160564247Y-81439107D01*
X160375047Y-81473507D01*
X160373197Y-81474033D01*
X160371278Y-81474203D01*
X160310304Y-81491955D01*
X160249291Y-81509341D01*
X160247577Y-81510218D01*
X160245730Y-81510756D01*
X160237071Y-81514296D01*
X159884971Y-81661096D01*
X159883275Y-81662006D01*
X159881437Y-81662581D01*
X159825685Y-81692927D01*
X159769765Y-81722952D01*
X159768277Y-81724175D01*
X159766588Y-81725095D01*
X159758884Y-81730402D01*
X159600984Y-81840802D01*
X159600963Y-81840819D01*
X159600699Y-81841002D01*
X158231599Y-82799301D01*
X158231565Y-82799329D01*
X158231086Y-82799661D01*
X158111886Y-82883261D01*
X158086636Y-82904935D01*
X158059424Y-82924083D01*
X158037148Y-82947417D01*
X158012668Y-82968432D01*
X157992112Y-82994594D01*
X157969133Y-83018666D01*
X157963417Y-83026072D01*
X157788017Y-83256572D01*
X157770376Y-83285168D01*
X157750089Y-83311968D01*
X157736126Y-83340690D01*
X157719365Y-83367861D01*
X157707614Y-83399339D01*
X157692919Y-83429569D01*
X157689731Y-83438365D01*
X157669664Y-83494949D01*
X157548603Y-83413293D01*
X157409397Y-83354776D01*
X157261476Y-83324413D01*
X157110475Y-83323358D01*
X156962145Y-83351654D01*
X156876383Y-83386303D01*
X155878706Y-83276316D01*
X155795203Y-83219993D01*
X155655997Y-83161476D01*
X155508076Y-83131113D01*
X155357075Y-83130058D01*
X155208745Y-83158354D01*
X155068736Y-83214921D01*
X155034795Y-83237131D01*
X152005419Y-83288285D01*
X151999203Y-83284093D01*
X151859997Y-83225576D01*
X151712076Y-83195213D01*
X151646942Y-83194757D01*
X151368175Y-83029165D01*
X151368172Y-83029163D01*
X151368133Y-83029140D01*
X151312232Y-82995940D01*
X151274306Y-82978168D01*
X151237711Y-82957765D01*
X151229108Y-82954088D01*
X151109108Y-82903788D01*
X151068352Y-82891217D01*
X151028546Y-82875900D01*
X151019512Y-82873472D01*
X150955612Y-82856772D01*
X150955608Y-82856771D01*
X149555065Y-82490713D01*
X149511392Y-82446734D01*
X149386203Y-82362293D01*
X149246997Y-82303776D01*
X149099076Y-82273413D01*
X148948075Y-82272358D01*
X148799745Y-82300654D01*
X148659736Y-82357221D01*
X148533380Y-82439906D01*
X148425491Y-82545559D01*
X148340179Y-82670155D01*
X148280692Y-82808949D01*
X148249296Y-82956654D01*
X148247188Y-83107644D01*
X148274447Y-83256168D01*
X148330035Y-83396569D01*
X148411836Y-83523498D01*
X148516733Y-83632122D01*
X148640730Y-83718303D01*
X148779106Y-83778757D01*
X148926588Y-83811183D01*
X149077560Y-83814346D01*
X149222464Y-83788795D01*
X149915570Y-83969951D01*
X149872979Y-84032155D01*
X149813492Y-84170949D01*
X149782096Y-84318654D01*
X149779988Y-84469644D01*
X149807247Y-84618168D01*
X149862835Y-84758569D01*
X149944636Y-84885498D01*
X150021904Y-84965512D01*
X150022901Y-85582656D01*
X150022901Y-85582657D01*
X150022901Y-85582688D01*
X150022933Y-85602049D01*
X150016960Y-85641501D01*
X150011225Y-85659980D01*
X150011223Y-85659988D01*
X150011177Y-85660134D01*
X148681783Y-89947489D01*
X148666264Y-89997332D01*
X148659795Y-90028578D01*
X148651002Y-90059253D01*
X148649717Y-90066541D01*
X148632217Y-90170041D01*
X148630040Y-90201187D01*
X148625456Y-90232054D01*
X148625139Y-90239448D01*
X148623239Y-90292548D01*
X148623241Y-90292591D01*
X148623217Y-90293186D01*
X148571169Y-91798488D01*
X148488791Y-91879159D01*
X148403479Y-92003755D01*
X148343992Y-92142549D01*
X148312596Y-92290254D01*
X148310488Y-92441244D01*
X148337747Y-92589768D01*
X148393335Y-92730169D01*
X148475136Y-92857098D01*
X148580033Y-92965722D01*
X148704030Y-93051903D01*
X148842406Y-93112357D01*
X148989888Y-93144783D01*
X149140860Y-93147946D01*
X149289570Y-93121724D01*
X149430356Y-93067117D01*
X149557853Y-92986204D01*
X149667207Y-92882069D01*
X149754251Y-92758676D01*
X149815670Y-92620726D01*
X149849125Y-92473474D01*
X149851533Y-92300998D01*
X149822203Y-92152869D01*
X149764660Y-92013258D01*
X149681095Y-91887482D01*
X149630486Y-91836519D01*
X149657522Y-91054611D01*
X149703406Y-91074657D01*
X149850888Y-91107083D01*
X150001860Y-91110246D01*
X150150570Y-91084024D01*
X150291356Y-91029417D01*
X150418853Y-90948504D01*
X150528207Y-90844369D01*
X150615251Y-90720976D01*
X150676670Y-90583026D01*
X150710125Y-90435774D01*
X150712533Y-90263298D01*
X150691424Y-90156690D01*
X151830099Y-86174486D01*
X151830112Y-86174444D01*
X151830182Y-86174198D01*
X151842912Y-86129743D01*
X151845901Y-86113423D01*
X151851235Y-86097709D01*
X151853300Y-86088584D01*
X151873200Y-85997684D01*
X151875130Y-85981369D01*
X151879422Y-85965515D01*
X151880909Y-85956278D01*
X151887857Y-85911116D01*
X151887862Y-85911086D01*
X151887909Y-85910779D01*
X152012462Y-85103686D01*
X152012464Y-85103636D01*
X152012578Y-85102930D01*
X152013876Y-85094454D01*
X152018381Y-85074939D01*
X152020999Y-85066489D01*
X152021189Y-85065878D01*
X152021189Y-85065877D01*
X152079099Y-84879589D01*
X152079644Y-84876946D01*
X152080675Y-84874448D01*
X152083318Y-84865474D01*
X152093617Y-84829574D01*
X152093890Y-84828084D01*
X152094444Y-84826669D01*
X152096921Y-84817647D01*
X152148076Y-84626067D01*
X155052081Y-84577030D01*
X155188106Y-84636457D01*
X155335588Y-84668883D01*
X155403053Y-84670296D01*
X155390520Y-84676202D01*
X155332321Y-84703430D01*
X155330806Y-84704342D01*
X155330712Y-84704387D01*
X155330620Y-84704454D01*
X155324308Y-84708258D01*
X155241808Y-84758758D01*
X155241805Y-84758759D01*
X155241792Y-84758768D01*
X154337935Y-85312072D01*
X154292875Y-85311758D01*
X154144545Y-85340054D01*
X154004536Y-85396621D01*
X153878180Y-85479306D01*
X153770291Y-85584959D01*
X153684979Y-85709555D01*
X153625492Y-85848349D01*
X153594096Y-85996054D01*
X153593647Y-86028158D01*
X153539860Y-85897658D01*
X153456295Y-85771882D01*
X153349892Y-85664734D01*
X153224703Y-85580293D01*
X153085497Y-85521776D01*
X152937576Y-85491413D01*
X152786575Y-85490358D01*
X152638245Y-85518654D01*
X152498236Y-85575221D01*
X152371880Y-85657906D01*
X152263991Y-85763559D01*
X152178679Y-85888155D01*
X152119192Y-86026949D01*
X152087796Y-86174654D01*
X152085688Y-86325644D01*
X152112947Y-86474168D01*
X152168535Y-86614569D01*
X152228084Y-86706971D01*
X151659094Y-89580555D01*
X151659091Y-89580576D01*
X151659010Y-89580977D01*
X151645110Y-89651477D01*
X151640855Y-89695238D01*
X151635319Y-89738792D01*
X151635158Y-89746191D01*
X151633058Y-89888690D01*
X151636692Y-89932377D01*
X151639027Y-89976202D01*
X151640191Y-89983510D01*
X151651734Y-90052868D01*
X151651739Y-90052899D01*
X151872258Y-91382798D01*
X151808679Y-91475655D01*
X151749192Y-91614449D01*
X151717796Y-91762154D01*
X151715688Y-91913144D01*
X151742947Y-92061668D01*
X151798535Y-92202069D01*
X151880336Y-92328998D01*
X151985233Y-92437622D01*
X152109230Y-92523803D01*
X152247606Y-92584257D01*
X152395088Y-92616683D01*
X152546060Y-92619846D01*
X152694770Y-92593624D01*
X152835556Y-92539017D01*
X152963053Y-92458104D01*
X153072407Y-92353969D01*
X153159451Y-92230576D01*
X153220870Y-92092626D01*
X153254325Y-91945374D01*
X153256733Y-91772898D01*
X153227403Y-91624769D01*
X153169860Y-91485158D01*
X153086295Y-91359382D01*
X152979892Y-91252234D01*
X152918180Y-91210609D01*
X152697461Y-89879501D01*
X152697454Y-89879478D01*
X152697409Y-89879190D01*
X152693645Y-89856576D01*
X152694337Y-89809616D01*
X152698901Y-89786469D01*
X152698906Y-89786445D01*
X152698989Y-89786023D01*
X153268102Y-86911823D01*
X153333053Y-86870604D01*
X153442407Y-86766469D01*
X153529451Y-86643076D01*
X153590870Y-86505126D01*
X153624325Y-86357874D01*
X153624992Y-86310079D01*
X153674835Y-86435969D01*
X153756636Y-86562898D01*
X153861533Y-86671522D01*
X153985530Y-86757703D01*
X154123906Y-86818157D01*
X154271388Y-86850583D01*
X154422360Y-86853746D01*
X154571070Y-86827524D01*
X154711856Y-86772917D01*
X154839353Y-86692004D01*
X154948707Y-86587869D01*
X155035751Y-86464476D01*
X155040914Y-86452878D01*
X155941370Y-85901654D01*
X155941392Y-85901642D01*
X155941408Y-85901632D01*
X155964637Y-85887412D01*
X156015110Y-85869408D01*
X156041720Y-85865747D01*
X156041735Y-85865745D01*
X156041735Y-85865744D01*
X157398357Y-85679096D01*
X157398395Y-85679092D01*
X157398720Y-85679047D01*
X157524595Y-85661792D01*
X157545568Y-85656793D01*
X157567017Y-85654582D01*
X157609037Y-85641666D01*
X157651793Y-85631476D01*
X157671392Y-85622500D01*
X157692007Y-85616164D01*
X157700613Y-85612495D01*
X157935813Y-85510295D01*
X157954521Y-85499888D01*
X157974439Y-85492026D01*
X158011542Y-85468168D01*
X158050084Y-85446729D01*
X158066415Y-85432885D01*
X158084426Y-85421305D01*
X158091722Y-85415450D01*
X158289422Y-85254551D01*
X158304561Y-85239548D01*
X158321547Y-85226665D01*
X158350905Y-85193621D01*
X158382302Y-85162508D01*
X158394241Y-85144846D01*
X158408398Y-85128913D01*
X158413847Y-85121309D01*
X158561747Y-84911809D01*
X158572426Y-84893025D01*
X158585470Y-84875799D01*
X158604676Y-84836302D01*
X158626376Y-84798136D01*
X158633201Y-84777641D01*
X158642654Y-84758204D01*
X158645843Y-84749409D01*
X158688137Y-84630188D01*
X158688343Y-84629610D01*
X158688343Y-84629606D01*
X158904137Y-84023087D01*
X158904146Y-84023048D01*
X158904369Y-84022435D01*
X158917714Y-83984800D01*
X158966656Y-83920484D01*
X158999982Y-83897111D01*
X159000001Y-83897099D01*
X159000514Y-83896739D01*
X159389823Y-83624243D01*
X159381958Y-83669722D01*
X159373110Y-83718234D01*
X159373146Y-83720672D01*
X159372731Y-83723076D01*
X159373925Y-83772364D01*
X159374669Y-83821660D01*
X159375235Y-83826365D01*
X159375238Y-83826484D01*
X159375262Y-83826594D01*
X159375553Y-83829007D01*
X159402853Y-84043207D01*
X159402859Y-84043235D01*
X159402908Y-84043636D01*
X159407270Y-84077639D01*
X159407292Y-84077811D01*
X159407308Y-84077936D01*
X159413066Y-84123026D01*
X159392596Y-84212903D01*
X159367169Y-84252158D01*
X159367165Y-84252165D01*
X158791425Y-85139264D01*
X158791422Y-85139269D01*
X158791354Y-85139373D01*
X158709646Y-85265335D01*
X158504834Y-85492748D01*
X158387571Y-85587419D01*
X158387559Y-85587430D01*
X158387408Y-85587551D01*
X157216634Y-86533522D01*
X157194176Y-86528913D01*
X157043175Y-86527858D01*
X156894845Y-86556154D01*
X156754836Y-86612721D01*
X156628480Y-86695406D01*
X156520591Y-86801059D01*
X156435279Y-86925655D01*
X156375792Y-87064449D01*
X156344396Y-87212154D01*
X156342288Y-87363144D01*
X156369547Y-87511668D01*
X156425135Y-87652069D01*
X156506936Y-87778998D01*
X156611833Y-87887622D01*
X156735830Y-87973803D01*
X156874206Y-88034257D01*
X157021688Y-88066683D01*
X157172660Y-88069846D01*
X157321370Y-88043624D01*
X157462156Y-87989017D01*
X157589653Y-87908104D01*
X157699007Y-87803969D01*
X157786051Y-87680576D01*
X157847470Y-87542626D01*
X157880925Y-87395374D01*
X157881430Y-87359143D01*
X159053429Y-86412181D01*
X159053593Y-86412049D01*
X159053595Y-86412046D01*
X159203429Y-86291081D01*
X159230720Y-86264247D01*
X159259333Y-86238850D01*
X159264324Y-86233386D01*
X159365024Y-86121574D01*
X156989999Y-91877383D01*
X156986537Y-91885706D01*
X156979134Y-91900877D01*
X156975886Y-91906509D01*
X156975851Y-91906585D01*
X156975062Y-91907942D01*
X156537083Y-92672845D01*
X156500345Y-92679854D01*
X156360336Y-92736421D01*
X156233980Y-92819106D01*
X156126091Y-92924759D01*
X156040779Y-93049355D01*
X155981292Y-93188149D01*
X155949896Y-93335854D01*
X155947788Y-93486844D01*
X155975047Y-93635368D01*
X156030635Y-93775769D01*
X156112436Y-93902698D01*
X156217333Y-94011322D01*
X156219733Y-94012990D01*
X156197292Y-94065349D01*
X156165896Y-94213054D01*
X156163788Y-94364044D01*
X156191047Y-94512568D01*
X156246635Y-94652969D01*
X156328436Y-94779898D01*
X156433333Y-94888522D01*
X156557330Y-94974703D01*
X156695706Y-95035157D01*
X156843188Y-95067583D01*
X156994160Y-95070746D01*
X157142870Y-95044524D01*
X157283656Y-94989917D01*
X157411153Y-94909004D01*
X157520507Y-94804869D01*
X157607551Y-94681476D01*
X157668970Y-94543526D01*
X157702425Y-94396274D01*
X157704833Y-94223798D01*
X157694731Y-94172782D01*
X159831436Y-91345374D01*
X159828462Y-91558377D01*
X159869882Y-91784056D01*
X159954348Y-91997392D01*
X160078642Y-92190259D01*
X160238031Y-92355311D01*
X160426442Y-92486260D01*
X160636701Y-92578120D01*
X160860797Y-92627391D01*
X161090196Y-92632196D01*
X161316159Y-92592353D01*
X161530079Y-92509378D01*
X161723809Y-92386434D01*
X161889970Y-92228201D01*
X162022231Y-92040708D01*
X162115557Y-91831096D01*
X162166391Y-91607349D01*
X162170050Y-91345276D01*
X162125483Y-91120197D01*
X162038047Y-90908061D01*
X161924874Y-90737721D01*
X162457205Y-89604551D01*
X162457248Y-89604429D01*
X162458978Y-89600739D01*
X162466478Y-89584438D01*
X162466520Y-89584316D01*
X162468382Y-89580252D01*
X163367327Y-87581032D01*
X164356570Y-87581032D01*
X164424724Y-87575493D01*
X164537826Y-87540127D01*
X164636636Y-87474712D01*
X164713366Y-87384406D01*
X164761965Y-87276328D01*
X164778602Y-87159000D01*
X164778602Y-87132593D01*
X164782466Y-87129591D01*
X164787803Y-87124465D01*
X164803204Y-87109465D01*
X164803208Y-87109459D01*
X164803229Y-87109440D01*
X164964060Y-86952764D01*
X165053860Y-86954646D01*
X165202570Y-86928424D01*
X165343356Y-86873817D01*
X165470853Y-86792904D01*
X165580207Y-86688769D01*
X165667251Y-86565376D01*
X165728670Y-86427426D01*
X165762125Y-86280174D01*
X165764533Y-86107698D01*
X165735203Y-85959569D01*
X165706779Y-85890606D01*
X165825928Y-85830337D01*
X165859837Y-85808791D01*
X165894674Y-85788738D01*
X165903428Y-85781093D01*
X165913233Y-85774864D01*
X165942311Y-85747141D01*
X165972589Y-85720704D01*
X165979692Y-85711504D01*
X165988100Y-85703489D01*
X166011239Y-85670648D01*
X166035806Y-85638832D01*
X166039691Y-85632534D01*
X166239091Y-85304234D01*
X166256503Y-85268009D01*
X166275495Y-85232552D01*
X166278882Y-85221455D01*
X166283904Y-85211008D01*
X166293947Y-85172098D01*
X166305692Y-85133620D01*
X166306859Y-85122074D01*
X166309756Y-85110852D01*
X166312051Y-85070718D01*
X166316097Y-85030707D01*
X166316068Y-85023307D01*
X166311868Y-84639106D01*
X166307498Y-84599057D01*
X166304867Y-84558842D01*
X166301898Y-84547719D01*
X166300650Y-84536279D01*
X166288583Y-84497837D01*
X166278191Y-84458903D01*
X166273118Y-84448569D01*
X166269672Y-84437589D01*
X166250363Y-84402212D01*
X166232612Y-84366049D01*
X166228675Y-84359783D01*
X166125999Y-84198891D01*
X166125976Y-84198854D01*
X165042276Y-82496754D01*
X165042258Y-82496732D01*
X165042078Y-82496444D01*
X164961478Y-82370044D01*
X164945790Y-82350054D01*
X164932168Y-82328600D01*
X164913935Y-82309462D01*
X164897619Y-82288672D01*
X164878348Y-82272110D01*
X164860818Y-82253711D01*
X164839212Y-82238477D01*
X164819171Y-82221254D01*
X164797051Y-82208750D01*
X164776280Y-82194106D01*
X164769819Y-82190497D01*
X164561312Y-82075934D01*
X166960969Y-81640653D01*
X166961171Y-81640616D01*
X166961582Y-81640542D01*
X167018403Y-81630289D01*
X167129939Y-81659628D01*
X167174128Y-81696401D01*
X167174145Y-81696413D01*
X167174339Y-81696576D01*
X167381860Y-81869126D01*
X167214977Y-82840337D01*
X167214974Y-82840376D01*
X167214888Y-82840860D01*
X167208988Y-82875360D01*
X167207310Y-82898730D01*
X167202717Y-82921713D01*
X167201852Y-82931028D01*
X167195752Y-83002128D01*
X167196044Y-83026160D01*
X167193365Y-83050045D01*
X167193300Y-83059400D01*
X167193300Y-83095000D01*
X167193300Y-85635000D01*
X167193300Y-85662700D01*
X167195035Y-85680397D01*
X167194239Y-85698170D01*
X167194800Y-85707509D01*
X167198500Y-85762709D01*
X167201279Y-85779434D01*
X167201613Y-85796390D01*
X167202774Y-85805673D01*
X167206474Y-85833672D01*
X167206491Y-85833746D01*
X167206653Y-85835018D01*
X167297729Y-86513655D01*
X166490763Y-87513910D01*
X166490709Y-87513977D01*
X166463809Y-87547278D01*
X166439773Y-87583824D01*
X166413410Y-87618750D01*
X166403917Y-87638343D01*
X166391958Y-87656529D01*
X166386492Y-87669968D01*
X166317500Y-87669968D01*
X166249346Y-87675507D01*
X166136244Y-87710873D01*
X166059371Y-87761764D01*
X166001232Y-87703625D01*
X165919339Y-87648906D01*
X165828345Y-87611215D01*
X165731746Y-87592000D01*
X165413000Y-87592000D01*
X165288000Y-87717000D01*
X165288000Y-88550000D01*
X165308000Y-88550000D01*
X165308000Y-88650000D01*
X165288000Y-88650000D01*
X165288000Y-89483000D01*
X165413000Y-89608000D01*
X165731746Y-89608000D01*
X165828345Y-89588785D01*
X165919339Y-89551094D01*
X166001232Y-89496375D01*
X166060043Y-89437563D01*
X166092094Y-89464796D01*
X166200172Y-89513395D01*
X166317500Y-89530032D01*
X167206500Y-89530032D01*
X167274654Y-89524493D01*
X167387756Y-89489127D01*
X167486566Y-89423712D01*
X167563296Y-89333406D01*
X167611895Y-89225328D01*
X167628532Y-89108000D01*
X167628532Y-88237720D01*
X168244579Y-87474113D01*
X168436707Y-87527814D01*
X168551634Y-87564271D01*
X168682355Y-87578934D01*
X168691766Y-87579000D01*
X169696234Y-87579000D01*
X169827148Y-87566164D01*
X169953075Y-87528144D01*
X170069220Y-87466389D01*
X170171157Y-87383251D01*
X170177968Y-87375017D01*
X170177968Y-87700000D01*
X170183507Y-87768154D01*
X170218873Y-87881256D01*
X170255823Y-87937069D01*
X170211624Y-87981269D01*
X170156906Y-88063161D01*
X170119215Y-88154156D01*
X170100000Y-88250755D01*
X170100000Y-88349246D01*
X170100000Y-88625000D01*
X170225000Y-88750000D01*
X171000000Y-88750000D01*
X171000000Y-88730000D01*
X171100000Y-88730000D01*
X171100000Y-88750000D01*
X171120000Y-88750000D01*
X171120000Y-88850000D01*
X171120000Y-88850000D01*
G37*
X171120000Y-88850000D02*
X171100000Y-88850000D01*
X171100000Y-88870000D01*
X171000000Y-88870000D01*
X171000000Y-88850000D01*
X170225000Y-88850000D01*
X170100000Y-88975000D01*
X170100000Y-89250754D01*
X170100000Y-89349245D01*
X170119215Y-89445844D01*
X170156906Y-89536839D01*
X170211624Y-89618731D01*
X170281268Y-89688375D01*
X170363161Y-89743094D01*
X170454155Y-89780785D01*
X170550754Y-89800000D01*
X170623113Y-89800000D01*
X170207087Y-90084134D01*
X170207085Y-90084135D01*
X170190272Y-90095609D01*
X170181036Y-90103333D01*
X170170746Y-90109591D01*
X170164859Y-90114076D01*
X170132260Y-90139276D01*
X170123295Y-90147725D01*
X170113176Y-90154748D01*
X170107570Y-90159579D01*
X170091670Y-90173479D01*
X170091666Y-90173483D01*
X170091628Y-90173516D01*
X169902376Y-90338998D01*
X169254851Y-90118153D01*
X169237460Y-90075958D01*
X169153895Y-89950182D01*
X169047492Y-89843034D01*
X168935622Y-89767576D01*
X169046353Y-89697304D01*
X169155707Y-89593169D01*
X169242751Y-89469776D01*
X169304170Y-89331826D01*
X169337625Y-89184574D01*
X169340033Y-89012098D01*
X169310703Y-88863969D01*
X169253160Y-88724358D01*
X169169595Y-88598582D01*
X169063192Y-88491434D01*
X168938003Y-88406993D01*
X168798797Y-88348476D01*
X168650876Y-88318113D01*
X168499875Y-88317058D01*
X168351545Y-88345354D01*
X168211536Y-88401921D01*
X168085180Y-88484606D01*
X167977291Y-88590259D01*
X167891979Y-88714855D01*
X167832492Y-88853649D01*
X167801096Y-89001354D01*
X167798988Y-89152344D01*
X167826247Y-89300868D01*
X167849824Y-89360417D01*
X167827087Y-89407527D01*
X167827078Y-89407549D01*
X167826900Y-89407914D01*
X167802619Y-89458324D01*
X167736547Y-89552083D01*
X167703162Y-89585846D01*
X167702038Y-89586755D01*
X167696798Y-89591981D01*
X167679398Y-89609581D01*
X167669289Y-89622031D01*
X167657600Y-89633004D01*
X167652763Y-89638604D01*
X167620663Y-89676305D01*
X167611404Y-89689620D01*
X167600446Y-89701573D01*
X167596043Y-89707520D01*
X167582156Y-89726553D01*
X166906558Y-90646780D01*
X166871084Y-90597196D01*
X166763043Y-90495850D01*
X166637307Y-90417529D01*
X166498707Y-90365242D01*
X166352570Y-90341000D01*
X165856000Y-90341000D01*
X165856000Y-91045000D01*
X165876000Y-91045000D01*
X165876000Y-91145000D01*
X165856000Y-91145000D01*
X165856000Y-91165000D01*
X165756000Y-91165000D01*
X165756000Y-91145000D01*
X165756000Y-91045000D01*
X165756000Y-90341000D01*
X165259430Y-90341000D01*
X165188000Y-90352849D01*
X165188000Y-89483000D01*
X165188000Y-88650000D01*
X165188000Y-88550000D01*
X165188000Y-87717000D01*
X165063000Y-87592000D01*
X164744254Y-87592000D01*
X164647655Y-87611215D01*
X164556661Y-87648906D01*
X164474768Y-87703625D01*
X164405124Y-87773269D01*
X164350406Y-87855161D01*
X164312715Y-87946156D01*
X164293500Y-88042755D01*
X164293500Y-88141246D01*
X164293500Y-88425000D01*
X164418500Y-88550000D01*
X165188000Y-88550000D01*
X165188000Y-88650000D01*
X164418500Y-88650000D01*
X164293500Y-88775000D01*
X164293500Y-89058754D01*
X164293500Y-89157245D01*
X164312715Y-89253844D01*
X164350406Y-89344839D01*
X164405124Y-89426731D01*
X164474768Y-89496375D01*
X164556661Y-89551094D01*
X164647655Y-89588785D01*
X164744254Y-89608000D01*
X165063000Y-89608000D01*
X165188000Y-89483000D01*
X165188000Y-90352849D01*
X165113293Y-90365242D01*
X164974693Y-90417529D01*
X164848957Y-90495850D01*
X164740916Y-90597196D01*
X164654723Y-90717673D01*
X164593690Y-90852650D01*
X164574174Y-90927924D01*
X164682420Y-91045000D01*
X165756000Y-91045000D01*
X165756000Y-91145000D01*
X164682420Y-91145000D01*
X164574174Y-91262076D01*
X164593690Y-91337350D01*
X164654723Y-91472327D01*
X164740916Y-91592804D01*
X164848957Y-91694150D01*
X164974693Y-91772471D01*
X164983264Y-91775704D01*
X164930780Y-91803611D01*
X164828843Y-91886749D01*
X164744995Y-91988104D01*
X164682430Y-92103814D01*
X164657745Y-92183555D01*
X164567397Y-92145576D01*
X164419476Y-92115213D01*
X164268475Y-92114158D01*
X164120145Y-92142454D01*
X163980136Y-92199021D01*
X163853780Y-92281706D01*
X163745891Y-92387359D01*
X163673215Y-92493500D01*
X163658754Y-92493500D01*
X163375000Y-92493500D01*
X163250000Y-92618500D01*
X163250000Y-93388000D01*
X163270000Y-93388000D01*
X163270000Y-93488000D01*
X163250000Y-93488000D01*
X163250000Y-93508000D01*
X163150000Y-93508000D01*
X163150000Y-93488000D01*
X163130000Y-93488000D01*
X163130000Y-93388000D01*
X163150000Y-93388000D01*
X163150000Y-92618500D01*
X163025000Y-92493500D01*
X162741246Y-92493500D01*
X162642755Y-92493500D01*
X162546156Y-92512715D01*
X162455161Y-92550406D01*
X162373269Y-92605124D01*
X162303625Y-92674768D01*
X162248906Y-92756661D01*
X162211215Y-92847655D01*
X162192000Y-92944254D01*
X162192000Y-93011523D01*
X162138375Y-92931268D01*
X162068731Y-92861624D01*
X161986839Y-92806906D01*
X161895844Y-92769215D01*
X161799245Y-92750000D01*
X161700754Y-92750000D01*
X161175000Y-92750000D01*
X161050000Y-92875000D01*
X161050000Y-93950000D01*
X161070000Y-93950000D01*
X161070000Y-94050000D01*
X161050000Y-94050000D01*
X161050000Y-94070000D01*
X160950000Y-94070000D01*
X160950000Y-94050000D01*
X160950000Y-93950000D01*
X160950000Y-92875000D01*
X160825000Y-92750000D01*
X160299246Y-92750000D01*
X160200755Y-92750000D01*
X160104156Y-92769215D01*
X160013161Y-92806906D01*
X159931269Y-92861624D01*
X159861625Y-92931268D01*
X159806906Y-93013161D01*
X159769215Y-93104155D01*
X159750000Y-93200754D01*
X159750000Y-93825000D01*
X159875000Y-93950000D01*
X160950000Y-93950000D01*
X160950000Y-94050000D01*
X159875000Y-94050000D01*
X159750000Y-94175000D01*
X159750000Y-94799246D01*
X159769215Y-94895845D01*
X159780781Y-94923769D01*
X157519393Y-95234440D01*
X157463097Y-95210776D01*
X157315176Y-95180413D01*
X157164175Y-95179358D01*
X157015845Y-95207654D01*
X156875836Y-95264221D01*
X156749480Y-95346906D01*
X156641591Y-95452559D01*
X156556279Y-95577155D01*
X156496792Y-95715949D01*
X156465396Y-95863654D01*
X156463288Y-96014644D01*
X156484459Y-96130000D01*
X143200000Y-96130000D01*
X143200000Y-95000000D01*
X145600000Y-95000000D01*
X145600000Y-93929121D01*
X145642851Y-93868376D01*
X145704270Y-93730426D01*
X145737725Y-93583174D01*
X145740133Y-93410698D01*
X145710803Y-93262569D01*
X145653260Y-93122958D01*
X145600000Y-93042794D01*
X145600000Y-80870000D01*
X163701673Y-80870000D01*
X160564518Y-81439058D01*
X160564502Y-81439062D01*
X160564247Y-81439107D01*
X160375047Y-81473507D01*
X160373197Y-81474033D01*
X160371278Y-81474203D01*
X160310304Y-81491955D01*
X160249291Y-81509341D01*
X160247577Y-81510218D01*
X160245730Y-81510756D01*
X160237071Y-81514296D01*
X159884971Y-81661096D01*
X159883275Y-81662006D01*
X159881437Y-81662581D01*
X159825685Y-81692927D01*
X159769765Y-81722952D01*
X159768277Y-81724175D01*
X159766588Y-81725095D01*
X159758884Y-81730402D01*
X159600984Y-81840802D01*
X159600963Y-81840819D01*
X159600699Y-81841002D01*
X158231599Y-82799301D01*
X158231565Y-82799329D01*
X158231086Y-82799661D01*
X158111886Y-82883261D01*
X158086636Y-82904935D01*
X158059424Y-82924083D01*
X158037148Y-82947417D01*
X158012668Y-82968432D01*
X157992112Y-82994594D01*
X157969133Y-83018666D01*
X157963417Y-83026072D01*
X157788017Y-83256572D01*
X157770376Y-83285168D01*
X157750089Y-83311968D01*
X157736126Y-83340690D01*
X157719365Y-83367861D01*
X157707614Y-83399339D01*
X157692919Y-83429569D01*
X157689731Y-83438365D01*
X157669664Y-83494949D01*
X157548603Y-83413293D01*
X157409397Y-83354776D01*
X157261476Y-83324413D01*
X157110475Y-83323358D01*
X156962145Y-83351654D01*
X156876383Y-83386303D01*
X155878706Y-83276316D01*
X155795203Y-83219993D01*
X155655997Y-83161476D01*
X155508076Y-83131113D01*
X155357075Y-83130058D01*
X155208745Y-83158354D01*
X155068736Y-83214921D01*
X155034795Y-83237131D01*
X152005419Y-83288285D01*
X151999203Y-83284093D01*
X151859997Y-83225576D01*
X151712076Y-83195213D01*
X151646942Y-83194757D01*
X151368175Y-83029165D01*
X151368172Y-83029163D01*
X151368133Y-83029140D01*
X151312232Y-82995940D01*
X151274306Y-82978168D01*
X151237711Y-82957765D01*
X151229108Y-82954088D01*
X151109108Y-82903788D01*
X151068352Y-82891217D01*
X151028546Y-82875900D01*
X151019512Y-82873472D01*
X150955612Y-82856772D01*
X150955608Y-82856771D01*
X149555065Y-82490713D01*
X149511392Y-82446734D01*
X149386203Y-82362293D01*
X149246997Y-82303776D01*
X149099076Y-82273413D01*
X148948075Y-82272358D01*
X148799745Y-82300654D01*
X148659736Y-82357221D01*
X148533380Y-82439906D01*
X148425491Y-82545559D01*
X148340179Y-82670155D01*
X148280692Y-82808949D01*
X148249296Y-82956654D01*
X148247188Y-83107644D01*
X148274447Y-83256168D01*
X148330035Y-83396569D01*
X148411836Y-83523498D01*
X148516733Y-83632122D01*
X148640730Y-83718303D01*
X148779106Y-83778757D01*
X148926588Y-83811183D01*
X149077560Y-83814346D01*
X149222464Y-83788795D01*
X149915570Y-83969951D01*
X149872979Y-84032155D01*
X149813492Y-84170949D01*
X149782096Y-84318654D01*
X149779988Y-84469644D01*
X149807247Y-84618168D01*
X149862835Y-84758569D01*
X149944636Y-84885498D01*
X150021904Y-84965512D01*
X150022901Y-85582656D01*
X150022901Y-85582657D01*
X150022901Y-85582688D01*
X150022933Y-85602049D01*
X150016960Y-85641501D01*
X150011225Y-85659980D01*
X150011223Y-85659988D01*
X150011177Y-85660134D01*
X148681783Y-89947489D01*
X148666264Y-89997332D01*
X148659795Y-90028578D01*
X148651002Y-90059253D01*
X148649717Y-90066541D01*
X148632217Y-90170041D01*
X148630040Y-90201187D01*
X148625456Y-90232054D01*
X148625139Y-90239448D01*
X148623239Y-90292548D01*
X148623241Y-90292591D01*
X148623217Y-90293186D01*
X148571169Y-91798488D01*
X148488791Y-91879159D01*
X148403479Y-92003755D01*
X148343992Y-92142549D01*
X148312596Y-92290254D01*
X148310488Y-92441244D01*
X148337747Y-92589768D01*
X148393335Y-92730169D01*
X148475136Y-92857098D01*
X148580033Y-92965722D01*
X148704030Y-93051903D01*
X148842406Y-93112357D01*
X148989888Y-93144783D01*
X149140860Y-93147946D01*
X149289570Y-93121724D01*
X149430356Y-93067117D01*
X149557853Y-92986204D01*
X149667207Y-92882069D01*
X149754251Y-92758676D01*
X149815670Y-92620726D01*
X149849125Y-92473474D01*
X149851533Y-92300998D01*
X149822203Y-92152869D01*
X149764660Y-92013258D01*
X149681095Y-91887482D01*
X149630486Y-91836519D01*
X149657522Y-91054611D01*
X149703406Y-91074657D01*
X149850888Y-91107083D01*
X150001860Y-91110246D01*
X150150570Y-91084024D01*
X150291356Y-91029417D01*
X150418853Y-90948504D01*
X150528207Y-90844369D01*
X150615251Y-90720976D01*
X150676670Y-90583026D01*
X150710125Y-90435774D01*
X150712533Y-90263298D01*
X150691424Y-90156690D01*
X151830099Y-86174486D01*
X151830112Y-86174444D01*
X151830182Y-86174198D01*
X151842912Y-86129743D01*
X151845901Y-86113423D01*
X151851235Y-86097709D01*
X151853300Y-86088584D01*
X151873200Y-85997684D01*
X151875130Y-85981369D01*
X151879422Y-85965515D01*
X151880909Y-85956278D01*
X151887857Y-85911116D01*
X151887862Y-85911086D01*
X151887909Y-85910779D01*
X152012462Y-85103686D01*
X152012464Y-85103636D01*
X152012578Y-85102930D01*
X152013876Y-85094454D01*
X152018381Y-85074939D01*
X152020999Y-85066489D01*
X152021189Y-85065878D01*
X152021189Y-85065877D01*
X152079099Y-84879589D01*
X152079644Y-84876946D01*
X152080675Y-84874448D01*
X152083318Y-84865474D01*
X152093617Y-84829574D01*
X152093890Y-84828084D01*
X152094444Y-84826669D01*
X152096921Y-84817647D01*
X152148076Y-84626067D01*
X155052081Y-84577030D01*
X155188106Y-84636457D01*
X155335588Y-84668883D01*
X155403053Y-84670296D01*
X155390520Y-84676202D01*
X155332321Y-84703430D01*
X155330806Y-84704342D01*
X155330712Y-84704387D01*
X155330620Y-84704454D01*
X155324308Y-84708258D01*
X155241808Y-84758758D01*
X155241805Y-84758759D01*
X155241792Y-84758768D01*
X154337935Y-85312072D01*
X154292875Y-85311758D01*
X154144545Y-85340054D01*
X154004536Y-85396621D01*
X153878180Y-85479306D01*
X153770291Y-85584959D01*
X153684979Y-85709555D01*
X153625492Y-85848349D01*
X153594096Y-85996054D01*
X153593647Y-86028158D01*
X153539860Y-85897658D01*
X153456295Y-85771882D01*
X153349892Y-85664734D01*
X153224703Y-85580293D01*
X153085497Y-85521776D01*
X152937576Y-85491413D01*
X152786575Y-85490358D01*
X152638245Y-85518654D01*
X152498236Y-85575221D01*
X152371880Y-85657906D01*
X152263991Y-85763559D01*
X152178679Y-85888155D01*
X152119192Y-86026949D01*
X152087796Y-86174654D01*
X152085688Y-86325644D01*
X152112947Y-86474168D01*
X152168535Y-86614569D01*
X152228084Y-86706971D01*
X151659094Y-89580555D01*
X151659091Y-89580576D01*
X151659010Y-89580977D01*
X151645110Y-89651477D01*
X151640855Y-89695238D01*
X151635319Y-89738792D01*
X151635158Y-89746191D01*
X151633058Y-89888690D01*
X151636692Y-89932377D01*
X151639027Y-89976202D01*
X151640191Y-89983510D01*
X151651734Y-90052868D01*
X151651739Y-90052899D01*
X151872258Y-91382798D01*
X151808679Y-91475655D01*
X151749192Y-91614449D01*
X151717796Y-91762154D01*
X151715688Y-91913144D01*
X151742947Y-92061668D01*
X151798535Y-92202069D01*
X151880336Y-92328998D01*
X151985233Y-92437622D01*
X152109230Y-92523803D01*
X152247606Y-92584257D01*
X152395088Y-92616683D01*
X152546060Y-92619846D01*
X152694770Y-92593624D01*
X152835556Y-92539017D01*
X152963053Y-92458104D01*
X153072407Y-92353969D01*
X153159451Y-92230576D01*
X153220870Y-92092626D01*
X153254325Y-91945374D01*
X153256733Y-91772898D01*
X153227403Y-91624769D01*
X153169860Y-91485158D01*
X153086295Y-91359382D01*
X152979892Y-91252234D01*
X152918180Y-91210609D01*
X152697461Y-89879501D01*
X152697454Y-89879478D01*
X152697409Y-89879190D01*
X152693645Y-89856576D01*
X152694337Y-89809616D01*
X152698901Y-89786469D01*
X152698906Y-89786445D01*
X152698989Y-89786023D01*
X153268102Y-86911823D01*
X153333053Y-86870604D01*
X153442407Y-86766469D01*
X153529451Y-86643076D01*
X153590870Y-86505126D01*
X153624325Y-86357874D01*
X153624992Y-86310079D01*
X153674835Y-86435969D01*
X153756636Y-86562898D01*
X153861533Y-86671522D01*
X153985530Y-86757703D01*
X154123906Y-86818157D01*
X154271388Y-86850583D01*
X154422360Y-86853746D01*
X154571070Y-86827524D01*
X154711856Y-86772917D01*
X154839353Y-86692004D01*
X154948707Y-86587869D01*
X155035751Y-86464476D01*
X155040914Y-86452878D01*
X155941370Y-85901654D01*
X155941392Y-85901642D01*
X155941408Y-85901632D01*
X155964637Y-85887412D01*
X156015110Y-85869408D01*
X156041720Y-85865747D01*
X156041735Y-85865745D01*
X156041735Y-85865744D01*
X157398357Y-85679096D01*
X157398395Y-85679092D01*
X157398720Y-85679047D01*
X157524595Y-85661792D01*
X157545568Y-85656793D01*
X157567017Y-85654582D01*
X157609037Y-85641666D01*
X157651793Y-85631476D01*
X157671392Y-85622500D01*
X157692007Y-85616164D01*
X157700613Y-85612495D01*
X157935813Y-85510295D01*
X157954521Y-85499888D01*
X157974439Y-85492026D01*
X158011542Y-85468168D01*
X158050084Y-85446729D01*
X158066415Y-85432885D01*
X158084426Y-85421305D01*
X158091722Y-85415450D01*
X158289422Y-85254551D01*
X158304561Y-85239548D01*
X158321547Y-85226665D01*
X158350905Y-85193621D01*
X158382302Y-85162508D01*
X158394241Y-85144846D01*
X158408398Y-85128913D01*
X158413847Y-85121309D01*
X158561747Y-84911809D01*
X158572426Y-84893025D01*
X158585470Y-84875799D01*
X158604676Y-84836302D01*
X158626376Y-84798136D01*
X158633201Y-84777641D01*
X158642654Y-84758204D01*
X158645843Y-84749409D01*
X158688137Y-84630188D01*
X158688343Y-84629610D01*
X158688343Y-84629606D01*
X158904137Y-84023087D01*
X158904146Y-84023048D01*
X158904369Y-84022435D01*
X158917714Y-83984800D01*
X158966656Y-83920484D01*
X158999982Y-83897111D01*
X159000001Y-83897099D01*
X159000514Y-83896739D01*
X159389823Y-83624243D01*
X159381958Y-83669722D01*
X159373110Y-83718234D01*
X159373146Y-83720672D01*
X159372731Y-83723076D01*
X159373925Y-83772364D01*
X159374669Y-83821660D01*
X159375235Y-83826365D01*
X159375238Y-83826484D01*
X159375262Y-83826594D01*
X159375553Y-83829007D01*
X159402853Y-84043207D01*
X159402859Y-84043235D01*
X159402908Y-84043636D01*
X159407270Y-84077639D01*
X159407292Y-84077811D01*
X159407308Y-84077936D01*
X159413066Y-84123026D01*
X159392596Y-84212903D01*
X159367169Y-84252158D01*
X159367165Y-84252165D01*
X158791425Y-85139264D01*
X158791422Y-85139269D01*
X158791354Y-85139373D01*
X158709646Y-85265335D01*
X158504834Y-85492748D01*
X158387571Y-85587419D01*
X158387559Y-85587430D01*
X158387408Y-85587551D01*
X157216634Y-86533522D01*
X157194176Y-86528913D01*
X157043175Y-86527858D01*
X156894845Y-86556154D01*
X156754836Y-86612721D01*
X156628480Y-86695406D01*
X156520591Y-86801059D01*
X156435279Y-86925655D01*
X156375792Y-87064449D01*
X156344396Y-87212154D01*
X156342288Y-87363144D01*
X156369547Y-87511668D01*
X156425135Y-87652069D01*
X156506936Y-87778998D01*
X156611833Y-87887622D01*
X156735830Y-87973803D01*
X156874206Y-88034257D01*
X157021688Y-88066683D01*
X157172660Y-88069846D01*
X157321370Y-88043624D01*
X157462156Y-87989017D01*
X157589653Y-87908104D01*
X157699007Y-87803969D01*
X157786051Y-87680576D01*
X157847470Y-87542626D01*
X157880925Y-87395374D01*
X157881430Y-87359143D01*
X159053429Y-86412181D01*
X159053593Y-86412049D01*
X159053595Y-86412046D01*
X159203429Y-86291081D01*
X159230720Y-86264247D01*
X159259333Y-86238850D01*
X159264324Y-86233386D01*
X159365024Y-86121574D01*
X156989999Y-91877383D01*
X156986537Y-91885706D01*
X156979134Y-91900877D01*
X156975886Y-91906509D01*
X156975851Y-91906585D01*
X156975062Y-91907942D01*
X156537083Y-92672845D01*
X156500345Y-92679854D01*
X156360336Y-92736421D01*
X156233980Y-92819106D01*
X156126091Y-92924759D01*
X156040779Y-93049355D01*
X155981292Y-93188149D01*
X155949896Y-93335854D01*
X155947788Y-93486844D01*
X155975047Y-93635368D01*
X156030635Y-93775769D01*
X156112436Y-93902698D01*
X156217333Y-94011322D01*
X156219733Y-94012990D01*
X156197292Y-94065349D01*
X156165896Y-94213054D01*
X156163788Y-94364044D01*
X156191047Y-94512568D01*
X156246635Y-94652969D01*
X156328436Y-94779898D01*
X156433333Y-94888522D01*
X156557330Y-94974703D01*
X156695706Y-95035157D01*
X156843188Y-95067583D01*
X156994160Y-95070746D01*
X157142870Y-95044524D01*
X157283656Y-94989917D01*
X157411153Y-94909004D01*
X157520507Y-94804869D01*
X157607551Y-94681476D01*
X157668970Y-94543526D01*
X157702425Y-94396274D01*
X157704833Y-94223798D01*
X157694731Y-94172782D01*
X159831436Y-91345374D01*
X159828462Y-91558377D01*
X159869882Y-91784056D01*
X159954348Y-91997392D01*
X160078642Y-92190259D01*
X160238031Y-92355311D01*
X160426442Y-92486260D01*
X160636701Y-92578120D01*
X160860797Y-92627391D01*
X161090196Y-92632196D01*
X161316159Y-92592353D01*
X161530079Y-92509378D01*
X161723809Y-92386434D01*
X161889970Y-92228201D01*
X162022231Y-92040708D01*
X162115557Y-91831096D01*
X162166391Y-91607349D01*
X162170050Y-91345276D01*
X162125483Y-91120197D01*
X162038047Y-90908061D01*
X161924874Y-90737721D01*
X162457205Y-89604551D01*
X162457248Y-89604429D01*
X162458978Y-89600739D01*
X162466478Y-89584438D01*
X162466520Y-89584316D01*
X162468382Y-89580252D01*
X163367327Y-87581032D01*
X164356570Y-87581032D01*
X164424724Y-87575493D01*
X164537826Y-87540127D01*
X164636636Y-87474712D01*
X164713366Y-87384406D01*
X164761965Y-87276328D01*
X164778602Y-87159000D01*
X164778602Y-87132593D01*
X164782466Y-87129591D01*
X164787803Y-87124465D01*
X164803204Y-87109465D01*
X164803208Y-87109459D01*
X164803229Y-87109440D01*
X164964060Y-86952764D01*
X165053860Y-86954646D01*
X165202570Y-86928424D01*
X165343356Y-86873817D01*
X165470853Y-86792904D01*
X165580207Y-86688769D01*
X165667251Y-86565376D01*
X165728670Y-86427426D01*
X165762125Y-86280174D01*
X165764533Y-86107698D01*
X165735203Y-85959569D01*
X165706779Y-85890606D01*
X165825928Y-85830337D01*
X165859837Y-85808791D01*
X165894674Y-85788738D01*
X165903428Y-85781093D01*
X165913233Y-85774864D01*
X165942311Y-85747141D01*
X165972589Y-85720704D01*
X165979692Y-85711504D01*
X165988100Y-85703489D01*
X166011239Y-85670648D01*
X166035806Y-85638832D01*
X166039691Y-85632534D01*
X166239091Y-85304234D01*
X166256503Y-85268009D01*
X166275495Y-85232552D01*
X166278882Y-85221455D01*
X166283904Y-85211008D01*
X166293947Y-85172098D01*
X166305692Y-85133620D01*
X166306859Y-85122074D01*
X166309756Y-85110852D01*
X166312051Y-85070718D01*
X166316097Y-85030707D01*
X166316068Y-85023307D01*
X166311868Y-84639106D01*
X166307498Y-84599057D01*
X166304867Y-84558842D01*
X166301898Y-84547719D01*
X166300650Y-84536279D01*
X166288583Y-84497837D01*
X166278191Y-84458903D01*
X166273118Y-84448569D01*
X166269672Y-84437589D01*
X166250363Y-84402212D01*
X166232612Y-84366049D01*
X166228675Y-84359783D01*
X166125999Y-84198891D01*
X166125976Y-84198854D01*
X165042276Y-82496754D01*
X165042258Y-82496732D01*
X165042078Y-82496444D01*
X164961478Y-82370044D01*
X164945790Y-82350054D01*
X164932168Y-82328600D01*
X164913935Y-82309462D01*
X164897619Y-82288672D01*
X164878348Y-82272110D01*
X164860818Y-82253711D01*
X164839212Y-82238477D01*
X164819171Y-82221254D01*
X164797051Y-82208750D01*
X164776280Y-82194106D01*
X164769819Y-82190497D01*
X164561312Y-82075934D01*
X166960969Y-81640653D01*
X166961171Y-81640616D01*
X166961582Y-81640542D01*
X167018403Y-81630289D01*
X167129939Y-81659628D01*
X167174128Y-81696401D01*
X167174145Y-81696413D01*
X167174339Y-81696576D01*
X167381860Y-81869126D01*
X167214977Y-82840337D01*
X167214974Y-82840376D01*
X167214888Y-82840860D01*
X167208988Y-82875360D01*
X167207310Y-82898730D01*
X167202717Y-82921713D01*
X167201852Y-82931028D01*
X167195752Y-83002128D01*
X167196044Y-83026160D01*
X167193365Y-83050045D01*
X167193300Y-83059400D01*
X167193300Y-83095000D01*
X167193300Y-85635000D01*
X167193300Y-85662700D01*
X167195035Y-85680397D01*
X167194239Y-85698170D01*
X167194800Y-85707509D01*
X167198500Y-85762709D01*
X167201279Y-85779434D01*
X167201613Y-85796390D01*
X167202774Y-85805673D01*
X167206474Y-85833672D01*
X167206491Y-85833746D01*
X167206653Y-85835018D01*
X167297729Y-86513655D01*
X166490763Y-87513910D01*
X166490709Y-87513977D01*
X166463809Y-87547278D01*
X166439773Y-87583824D01*
X166413410Y-87618750D01*
X166403917Y-87638343D01*
X166391958Y-87656529D01*
X166386492Y-87669968D01*
X166317500Y-87669968D01*
X166249346Y-87675507D01*
X166136244Y-87710873D01*
X166059371Y-87761764D01*
X166001232Y-87703625D01*
X165919339Y-87648906D01*
X165828345Y-87611215D01*
X165731746Y-87592000D01*
X165413000Y-87592000D01*
X165288000Y-87717000D01*
X165288000Y-88550000D01*
X165308000Y-88550000D01*
X165308000Y-88650000D01*
X165288000Y-88650000D01*
X165288000Y-89483000D01*
X165413000Y-89608000D01*
X165731746Y-89608000D01*
X165828345Y-89588785D01*
X165919339Y-89551094D01*
X166001232Y-89496375D01*
X166060043Y-89437563D01*
X166092094Y-89464796D01*
X166200172Y-89513395D01*
X166317500Y-89530032D01*
X167206500Y-89530032D01*
X167274654Y-89524493D01*
X167387756Y-89489127D01*
X167486566Y-89423712D01*
X167563296Y-89333406D01*
X167611895Y-89225328D01*
X167628532Y-89108000D01*
X167628532Y-88237720D01*
X168244579Y-87474113D01*
X168436707Y-87527814D01*
X168551634Y-87564271D01*
X168682355Y-87578934D01*
X168691766Y-87579000D01*
X169696234Y-87579000D01*
X169827148Y-87566164D01*
X169953075Y-87528144D01*
X170069220Y-87466389D01*
X170171157Y-87383251D01*
X170177968Y-87375017D01*
X170177968Y-87700000D01*
X170183507Y-87768154D01*
X170218873Y-87881256D01*
X170255823Y-87937069D01*
X170211624Y-87981269D01*
X170156906Y-88063161D01*
X170119215Y-88154156D01*
X170100000Y-88250755D01*
X170100000Y-88349246D01*
X170100000Y-88625000D01*
X170225000Y-88750000D01*
X171000000Y-88750000D01*
X171000000Y-88730000D01*
X171100000Y-88730000D01*
X171100000Y-88750000D01*
X171120000Y-88750000D01*
X171120000Y-88850000D01*
G36*
X175887941Y-96130000D02*
X160846104Y-96130000D01*
X161919289Y-95982565D01*
X161923741Y-95981502D01*
X161928325Y-95981262D01*
X161937565Y-95979797D01*
X161968965Y-95974597D01*
X161973459Y-95973392D01*
X161978106Y-95973019D01*
X161987302Y-95971298D01*
X162722008Y-95828532D01*
X163708000Y-95828532D01*
X163776154Y-95822993D01*
X163889256Y-95787627D01*
X163988066Y-95722212D01*
X164064796Y-95631906D01*
X164088586Y-95579000D01*
X165041099Y-95579000D01*
X165055430Y-95581032D01*
X166556570Y-95581032D01*
X166624724Y-95575493D01*
X166737826Y-95540127D01*
X166836636Y-95474712D01*
X166913366Y-95384406D01*
X166961965Y-95276328D01*
X166978602Y-95159000D01*
X166978602Y-94651000D01*
X166973063Y-94582846D01*
X166937697Y-94469744D01*
X166872282Y-94370934D01*
X166781976Y-94294204D01*
X166673898Y-94245605D01*
X166606604Y-94236062D01*
X166681220Y-94196389D01*
X166783157Y-94113251D01*
X166867005Y-94011896D01*
X166929570Y-93896186D01*
X166968468Y-93770527D01*
X166982218Y-93639705D01*
X166970296Y-93508705D01*
X166933156Y-93382515D01*
X166872213Y-93265942D01*
X166789789Y-93163427D01*
X166689022Y-93078874D01*
X166573751Y-93015503D01*
X166525331Y-93000143D01*
X166565075Y-92988144D01*
X166681220Y-92926389D01*
X166783157Y-92843251D01*
X166867005Y-92741896D01*
X166929570Y-92626186D01*
X166968468Y-92500527D01*
X166982218Y-92369705D01*
X166979397Y-92338713D01*
X167989509Y-90962848D01*
X168052833Y-91028422D01*
X168176830Y-91114603D01*
X168315206Y-91175057D01*
X168462688Y-91207483D01*
X168613660Y-91210646D01*
X168762370Y-91184424D01*
X168903156Y-91129817D01*
X168915104Y-91122233D01*
X169560149Y-91342233D01*
X169804390Y-92580421D01*
X169804402Y-92580481D01*
X169812502Y-92621582D01*
X169822376Y-92654391D01*
X169830052Y-92687758D01*
X169832455Y-92694757D01*
X169859855Y-92772757D01*
X169874069Y-92803302D01*
X169886163Y-92834741D01*
X169889527Y-92841332D01*
X169908156Y-92877210D01*
X169908170Y-92877237D01*
X170187180Y-93416050D01*
X168779694Y-92212398D01*
X168737760Y-92110658D01*
X168654195Y-91984882D01*
X168547792Y-91877734D01*
X168422603Y-91793293D01*
X168283397Y-91734776D01*
X168135476Y-91704413D01*
X167984475Y-91703358D01*
X167836145Y-91731654D01*
X167696136Y-91788221D01*
X167569780Y-91870906D01*
X167461891Y-91976559D01*
X167376579Y-92101155D01*
X167317092Y-92239949D01*
X167285696Y-92387654D01*
X167283588Y-92538644D01*
X167310847Y-92687168D01*
X167366435Y-92827569D01*
X167448236Y-92954498D01*
X167553133Y-93063122D01*
X167677130Y-93149303D01*
X167815506Y-93209757D01*
X167907962Y-93230084D01*
X170393173Y-95355382D01*
X170410211Y-95376573D01*
X170510978Y-95461126D01*
X170626249Y-95524497D01*
X170751634Y-95564271D01*
X170882355Y-95578934D01*
X170891766Y-95579000D01*
X171896234Y-95579000D01*
X171937029Y-95575000D01*
X172706884Y-95575000D01*
X172710873Y-95587756D01*
X172776288Y-95686566D01*
X172866594Y-95763296D01*
X172974672Y-95811895D01*
X173092000Y-95828532D01*
X174108000Y-95828532D01*
X174176154Y-95822993D01*
X174289256Y-95787627D01*
X174388066Y-95722212D01*
X174464796Y-95631906D01*
X174513395Y-95523828D01*
X174530032Y-95406500D01*
X174530032Y-95337214D01*
X174537043Y-95334262D01*
X174561508Y-95317736D01*
X174587614Y-95303926D01*
X174595380Y-95298710D01*
X174626480Y-95277510D01*
X174626517Y-95277478D01*
X174627218Y-95277007D01*
X175099952Y-94953833D01*
X175100560Y-94953846D01*
X175249270Y-94927624D01*
X175390056Y-94873017D01*
X175495961Y-94805806D01*
X175479371Y-94844516D01*
X175431666Y-95068950D01*
X175428462Y-95298377D01*
X175469882Y-95524056D01*
X175554348Y-95737392D01*
X175678642Y-95930259D01*
X175838031Y-96095311D01*
X175887941Y-96130000D01*
X175887941Y-96130000D01*
G37*
X175887941Y-96130000D02*
X160846104Y-96130000D01*
X161919289Y-95982565D01*
X161923741Y-95981502D01*
X161928325Y-95981262D01*
X161937565Y-95979797D01*
X161968965Y-95974597D01*
X161973459Y-95973392D01*
X161978106Y-95973019D01*
X161987302Y-95971298D01*
X162722008Y-95828532D01*
X163708000Y-95828532D01*
X163776154Y-95822993D01*
X163889256Y-95787627D01*
X163988066Y-95722212D01*
X164064796Y-95631906D01*
X164088586Y-95579000D01*
X165041099Y-95579000D01*
X165055430Y-95581032D01*
X166556570Y-95581032D01*
X166624724Y-95575493D01*
X166737826Y-95540127D01*
X166836636Y-95474712D01*
X166913366Y-95384406D01*
X166961965Y-95276328D01*
X166978602Y-95159000D01*
X166978602Y-94651000D01*
X166973063Y-94582846D01*
X166937697Y-94469744D01*
X166872282Y-94370934D01*
X166781976Y-94294204D01*
X166673898Y-94245605D01*
X166606604Y-94236062D01*
X166681220Y-94196389D01*
X166783157Y-94113251D01*
X166867005Y-94011896D01*
X166929570Y-93896186D01*
X166968468Y-93770527D01*
X166982218Y-93639705D01*
X166970296Y-93508705D01*
X166933156Y-93382515D01*
X166872213Y-93265942D01*
X166789789Y-93163427D01*
X166689022Y-93078874D01*
X166573751Y-93015503D01*
X166525331Y-93000143D01*
X166565075Y-92988144D01*
X166681220Y-92926389D01*
X166783157Y-92843251D01*
X166867005Y-92741896D01*
X166929570Y-92626186D01*
X166968468Y-92500527D01*
X166982218Y-92369705D01*
X166979397Y-92338713D01*
X167989509Y-90962848D01*
X168052833Y-91028422D01*
X168176830Y-91114603D01*
X168315206Y-91175057D01*
X168462688Y-91207483D01*
X168613660Y-91210646D01*
X168762370Y-91184424D01*
X168903156Y-91129817D01*
X168915104Y-91122233D01*
X169560149Y-91342233D01*
X169804390Y-92580421D01*
X169804402Y-92580481D01*
X169812502Y-92621582D01*
X169822376Y-92654391D01*
X169830052Y-92687758D01*
X169832455Y-92694757D01*
X169859855Y-92772757D01*
X169874069Y-92803302D01*
X169886163Y-92834741D01*
X169889527Y-92841332D01*
X169908156Y-92877210D01*
X169908170Y-92877237D01*
X170187180Y-93416050D01*
X168779694Y-92212398D01*
X168737760Y-92110658D01*
X168654195Y-91984882D01*
X168547792Y-91877734D01*
X168422603Y-91793293D01*
X168283397Y-91734776D01*
X168135476Y-91704413D01*
X167984475Y-91703358D01*
X167836145Y-91731654D01*
X167696136Y-91788221D01*
X167569780Y-91870906D01*
X167461891Y-91976559D01*
X167376579Y-92101155D01*
X167317092Y-92239949D01*
X167285696Y-92387654D01*
X167283588Y-92538644D01*
X167310847Y-92687168D01*
X167366435Y-92827569D01*
X167448236Y-92954498D01*
X167553133Y-93063122D01*
X167677130Y-93149303D01*
X167815506Y-93209757D01*
X167907962Y-93230084D01*
X170393173Y-95355382D01*
X170410211Y-95376573D01*
X170510978Y-95461126D01*
X170626249Y-95524497D01*
X170751634Y-95564271D01*
X170882355Y-95578934D01*
X170891766Y-95579000D01*
X171896234Y-95579000D01*
X171937029Y-95575000D01*
X172706884Y-95575000D01*
X172710873Y-95587756D01*
X172776288Y-95686566D01*
X172866594Y-95763296D01*
X172974672Y-95811895D01*
X173092000Y-95828532D01*
X174108000Y-95828532D01*
X174176154Y-95822993D01*
X174289256Y-95787627D01*
X174388066Y-95722212D01*
X174464796Y-95631906D01*
X174513395Y-95523828D01*
X174530032Y-95406500D01*
X174530032Y-95337214D01*
X174537043Y-95334262D01*
X174561508Y-95317736D01*
X174587614Y-95303926D01*
X174595380Y-95298710D01*
X174626480Y-95277510D01*
X174626517Y-95277478D01*
X174627218Y-95277007D01*
X175099952Y-94953833D01*
X175100560Y-94953846D01*
X175249270Y-94927624D01*
X175390056Y-94873017D01*
X175495961Y-94805806D01*
X175479371Y-94844516D01*
X175431666Y-95068950D01*
X175428462Y-95298377D01*
X175469882Y-95524056D01*
X175554348Y-95737392D01*
X175678642Y-95930259D01*
X175838031Y-96095311D01*
X175887941Y-96130000D01*
G36*
X177138915Y-82740662D02*
X177123192Y-82777349D01*
X177091796Y-82925054D01*
X177089688Y-83076044D01*
X177100832Y-83136768D01*
X176542800Y-83136768D01*
X176474646Y-83142307D01*
X176469299Y-83143978D01*
X176455035Y-83147405D01*
X176439856Y-83148894D01*
X176404857Y-83159460D01*
X176369297Y-83168004D01*
X176355435Y-83174382D01*
X176340833Y-83178791D01*
X176308547Y-83195957D01*
X176275330Y-83211242D01*
X176268967Y-83215021D01*
X176263168Y-83218521D01*
X176263067Y-83218595D01*
X176260180Y-83220337D01*
X176208962Y-83251707D01*
X176089214Y-83260059D01*
X176034848Y-83236406D01*
X176034814Y-83236395D01*
X176034439Y-83236229D01*
X175572032Y-83035504D01*
X175572032Y-82934730D01*
X175604554Y-82941200D01*
X175936000Y-82941200D01*
X176061000Y-82816200D01*
X176061000Y-82034000D01*
X176041000Y-82034000D01*
X176041000Y-81934000D01*
X176061000Y-81934000D01*
X176061000Y-81914000D01*
X176161000Y-81914000D01*
X176161000Y-81934000D01*
X176181000Y-81934000D01*
X176181000Y-82034000D01*
X176161000Y-82034000D01*
X176161000Y-82816200D01*
X176286000Y-82941200D01*
X176617446Y-82941200D01*
X176714045Y-82921985D01*
X176805039Y-82884294D01*
X176886932Y-82829575D01*
X176956576Y-82759931D01*
X177011294Y-82678039D01*
X177043637Y-82599955D01*
X177050673Y-82622456D01*
X177116088Y-82721266D01*
X177138915Y-82740662D01*
X177138915Y-82740662D01*
G37*
X177138915Y-82740662D02*
X177123192Y-82777349D01*
X177091796Y-82925054D01*
X177089688Y-83076044D01*
X177100832Y-83136768D01*
X176542800Y-83136768D01*
X176474646Y-83142307D01*
X176469299Y-83143978D01*
X176455035Y-83147405D01*
X176439856Y-83148894D01*
X176404857Y-83159460D01*
X176369297Y-83168004D01*
X176355435Y-83174382D01*
X176340833Y-83178791D01*
X176308547Y-83195957D01*
X176275330Y-83211242D01*
X176268967Y-83215021D01*
X176263168Y-83218521D01*
X176263067Y-83218595D01*
X176260180Y-83220337D01*
X176208962Y-83251707D01*
X176089214Y-83260059D01*
X176034848Y-83236406D01*
X176034814Y-83236395D01*
X176034439Y-83236229D01*
X175572032Y-83035504D01*
X175572032Y-82934730D01*
X175604554Y-82941200D01*
X175936000Y-82941200D01*
X176061000Y-82816200D01*
X176061000Y-82034000D01*
X176041000Y-82034000D01*
X176041000Y-81934000D01*
X176061000Y-81934000D01*
X176061000Y-81914000D01*
X176161000Y-81914000D01*
X176161000Y-81934000D01*
X176181000Y-81934000D01*
X176181000Y-82034000D01*
X176161000Y-82034000D01*
X176161000Y-82816200D01*
X176286000Y-82941200D01*
X176617446Y-82941200D01*
X176714045Y-82921985D01*
X176805039Y-82884294D01*
X176886932Y-82829575D01*
X176956576Y-82759931D01*
X177011294Y-82678039D01*
X177043637Y-82599955D01*
X177050673Y-82622456D01*
X177116088Y-82721266D01*
X177138915Y-82740662D01*
G36*
X178237968Y-90188619D02*
X178232882Y-90192598D01*
X178227562Y-90197742D01*
X178212955Y-90212061D01*
X176759140Y-91626298D01*
X176759132Y-91626306D01*
X176759075Y-91626362D01*
X176721169Y-91663247D01*
X176622539Y-91701476D01*
X176516702Y-91698149D01*
X176420671Y-91653786D01*
X176385164Y-91614630D01*
X176385130Y-91614592D01*
X176385115Y-91614576D01*
X175392630Y-90519993D01*
X175392580Y-90519948D01*
X175391835Y-90519118D01*
X175386037Y-90512752D01*
X175374877Y-90498449D01*
X175368958Y-90489679D01*
X175368890Y-90489579D01*
X175310197Y-90402259D01*
X175326325Y-90331274D01*
X175328733Y-90158798D01*
X175299403Y-90010669D01*
X175241860Y-89871058D01*
X175240905Y-89869620D01*
X175345734Y-89777137D01*
X175345932Y-89776924D01*
X175346169Y-89776753D01*
X175354802Y-89767467D01*
X175428394Y-89829996D01*
X175536472Y-89878595D01*
X175653800Y-89895232D01*
X175750700Y-89895232D01*
X175777594Y-89947561D01*
X175790480Y-89967556D01*
X175800784Y-89989002D01*
X175825821Y-90022394D01*
X175848429Y-90057474D01*
X175864954Y-90074586D01*
X175879226Y-90093620D01*
X175910273Y-90121514D01*
X175939264Y-90151534D01*
X175958796Y-90165109D01*
X175976496Y-90181011D01*
X175984070Y-90186501D01*
X176032440Y-90221051D01*
X176138019Y-90296805D01*
X176150635Y-90328669D01*
X176232436Y-90455598D01*
X176337333Y-90564222D01*
X176461330Y-90650403D01*
X176599706Y-90710857D01*
X176747188Y-90743283D01*
X176898160Y-90746446D01*
X177046870Y-90720224D01*
X177187656Y-90665617D01*
X177315153Y-90584704D01*
X177424507Y-90480569D01*
X177511551Y-90357176D01*
X177572970Y-90219226D01*
X177606425Y-90071974D01*
X177607804Y-89973200D01*
X177714000Y-89973200D01*
X177839000Y-89848200D01*
X177839000Y-89066000D01*
X177819000Y-89066000D01*
X177819000Y-88966000D01*
X177839000Y-88966000D01*
X177839000Y-88946000D01*
X177939000Y-88946000D01*
X177939000Y-88966000D01*
X177959000Y-88966000D01*
X177959000Y-89066000D01*
X177939000Y-89066000D01*
X177939000Y-89848200D01*
X178064000Y-89973200D01*
X178237968Y-89973200D01*
X178237968Y-90188619D01*
X178237968Y-90188619D01*
G37*
X178237968Y-90188619D02*
X178232882Y-90192598D01*
X178227562Y-90197742D01*
X178212955Y-90212061D01*
X176759140Y-91626298D01*
X176759132Y-91626306D01*
X176759075Y-91626362D01*
X176721169Y-91663247D01*
X176622539Y-91701476D01*
X176516702Y-91698149D01*
X176420671Y-91653786D01*
X176385164Y-91614630D01*
X176385130Y-91614592D01*
X176385115Y-91614576D01*
X175392630Y-90519993D01*
X175392580Y-90519948D01*
X175391835Y-90519118D01*
X175386037Y-90512752D01*
X175374877Y-90498449D01*
X175368958Y-90489679D01*
X175368890Y-90489579D01*
X175310197Y-90402259D01*
X175326325Y-90331274D01*
X175328733Y-90158798D01*
X175299403Y-90010669D01*
X175241860Y-89871058D01*
X175240905Y-89869620D01*
X175345734Y-89777137D01*
X175345932Y-89776924D01*
X175346169Y-89776753D01*
X175354802Y-89767467D01*
X175428394Y-89829996D01*
X175536472Y-89878595D01*
X175653800Y-89895232D01*
X175750700Y-89895232D01*
X175777594Y-89947561D01*
X175790480Y-89967556D01*
X175800784Y-89989002D01*
X175825821Y-90022394D01*
X175848429Y-90057474D01*
X175864954Y-90074586D01*
X175879226Y-90093620D01*
X175910273Y-90121514D01*
X175939264Y-90151534D01*
X175958796Y-90165109D01*
X175976496Y-90181011D01*
X175984070Y-90186501D01*
X176032440Y-90221051D01*
X176138019Y-90296805D01*
X176150635Y-90328669D01*
X176232436Y-90455598D01*
X176337333Y-90564222D01*
X176461330Y-90650403D01*
X176599706Y-90710857D01*
X176747188Y-90743283D01*
X176898160Y-90746446D01*
X177046870Y-90720224D01*
X177187656Y-90665617D01*
X177315153Y-90584704D01*
X177424507Y-90480569D01*
X177511551Y-90357176D01*
X177572970Y-90219226D01*
X177606425Y-90071974D01*
X177607804Y-89973200D01*
X177714000Y-89973200D01*
X177839000Y-89848200D01*
X177839000Y-89066000D01*
X177819000Y-89066000D01*
X177819000Y-88966000D01*
X177839000Y-88966000D01*
X177839000Y-88946000D01*
X177939000Y-88946000D01*
X177939000Y-88966000D01*
X177959000Y-88966000D01*
X177959000Y-89066000D01*
X177939000Y-89066000D01*
X177939000Y-89848200D01*
X178064000Y-89973200D01*
X178237968Y-89973200D01*
X178237968Y-90188619D01*
M02*
