G04 #@! TF.FileFunction,Copper,L2,Bot,Signal*
%FSLAX46Y46*%
G04 Gerber Fmt 4.6, Leading zero omitted, Abs format (unit mm)*
G04 Created by KiCad (PCBNEW 4.0.0-rc1-stable) date 25.10.2015 0:42:20*
%MOMM*%
G01*
G04 APERTURE LIST*
%ADD10C,0.100000*%
%ADD11R,0.889000X1.016000*%
%ADD12R,1.016000X0.889000*%
%ADD13R,0.914400X0.914400*%
%ADD14O,1.501140X0.508000*%
%ADD15R,1.501140X0.508000*%
%ADD16R,1.080000X1.000000*%
%ADD17R,1.000000X0.900000*%
%ADD18R,0.701040X0.398780*%
%ADD19C,1.500000*%
%ADD20R,1.500000X1.500000*%
%ADD21R,0.900000X1.000000*%
%ADD22R,4.000000X2.000000*%
%ADD23C,0.700000*%
%ADD24C,0.500000*%
%ADD25C,0.220000*%
%ADD26C,0.254000*%
G04 APERTURE END LIST*
D10*
D11*
X166618100Y-88600000D03*
X165094100Y-88600000D03*
D12*
X163200000Y-93438000D03*
X163200000Y-94962000D03*
X173905400Y-93525300D03*
X173905400Y-95049300D03*
D13*
X175958400Y-94767900D03*
X177736400Y-94767900D03*
X176847400Y-92735900D03*
X175871000Y-90957200D03*
X177649000Y-90957200D03*
X176760000Y-88925200D03*
D14*
X171394000Y-94905000D03*
D15*
X165806000Y-94905000D03*
D14*
X171394000Y-93635000D03*
X171394000Y-92365000D03*
X171394000Y-91095000D03*
X165806000Y-93635000D03*
X165806000Y-92365000D03*
X165806000Y-91095000D03*
X169194000Y-86905000D03*
D15*
X163606000Y-86905000D03*
D14*
X169194000Y-85635000D03*
X169194000Y-84365000D03*
X169194000Y-83095000D03*
X163606000Y-85635000D03*
X163606000Y-84365000D03*
X163606000Y-83095000D03*
D16*
X172452200Y-84339700D03*
X171132200Y-84339700D03*
X172495800Y-87569000D03*
X171175800Y-87569000D03*
D17*
X174200000Y-87250000D03*
X174200000Y-88750000D03*
D18*
X170780240Y-86342180D03*
X172578560Y-86342180D03*
X172578560Y-85544620D03*
X170780240Y-85544620D03*
D19*
X161000000Y-83840000D03*
D20*
X161000000Y-94000000D03*
D19*
X161000000Y-91460000D03*
X161000000Y-88920000D03*
X161000000Y-86380000D03*
X177210700Y-82027200D03*
D21*
X171042100Y-82717900D03*
X172542100Y-82717900D03*
X172585800Y-89169000D03*
X171085800Y-89169000D03*
D20*
X174400000Y-82800000D03*
D19*
X174400000Y-85340000D03*
D22*
X180700000Y-84345000D03*
X180700000Y-87115000D03*
X180700000Y-89885000D03*
X180700000Y-92655000D03*
D23*
X152710400Y-90062700D03*
X149956300Y-94003200D03*
X149742100Y-85582900D03*
X145895400Y-83035900D03*
X143470700Y-94950500D03*
X156633300Y-91450600D03*
X147474600Y-92256400D03*
X155975500Y-86073700D03*
X152543000Y-92905700D03*
X159270300Y-83807200D03*
X155021100Y-92618700D03*
X153800000Y-95000000D03*
X153324400Y-92163400D03*
X155700000Y-89700000D03*
X154392800Y-88018800D03*
X151754100Y-85779000D03*
X176847700Y-95566200D03*
X165392800Y-90243000D03*
X165224800Y-82185900D03*
X168845300Y-82290700D03*
X150023800Y-89875600D03*
X157609500Y-83867100D03*
X154759400Y-83958300D03*
X151622900Y-83945000D03*
X149036400Y-83039500D03*
X154357400Y-86043600D03*
X156727200Y-95248600D03*
X175730400Y-89525500D03*
X167890400Y-92836200D03*
X177092700Y-93759300D03*
X175250400Y-87517600D03*
X176760000Y-91755700D03*
X178149500Y-89951200D03*
X168559600Y-90722100D03*
X174058700Y-92530800D03*
X174412200Y-89750500D03*
X162786900Y-87708700D03*
X156452700Y-93671200D03*
X162615400Y-85000000D03*
X168544600Y-89361700D03*
X171792100Y-81756300D03*
X175782700Y-86780800D03*
X162313700Y-83433600D03*
X156627400Y-92782200D03*
X173266500Y-91727900D03*
X157123800Y-87275600D03*
X144049300Y-82050000D03*
X144950000Y-93355200D03*
X144049700Y-86451800D03*
X144040100Y-90548400D03*
X152738700Y-86102900D03*
X152476500Y-91175000D03*
X150398600Y-84365000D03*
X149972200Y-91681300D03*
D24*
X165392800Y-90243000D02*
X166178800Y-90391200D01*
X166178800Y-91095000D02*
X165806000Y-91095000D01*
X166178800Y-90391200D02*
X166178800Y-91095000D01*
X167343900Y-89459900D02*
X166178800Y-90391200D01*
X167378200Y-89429900D02*
X167388900Y-89418600D01*
X167355600Y-89450600D02*
X167378200Y-89429900D01*
X167343900Y-89459900D02*
X167355600Y-89450600D01*
X167896300Y-88885600D02*
X167388900Y-89418600D01*
X167896300Y-88885600D02*
X167932600Y-88845500D01*
X167939500Y-88837600D02*
X167932600Y-88845500D01*
X168078600Y-88677200D02*
X167939500Y-88837600D01*
X168477500Y-88536400D02*
X168078600Y-88677200D01*
X168685700Y-88573700D02*
X168477500Y-88536400D01*
X170591700Y-88915100D02*
X168685700Y-88573700D01*
X170624600Y-88919000D02*
X170635800Y-88919000D01*
X170602400Y-88917000D02*
X170624600Y-88919000D01*
X170591700Y-88915100D02*
X170602400Y-88917000D01*
X170885800Y-88919000D02*
X170635800Y-88919000D01*
X171085800Y-89169000D02*
X170885800Y-88919000D01*
X168845300Y-83095000D02*
X169194000Y-83095000D01*
X168845300Y-82290700D02*
X168845300Y-83095000D01*
X165227600Y-88342000D02*
X165094100Y-88600000D01*
X165227600Y-88092000D02*
X165227600Y-88342000D01*
X165227600Y-83095000D02*
X165227600Y-88092000D01*
X165227600Y-83091500D02*
X165227600Y-83095000D01*
X165224800Y-82185900D02*
X165227600Y-83091500D01*
X177328200Y-95470300D02*
X176847700Y-95566200D01*
X177529200Y-95314600D02*
X177529200Y-95225100D01*
X177416000Y-95452700D02*
X177529200Y-95314600D01*
X177328200Y-95470300D02*
X177416000Y-95452700D01*
X177529200Y-94975100D02*
X177529200Y-95225100D01*
X177736400Y-94767900D02*
X177529200Y-94975100D01*
X162942000Y-93632500D02*
X163200000Y-93438000D01*
X162692000Y-93632500D02*
X162942000Y-93632500D01*
X161750000Y-93632500D02*
X162692000Y-93632500D01*
X161500000Y-93632500D02*
X161750000Y-93632500D01*
X161000000Y-94000000D02*
X161500000Y-93632500D01*
X165289700Y-89131100D02*
X165392800Y-90243000D01*
X165289100Y-89125400D02*
X165289700Y-89131100D01*
X165288600Y-89113700D02*
X165289100Y-89125400D01*
X165288600Y-89108000D02*
X165288600Y-89113700D01*
X165288600Y-88858000D02*
X165288600Y-89108000D01*
X165094100Y-88600000D02*
X165288600Y-88858000D01*
X155975500Y-86073700D02*
X154392800Y-88018800D01*
X155021100Y-92618700D02*
X153324400Y-92163400D01*
X177856200Y-91164400D02*
X177649000Y-90957200D01*
X177856200Y-91414400D02*
X177856200Y-91164400D01*
X177856200Y-91418400D02*
X177856200Y-91414400D01*
X177893100Y-93746600D02*
X177856200Y-91418400D01*
X177893200Y-93759300D02*
X177893100Y-93746600D01*
X177893200Y-94310700D02*
X177893200Y-93759300D01*
X177893200Y-94560700D02*
X177893200Y-94310700D01*
X177736400Y-94767900D02*
X177893200Y-94560700D01*
X156633300Y-91450600D02*
X155021100Y-92618700D01*
X145895400Y-83035900D02*
X149742100Y-85582900D01*
X149742100Y-85582900D02*
X147474600Y-92256400D01*
X145469100Y-93964600D02*
X147474600Y-92256400D01*
X145429100Y-93998600D02*
X145469100Y-93964600D01*
X145342200Y-94055000D02*
X145429100Y-93998600D01*
X145295500Y-94077300D02*
X145342200Y-94055000D01*
X143470700Y-94950500D02*
X145295500Y-94077300D01*
X153276100Y-91137400D02*
X153324400Y-92163400D01*
X153206000Y-90828700D02*
X153148600Y-90740200D01*
X153271000Y-91030700D02*
X153206000Y-90828700D01*
X153276100Y-91137400D02*
X153271000Y-91030700D01*
X152710400Y-90062700D02*
X153148600Y-90740200D01*
X152543000Y-92905700D02*
X153324400Y-92163400D01*
X154392800Y-88018800D02*
X152710400Y-90062700D01*
X158987500Y-84462100D02*
X159270300Y-83807200D01*
X158927000Y-84602200D02*
X158987500Y-84462100D01*
X158752300Y-84852100D02*
X158927000Y-84602200D01*
X158533000Y-85060100D02*
X158752300Y-84852100D01*
X158274200Y-85221500D02*
X158533000Y-85060100D01*
X158131300Y-85274500D02*
X158274200Y-85221500D01*
X155975500Y-86073700D02*
X158131300Y-85274500D01*
X155738800Y-94033400D02*
X155021100Y-92618700D01*
X156455500Y-94481800D02*
X156580800Y-94461400D01*
X156203600Y-94442600D02*
X156455500Y-94481800D01*
X155976300Y-94327000D02*
X156203600Y-94442600D01*
X155796100Y-94146500D02*
X155976300Y-94327000D01*
X155738800Y-94033400D02*
X155796100Y-94146500D01*
X156599100Y-94458400D02*
X156580800Y-94461400D01*
X156631000Y-94453300D02*
X156599100Y-94458400D01*
X156695000Y-94448100D02*
X156631000Y-94453300D01*
X156727200Y-94448100D02*
X156695000Y-94448100D01*
X160250000Y-94448100D02*
X156727200Y-94448100D01*
X160500000Y-94448100D02*
X160250000Y-94448100D01*
X161000000Y-94000000D02*
X160500000Y-94448100D01*
X156633300Y-91450600D02*
X155700000Y-89700000D01*
X153800000Y-95000000D02*
X152543000Y-92905700D01*
X164622700Y-81997300D02*
X165224800Y-82185900D01*
X164465700Y-81980800D02*
X164622700Y-81997300D01*
X164218300Y-81970000D02*
X164465700Y-81980800D01*
X164092100Y-81970000D02*
X164218300Y-81970000D01*
X163109400Y-81970000D02*
X164092100Y-81970000D01*
X163011300Y-81973800D02*
X162979300Y-81977600D01*
X163076000Y-81970000D02*
X163011300Y-81973800D01*
X163109400Y-81970000D02*
X163076000Y-81970000D01*
X160812500Y-82229900D02*
X162979300Y-81977600D01*
X159572800Y-83040500D02*
X159492200Y-83245000D01*
X159838400Y-82688200D02*
X159572800Y-83040500D01*
X160186000Y-82421100D02*
X159838400Y-82688200D01*
X160594800Y-82255100D02*
X160186000Y-82421100D01*
X160812500Y-82229900D02*
X160594800Y-82255100D01*
X159270300Y-83807200D02*
X159492200Y-83245000D01*
X151622900Y-83945000D02*
X154759400Y-83958300D01*
X151622900Y-83945000D02*
X149036400Y-83039500D01*
X151010400Y-85482800D02*
X151622900Y-83945000D01*
X150963400Y-85642200D02*
X150957800Y-85696700D01*
X150989700Y-85534800D02*
X150963400Y-85642200D01*
X151010400Y-85482800D02*
X150989700Y-85534800D01*
X150956600Y-85708400D02*
X150957800Y-85696700D01*
X150952800Y-85745100D02*
X150956600Y-85708400D01*
X150941100Y-85816700D02*
X150952800Y-85745100D01*
X150933100Y-85852000D02*
X150941100Y-85816700D01*
X150023800Y-89875600D02*
X150933100Y-85852000D01*
X154759400Y-83958300D02*
X157609500Y-83867100D01*
X175751200Y-94975100D02*
X175958400Y-94767900D01*
X175751200Y-95225100D02*
X175751200Y-94975100D01*
X175751300Y-95298800D02*
X175751200Y-95225100D01*
X175671100Y-95422800D02*
X175751300Y-95298800D01*
X175603600Y-95453200D02*
X175671100Y-95422800D01*
X174597900Y-95904800D02*
X175603600Y-95453200D01*
X174554100Y-95924400D02*
X174597900Y-95904800D01*
X174460800Y-95944300D02*
X174554100Y-95924400D01*
X174413400Y-95944300D02*
X174460800Y-95944300D01*
X173397400Y-95944300D02*
X174413400Y-95944300D01*
X173393600Y-95944300D02*
X173397400Y-95944300D01*
X162955200Y-95856500D02*
X173393600Y-95944300D01*
X162646100Y-95854700D02*
X156727200Y-95248600D01*
X162680600Y-95857100D02*
X162692500Y-95857000D01*
X162657800Y-95855900D02*
X162680600Y-95857100D01*
X162646100Y-95854700D02*
X162657800Y-95855900D01*
X162942500Y-95856700D02*
X162692500Y-95857000D01*
X162942500Y-95856700D02*
X162955200Y-95856500D01*
X170842100Y-82467900D02*
X171042100Y-82717900D01*
X170842100Y-82217900D02*
X170842100Y-82467900D01*
X170741400Y-82000600D02*
X170660900Y-81977500D01*
X170842100Y-82134200D02*
X170741400Y-82000600D01*
X170842100Y-82217900D02*
X170842100Y-82134200D01*
X169065500Y-81521100D02*
X170660900Y-81977500D01*
X168605000Y-81511300D02*
X168467700Y-81584900D01*
X168915900Y-81478200D02*
X168605000Y-81511300D01*
X169065500Y-81521100D02*
X168915900Y-81478200D01*
X167015400Y-82361900D02*
X168467700Y-81584900D01*
X166812600Y-88342000D02*
X166618100Y-88600000D01*
X166812600Y-88092000D02*
X166812600Y-88342000D01*
X166812800Y-88083200D02*
X166812600Y-88092000D01*
X167015400Y-82361900D02*
X166812800Y-88083200D01*
X165649400Y-81507300D02*
X167015400Y-82361900D01*
X165422700Y-81405800D02*
X165340000Y-81393700D01*
X165579300Y-81463400D02*
X165422700Y-81405800D01*
X165649400Y-81507300D02*
X165579300Y-81463400D01*
X164723500Y-81304100D02*
X165340000Y-81393700D01*
X164723500Y-81304100D02*
X164695900Y-81300600D01*
X164538900Y-81284100D02*
X164695900Y-81300600D01*
X164538900Y-81284100D02*
X164496300Y-81281000D01*
X164248900Y-81270200D02*
X164496300Y-81281000D01*
X164248900Y-81270200D02*
X164218300Y-81269500D01*
X163077200Y-81269500D02*
X164218300Y-81269500D01*
X163077200Y-81269500D02*
X163036100Y-81270700D01*
X162971400Y-81274500D02*
X163036100Y-81270700D01*
X162971400Y-81274500D02*
X162933100Y-81277800D01*
X162899800Y-81281600D02*
X162933100Y-81277800D01*
X162898200Y-81281800D02*
X162899800Y-81281600D01*
X160513200Y-81559500D02*
X162898200Y-81281800D01*
X160374400Y-81588500D02*
X160330600Y-81606300D01*
X160465800Y-81565000D02*
X160374400Y-81588500D01*
X160513200Y-81559500D02*
X160465800Y-81565000D01*
X159921700Y-81772400D02*
X160330600Y-81606300D01*
X159795700Y-81837300D02*
X159758200Y-81866200D01*
X159877500Y-81790400D02*
X159795700Y-81837300D01*
X159921700Y-81772400D02*
X159877500Y-81790400D01*
X159621700Y-81971200D02*
X159758200Y-81866200D01*
X159621500Y-81971400D02*
X159621700Y-81971200D01*
X159410700Y-82133700D02*
X159621500Y-81971400D01*
X159306600Y-82229900D02*
X159278600Y-82267100D01*
X159372900Y-82162900D02*
X159306600Y-82229900D01*
X159410700Y-82133700D02*
X159372900Y-82162900D01*
X159163600Y-82419700D02*
X159278600Y-82267100D01*
X159163300Y-82420000D02*
X159163600Y-82419700D01*
X159012900Y-82619800D02*
X159163300Y-82420000D01*
X158969600Y-82683500D02*
X158957000Y-82706800D01*
X158997400Y-82640300D02*
X158969600Y-82683500D01*
X159012900Y-82619800D02*
X158997400Y-82640300D01*
X158566900Y-83425100D02*
X158957000Y-82706800D01*
X158504000Y-83569800D02*
X158491900Y-83620500D01*
X158541600Y-83471800D02*
X158504000Y-83569800D01*
X158566900Y-83425100D02*
X158541600Y-83471800D01*
X158387900Y-84053800D02*
X158491900Y-83620500D01*
X158338900Y-84257900D02*
X158387900Y-84053800D01*
X158054300Y-84564900D02*
X158338900Y-84257900D01*
X157854400Y-84629200D02*
X158054300Y-84564900D01*
X155730600Y-85311600D02*
X157854400Y-84629200D01*
X155625300Y-85352900D02*
X155592600Y-85370700D01*
X155694700Y-85323200D02*
X155625300Y-85352900D01*
X155730600Y-85311600D02*
X155694700Y-85323200D01*
X154357400Y-86043600D02*
X155592600Y-85370700D01*
X165305400Y-94909000D02*
X165806000Y-94905000D01*
X165055400Y-94909000D02*
X165305400Y-94909000D01*
X163708000Y-94909000D02*
X165055400Y-94909000D01*
X163458000Y-94909000D02*
X163708000Y-94909000D01*
X163200000Y-94962000D02*
X163458000Y-94909000D01*
X166812600Y-88342000D02*
X166618100Y-88600000D01*
X167062600Y-88342000D02*
X166812600Y-88342000D01*
X167198600Y-88307100D02*
X167233400Y-88274600D01*
X167110300Y-88342000D02*
X167198600Y-88307100D01*
X167062600Y-88342000D02*
X167110300Y-88342000D01*
X168697400Y-86905000D02*
X167233400Y-88274600D01*
X169194000Y-86905000D02*
X168697400Y-86905000D01*
X175914700Y-91164400D02*
X175871000Y-90957200D01*
X175914700Y-91414400D02*
X175914700Y-91164400D01*
X175914700Y-94310700D02*
X175914700Y-91414400D01*
X175914700Y-94560700D02*
X175914700Y-94310700D01*
X175958400Y-94767900D02*
X175914700Y-94560700D01*
X162955200Y-95406500D02*
X162955200Y-95856500D01*
X162955200Y-95156500D02*
X162955200Y-95406500D01*
X163200000Y-94962000D02*
X162955200Y-95156500D01*
X170897400Y-94905000D02*
X167890400Y-92836200D01*
X171394000Y-94905000D02*
X170897400Y-94905000D01*
X171890600Y-94905000D02*
X171394000Y-94905000D01*
X173397400Y-94905000D02*
X171890600Y-94905000D01*
X173647400Y-94905000D02*
X173397400Y-94905000D01*
X173905400Y-95049300D02*
X173647400Y-94905000D01*
X174163400Y-94854800D02*
X173905400Y-95049300D01*
X174413400Y-94854800D02*
X174163400Y-94854800D01*
X174625100Y-94760300D02*
X174650600Y-94683700D01*
X174494100Y-94854800D02*
X174625100Y-94760300D01*
X174413400Y-94854800D02*
X174494100Y-94854800D01*
X174840900Y-94112000D02*
X174650600Y-94683700D01*
X174862800Y-94015400D02*
X174863700Y-93982700D01*
X174851300Y-94080600D02*
X174862800Y-94015400D01*
X174840900Y-94112000D02*
X174851300Y-94080600D01*
X174963500Y-90487100D02*
X174863700Y-93982700D01*
X174966000Y-90402500D02*
X174963500Y-90487100D01*
X175031500Y-90247200D02*
X174966000Y-90402500D01*
X175090200Y-90186600D02*
X175031500Y-90247200D01*
X175730400Y-89525500D02*
X175090200Y-90186600D01*
D25*
X173760000Y-83440000D02*
X174400000Y-82800000D01*
X173650000Y-83440000D02*
X173760000Y-83440000D01*
X173592100Y-83454300D02*
X173577000Y-83467700D01*
X173629800Y-83440000D02*
X173592100Y-83454300D01*
X173650000Y-83440000D02*
X173629800Y-83440000D01*
X173065200Y-83922000D02*
X173577000Y-83467700D01*
X173050100Y-83935400D02*
X173065200Y-83922000D01*
X173012400Y-83949700D02*
X173050100Y-83935400D01*
X172992200Y-83949700D02*
X173012400Y-83949700D01*
X172882200Y-83949700D02*
X172992200Y-83949700D01*
X172452200Y-84339700D02*
X172882200Y-83949700D01*
X176760000Y-92388700D02*
X176847400Y-92735900D01*
X176760000Y-92278700D02*
X176760000Y-92388700D01*
X176760000Y-91755700D02*
X176760000Y-92278700D01*
X175133800Y-86904100D02*
X175250400Y-87517600D01*
X175119400Y-86828400D02*
X175133800Y-86904100D01*
X175126100Y-86675700D02*
X175119400Y-86828400D01*
X175146800Y-86602100D02*
X175126100Y-86675700D01*
X175420900Y-85627000D02*
X175146800Y-86602100D01*
X175462100Y-85213400D02*
X175427400Y-85077000D01*
X175458700Y-85492600D02*
X175462100Y-85213400D01*
X175420900Y-85627000D02*
X175458700Y-85492600D01*
X175043400Y-83577300D02*
X175427400Y-85077000D01*
X175041700Y-83570700D02*
X175043400Y-83577300D01*
X175040000Y-83556900D02*
X175041700Y-83570700D01*
X175040000Y-83550000D02*
X175040000Y-83556900D01*
X175040000Y-83440000D02*
X175040000Y-83550000D01*
X174400000Y-82800000D02*
X175040000Y-83440000D01*
X173760000Y-82758900D02*
X174400000Y-82800000D01*
X173650000Y-82758900D02*
X173760000Y-82758900D01*
X172992100Y-82758900D02*
X173650000Y-82758900D01*
X172882100Y-82758900D02*
X172992100Y-82758900D01*
X172542100Y-82717900D02*
X172882100Y-82758900D01*
X172515400Y-84729700D02*
X172452200Y-84339700D01*
X172515400Y-84839700D02*
X172515400Y-84729700D01*
X172515400Y-85345200D02*
X172515400Y-84839700D01*
X172515400Y-85455200D02*
X172515400Y-85345200D01*
X172578600Y-85544600D02*
X172515400Y-85455200D01*
X176847400Y-92735900D02*
X177092700Y-93759300D01*
X172925800Y-88959500D02*
X172585800Y-89169000D01*
X173035800Y-88959500D02*
X172925800Y-88959500D01*
X173700000Y-88959500D02*
X173035800Y-88959500D01*
X173810000Y-88959500D02*
X173700000Y-88959500D01*
X174200000Y-88750000D02*
X173810000Y-88959500D01*
X176412800Y-88837600D02*
X176760000Y-88925200D01*
X176302800Y-88837600D02*
X176412800Y-88837600D01*
X174700000Y-88837600D02*
X176302800Y-88837600D01*
X174590000Y-88837600D02*
X174700000Y-88837600D01*
X174200000Y-88750000D02*
X174590000Y-88837600D01*
X172245800Y-89559000D02*
X172585800Y-89169000D01*
X172245800Y-89669000D02*
X172245800Y-89559000D01*
X172245800Y-89704000D02*
X172245800Y-89669000D01*
X172205500Y-89761000D02*
X172245800Y-89704000D01*
X172172600Y-89772700D02*
X172205500Y-89761000D01*
X171639600Y-89961700D02*
X172172600Y-89772700D01*
X171632500Y-89964200D02*
X171639600Y-89961700D01*
X171617500Y-89968700D02*
X171632500Y-89964200D01*
X171610100Y-89970500D02*
X171617500Y-89968700D01*
X168559600Y-90722100D02*
X171610100Y-89970500D01*
X170897400Y-93635000D02*
X171394000Y-93635000D01*
X168559600Y-90722100D02*
X170897400Y-93635000D01*
X172540800Y-87959000D02*
X172495800Y-87569000D01*
X172540800Y-88069000D02*
X172540800Y-87959000D01*
X172540800Y-88669000D02*
X172540800Y-88069000D01*
X172540800Y-88779000D02*
X172540800Y-88669000D01*
X172585800Y-89169000D02*
X172540800Y-88779000D01*
X172537200Y-86431600D02*
X172578600Y-86342200D01*
X172537200Y-86541600D02*
X172537200Y-86431600D01*
X172537200Y-87069000D02*
X172537200Y-86541600D01*
X172537200Y-87179000D02*
X172537200Y-87069000D01*
X172495800Y-87569000D02*
X172537200Y-87179000D01*
X177283700Y-89294700D02*
X178149500Y-89951200D01*
X177235200Y-89272300D02*
X177217200Y-89272400D01*
X177269300Y-89283800D02*
X177235200Y-89272300D01*
X177283700Y-89294700D02*
X177269300Y-89283800D01*
X177107200Y-89272400D02*
X177217200Y-89272400D01*
X176760000Y-88925200D02*
X177107200Y-89272400D01*
D24*
X174412200Y-89750500D02*
X173729800Y-90930800D01*
X171890600Y-91095000D02*
X171394000Y-91095000D01*
X173166100Y-90933700D02*
X171890600Y-91095000D01*
X173192800Y-90930300D02*
X173166100Y-90933700D01*
X173245800Y-90927200D02*
X173192800Y-90930300D01*
X173272400Y-90927400D02*
X173245800Y-90927200D01*
X173729800Y-90930800D02*
X173272400Y-90927400D01*
X173959100Y-91326600D02*
X173729800Y-90930800D01*
X174013300Y-91420000D02*
X173959100Y-91326600D01*
X174068100Y-91628000D02*
X174013300Y-91420000D01*
X174067000Y-91736200D02*
X174068100Y-91628000D01*
X174058700Y-92530800D02*
X174067000Y-91736200D01*
X174058700Y-93330800D02*
X173905400Y-93525300D01*
X174058700Y-93080800D02*
X174058700Y-93330800D01*
X174058700Y-92530800D02*
X174058700Y-93080800D01*
D25*
X165309400Y-93635000D02*
X165806000Y-93635000D01*
X163873500Y-92730800D02*
X165309400Y-93635000D01*
X163843800Y-92714000D02*
X163833300Y-92709400D01*
X163863900Y-92724700D02*
X163843800Y-92714000D01*
X163873500Y-92730800D02*
X163863900Y-92724700D01*
X161000000Y-91460000D02*
X163833300Y-92709400D01*
X162965400Y-87049000D02*
X163606000Y-86905000D01*
X162965400Y-87159000D02*
X162965400Y-87049000D01*
X162965400Y-87167900D02*
X162965400Y-87159000D01*
X162962500Y-87185600D02*
X162965400Y-87167900D01*
X162959700Y-87194000D02*
X162962500Y-87185600D01*
X162786900Y-87708700D02*
X162959700Y-87194000D01*
X162786900Y-87708700D02*
X161000000Y-91460000D01*
X166302600Y-92365000D02*
X168544600Y-89361700D01*
X165806000Y-92365000D02*
X166302600Y-92365000D01*
X163109400Y-83095000D02*
X163606000Y-83095000D01*
X162944800Y-83628300D02*
X163109400Y-83095000D01*
X162917300Y-83717400D02*
X162944800Y-83628300D01*
X162814900Y-83873700D02*
X162917300Y-83717400D01*
X162744500Y-83934200D02*
X162814900Y-83873700D01*
X162741200Y-83937100D02*
X162744500Y-83934200D01*
X162532300Y-84291200D02*
X162548700Y-84430700D01*
X162634500Y-84028900D02*
X162532300Y-84291200D01*
X162741200Y-83937100D02*
X162634500Y-84028900D01*
X162615400Y-85000000D02*
X162548700Y-84430700D01*
X161963600Y-86822800D02*
X161000000Y-88920000D01*
X161991100Y-86758100D02*
X161999400Y-86734900D01*
X161973600Y-86800900D02*
X161991100Y-86758100D01*
X161963600Y-86822800D02*
X161973600Y-86800900D01*
X162615400Y-85000000D02*
X161999400Y-86734900D01*
X156978200Y-93341900D02*
X156452700Y-93671200D01*
X157087200Y-93258700D02*
X157117900Y-93224600D01*
X157017300Y-93317300D02*
X157087200Y-93258700D01*
X156978200Y-93341900D02*
X157017300Y-93317300D01*
X161000000Y-88920000D02*
X157117900Y-93224600D01*
X178810000Y-86225000D02*
X180700000Y-87115000D01*
X178700000Y-86225000D02*
X178810000Y-86225000D01*
X178674000Y-86225000D02*
X178700000Y-86225000D01*
X178627300Y-86201600D02*
X178674000Y-86225000D01*
X178611800Y-86180700D02*
X178627300Y-86201600D01*
X175399100Y-81864600D02*
X178611800Y-86180700D01*
X175223600Y-81739500D02*
X175150000Y-81739500D01*
X175355300Y-81805700D02*
X175223600Y-81739500D01*
X175399100Y-81864600D02*
X175355300Y-81805700D01*
X173650000Y-81739500D02*
X175150000Y-81739500D01*
X173647200Y-81739500D02*
X173650000Y-81739500D01*
X171792100Y-81756300D02*
X173647200Y-81739500D01*
X178810000Y-88995000D02*
X180700000Y-89885000D01*
X178700000Y-88995000D02*
X178810000Y-88995000D01*
X178681900Y-88995000D02*
X178700000Y-88995000D01*
X178647400Y-88983300D02*
X178681900Y-88995000D01*
X178633000Y-88972200D02*
X178647400Y-88983300D01*
X175782700Y-86780800D02*
X178633000Y-88972200D01*
X161980800Y-84243200D02*
X162313700Y-83433600D01*
X161963600Y-84282800D02*
X161980800Y-84243200D01*
X161000000Y-86380000D02*
X161963600Y-84282800D01*
X157229300Y-91735300D02*
X161000000Y-83840000D01*
X157223600Y-91747400D02*
X157229300Y-91735300D01*
X157211700Y-91769800D02*
X157223600Y-91747400D01*
X157205400Y-91780800D02*
X157211700Y-91769800D01*
X156627400Y-92782200D02*
X157205400Y-91780800D01*
X171890600Y-92365000D02*
X171394000Y-92365000D01*
X173266500Y-91727900D02*
X171890600Y-92365000D01*
X170978000Y-87179000D02*
X171175800Y-87569000D01*
X170978000Y-87069000D02*
X170978000Y-87179000D01*
X170978000Y-86541600D02*
X170978000Y-87069000D01*
X170978000Y-86431600D02*
X170978000Y-86541600D01*
X170780200Y-86342200D02*
X170978000Y-86431600D01*
X169690600Y-85635000D02*
X169194000Y-85635000D01*
X170356800Y-86225100D02*
X169690600Y-85635000D01*
X170409600Y-86252800D02*
X170429700Y-86252800D01*
X170371900Y-86238500D02*
X170409600Y-86252800D01*
X170356800Y-86225100D02*
X170371900Y-86238500D01*
X170539700Y-86252800D02*
X170429700Y-86252800D01*
X170780200Y-86342200D02*
X170539700Y-86252800D01*
X170527400Y-85294600D02*
X170273500Y-84804900D01*
X170533500Y-85306400D02*
X170527400Y-85294600D01*
X170539700Y-85332100D02*
X170533500Y-85306400D01*
X170539700Y-85345200D02*
X170539700Y-85332100D01*
X170539700Y-85455200D02*
X170539700Y-85345200D01*
X170780200Y-85544600D02*
X170539700Y-85455200D01*
X170702200Y-84729700D02*
X171132200Y-84339700D01*
X170592200Y-84729700D02*
X170702200Y-84729700D01*
X170572500Y-84731300D02*
X170566100Y-84732900D01*
X170585700Y-84729700D02*
X170572500Y-84731300D01*
X170592200Y-84729700D02*
X170585700Y-84729700D01*
X170296000Y-84798900D02*
X170566100Y-84732900D01*
X170296000Y-84798900D02*
X170278700Y-84803500D01*
X170273500Y-84804900D02*
X170278700Y-84803500D01*
X169690600Y-84365000D02*
X170273500Y-84804900D01*
X169194000Y-84365000D02*
X169690600Y-84365000D01*
X164102600Y-85635000D02*
X164502500Y-84762800D01*
X163606000Y-85635000D02*
X164102600Y-85635000D01*
X164102600Y-84365000D02*
X164502500Y-84762800D01*
X163606000Y-84365000D02*
X164102600Y-84365000D01*
X164502600Y-84762900D02*
X164502500Y-84762800D01*
X164666700Y-84477200D02*
X164666700Y-84365200D01*
X164581400Y-84683700D02*
X164666700Y-84477200D01*
X164502600Y-84762900D02*
X164581400Y-84683700D01*
X164667100Y-83095200D02*
X164666700Y-84365200D01*
X164214600Y-82530400D02*
X164102600Y-82530500D01*
X164422100Y-82616300D02*
X164214600Y-82530400D01*
X164581000Y-82775000D02*
X164422100Y-82616300D01*
X164667000Y-82982400D02*
X164581000Y-82775000D01*
X164667100Y-83095200D02*
X164667000Y-82982400D01*
X163109400Y-82530500D02*
X164102600Y-82530500D01*
X163060200Y-82532400D02*
X163044100Y-82534300D01*
X163092600Y-82530500D02*
X163060200Y-82532400D01*
X163109400Y-82530500D02*
X163092600Y-82530500D01*
X163044100Y-82534400D02*
X163044100Y-82534300D01*
X163044000Y-82534300D02*
X163044100Y-82534400D01*
X160877300Y-82786600D02*
X163044000Y-82534300D01*
X159968600Y-83535400D02*
X159947300Y-83711900D01*
X160125100Y-83214600D02*
X159968600Y-83535400D01*
X160377900Y-82962800D02*
X160125100Y-83214600D01*
X160699200Y-82807500D02*
X160377900Y-82962800D01*
X160877300Y-82786600D02*
X160699200Y-82807500D01*
X159926000Y-83887000D02*
X159947300Y-83711900D01*
X159917900Y-83954000D02*
X159926000Y-83887000D01*
X159874200Y-84083400D02*
X159917900Y-83954000D01*
X159839600Y-84142200D02*
X159874200Y-84083400D01*
X159386200Y-84912600D02*
X159839600Y-84142200D01*
X159320100Y-85024800D02*
X159386200Y-84912600D01*
X159161500Y-85230100D02*
X159320100Y-85024800D01*
X159070000Y-85322000D02*
X159161500Y-85230100D01*
X157123800Y-87275600D02*
X159070000Y-85322000D01*
D24*
X144040100Y-90548400D02*
X144049700Y-86451800D01*
X144950000Y-93355200D02*
X144040100Y-90548400D01*
X144049700Y-86451800D02*
X144049300Y-82050000D01*
D25*
X152105400Y-90327700D02*
X152476500Y-91175000D01*
X152066100Y-90237600D02*
X152105400Y-90327700D01*
X152043000Y-90043900D02*
X152066100Y-90237600D01*
X152060000Y-89947900D02*
X152043000Y-90043900D01*
X152738700Y-86102900D02*
X152060000Y-89947900D01*
X150402600Y-85580700D02*
X150398600Y-84365000D01*
X150402700Y-85622500D02*
X150402600Y-85580700D01*
X150392700Y-85703800D02*
X150402700Y-85622500D01*
X150382600Y-85744100D02*
X150392700Y-85703800D01*
X149383300Y-89714400D02*
X150382600Y-85744100D01*
X149369100Y-90007300D02*
X149402400Y-90099400D01*
X149359200Y-89810100D02*
X149369100Y-90007300D01*
X149383300Y-89714400D02*
X149359200Y-89810100D01*
X149972200Y-91681300D02*
X149402400Y-90099400D01*
X174400000Y-86800000D02*
X174400000Y-85340000D01*
X174400000Y-86910000D02*
X174400000Y-86800000D01*
X174200000Y-87250000D02*
X174400000Y-86910000D01*
D26*
G36*
X160434949Y-80887038D02*
X160387769Y-80892512D01*
X160343579Y-80906758D01*
X160297219Y-80909325D01*
X160205818Y-80932825D01*
X160164517Y-80952675D01*
X160119516Y-80961313D01*
X160075716Y-80979113D01*
X160075714Y-80979114D01*
X159666913Y-81145174D01*
X159666659Y-81145341D01*
X159666360Y-81145399D01*
X159622160Y-81163399D01*
X159584045Y-81188539D01*
X159540763Y-81203086D01*
X159458964Y-81249986D01*
X159424000Y-81280464D01*
X159382442Y-81301066D01*
X159345426Y-81329593D01*
X159208926Y-81434594D01*
X159208673Y-81434884D01*
X159208492Y-81434973D01*
X158997692Y-81597273D01*
X158997326Y-81597692D01*
X158996831Y-81597938D01*
X158959031Y-81627138D01*
X158929248Y-81661322D01*
X158891682Y-81686709D01*
X158825381Y-81753709D01*
X158800014Y-81792109D01*
X158765699Y-81822770D01*
X158737937Y-81859654D01*
X158622937Y-82012254D01*
X158622829Y-82012478D01*
X158622415Y-82012848D01*
X158472471Y-82212044D01*
X158457385Y-82231996D01*
X158446093Y-82255311D01*
X158428094Y-82273941D01*
X158400294Y-82317141D01*
X158390734Y-82341395D01*
X158374097Y-82361468D01*
X158361588Y-82384597D01*
X157971974Y-83102003D01*
X157971869Y-83102342D01*
X157971642Y-83102615D01*
X157946342Y-83149315D01*
X157941863Y-83163786D01*
X157764733Y-83090235D01*
X157455623Y-83089966D01*
X157180930Y-83203467D01*
X155126044Y-83269221D01*
X154914633Y-83181435D01*
X154605523Y-83181166D01*
X154367220Y-83279631D01*
X152022701Y-83269689D01*
X151778133Y-83168135D01*
X151469023Y-83167866D01*
X151461195Y-83171101D01*
X149623386Y-82527708D01*
X149477110Y-82381176D01*
X149191633Y-82262635D01*
X148882523Y-82262366D01*
X148596840Y-82380408D01*
X148378076Y-82598790D01*
X148259535Y-82884267D01*
X148259266Y-83193377D01*
X148377308Y-83479060D01*
X148595690Y-83697824D01*
X148881167Y-83816365D01*
X149190277Y-83816634D01*
X149198105Y-83813399D01*
X149711666Y-83993190D01*
X149621735Y-84209767D01*
X149621466Y-84518877D01*
X149739508Y-84804560D01*
X149863452Y-84928721D01*
X149865603Y-85582467D01*
X149865622Y-85590236D01*
X149863759Y-85605377D01*
X149861842Y-85613028D01*
X148862559Y-89583259D01*
X148862558Y-89583262D01*
X148838458Y-89678962D01*
X148834457Y-89758368D01*
X148822875Y-89837025D01*
X148832775Y-90034225D01*
X148852172Y-90111310D01*
X148864096Y-90189891D01*
X148897176Y-90281382D01*
X149275753Y-91332401D01*
X149195335Y-91526067D01*
X149195066Y-91835177D01*
X149313108Y-92120860D01*
X149531490Y-92339624D01*
X149816967Y-92458165D01*
X150126077Y-92458434D01*
X150411760Y-92340392D01*
X150630524Y-92122010D01*
X150749065Y-91836533D01*
X150749334Y-91527423D01*
X150631292Y-91241740D01*
X150412910Y-91022976D01*
X150287016Y-90970700D01*
X150172483Y-90652729D01*
X150177677Y-90652734D01*
X150463360Y-90534692D01*
X150682124Y-90316310D01*
X150768834Y-90107490D01*
X151509778Y-90107490D01*
X151532878Y-90301191D01*
X151557168Y-90375720D01*
X151573886Y-90452295D01*
X151613186Y-90542395D01*
X151613421Y-90542733D01*
X151613510Y-90543138D01*
X151759315Y-90876042D01*
X151699635Y-91019767D01*
X151699366Y-91328877D01*
X151817408Y-91614560D01*
X152035790Y-91833324D01*
X152321267Y-91951865D01*
X152630377Y-91952134D01*
X152916060Y-91834092D01*
X153134824Y-91615710D01*
X153253365Y-91330233D01*
X153253634Y-91021123D01*
X153135592Y-90735440D01*
X152917210Y-90516676D01*
X152742673Y-90444201D01*
X152597290Y-90112262D01*
X152589952Y-90095439D01*
X152585636Y-90059251D01*
X152588773Y-90041537D01*
X152588770Y-90041387D01*
X152588825Y-90041245D01*
X153166828Y-86766715D01*
X153178260Y-86761992D01*
X153397024Y-86543610D01*
X153515565Y-86258133D01*
X153515834Y-85949023D01*
X153397792Y-85663340D01*
X153179410Y-85444576D01*
X152893933Y-85326035D01*
X152584823Y-85325766D01*
X152299140Y-85443808D01*
X152080376Y-85662190D01*
X151961835Y-85947667D01*
X151961566Y-86256777D01*
X152079608Y-86542460D01*
X152110370Y-86573276D01*
X151531227Y-89854263D01*
X151514227Y-89950263D01*
X151515887Y-90028984D01*
X151509778Y-90107490D01*
X150768834Y-90107490D01*
X150800665Y-90030833D01*
X150800934Y-89721723D01*
X150769720Y-89646179D01*
X151593431Y-86001306D01*
X151601357Y-85966333D01*
X151601911Y-85945444D01*
X151609238Y-85925879D01*
X151620938Y-85854279D01*
X151620244Y-85834110D01*
X151626200Y-85814825D01*
X151630000Y-85778126D01*
X151629969Y-85777793D01*
X151630067Y-85777474D01*
X151631267Y-85765774D01*
X151631267Y-85765773D01*
X151632080Y-85757860D01*
X151636086Y-85741499D01*
X151639395Y-85733188D01*
X152081201Y-84623950D01*
X154359599Y-84633611D01*
X154604167Y-84735165D01*
X154913277Y-84735434D01*
X155187970Y-84621933D01*
X155716575Y-84605018D01*
X155523501Y-84667055D01*
X155523007Y-84667329D01*
X155522445Y-84667395D01*
X155486545Y-84678995D01*
X155459096Y-84694308D01*
X155428341Y-84700800D01*
X155358941Y-84730500D01*
X155332374Y-84748704D01*
X155301627Y-84758287D01*
X155268927Y-84776087D01*
X155268840Y-84776160D01*
X155268730Y-84776194D01*
X154368506Y-85266610D01*
X154203523Y-85266466D01*
X153917840Y-85384508D01*
X153699076Y-85602890D01*
X153580535Y-85888367D01*
X153580266Y-86197477D01*
X153698308Y-86483160D01*
X153916690Y-86701924D01*
X154202167Y-86820465D01*
X154511277Y-86820734D01*
X154796960Y-86702692D01*
X155015724Y-86484310D01*
X155030967Y-86447601D01*
X155916273Y-85965313D01*
X155920970Y-85962756D01*
X155932458Y-85957840D01*
X155938548Y-85955872D01*
X158061500Y-85273745D01*
X158061594Y-85273693D01*
X158061704Y-85273680D01*
X158261604Y-85209380D01*
X158297219Y-85189572D01*
X158336856Y-85180116D01*
X158411695Y-85125905D01*
X158492456Y-85080989D01*
X158517778Y-85049062D01*
X158550781Y-85025156D01*
X158835381Y-84718156D01*
X158856705Y-84683469D01*
X158886604Y-84655831D01*
X158925306Y-84571879D01*
X158973721Y-84493125D01*
X158980148Y-84452918D01*
X158997194Y-84415942D01*
X159046195Y-84211842D01*
X159046196Y-84211821D01*
X159046203Y-84211805D01*
X159150203Y-83778505D01*
X159150220Y-83778062D01*
X159150406Y-83777658D01*
X159152113Y-83770507D01*
X159157872Y-83755497D01*
X159162158Y-83747585D01*
X159551926Y-83029897D01*
X159552088Y-83029375D01*
X159552208Y-83029190D01*
X159552504Y-83028832D01*
X159552853Y-83028187D01*
X159552856Y-83028182D01*
X159552915Y-83028104D01*
X159552942Y-83028049D01*
X159553463Y-83027239D01*
X159553784Y-83026952D01*
X159704038Y-82827347D01*
X159704263Y-82827146D01*
X159819264Y-82674546D01*
X159819352Y-82674363D01*
X159819501Y-82674230D01*
X159819990Y-82673580D01*
X159822431Y-82671114D01*
X159823751Y-82670094D01*
X160034508Y-82507827D01*
X160034634Y-82507683D01*
X160170974Y-82402806D01*
X160171178Y-82402573D01*
X160171458Y-82402434D01*
X160172437Y-82401679D01*
X160174869Y-82400285D01*
X160176685Y-82399545D01*
X160585386Y-82233526D01*
X160585429Y-82233498D01*
X160585484Y-82233487D01*
X160587090Y-82232834D01*
X160589683Y-82232168D01*
X160591231Y-82231988D01*
X160591361Y-82231946D01*
X160591498Y-82231957D01*
X162976499Y-81954257D01*
X162976573Y-81954233D01*
X163000561Y-81951496D01*
X163020328Y-81949793D01*
X163065807Y-81947122D01*
X163087094Y-81946500D01*
X164210554Y-81946500D01*
X164226389Y-81946862D01*
X164456952Y-81956927D01*
X164478947Y-81958528D01*
X164617946Y-81973136D01*
X164632218Y-81974946D01*
X165241990Y-82063568D01*
X165255050Y-82065479D01*
X165279585Y-82074503D01*
X165290076Y-82081073D01*
X165290222Y-82081128D01*
X165290334Y-82081234D01*
X166324992Y-82728539D01*
X166150326Y-87661014D01*
X166015363Y-87686409D01*
X165870033Y-87779927D01*
X165853944Y-87803475D01*
X165780476Y-87730007D01*
X165623535Y-87665000D01*
X165327850Y-87665000D01*
X165221100Y-87771750D01*
X165221100Y-88473000D01*
X165241100Y-88473000D01*
X165241100Y-88727000D01*
X165221100Y-88727000D01*
X165221100Y-89428250D01*
X165327850Y-89535000D01*
X165623535Y-89535000D01*
X165780476Y-89469993D01*
X165852668Y-89397801D01*
X165861527Y-89411567D01*
X166004219Y-89509064D01*
X166173600Y-89543365D01*
X167062600Y-89543365D01*
X167220837Y-89513591D01*
X167366167Y-89420073D01*
X167463664Y-89277381D01*
X167497965Y-89108000D01*
X167497965Y-88904130D01*
X167553466Y-88868339D01*
X167660681Y-88801883D01*
X167695481Y-88769383D01*
X167695654Y-88769142D01*
X167695907Y-88768985D01*
X168960429Y-87586000D01*
X169713640Y-87586000D01*
X169974247Y-87534162D01*
X170195180Y-87386540D01*
X170200435Y-87378675D01*
X170200435Y-88069000D01*
X170230209Y-88227237D01*
X170323727Y-88372567D01*
X170326482Y-88374449D01*
X170273807Y-88427124D01*
X170208800Y-88584064D01*
X170208800Y-88935250D01*
X170315550Y-89042000D01*
X170958800Y-89042000D01*
X170958800Y-89022000D01*
X171212800Y-89022000D01*
X171212800Y-89042000D01*
X171232800Y-89042000D01*
X171232800Y-89296000D01*
X171212800Y-89296000D01*
X171212800Y-89316000D01*
X170958800Y-89316000D01*
X170958800Y-89296000D01*
X170315550Y-89296000D01*
X170208800Y-89402750D01*
X170208800Y-89753936D01*
X170212094Y-89761889D01*
X168995292Y-90061692D01*
X168940369Y-90038886D01*
X168984160Y-90020792D01*
X169202924Y-89802410D01*
X169321465Y-89516933D01*
X169321734Y-89207823D01*
X169203692Y-88922140D01*
X168985310Y-88703376D01*
X168699833Y-88584835D01*
X168390723Y-88584566D01*
X168105040Y-88702608D01*
X167886276Y-88920990D01*
X167767735Y-89206467D01*
X167767475Y-89505029D01*
X166873372Y-90702736D01*
X166680510Y-90514439D01*
X166429570Y-90414000D01*
X165933000Y-90414000D01*
X165933000Y-90968000D01*
X165953000Y-90968000D01*
X165953000Y-91222000D01*
X165933000Y-91222000D01*
X165933000Y-91242000D01*
X165679000Y-91242000D01*
X165679000Y-91222000D01*
X164749400Y-91222000D01*
X164668481Y-91325099D01*
X164738088Y-91486737D01*
X164931490Y-91675561D01*
X165063386Y-91728352D01*
X165025753Y-91735838D01*
X164804820Y-91883460D01*
X164657198Y-92104393D01*
X164605360Y-92365000D01*
X164649033Y-92584560D01*
X164160614Y-92276998D01*
X164151897Y-92271459D01*
X164132412Y-92263908D01*
X164116239Y-92250681D01*
X164096139Y-92239981D01*
X164076288Y-92233996D01*
X164059285Y-92222131D01*
X164049324Y-92217767D01*
X162177060Y-91392155D01*
X162177204Y-91226907D01*
X162027627Y-90864901D01*
X164668481Y-90864901D01*
X164749400Y-90968000D01*
X165679000Y-90968000D01*
X165679000Y-90414000D01*
X165182430Y-90414000D01*
X164931490Y-90514439D01*
X164738088Y-90703263D01*
X164668481Y-90864901D01*
X162027627Y-90864901D01*
X161998394Y-90794154D01*
X161939896Y-90735553D01*
X162845802Y-88833750D01*
X164222600Y-88833750D01*
X164222600Y-89192936D01*
X164287607Y-89349876D01*
X164407724Y-89469993D01*
X164564665Y-89535000D01*
X164860350Y-89535000D01*
X164967100Y-89428250D01*
X164967100Y-88727000D01*
X164329350Y-88727000D01*
X164222600Y-88833750D01*
X162845802Y-88833750D01*
X163028868Y-88449435D01*
X163226460Y-88367792D01*
X163445224Y-88149410D01*
X163504331Y-88007064D01*
X164222600Y-88007064D01*
X164222600Y-88366250D01*
X164329350Y-88473000D01*
X164967100Y-88473000D01*
X164967100Y-87771750D01*
X164860350Y-87665000D01*
X164564665Y-87665000D01*
X164407724Y-87730007D01*
X164287607Y-87850124D01*
X164222600Y-88007064D01*
X163504331Y-88007064D01*
X163563765Y-87863933D01*
X163564000Y-87594365D01*
X164356570Y-87594365D01*
X164514807Y-87564591D01*
X164660137Y-87471073D01*
X164757634Y-87328381D01*
X164791935Y-87159000D01*
X164791935Y-86651000D01*
X164762161Y-86492763D01*
X164668643Y-86347433D01*
X164525951Y-86249936D01*
X164435079Y-86231534D01*
X164607180Y-86116540D01*
X164754802Y-85895607D01*
X164806640Y-85635000D01*
X164772363Y-85462677D01*
X164950554Y-85074035D01*
X164962076Y-85062454D01*
X165019755Y-84975657D01*
X165077723Y-84888719D01*
X165163023Y-84682219D01*
X165183292Y-84579797D01*
X165203700Y-84477200D01*
X165203700Y-84365200D01*
X165204100Y-83095369D01*
X165204036Y-83095047D01*
X165204100Y-83094724D01*
X165204000Y-82981924D01*
X165183387Y-82878775D01*
X165163045Y-82776711D01*
X165077045Y-82569311D01*
X165077006Y-82569253D01*
X165076993Y-82569187D01*
X165019247Y-82482882D01*
X164960572Y-82395140D01*
X164960515Y-82395102D01*
X164960477Y-82395045D01*
X164801742Y-82236509D01*
X164801738Y-82236505D01*
X164801577Y-82236345D01*
X164716141Y-82179337D01*
X164627501Y-82120135D01*
X164420000Y-82034235D01*
X164419814Y-82034198D01*
X164419658Y-82034094D01*
X164317361Y-82013840D01*
X164214491Y-81993400D01*
X164214306Y-81993437D01*
X164214120Y-81993400D01*
X164102121Y-81993500D01*
X163092600Y-81993500D01*
X163076959Y-81996611D01*
X163061164Y-81994421D01*
X163028763Y-81996321D01*
X163013247Y-82000364D01*
X162997264Y-81999101D01*
X162981947Y-82000909D01*
X162981889Y-82000904D01*
X160815189Y-82253204D01*
X160814956Y-82253279D01*
X160814713Y-82253260D01*
X160636613Y-82274160D01*
X160551805Y-82301622D01*
X160465508Y-82324015D01*
X160144208Y-82479316D01*
X160073111Y-82532983D01*
X159998937Y-82582332D01*
X159746137Y-82834132D01*
X159696451Y-82908174D01*
X159642468Y-82979152D01*
X159485969Y-83299952D01*
X159463242Y-83386242D01*
X159435468Y-83471061D01*
X159414168Y-83647562D01*
X159392930Y-83822155D01*
X159392945Y-83822355D01*
X159392882Y-83822548D01*
X159391424Y-83834608D01*
X159383205Y-83858946D01*
X159376801Y-83869829D01*
X159376800Y-83869830D01*
X158923400Y-84640230D01*
X158923399Y-84640233D01*
X158874533Y-84723180D01*
X158757158Y-84875116D01*
X158689564Y-84943005D01*
X157139848Y-86498614D01*
X156969923Y-86498466D01*
X156684240Y-86616508D01*
X156465476Y-86834890D01*
X156346935Y-87120367D01*
X156346666Y-87429477D01*
X156464708Y-87715160D01*
X156683090Y-87933924D01*
X156968567Y-88052465D01*
X157277677Y-88052734D01*
X157563360Y-87934692D01*
X157782124Y-87716310D01*
X157900665Y-87430833D01*
X157900817Y-87256506D01*
X159450436Y-85700995D01*
X159450479Y-85700931D01*
X159450544Y-85700887D01*
X159542044Y-85608987D01*
X159560852Y-85580705D01*
X159582617Y-85561743D01*
X156744727Y-91503874D01*
X156744569Y-91504495D01*
X156743593Y-91506332D01*
X156743503Y-91506454D01*
X156743305Y-91506874D01*
X156741478Y-91510313D01*
X156739748Y-91513333D01*
X156450412Y-92014615D01*
X156187840Y-92123108D01*
X155969076Y-92341490D01*
X155850535Y-92626967D01*
X155850266Y-92936077D01*
X155920070Y-93105015D01*
X155794376Y-93230490D01*
X155675835Y-93515967D01*
X155675566Y-93825077D01*
X155793608Y-94110760D01*
X156011990Y-94329524D01*
X156297467Y-94448065D01*
X156606577Y-94448334D01*
X156892260Y-94330292D01*
X157111024Y-94111910D01*
X157229565Y-93826433D01*
X157229572Y-93818103D01*
X157263346Y-93796939D01*
X157263705Y-93796601D01*
X157264167Y-93796424D01*
X157303267Y-93771824D01*
X157330005Y-93746515D01*
X157362294Y-93728820D01*
X157432194Y-93670220D01*
X157455928Y-93640675D01*
X157486291Y-93617999D01*
X157516991Y-93583898D01*
X157894715Y-93165065D01*
X159823000Y-93165065D01*
X159823000Y-93766250D01*
X159929750Y-93873000D01*
X160873000Y-93873000D01*
X160873000Y-92929750D01*
X161127000Y-92929750D01*
X161127000Y-93873000D01*
X162070250Y-93873000D01*
X162177000Y-93766250D01*
X162177000Y-93165065D01*
X162111993Y-93008124D01*
X161991876Y-92888007D01*
X161834936Y-92823000D01*
X161233750Y-92823000D01*
X161127000Y-92929750D01*
X160873000Y-92929750D01*
X160766250Y-92823000D01*
X160165064Y-92823000D01*
X160008124Y-92888007D01*
X159888007Y-93008124D01*
X159823000Y-93165065D01*
X157894715Y-93165065D01*
X159975702Y-90857599D01*
X159823205Y-91224853D01*
X159822796Y-91693093D01*
X160001606Y-92125846D01*
X160332412Y-92457230D01*
X160764853Y-92636795D01*
X161233093Y-92637204D01*
X161665846Y-92458394D01*
X161747753Y-92376630D01*
X162412061Y-92669570D01*
X162330007Y-92751624D01*
X162265000Y-92908565D01*
X162265000Y-93204250D01*
X162371750Y-93311000D01*
X163073000Y-93311000D01*
X163073000Y-93291000D01*
X163327000Y-93291000D01*
X163327000Y-93311000D01*
X163347000Y-93311000D01*
X163347000Y-93565000D01*
X163327000Y-93565000D01*
X163327000Y-93585000D01*
X163073000Y-93585000D01*
X163073000Y-93565000D01*
X162371750Y-93565000D01*
X162265000Y-93671750D01*
X162265000Y-93967435D01*
X162330007Y-94124376D01*
X162402199Y-94196568D01*
X162388433Y-94205427D01*
X162290936Y-94348119D01*
X162256635Y-94517500D01*
X162256635Y-95134278D01*
X161996254Y-95107615D01*
X162111993Y-94991876D01*
X162177000Y-94834935D01*
X162177000Y-94233750D01*
X162070250Y-94127000D01*
X161127000Y-94127000D01*
X161127000Y-94147000D01*
X160873000Y-94147000D01*
X160873000Y-94127000D01*
X159929750Y-94127000D01*
X159823000Y-94233750D01*
X159823000Y-94834935D01*
X159844687Y-94887293D01*
X157193387Y-94615798D01*
X157167910Y-94590276D01*
X156882433Y-94471735D01*
X156573323Y-94471466D01*
X156287640Y-94589508D01*
X156068876Y-94807890D01*
X155950335Y-95093367D01*
X155950066Y-95402477D01*
X156068108Y-95688160D01*
X156286490Y-95906924D01*
X156571967Y-96025465D01*
X156881077Y-96025734D01*
X157037861Y-95960952D01*
X158620349Y-96123000D01*
X137477000Y-96123000D01*
X137477000Y-92877000D01*
X142600000Y-92877000D01*
X142782540Y-92840691D01*
X142937290Y-92737290D01*
X143040691Y-92582540D01*
X143077000Y-92400000D01*
X143077000Y-90702277D01*
X143262966Y-90702277D01*
X143381008Y-90987960D01*
X143514146Y-91121331D01*
X144181478Y-93179874D01*
X144173135Y-93199967D01*
X144172866Y-93509077D01*
X144290908Y-93794760D01*
X144509290Y-94013524D01*
X144794767Y-94132065D01*
X145103877Y-94132334D01*
X145389560Y-94014292D01*
X145608324Y-93795910D01*
X145726865Y-93510433D01*
X145727134Y-93201323D01*
X145609092Y-92915640D01*
X145475954Y-92782269D01*
X144808622Y-90723726D01*
X144816965Y-90703633D01*
X144817234Y-90394523D01*
X144718025Y-90154419D01*
X144725769Y-86849775D01*
X144826565Y-86607033D01*
X144826834Y-86297923D01*
X144726664Y-86055493D01*
X144726336Y-82445647D01*
X144826165Y-82205233D01*
X144826434Y-81896123D01*
X144708392Y-81610440D01*
X144490010Y-81391676D01*
X144204533Y-81273135D01*
X143895423Y-81272866D01*
X143609740Y-81390908D01*
X143390976Y-81609290D01*
X143272435Y-81894767D01*
X143272166Y-82203877D01*
X143372336Y-82446307D01*
X143372664Y-86056153D01*
X143272835Y-86296567D01*
X143272566Y-86605677D01*
X143371775Y-86845781D01*
X143364031Y-90150425D01*
X143263235Y-90393167D01*
X143262966Y-90702277D01*
X143077000Y-90702277D01*
X143077000Y-84600000D01*
X143040691Y-84417460D01*
X142937290Y-84262710D01*
X142782540Y-84159309D01*
X142600000Y-84123000D01*
X137477000Y-84123000D01*
X137477000Y-80877000D01*
X160521155Y-80877000D01*
X160434949Y-80887038D01*
X160434949Y-80887038D01*
G37*
X160434949Y-80887038D02*
X160387769Y-80892512D01*
X160343579Y-80906758D01*
X160297219Y-80909325D01*
X160205818Y-80932825D01*
X160164517Y-80952675D01*
X160119516Y-80961313D01*
X160075716Y-80979113D01*
X160075714Y-80979114D01*
X159666913Y-81145174D01*
X159666659Y-81145341D01*
X159666360Y-81145399D01*
X159622160Y-81163399D01*
X159584045Y-81188539D01*
X159540763Y-81203086D01*
X159458964Y-81249986D01*
X159424000Y-81280464D01*
X159382442Y-81301066D01*
X159345426Y-81329593D01*
X159208926Y-81434594D01*
X159208673Y-81434884D01*
X159208492Y-81434973D01*
X158997692Y-81597273D01*
X158997326Y-81597692D01*
X158996831Y-81597938D01*
X158959031Y-81627138D01*
X158929248Y-81661322D01*
X158891682Y-81686709D01*
X158825381Y-81753709D01*
X158800014Y-81792109D01*
X158765699Y-81822770D01*
X158737937Y-81859654D01*
X158622937Y-82012254D01*
X158622829Y-82012478D01*
X158622415Y-82012848D01*
X158472471Y-82212044D01*
X158457385Y-82231996D01*
X158446093Y-82255311D01*
X158428094Y-82273941D01*
X158400294Y-82317141D01*
X158390734Y-82341395D01*
X158374097Y-82361468D01*
X158361588Y-82384597D01*
X157971974Y-83102003D01*
X157971869Y-83102342D01*
X157971642Y-83102615D01*
X157946342Y-83149315D01*
X157941863Y-83163786D01*
X157764733Y-83090235D01*
X157455623Y-83089966D01*
X157180930Y-83203467D01*
X155126044Y-83269221D01*
X154914633Y-83181435D01*
X154605523Y-83181166D01*
X154367220Y-83279631D01*
X152022701Y-83269689D01*
X151778133Y-83168135D01*
X151469023Y-83167866D01*
X151461195Y-83171101D01*
X149623386Y-82527708D01*
X149477110Y-82381176D01*
X149191633Y-82262635D01*
X148882523Y-82262366D01*
X148596840Y-82380408D01*
X148378076Y-82598790D01*
X148259535Y-82884267D01*
X148259266Y-83193377D01*
X148377308Y-83479060D01*
X148595690Y-83697824D01*
X148881167Y-83816365D01*
X149190277Y-83816634D01*
X149198105Y-83813399D01*
X149711666Y-83993190D01*
X149621735Y-84209767D01*
X149621466Y-84518877D01*
X149739508Y-84804560D01*
X149863452Y-84928721D01*
X149865603Y-85582467D01*
X149865622Y-85590236D01*
X149863759Y-85605377D01*
X149861842Y-85613028D01*
X148862559Y-89583259D01*
X148862558Y-89583262D01*
X148838458Y-89678962D01*
X148834457Y-89758368D01*
X148822875Y-89837025D01*
X148832775Y-90034225D01*
X148852172Y-90111310D01*
X148864096Y-90189891D01*
X148897176Y-90281382D01*
X149275753Y-91332401D01*
X149195335Y-91526067D01*
X149195066Y-91835177D01*
X149313108Y-92120860D01*
X149531490Y-92339624D01*
X149816967Y-92458165D01*
X150126077Y-92458434D01*
X150411760Y-92340392D01*
X150630524Y-92122010D01*
X150749065Y-91836533D01*
X150749334Y-91527423D01*
X150631292Y-91241740D01*
X150412910Y-91022976D01*
X150287016Y-90970700D01*
X150172483Y-90652729D01*
X150177677Y-90652734D01*
X150463360Y-90534692D01*
X150682124Y-90316310D01*
X150768834Y-90107490D01*
X151509778Y-90107490D01*
X151532878Y-90301191D01*
X151557168Y-90375720D01*
X151573886Y-90452295D01*
X151613186Y-90542395D01*
X151613421Y-90542733D01*
X151613510Y-90543138D01*
X151759315Y-90876042D01*
X151699635Y-91019767D01*
X151699366Y-91328877D01*
X151817408Y-91614560D01*
X152035790Y-91833324D01*
X152321267Y-91951865D01*
X152630377Y-91952134D01*
X152916060Y-91834092D01*
X153134824Y-91615710D01*
X153253365Y-91330233D01*
X153253634Y-91021123D01*
X153135592Y-90735440D01*
X152917210Y-90516676D01*
X152742673Y-90444201D01*
X152597290Y-90112262D01*
X152589952Y-90095439D01*
X152585636Y-90059251D01*
X152588773Y-90041537D01*
X152588770Y-90041387D01*
X152588825Y-90041245D01*
X153166828Y-86766715D01*
X153178260Y-86761992D01*
X153397024Y-86543610D01*
X153515565Y-86258133D01*
X153515834Y-85949023D01*
X153397792Y-85663340D01*
X153179410Y-85444576D01*
X152893933Y-85326035D01*
X152584823Y-85325766D01*
X152299140Y-85443808D01*
X152080376Y-85662190D01*
X151961835Y-85947667D01*
X151961566Y-86256777D01*
X152079608Y-86542460D01*
X152110370Y-86573276D01*
X151531227Y-89854263D01*
X151514227Y-89950263D01*
X151515887Y-90028984D01*
X151509778Y-90107490D01*
X150768834Y-90107490D01*
X150800665Y-90030833D01*
X150800934Y-89721723D01*
X150769720Y-89646179D01*
X151593431Y-86001306D01*
X151601357Y-85966333D01*
X151601911Y-85945444D01*
X151609238Y-85925879D01*
X151620938Y-85854279D01*
X151620244Y-85834110D01*
X151626200Y-85814825D01*
X151630000Y-85778126D01*
X151629969Y-85777793D01*
X151630067Y-85777474D01*
X151631267Y-85765774D01*
X151631267Y-85765773D01*
X151632080Y-85757860D01*
X151636086Y-85741499D01*
X151639395Y-85733188D01*
X152081201Y-84623950D01*
X154359599Y-84633611D01*
X154604167Y-84735165D01*
X154913277Y-84735434D01*
X155187970Y-84621933D01*
X155716575Y-84605018D01*
X155523501Y-84667055D01*
X155523007Y-84667329D01*
X155522445Y-84667395D01*
X155486545Y-84678995D01*
X155459096Y-84694308D01*
X155428341Y-84700800D01*
X155358941Y-84730500D01*
X155332374Y-84748704D01*
X155301627Y-84758287D01*
X155268927Y-84776087D01*
X155268840Y-84776160D01*
X155268730Y-84776194D01*
X154368506Y-85266610D01*
X154203523Y-85266466D01*
X153917840Y-85384508D01*
X153699076Y-85602890D01*
X153580535Y-85888367D01*
X153580266Y-86197477D01*
X153698308Y-86483160D01*
X153916690Y-86701924D01*
X154202167Y-86820465D01*
X154511277Y-86820734D01*
X154796960Y-86702692D01*
X155015724Y-86484310D01*
X155030967Y-86447601D01*
X155916273Y-85965313D01*
X155920970Y-85962756D01*
X155932458Y-85957840D01*
X155938548Y-85955872D01*
X158061500Y-85273745D01*
X158061594Y-85273693D01*
X158061704Y-85273680D01*
X158261604Y-85209380D01*
X158297219Y-85189572D01*
X158336856Y-85180116D01*
X158411695Y-85125905D01*
X158492456Y-85080989D01*
X158517778Y-85049062D01*
X158550781Y-85025156D01*
X158835381Y-84718156D01*
X158856705Y-84683469D01*
X158886604Y-84655831D01*
X158925306Y-84571879D01*
X158973721Y-84493125D01*
X158980148Y-84452918D01*
X158997194Y-84415942D01*
X159046195Y-84211842D01*
X159046196Y-84211821D01*
X159046203Y-84211805D01*
X159150203Y-83778505D01*
X159150220Y-83778062D01*
X159150406Y-83777658D01*
X159152113Y-83770507D01*
X159157872Y-83755497D01*
X159162158Y-83747585D01*
X159551926Y-83029897D01*
X159552088Y-83029375D01*
X159552208Y-83029190D01*
X159552504Y-83028832D01*
X159552853Y-83028187D01*
X159552856Y-83028182D01*
X159552915Y-83028104D01*
X159552942Y-83028049D01*
X159553463Y-83027239D01*
X159553784Y-83026952D01*
X159704038Y-82827347D01*
X159704263Y-82827146D01*
X159819264Y-82674546D01*
X159819352Y-82674363D01*
X159819501Y-82674230D01*
X159819990Y-82673580D01*
X159822431Y-82671114D01*
X159823751Y-82670094D01*
X160034508Y-82507827D01*
X160034634Y-82507683D01*
X160170974Y-82402806D01*
X160171178Y-82402573D01*
X160171458Y-82402434D01*
X160172437Y-82401679D01*
X160174869Y-82400285D01*
X160176685Y-82399545D01*
X160585386Y-82233526D01*
X160585429Y-82233498D01*
X160585484Y-82233487D01*
X160587090Y-82232834D01*
X160589683Y-82232168D01*
X160591231Y-82231988D01*
X160591361Y-82231946D01*
X160591498Y-82231957D01*
X162976499Y-81954257D01*
X162976573Y-81954233D01*
X163000561Y-81951496D01*
X163020328Y-81949793D01*
X163065807Y-81947122D01*
X163087094Y-81946500D01*
X164210554Y-81946500D01*
X164226389Y-81946862D01*
X164456952Y-81956927D01*
X164478947Y-81958528D01*
X164617946Y-81973136D01*
X164632218Y-81974946D01*
X165241990Y-82063568D01*
X165255050Y-82065479D01*
X165279585Y-82074503D01*
X165290076Y-82081073D01*
X165290222Y-82081128D01*
X165290334Y-82081234D01*
X166324992Y-82728539D01*
X166150326Y-87661014D01*
X166015363Y-87686409D01*
X165870033Y-87779927D01*
X165853944Y-87803475D01*
X165780476Y-87730007D01*
X165623535Y-87665000D01*
X165327850Y-87665000D01*
X165221100Y-87771750D01*
X165221100Y-88473000D01*
X165241100Y-88473000D01*
X165241100Y-88727000D01*
X165221100Y-88727000D01*
X165221100Y-89428250D01*
X165327850Y-89535000D01*
X165623535Y-89535000D01*
X165780476Y-89469993D01*
X165852668Y-89397801D01*
X165861527Y-89411567D01*
X166004219Y-89509064D01*
X166173600Y-89543365D01*
X167062600Y-89543365D01*
X167220837Y-89513591D01*
X167366167Y-89420073D01*
X167463664Y-89277381D01*
X167497965Y-89108000D01*
X167497965Y-88904130D01*
X167553466Y-88868339D01*
X167660681Y-88801883D01*
X167695481Y-88769383D01*
X167695654Y-88769142D01*
X167695907Y-88768985D01*
X168960429Y-87586000D01*
X169713640Y-87586000D01*
X169974247Y-87534162D01*
X170195180Y-87386540D01*
X170200435Y-87378675D01*
X170200435Y-88069000D01*
X170230209Y-88227237D01*
X170323727Y-88372567D01*
X170326482Y-88374449D01*
X170273807Y-88427124D01*
X170208800Y-88584064D01*
X170208800Y-88935250D01*
X170315550Y-89042000D01*
X170958800Y-89042000D01*
X170958800Y-89022000D01*
X171212800Y-89022000D01*
X171212800Y-89042000D01*
X171232800Y-89042000D01*
X171232800Y-89296000D01*
X171212800Y-89296000D01*
X171212800Y-89316000D01*
X170958800Y-89316000D01*
X170958800Y-89296000D01*
X170315550Y-89296000D01*
X170208800Y-89402750D01*
X170208800Y-89753936D01*
X170212094Y-89761889D01*
X168995292Y-90061692D01*
X168940369Y-90038886D01*
X168984160Y-90020792D01*
X169202924Y-89802410D01*
X169321465Y-89516933D01*
X169321734Y-89207823D01*
X169203692Y-88922140D01*
X168985310Y-88703376D01*
X168699833Y-88584835D01*
X168390723Y-88584566D01*
X168105040Y-88702608D01*
X167886276Y-88920990D01*
X167767735Y-89206467D01*
X167767475Y-89505029D01*
X166873372Y-90702736D01*
X166680510Y-90514439D01*
X166429570Y-90414000D01*
X165933000Y-90414000D01*
X165933000Y-90968000D01*
X165953000Y-90968000D01*
X165953000Y-91222000D01*
X165933000Y-91222000D01*
X165933000Y-91242000D01*
X165679000Y-91242000D01*
X165679000Y-91222000D01*
X164749400Y-91222000D01*
X164668481Y-91325099D01*
X164738088Y-91486737D01*
X164931490Y-91675561D01*
X165063386Y-91728352D01*
X165025753Y-91735838D01*
X164804820Y-91883460D01*
X164657198Y-92104393D01*
X164605360Y-92365000D01*
X164649033Y-92584560D01*
X164160614Y-92276998D01*
X164151897Y-92271459D01*
X164132412Y-92263908D01*
X164116239Y-92250681D01*
X164096139Y-92239981D01*
X164076288Y-92233996D01*
X164059285Y-92222131D01*
X164049324Y-92217767D01*
X162177060Y-91392155D01*
X162177204Y-91226907D01*
X162027627Y-90864901D01*
X164668481Y-90864901D01*
X164749400Y-90968000D01*
X165679000Y-90968000D01*
X165679000Y-90414000D01*
X165182430Y-90414000D01*
X164931490Y-90514439D01*
X164738088Y-90703263D01*
X164668481Y-90864901D01*
X162027627Y-90864901D01*
X161998394Y-90794154D01*
X161939896Y-90735553D01*
X162845802Y-88833750D01*
X164222600Y-88833750D01*
X164222600Y-89192936D01*
X164287607Y-89349876D01*
X164407724Y-89469993D01*
X164564665Y-89535000D01*
X164860350Y-89535000D01*
X164967100Y-89428250D01*
X164967100Y-88727000D01*
X164329350Y-88727000D01*
X164222600Y-88833750D01*
X162845802Y-88833750D01*
X163028868Y-88449435D01*
X163226460Y-88367792D01*
X163445224Y-88149410D01*
X163504331Y-88007064D01*
X164222600Y-88007064D01*
X164222600Y-88366250D01*
X164329350Y-88473000D01*
X164967100Y-88473000D01*
X164967100Y-87771750D01*
X164860350Y-87665000D01*
X164564665Y-87665000D01*
X164407724Y-87730007D01*
X164287607Y-87850124D01*
X164222600Y-88007064D01*
X163504331Y-88007064D01*
X163563765Y-87863933D01*
X163564000Y-87594365D01*
X164356570Y-87594365D01*
X164514807Y-87564591D01*
X164660137Y-87471073D01*
X164757634Y-87328381D01*
X164791935Y-87159000D01*
X164791935Y-86651000D01*
X164762161Y-86492763D01*
X164668643Y-86347433D01*
X164525951Y-86249936D01*
X164435079Y-86231534D01*
X164607180Y-86116540D01*
X164754802Y-85895607D01*
X164806640Y-85635000D01*
X164772363Y-85462677D01*
X164950554Y-85074035D01*
X164962076Y-85062454D01*
X165019755Y-84975657D01*
X165077723Y-84888719D01*
X165163023Y-84682219D01*
X165183292Y-84579797D01*
X165203700Y-84477200D01*
X165203700Y-84365200D01*
X165204100Y-83095369D01*
X165204036Y-83095047D01*
X165204100Y-83094724D01*
X165204000Y-82981924D01*
X165183387Y-82878775D01*
X165163045Y-82776711D01*
X165077045Y-82569311D01*
X165077006Y-82569253D01*
X165076993Y-82569187D01*
X165019247Y-82482882D01*
X164960572Y-82395140D01*
X164960515Y-82395102D01*
X164960477Y-82395045D01*
X164801742Y-82236509D01*
X164801738Y-82236505D01*
X164801577Y-82236345D01*
X164716141Y-82179337D01*
X164627501Y-82120135D01*
X164420000Y-82034235D01*
X164419814Y-82034198D01*
X164419658Y-82034094D01*
X164317361Y-82013840D01*
X164214491Y-81993400D01*
X164214306Y-81993437D01*
X164214120Y-81993400D01*
X164102121Y-81993500D01*
X163092600Y-81993500D01*
X163076959Y-81996611D01*
X163061164Y-81994421D01*
X163028763Y-81996321D01*
X163013247Y-82000364D01*
X162997264Y-81999101D01*
X162981947Y-82000909D01*
X162981889Y-82000904D01*
X160815189Y-82253204D01*
X160814956Y-82253279D01*
X160814713Y-82253260D01*
X160636613Y-82274160D01*
X160551805Y-82301622D01*
X160465508Y-82324015D01*
X160144208Y-82479316D01*
X160073111Y-82532983D01*
X159998937Y-82582332D01*
X159746137Y-82834132D01*
X159696451Y-82908174D01*
X159642468Y-82979152D01*
X159485969Y-83299952D01*
X159463242Y-83386242D01*
X159435468Y-83471061D01*
X159414168Y-83647562D01*
X159392930Y-83822155D01*
X159392945Y-83822355D01*
X159392882Y-83822548D01*
X159391424Y-83834608D01*
X159383205Y-83858946D01*
X159376801Y-83869829D01*
X159376800Y-83869830D01*
X158923400Y-84640230D01*
X158923399Y-84640233D01*
X158874533Y-84723180D01*
X158757158Y-84875116D01*
X158689564Y-84943005D01*
X157139848Y-86498614D01*
X156969923Y-86498466D01*
X156684240Y-86616508D01*
X156465476Y-86834890D01*
X156346935Y-87120367D01*
X156346666Y-87429477D01*
X156464708Y-87715160D01*
X156683090Y-87933924D01*
X156968567Y-88052465D01*
X157277677Y-88052734D01*
X157563360Y-87934692D01*
X157782124Y-87716310D01*
X157900665Y-87430833D01*
X157900817Y-87256506D01*
X159450436Y-85700995D01*
X159450479Y-85700931D01*
X159450544Y-85700887D01*
X159542044Y-85608987D01*
X159560852Y-85580705D01*
X159582617Y-85561743D01*
X156744727Y-91503874D01*
X156744569Y-91504495D01*
X156743593Y-91506332D01*
X156743503Y-91506454D01*
X156743305Y-91506874D01*
X156741478Y-91510313D01*
X156739748Y-91513333D01*
X156450412Y-92014615D01*
X156187840Y-92123108D01*
X155969076Y-92341490D01*
X155850535Y-92626967D01*
X155850266Y-92936077D01*
X155920070Y-93105015D01*
X155794376Y-93230490D01*
X155675835Y-93515967D01*
X155675566Y-93825077D01*
X155793608Y-94110760D01*
X156011990Y-94329524D01*
X156297467Y-94448065D01*
X156606577Y-94448334D01*
X156892260Y-94330292D01*
X157111024Y-94111910D01*
X157229565Y-93826433D01*
X157229572Y-93818103D01*
X157263346Y-93796939D01*
X157263705Y-93796601D01*
X157264167Y-93796424D01*
X157303267Y-93771824D01*
X157330005Y-93746515D01*
X157362294Y-93728820D01*
X157432194Y-93670220D01*
X157455928Y-93640675D01*
X157486291Y-93617999D01*
X157516991Y-93583898D01*
X157894715Y-93165065D01*
X159823000Y-93165065D01*
X159823000Y-93766250D01*
X159929750Y-93873000D01*
X160873000Y-93873000D01*
X160873000Y-92929750D01*
X161127000Y-92929750D01*
X161127000Y-93873000D01*
X162070250Y-93873000D01*
X162177000Y-93766250D01*
X162177000Y-93165065D01*
X162111993Y-93008124D01*
X161991876Y-92888007D01*
X161834936Y-92823000D01*
X161233750Y-92823000D01*
X161127000Y-92929750D01*
X160873000Y-92929750D01*
X160766250Y-92823000D01*
X160165064Y-92823000D01*
X160008124Y-92888007D01*
X159888007Y-93008124D01*
X159823000Y-93165065D01*
X157894715Y-93165065D01*
X159975702Y-90857599D01*
X159823205Y-91224853D01*
X159822796Y-91693093D01*
X160001606Y-92125846D01*
X160332412Y-92457230D01*
X160764853Y-92636795D01*
X161233093Y-92637204D01*
X161665846Y-92458394D01*
X161747753Y-92376630D01*
X162412061Y-92669570D01*
X162330007Y-92751624D01*
X162265000Y-92908565D01*
X162265000Y-93204250D01*
X162371750Y-93311000D01*
X163073000Y-93311000D01*
X163073000Y-93291000D01*
X163327000Y-93291000D01*
X163327000Y-93311000D01*
X163347000Y-93311000D01*
X163347000Y-93565000D01*
X163327000Y-93565000D01*
X163327000Y-93585000D01*
X163073000Y-93585000D01*
X163073000Y-93565000D01*
X162371750Y-93565000D01*
X162265000Y-93671750D01*
X162265000Y-93967435D01*
X162330007Y-94124376D01*
X162402199Y-94196568D01*
X162388433Y-94205427D01*
X162290936Y-94348119D01*
X162256635Y-94517500D01*
X162256635Y-95134278D01*
X161996254Y-95107615D01*
X162111993Y-94991876D01*
X162177000Y-94834935D01*
X162177000Y-94233750D01*
X162070250Y-94127000D01*
X161127000Y-94127000D01*
X161127000Y-94147000D01*
X160873000Y-94147000D01*
X160873000Y-94127000D01*
X159929750Y-94127000D01*
X159823000Y-94233750D01*
X159823000Y-94834935D01*
X159844687Y-94887293D01*
X157193387Y-94615798D01*
X157167910Y-94590276D01*
X156882433Y-94471735D01*
X156573323Y-94471466D01*
X156287640Y-94589508D01*
X156068876Y-94807890D01*
X155950335Y-95093367D01*
X155950066Y-95402477D01*
X156068108Y-95688160D01*
X156286490Y-95906924D01*
X156571967Y-96025465D01*
X156881077Y-96025734D01*
X157037861Y-95960952D01*
X158620349Y-96123000D01*
X137477000Y-96123000D01*
X137477000Y-92877000D01*
X142600000Y-92877000D01*
X142782540Y-92840691D01*
X142937290Y-92737290D01*
X143040691Y-92582540D01*
X143077000Y-92400000D01*
X143077000Y-90702277D01*
X143262966Y-90702277D01*
X143381008Y-90987960D01*
X143514146Y-91121331D01*
X144181478Y-93179874D01*
X144173135Y-93199967D01*
X144172866Y-93509077D01*
X144290908Y-93794760D01*
X144509290Y-94013524D01*
X144794767Y-94132065D01*
X145103877Y-94132334D01*
X145389560Y-94014292D01*
X145608324Y-93795910D01*
X145726865Y-93510433D01*
X145727134Y-93201323D01*
X145609092Y-92915640D01*
X145475954Y-92782269D01*
X144808622Y-90723726D01*
X144816965Y-90703633D01*
X144817234Y-90394523D01*
X144718025Y-90154419D01*
X144725769Y-86849775D01*
X144826565Y-86607033D01*
X144826834Y-86297923D01*
X144726664Y-86055493D01*
X144726336Y-82445647D01*
X144826165Y-82205233D01*
X144826434Y-81896123D01*
X144708392Y-81610440D01*
X144490010Y-81391676D01*
X144204533Y-81273135D01*
X143895423Y-81272866D01*
X143609740Y-81390908D01*
X143390976Y-81609290D01*
X143272435Y-81894767D01*
X143272166Y-82203877D01*
X143372336Y-82446307D01*
X143372664Y-86056153D01*
X143272835Y-86296567D01*
X143272566Y-86605677D01*
X143371775Y-86845781D01*
X143364031Y-90150425D01*
X143263235Y-90393167D01*
X143262966Y-90702277D01*
X143077000Y-90702277D01*
X143077000Y-84600000D01*
X143040691Y-84417460D01*
X142937290Y-84262710D01*
X142782540Y-84159309D01*
X142600000Y-84123000D01*
X137477000Y-84123000D01*
X137477000Y-80877000D01*
X160521155Y-80877000D01*
X160434949Y-80887038D01*
G36*
X168878882Y-82171871D02*
X168879102Y-82171889D01*
X168879298Y-82171990D01*
X169725272Y-82414000D01*
X169321000Y-82414000D01*
X169321000Y-82968000D01*
X169341000Y-82968000D01*
X169341000Y-83222000D01*
X169321000Y-83222000D01*
X169321000Y-83242000D01*
X169067000Y-83242000D01*
X169067000Y-83222000D01*
X168137400Y-83222000D01*
X168056481Y-83325099D01*
X168126088Y-83486737D01*
X168319490Y-83675561D01*
X168451386Y-83728352D01*
X168413753Y-83735838D01*
X168192820Y-83883460D01*
X168045198Y-84104393D01*
X167993360Y-84365000D01*
X168045198Y-84625607D01*
X168192820Y-84846540D01*
X168413753Y-84994162D01*
X168443103Y-85000000D01*
X168413753Y-85005838D01*
X168192820Y-85153460D01*
X168045198Y-85374393D01*
X167993360Y-85635000D01*
X168045198Y-85895607D01*
X168192820Y-86116540D01*
X168413753Y-86264162D01*
X168443103Y-86270000D01*
X168413753Y-86275838D01*
X168192820Y-86423460D01*
X168145564Y-86494184D01*
X167525968Y-87073828D01*
X167675012Y-82864901D01*
X168056481Y-82864901D01*
X168137400Y-82968000D01*
X169067000Y-82968000D01*
X169067000Y-82414000D01*
X168570430Y-82414000D01*
X168319490Y-82514439D01*
X168126088Y-82703263D01*
X168056481Y-82864901D01*
X167675012Y-82864901D01*
X167678192Y-82775100D01*
X168787069Y-82181836D01*
X168787284Y-82181659D01*
X168787551Y-82181578D01*
X168808240Y-82170488D01*
X168856238Y-82165377D01*
X168878882Y-82171871D01*
X168878882Y-82171871D01*
G37*
X168878882Y-82171871D02*
X168879102Y-82171889D01*
X168879298Y-82171990D01*
X169725272Y-82414000D01*
X169321000Y-82414000D01*
X169321000Y-82968000D01*
X169341000Y-82968000D01*
X169341000Y-83222000D01*
X169321000Y-83222000D01*
X169321000Y-83242000D01*
X169067000Y-83242000D01*
X169067000Y-83222000D01*
X168137400Y-83222000D01*
X168056481Y-83325099D01*
X168126088Y-83486737D01*
X168319490Y-83675561D01*
X168451386Y-83728352D01*
X168413753Y-83735838D01*
X168192820Y-83883460D01*
X168045198Y-84104393D01*
X167993360Y-84365000D01*
X168045198Y-84625607D01*
X168192820Y-84846540D01*
X168413753Y-84994162D01*
X168443103Y-85000000D01*
X168413753Y-85005838D01*
X168192820Y-85153460D01*
X168045198Y-85374393D01*
X167993360Y-85635000D01*
X168045198Y-85895607D01*
X168192820Y-86116540D01*
X168413753Y-86264162D01*
X168443103Y-86270000D01*
X168413753Y-86275838D01*
X168192820Y-86423460D01*
X168145564Y-86494184D01*
X167525968Y-87073828D01*
X167675012Y-82864901D01*
X168056481Y-82864901D01*
X168137400Y-82968000D01*
X169067000Y-82968000D01*
X169067000Y-82414000D01*
X168570430Y-82414000D01*
X168319490Y-82514439D01*
X168126088Y-82703263D01*
X168056481Y-82864901D01*
X167675012Y-82864901D01*
X167678192Y-82775100D01*
X168787069Y-82181836D01*
X168787284Y-82181659D01*
X168787551Y-82181578D01*
X168808240Y-82170488D01*
X168856238Y-82165377D01*
X168878882Y-82171871D01*
M02*
