M48
;DRILL file {KiCad 4.0.0-rc1-stable} date 25.10.2015 0:41:48
;FORMAT={-:-/ absolute / metric / decimal}
FMAT,2
METRIC,TZ
T1C0.300
T2C0.900
%
G90
G05
M71
T1
X143.471Y-94.95
X144.04Y-90.548
X144.049Y-82.05
X144.05Y-86.452
X144.95Y-93.355
X145.895Y-83.036
X147.475Y-92.256
X149.036Y-83.039
X149.742Y-85.583
X149.956Y-94.003
X149.972Y-91.681
X150.024Y-89.876
X150.399Y-84.365
X151.623Y-83.945
X151.754Y-85.779
X152.476Y-91.175
X152.543Y-92.906
X152.71Y-90.063
X152.739Y-86.103
X153.324Y-92.163
X153.8Y-95.
X154.357Y-86.044
X154.393Y-88.019
X154.759Y-83.958
X155.021Y-92.619
X155.7Y-89.7
X155.975Y-86.074
X156.453Y-93.671
X156.627Y-92.782
X156.633Y-91.451
X156.727Y-95.249
X157.124Y-87.276
X157.609Y-83.867
X159.27Y-83.807
X162.314Y-83.434
X162.615Y-85.
X162.787Y-87.709
X165.225Y-82.186
X165.393Y-90.243
X167.89Y-92.836
X168.545Y-89.362
X168.56Y-90.722
X168.845Y-82.291
X171.792Y-81.756
X173.266Y-91.728
X174.059Y-92.531
X174.412Y-89.751
X175.25Y-87.518
X175.73Y-89.525
X175.783Y-86.781
X176.76Y-91.756
X176.848Y-95.566
X177.093Y-93.759
X178.149Y-89.951
T2
X161.Y-83.84
X161.Y-86.38
X161.Y-88.92
X161.Y-91.46
X161.Y-94.
X174.4Y-82.8
X174.4Y-85.34
X177.211Y-82.027
T0
M30
