G04 #@! TF.FileFunction,Legend,Top*
%FSLAX46Y46*%
G04 Gerber Fmt 4.6, Leading zero omitted, Abs format (unit mm)*
G04 Created by KiCad (PCBNEW 4.0.0-rc1-stable) date 25.10.2015 0:42:20*
%MOMM*%
G01*
G04 APERTURE LIST*
%ADD10C,0.100000*%
%ADD11C,0.150000*%
%ADD12C,0.127000*%
%ADD13C,0.149860*%
G04 APERTURE END LIST*
D10*
D11*
X163799999Y-80571429D02*
X163799999Y-81057143D01*
X163828571Y-81114286D01*
X163857142Y-81142857D01*
X163914285Y-81171429D01*
X164028571Y-81171429D01*
X164085713Y-81142857D01*
X164114285Y-81114286D01*
X164142856Y-81057143D01*
X164142856Y-80571429D01*
X164399999Y-81000000D02*
X164685713Y-81000000D01*
X164342856Y-81171429D02*
X164542856Y-80571429D01*
X164742856Y-81171429D01*
X165285713Y-81171429D02*
X165085713Y-80885714D01*
X164942856Y-81171429D02*
X164942856Y-80571429D01*
X165171428Y-80571429D01*
X165228570Y-80600000D01*
X165257142Y-80628571D01*
X165285713Y-80685714D01*
X165285713Y-80771429D01*
X165257142Y-80828571D01*
X165228570Y-80857143D01*
X165171428Y-80885714D01*
X164942856Y-80885714D01*
X165457142Y-80571429D02*
X165799999Y-80571429D01*
X165628570Y-81171429D02*
X165628570Y-80571429D01*
X166371428Y-80771429D02*
X166599999Y-80771429D01*
X166457142Y-80571429D02*
X166457142Y-81085714D01*
X166485714Y-81142857D01*
X166542856Y-81171429D01*
X166599999Y-81171429D01*
X166885713Y-81171429D02*
X166828571Y-81142857D01*
X166799999Y-81114286D01*
X166771428Y-81057143D01*
X166771428Y-80885714D01*
X166799999Y-80828571D01*
X166828571Y-80800000D01*
X166885713Y-80771429D01*
X166971428Y-80771429D01*
X167028571Y-80800000D01*
X167057142Y-80828571D01*
X167085713Y-80885714D01*
X167085713Y-81057143D01*
X167057142Y-81114286D01*
X167028571Y-81142857D01*
X166971428Y-81171429D01*
X166885713Y-81171429D01*
X168142856Y-81171429D02*
X167942856Y-80885714D01*
X167799999Y-81171429D02*
X167799999Y-80571429D01*
X168028571Y-80571429D01*
X168085713Y-80600000D01*
X168114285Y-80628571D01*
X168142856Y-80685714D01*
X168142856Y-80771429D01*
X168114285Y-80828571D01*
X168085713Y-80857143D01*
X168028571Y-80885714D01*
X167799999Y-80885714D01*
X168371428Y-81142857D02*
X168457142Y-81171429D01*
X168599999Y-81171429D01*
X168657142Y-81142857D01*
X168685713Y-81114286D01*
X168714285Y-81057143D01*
X168714285Y-81000000D01*
X168685713Y-80942857D01*
X168657142Y-80914286D01*
X168599999Y-80885714D01*
X168485713Y-80857143D01*
X168428571Y-80828571D01*
X168399999Y-80800000D01*
X168371428Y-80742857D01*
X168371428Y-80685714D01*
X168399999Y-80628571D01*
X168428571Y-80600000D01*
X168485713Y-80571429D01*
X168628571Y-80571429D01*
X168714285Y-80600000D01*
X168942857Y-80628571D02*
X168971428Y-80600000D01*
X169028571Y-80571429D01*
X169171428Y-80571429D01*
X169228571Y-80600000D01*
X169257142Y-80628571D01*
X169285714Y-80685714D01*
X169285714Y-80742857D01*
X169257142Y-80828571D01*
X168914285Y-81171429D01*
X169285714Y-81171429D01*
X169485714Y-80571429D02*
X169857143Y-80571429D01*
X169657143Y-80800000D01*
X169742857Y-80800000D01*
X169800000Y-80828571D01*
X169828571Y-80857143D01*
X169857143Y-80914286D01*
X169857143Y-81057143D01*
X169828571Y-81114286D01*
X169800000Y-81142857D01*
X169742857Y-81171429D01*
X169571429Y-81171429D01*
X169514286Y-81142857D01*
X169485714Y-81114286D01*
X170085715Y-80628571D02*
X170114286Y-80600000D01*
X170171429Y-80571429D01*
X170314286Y-80571429D01*
X170371429Y-80600000D01*
X170400000Y-80628571D01*
X170428572Y-80685714D01*
X170428572Y-80742857D01*
X170400000Y-80828571D01*
X170057143Y-81171429D01*
X170428572Y-81171429D01*
X170700000Y-93100000D02*
X170700000Y-96500000D01*
X173100000Y-93100000D02*
X170700000Y-93100000D01*
X173100000Y-92400000D02*
X173100000Y-93100000D01*
X175200000Y-92100000D02*
X173100000Y-92100000D01*
X173405000Y-93557142D02*
X173376429Y-93614285D01*
X173376429Y-93699999D01*
X173405000Y-93785714D01*
X173462143Y-93842856D01*
X173519286Y-93871428D01*
X173633571Y-93899999D01*
X173719286Y-93899999D01*
X173833571Y-93871428D01*
X173890714Y-93842856D01*
X173947857Y-93785714D01*
X173976429Y-93699999D01*
X173976429Y-93642856D01*
X173947857Y-93557142D01*
X173919286Y-93528571D01*
X173719286Y-93528571D01*
X173719286Y-93642856D01*
X173976429Y-93271428D02*
X173376429Y-93271428D01*
X173976429Y-92928571D01*
X173376429Y-92928571D01*
X173976429Y-92642857D02*
X173376429Y-92642857D01*
X173376429Y-92500000D01*
X173405000Y-92414285D01*
X173462143Y-92357143D01*
X173519286Y-92328571D01*
X173633571Y-92300000D01*
X173719286Y-92300000D01*
X173833571Y-92328571D01*
X173890714Y-92357143D01*
X173947857Y-92414285D01*
X173976429Y-92500000D01*
X173976429Y-92642857D01*
X174366429Y-93699999D02*
X174366429Y-93585713D01*
X174395000Y-93528571D01*
X174452143Y-93471428D01*
X174566429Y-93442856D01*
X174766429Y-93442856D01*
X174880714Y-93471428D01*
X174937857Y-93528571D01*
X174966429Y-93585713D01*
X174966429Y-93699999D01*
X174937857Y-93757142D01*
X174880714Y-93814285D01*
X174766429Y-93842856D01*
X174566429Y-93842856D01*
X174452143Y-93814285D01*
X174395000Y-93757142D01*
X174366429Y-93699999D01*
X174366429Y-93185714D02*
X174852143Y-93185714D01*
X174909286Y-93157142D01*
X174937857Y-93128571D01*
X174966429Y-93071428D01*
X174966429Y-92957142D01*
X174937857Y-92900000D01*
X174909286Y-92871428D01*
X174852143Y-92842857D01*
X174366429Y-92842857D01*
X174366429Y-92642857D02*
X174366429Y-92300000D01*
X174966429Y-92471429D02*
X174366429Y-92471429D01*
X171100000Y-95657142D02*
X171071429Y-95714285D01*
X171071429Y-95799999D01*
X171100000Y-95885714D01*
X171157143Y-95942856D01*
X171214286Y-95971428D01*
X171328571Y-95999999D01*
X171414286Y-95999999D01*
X171528571Y-95971428D01*
X171585714Y-95942856D01*
X171642857Y-95885714D01*
X171671429Y-95799999D01*
X171671429Y-95742856D01*
X171642857Y-95657142D01*
X171614286Y-95628571D01*
X171414286Y-95628571D01*
X171414286Y-95742856D01*
X171671429Y-95371428D02*
X171071429Y-95371428D01*
X171671429Y-95028571D01*
X171071429Y-95028571D01*
X171671429Y-94742857D02*
X171071429Y-94742857D01*
X171071429Y-94600000D01*
X171100000Y-94514285D01*
X171157143Y-94457143D01*
X171214286Y-94428571D01*
X171328571Y-94400000D01*
X171414286Y-94400000D01*
X171528571Y-94428571D01*
X171585714Y-94457143D01*
X171642857Y-94514285D01*
X171671429Y-94600000D01*
X171671429Y-94742857D01*
X161542858Y-95700000D02*
X161485715Y-95671429D01*
X161400001Y-95671429D01*
X161314286Y-95700000D01*
X161257144Y-95757143D01*
X161228572Y-95814286D01*
X161200001Y-95928571D01*
X161200001Y-96014286D01*
X161228572Y-96128571D01*
X161257144Y-96185714D01*
X161314286Y-96242857D01*
X161400001Y-96271429D01*
X161457144Y-96271429D01*
X161542858Y-96242857D01*
X161571429Y-96214286D01*
X161571429Y-96014286D01*
X161457144Y-96014286D01*
X161828572Y-96271429D02*
X161828572Y-95671429D01*
X162171429Y-96271429D01*
X162171429Y-95671429D01*
X162457143Y-96271429D02*
X162457143Y-95671429D01*
X162600000Y-95671429D01*
X162685715Y-95700000D01*
X162742857Y-95757143D01*
X162771429Y-95814286D01*
X162800000Y-95928571D01*
X162800000Y-96014286D01*
X162771429Y-96128571D01*
X162742857Y-96185714D01*
X162685715Y-96242857D01*
X162600000Y-96271429D01*
X162457143Y-96271429D01*
X162971429Y-91400000D02*
X162685714Y-91600000D01*
X162971429Y-91742857D02*
X162371429Y-91742857D01*
X162371429Y-91514285D01*
X162400000Y-91457143D01*
X162428571Y-91428571D01*
X162485714Y-91400000D01*
X162571429Y-91400000D01*
X162628571Y-91428571D01*
X162657143Y-91457143D01*
X162685714Y-91514285D01*
X162685714Y-91742857D01*
X162371429Y-91200000D02*
X162971429Y-90800000D01*
X162371429Y-90800000D02*
X162971429Y-91200000D01*
X162371429Y-89157143D02*
X162371429Y-88814286D01*
X162971429Y-88985715D02*
X162371429Y-88985715D01*
X162371429Y-88671429D02*
X162971429Y-88271429D01*
X162371429Y-88271429D02*
X162971429Y-88671429D01*
X162914286Y-86828572D02*
X162942857Y-86857143D01*
X162971429Y-86942857D01*
X162971429Y-87000000D01*
X162942857Y-87085715D01*
X162885714Y-87142857D01*
X162828571Y-87171429D01*
X162714286Y-87200000D01*
X162628571Y-87200000D01*
X162514286Y-87171429D01*
X162457143Y-87142857D01*
X162400000Y-87085715D01*
X162371429Y-87000000D01*
X162371429Y-86942857D01*
X162400000Y-86857143D01*
X162428571Y-86828572D01*
X162371429Y-86657143D02*
X162371429Y-86314286D01*
X162971429Y-86485715D02*
X162371429Y-86485715D01*
X162942857Y-86142857D02*
X162971429Y-86057143D01*
X162971429Y-85914286D01*
X162942857Y-85857143D01*
X162914286Y-85828572D01*
X162857143Y-85800000D01*
X162800000Y-85800000D01*
X162742857Y-85828572D01*
X162714286Y-85857143D01*
X162685714Y-85914286D01*
X162657143Y-86028572D01*
X162628571Y-86085714D01*
X162600000Y-86114286D01*
X162542857Y-86142857D01*
X162485714Y-86142857D01*
X162428571Y-86114286D01*
X162400000Y-86085714D01*
X162371429Y-86028572D01*
X162371429Y-85885714D01*
X162400000Y-85800000D01*
X162971429Y-84328572D02*
X162685714Y-84528572D01*
X162971429Y-84671429D02*
X162371429Y-84671429D01*
X162371429Y-84442857D01*
X162400000Y-84385715D01*
X162428571Y-84357143D01*
X162485714Y-84328572D01*
X162571429Y-84328572D01*
X162628571Y-84357143D01*
X162657143Y-84385715D01*
X162685714Y-84442857D01*
X162685714Y-84671429D01*
X162371429Y-84157143D02*
X162371429Y-83814286D01*
X162971429Y-83985715D02*
X162371429Y-83985715D01*
X162942857Y-83642857D02*
X162971429Y-83557143D01*
X162971429Y-83414286D01*
X162942857Y-83357143D01*
X162914286Y-83328572D01*
X162857143Y-83300000D01*
X162800000Y-83300000D01*
X162742857Y-83328572D01*
X162714286Y-83357143D01*
X162685714Y-83414286D01*
X162657143Y-83528572D01*
X162628571Y-83585714D01*
X162600000Y-83614286D01*
X162542857Y-83642857D01*
X162485714Y-83642857D01*
X162428571Y-83614286D01*
X162400000Y-83585714D01*
X162371429Y-83528572D01*
X162371429Y-83385714D01*
X162400000Y-83300000D01*
X160242857Y-81771429D02*
X160242857Y-82257143D01*
X160271429Y-82314286D01*
X160300000Y-82342857D01*
X160357143Y-82371429D01*
X160471429Y-82371429D01*
X160528571Y-82342857D01*
X160557143Y-82314286D01*
X160585714Y-82257143D01*
X160585714Y-81771429D01*
X160842857Y-82200000D02*
X161128571Y-82200000D01*
X160785714Y-82371429D02*
X160985714Y-81771429D01*
X161185714Y-82371429D01*
X161728571Y-82371429D02*
X161528571Y-82085714D01*
X161385714Y-82371429D02*
X161385714Y-81771429D01*
X161614286Y-81771429D01*
X161671428Y-81800000D01*
X161700000Y-81828571D01*
X161728571Y-81885714D01*
X161728571Y-81971429D01*
X161700000Y-82028571D01*
X161671428Y-82057143D01*
X161614286Y-82085714D01*
X161385714Y-82085714D01*
X161900000Y-81771429D02*
X162242857Y-81771429D01*
X162071428Y-82371429D02*
X162071428Y-81771429D01*
X178400000Y-94700000D02*
X177900000Y-94700000D01*
X175200000Y-92200000D02*
X175200000Y-94000000D01*
X175200000Y-92200000D02*
X175200000Y-89800000D01*
X178400000Y-92200000D02*
X175200000Y-92200000D01*
X178400000Y-89700000D02*
X176500000Y-89700000D01*
X178400000Y-87100000D02*
X176500000Y-87100000D01*
X175900000Y-84600000D02*
X175900000Y-86600000D01*
X175900000Y-82100000D02*
X178400000Y-82100000D01*
X175900000Y-84600000D02*
X175900000Y-82100000D01*
X178300000Y-84600000D02*
X175900000Y-84600000D01*
X176500000Y-86600000D02*
X175700000Y-86600000D01*
X176500000Y-89800000D02*
X176500000Y-86600000D01*
X174200000Y-89800000D02*
X176500000Y-89800000D01*
X174200000Y-86600000D02*
X174200000Y-89800000D01*
X174776429Y-89171429D02*
X175176429Y-89171429D01*
X174547857Y-89314286D02*
X174976429Y-89457143D01*
X174976429Y-89085715D01*
X174833571Y-88771429D02*
X174805000Y-88828571D01*
X174776429Y-88857143D01*
X174719286Y-88885714D01*
X174690714Y-88885714D01*
X174633571Y-88857143D01*
X174605000Y-88828571D01*
X174576429Y-88771429D01*
X174576429Y-88657143D01*
X174605000Y-88600000D01*
X174633571Y-88571429D01*
X174690714Y-88542857D01*
X174719286Y-88542857D01*
X174776429Y-88571429D01*
X174805000Y-88600000D01*
X174833571Y-88657143D01*
X174833571Y-88771429D01*
X174862143Y-88828571D01*
X174890714Y-88857143D01*
X174947857Y-88885714D01*
X175062143Y-88885714D01*
X175119286Y-88857143D01*
X175147857Y-88828571D01*
X175176429Y-88771429D01*
X175176429Y-88657143D01*
X175147857Y-88600000D01*
X175119286Y-88571429D01*
X175062143Y-88542857D01*
X174947857Y-88542857D01*
X174890714Y-88571429D01*
X174862143Y-88600000D01*
X174833571Y-88657143D01*
X174576429Y-88000000D02*
X174576429Y-88285714D01*
X174862143Y-88314285D01*
X174833571Y-88285714D01*
X174805000Y-88228571D01*
X174805000Y-88085714D01*
X174833571Y-88028571D01*
X174862143Y-88000000D01*
X174919286Y-87971428D01*
X175062143Y-87971428D01*
X175119286Y-88000000D01*
X175147857Y-88028571D01*
X175176429Y-88085714D01*
X175176429Y-88228571D01*
X175147857Y-88285714D01*
X175119286Y-88314285D01*
X174576429Y-87685713D02*
X174690714Y-87742856D01*
X175147857Y-87457142D02*
X175176429Y-87399999D01*
X175176429Y-87285714D01*
X175147857Y-87228571D01*
X175090714Y-87199999D01*
X175062143Y-87199999D01*
X175005000Y-87228571D01*
X174976429Y-87285714D01*
X174976429Y-87371428D01*
X174947857Y-87428571D01*
X174890714Y-87457142D01*
X174862143Y-87457142D01*
X174805000Y-87428571D01*
X174776429Y-87371428D01*
X174776429Y-87285714D01*
X174805000Y-87228571D01*
X176166429Y-88800000D02*
X176166429Y-89142857D01*
X176166429Y-88971429D02*
X175566429Y-88971429D01*
X175652143Y-89028572D01*
X175709286Y-89085714D01*
X175737857Y-89142857D01*
X175623571Y-88571428D02*
X175595000Y-88542857D01*
X175566429Y-88485714D01*
X175566429Y-88342857D01*
X175595000Y-88285714D01*
X175623571Y-88257143D01*
X175680714Y-88228571D01*
X175737857Y-88228571D01*
X175823571Y-88257143D01*
X176166429Y-88600000D01*
X176166429Y-88228571D01*
X175566429Y-87857142D02*
X175566429Y-87799999D01*
X175595000Y-87742856D01*
X175623571Y-87714285D01*
X175680714Y-87685714D01*
X175795000Y-87657142D01*
X175937857Y-87657142D01*
X176052143Y-87685714D01*
X176109286Y-87714285D01*
X176137857Y-87742856D01*
X176166429Y-87799999D01*
X176166429Y-87857142D01*
X176137857Y-87914285D01*
X176109286Y-87942856D01*
X176052143Y-87971428D01*
X175937857Y-87999999D01*
X175795000Y-87999999D01*
X175680714Y-87971428D01*
X175623571Y-87942856D01*
X175595000Y-87914285D01*
X175566429Y-87857142D01*
X176166429Y-87057142D02*
X175880714Y-87257142D01*
X176166429Y-87399999D02*
X175566429Y-87399999D01*
X175566429Y-87171427D01*
X175595000Y-87114285D01*
X175623571Y-87085713D01*
X175680714Y-87057142D01*
X175766429Y-87057142D01*
X175823571Y-87085713D01*
X175852143Y-87114285D01*
X175880714Y-87171427D01*
X175880714Y-87399999D01*
X176742858Y-82805000D02*
X176685715Y-82776429D01*
X176600001Y-82776429D01*
X176514286Y-82805000D01*
X176457144Y-82862143D01*
X176428572Y-82919286D01*
X176400001Y-83033571D01*
X176400001Y-83119286D01*
X176428572Y-83233571D01*
X176457144Y-83290714D01*
X176514286Y-83347857D01*
X176600001Y-83376429D01*
X176657144Y-83376429D01*
X176742858Y-83347857D01*
X176771429Y-83319286D01*
X176771429Y-83119286D01*
X176657144Y-83119286D01*
X177028572Y-83376429D02*
X177028572Y-82776429D01*
X177371429Y-83376429D01*
X177371429Y-82776429D01*
X177657143Y-83376429D02*
X177657143Y-82776429D01*
X177800000Y-82776429D01*
X177885715Y-82805000D01*
X177942857Y-82862143D01*
X177971429Y-82919286D01*
X178000000Y-83033571D01*
X178000000Y-83119286D01*
X177971429Y-83233571D01*
X177942857Y-83290714D01*
X177885715Y-83347857D01*
X177800000Y-83376429D01*
X177657143Y-83376429D01*
X176600001Y-83766429D02*
X176714287Y-83766429D01*
X176771429Y-83795000D01*
X176828572Y-83852143D01*
X176857144Y-83966429D01*
X176857144Y-84166429D01*
X176828572Y-84280714D01*
X176771429Y-84337857D01*
X176714287Y-84366429D01*
X176600001Y-84366429D01*
X176542858Y-84337857D01*
X176485715Y-84280714D01*
X176457144Y-84166429D01*
X176457144Y-83966429D01*
X176485715Y-83852143D01*
X176542858Y-83795000D01*
X176600001Y-83766429D01*
X177114286Y-83766429D02*
X177114286Y-84252143D01*
X177142858Y-84309286D01*
X177171429Y-84337857D01*
X177228572Y-84366429D01*
X177342858Y-84366429D01*
X177400000Y-84337857D01*
X177428572Y-84309286D01*
X177457143Y-84252143D01*
X177457143Y-83766429D01*
X177657143Y-83766429D02*
X178000000Y-83766429D01*
X177828571Y-84366429D02*
X177828571Y-83766429D01*
X175914286Y-85700000D02*
X176200000Y-85700000D01*
X175857143Y-85871429D02*
X176057143Y-85271429D01*
X176257143Y-85871429D01*
X176457143Y-85271429D02*
X176457143Y-85757143D01*
X176485715Y-85814286D01*
X176514286Y-85842857D01*
X176571429Y-85871429D01*
X176685715Y-85871429D01*
X176742857Y-85842857D01*
X176771429Y-85814286D01*
X176800000Y-85757143D01*
X176800000Y-85271429D01*
X177028571Y-85271429D02*
X177428571Y-85871429D01*
X177428571Y-85271429D02*
X177028571Y-85871429D01*
X177942857Y-85271429D02*
X177657143Y-85271429D01*
X177628572Y-85557143D01*
X177657143Y-85528571D01*
X177714286Y-85500000D01*
X177857143Y-85500000D01*
X177914286Y-85528571D01*
X177942857Y-85557143D01*
X177971429Y-85614286D01*
X177971429Y-85757143D01*
X177942857Y-85814286D01*
X177914286Y-85842857D01*
X177857143Y-85871429D01*
X177714286Y-85871429D01*
X177657143Y-85842857D01*
X177628572Y-85814286D01*
X178142858Y-85271429D02*
X178342858Y-85871429D01*
X178542858Y-85271429D01*
X177342857Y-88171429D02*
X177685714Y-88171429D01*
X177514285Y-88771429D02*
X177514285Y-88171429D01*
X177828571Y-88171429D02*
X178228571Y-88771429D01*
X178228571Y-88171429D02*
X177828571Y-88771429D01*
X176342857Y-90971429D02*
X176342857Y-91371429D01*
X176200000Y-90742857D02*
X176057143Y-91171429D01*
X176428571Y-91171429D01*
X176742857Y-91028571D02*
X176685715Y-91000000D01*
X176657143Y-90971429D01*
X176628572Y-90914286D01*
X176628572Y-90885714D01*
X176657143Y-90828571D01*
X176685715Y-90800000D01*
X176742857Y-90771429D01*
X176857143Y-90771429D01*
X176914286Y-90800000D01*
X176942857Y-90828571D01*
X176971429Y-90885714D01*
X176971429Y-90914286D01*
X176942857Y-90971429D01*
X176914286Y-91000000D01*
X176857143Y-91028571D01*
X176742857Y-91028571D01*
X176685715Y-91057143D01*
X176657143Y-91085714D01*
X176628572Y-91142857D01*
X176628572Y-91257143D01*
X176657143Y-91314286D01*
X176685715Y-91342857D01*
X176742857Y-91371429D01*
X176857143Y-91371429D01*
X176914286Y-91342857D01*
X176942857Y-91314286D01*
X176971429Y-91257143D01*
X176971429Y-91142857D01*
X176942857Y-91085714D01*
X176914286Y-91057143D01*
X176857143Y-91028571D01*
X177514286Y-90771429D02*
X177228572Y-90771429D01*
X177200001Y-91057143D01*
X177228572Y-91028571D01*
X177285715Y-91000000D01*
X177428572Y-91000000D01*
X177485715Y-91028571D01*
X177514286Y-91057143D01*
X177542858Y-91114286D01*
X177542858Y-91257143D01*
X177514286Y-91314286D01*
X177485715Y-91342857D01*
X177428572Y-91371429D01*
X177285715Y-91371429D01*
X177228572Y-91342857D01*
X177200001Y-91314286D01*
X178000001Y-91057143D02*
X178085715Y-91085714D01*
X178114287Y-91114286D01*
X178142858Y-91171429D01*
X178142858Y-91257143D01*
X178114287Y-91314286D01*
X178085715Y-91342857D01*
X178028573Y-91371429D01*
X177800001Y-91371429D01*
X177800001Y-90771429D01*
X178000001Y-90771429D01*
X178057144Y-90800000D01*
X178085715Y-90828571D01*
X178114287Y-90885714D01*
X178114287Y-90942857D01*
X178085715Y-91000000D01*
X178057144Y-91028571D01*
X178000001Y-91057143D01*
X177800001Y-91057143D01*
X175871427Y-93576429D02*
X175871427Y-93976429D01*
X175728570Y-93347857D02*
X175585713Y-93776429D01*
X175957141Y-93776429D01*
X176271427Y-93633571D02*
X176214285Y-93605000D01*
X176185713Y-93576429D01*
X176157142Y-93519286D01*
X176157142Y-93490714D01*
X176185713Y-93433571D01*
X176214285Y-93405000D01*
X176271427Y-93376429D01*
X176385713Y-93376429D01*
X176442856Y-93405000D01*
X176471427Y-93433571D01*
X176499999Y-93490714D01*
X176499999Y-93519286D01*
X176471427Y-93576429D01*
X176442856Y-93605000D01*
X176385713Y-93633571D01*
X176271427Y-93633571D01*
X176214285Y-93662143D01*
X176185713Y-93690714D01*
X176157142Y-93747857D01*
X176157142Y-93862143D01*
X176185713Y-93919286D01*
X176214285Y-93947857D01*
X176271427Y-93976429D01*
X176385713Y-93976429D01*
X176442856Y-93947857D01*
X176471427Y-93919286D01*
X176499999Y-93862143D01*
X176499999Y-93747857D01*
X176471427Y-93690714D01*
X176442856Y-93662143D01*
X176385713Y-93633571D01*
X177042856Y-93376429D02*
X176757142Y-93376429D01*
X176728571Y-93662143D01*
X176757142Y-93633571D01*
X176814285Y-93605000D01*
X176957142Y-93605000D01*
X177014285Y-93633571D01*
X177042856Y-93662143D01*
X177071428Y-93719286D01*
X177071428Y-93862143D01*
X177042856Y-93919286D01*
X177014285Y-93947857D01*
X176957142Y-93976429D01*
X176814285Y-93976429D01*
X176757142Y-93947857D01*
X176728571Y-93919286D01*
X177300000Y-93805000D02*
X177585714Y-93805000D01*
X177242857Y-93976429D02*
X177442857Y-93376429D01*
X177642857Y-93976429D01*
X177014285Y-94966429D02*
X176814285Y-94680714D01*
X176671428Y-94966429D02*
X176671428Y-94366429D01*
X176900000Y-94366429D01*
X176957142Y-94395000D01*
X176985714Y-94423571D01*
X177014285Y-94480714D01*
X177014285Y-94566429D01*
X176985714Y-94623571D01*
X176957142Y-94652143D01*
X176900000Y-94680714D01*
X176671428Y-94680714D01*
X177214285Y-94366429D02*
X177614285Y-94966429D01*
X177614285Y-94366429D02*
X177214285Y-94966429D01*
X146700000Y-95600000D02*
X146700000Y-94800000D01*
X146700000Y-94800000D02*
X149700000Y-94800000D01*
X149700000Y-94800000D02*
X149700000Y-96400000D01*
X149700000Y-96400000D02*
X146700000Y-96400000D01*
X146700000Y-96400000D02*
X146700000Y-95600000D01*
X149500000Y-85200000D02*
X149500000Y-86000000D01*
X149500000Y-86000000D02*
X146500000Y-86000000D01*
X146500000Y-86000000D02*
X146500000Y-84400000D01*
X146500000Y-84400000D02*
X149500000Y-84400000D01*
X149500000Y-84400000D02*
X149500000Y-85200000D01*
X146500000Y-91200000D02*
X146500000Y-90400000D01*
X146500000Y-90400000D02*
X149500000Y-90400000D01*
X149500000Y-90400000D02*
X149500000Y-92000000D01*
X149500000Y-92000000D02*
X146500000Y-92000000D01*
X146500000Y-92000000D02*
X146500000Y-91200000D01*
X153300000Y-85000000D02*
X153300000Y-84200000D01*
X153300000Y-84200000D02*
X156300000Y-84200000D01*
X156300000Y-84200000D02*
X156300000Y-85800000D01*
X156300000Y-85800000D02*
X153300000Y-85800000D01*
X153300000Y-85800000D02*
X153300000Y-85000000D01*
X145700000Y-80800000D02*
X149500000Y-80800000D01*
X149500000Y-80800000D02*
X149500000Y-82800000D01*
X149500000Y-82800000D02*
X145700000Y-82800000D01*
X145700000Y-82800000D02*
X145700000Y-80800000D01*
X172208000Y-89440500D02*
X173008000Y-89440500D01*
X173008000Y-89440500D02*
X173008000Y-92440500D01*
X173008000Y-92440500D02*
X171408000Y-92440500D01*
X171408000Y-92440500D02*
X171408000Y-89440500D01*
X171408000Y-89440500D02*
X172208000Y-89440500D01*
X172208000Y-85965900D02*
X173008000Y-85965900D01*
X173008000Y-85965900D02*
X173008000Y-88965900D01*
X173008000Y-88965900D02*
X171408000Y-88965900D01*
X171408000Y-88965900D02*
X171408000Y-85965900D01*
X171408000Y-85965900D02*
X172208000Y-85965900D01*
X162900000Y-94000000D02*
X162900000Y-93200000D01*
X162900000Y-93200000D02*
X165900000Y-93200000D01*
X165900000Y-93200000D02*
X165900000Y-94800000D01*
X165900000Y-94800000D02*
X162900000Y-94800000D01*
X162900000Y-94800000D02*
X162900000Y-94000000D01*
X168900000Y-94000000D02*
X168900000Y-94800000D01*
X168900000Y-94800000D02*
X165900000Y-94800000D01*
X165900000Y-94800000D02*
X165900000Y-93200000D01*
X165900000Y-93200000D02*
X168900000Y-93200000D01*
X168900000Y-93200000D02*
X168900000Y-94000000D01*
X172200000Y-85500000D02*
X171400000Y-85500000D01*
X171400000Y-85500000D02*
X171400000Y-82500000D01*
X171400000Y-82500000D02*
X173000000Y-82500000D01*
X173000000Y-82500000D02*
X173000000Y-85500000D01*
X173000000Y-85500000D02*
X172200000Y-85500000D01*
X154400000Y-83900000D02*
X154400000Y-84100000D01*
X154400000Y-84100000D02*
X152800000Y-84100000D01*
X152800000Y-84100000D02*
X152800000Y-83900000D01*
X154400000Y-83700000D02*
X154400000Y-83850000D01*
X154400000Y-83850000D02*
X152800000Y-83850000D01*
X152800000Y-83850000D02*
X152800000Y-83700000D01*
X152800000Y-83700000D02*
X152800000Y-83950000D01*
X152800000Y-83950000D02*
X154400000Y-83950000D01*
X154400000Y-83950000D02*
X154400000Y-83850000D01*
X153600000Y-80700000D02*
X154400000Y-80700000D01*
X154400000Y-80700000D02*
X154400000Y-83700000D01*
X154400000Y-83700000D02*
X152800000Y-83700000D01*
X152800000Y-83700000D02*
X152800000Y-80700000D01*
X152800000Y-80700000D02*
X153700000Y-80700000D01*
X151200000Y-83900000D02*
X151200000Y-84100000D01*
X151200000Y-84100000D02*
X149600000Y-84100000D01*
X149600000Y-84100000D02*
X149600000Y-83900000D01*
X151200000Y-83700000D02*
X151200000Y-83850000D01*
X151200000Y-83850000D02*
X149600000Y-83850000D01*
X149600000Y-83850000D02*
X149600000Y-83700000D01*
X149600000Y-83700000D02*
X149600000Y-83950000D01*
X149600000Y-83950000D02*
X151200000Y-83950000D01*
X151200000Y-83950000D02*
X151200000Y-83850000D01*
X150400000Y-80700000D02*
X151200000Y-80700000D01*
X151200000Y-80700000D02*
X151200000Y-83700000D01*
X151200000Y-83700000D02*
X149600000Y-83700000D01*
X149600000Y-83700000D02*
X149600000Y-80700000D01*
X149600000Y-80700000D02*
X150500000Y-80700000D01*
X157600000Y-83900000D02*
X157600000Y-84100000D01*
X157600000Y-84100000D02*
X156000000Y-84100000D01*
X156000000Y-84100000D02*
X156000000Y-83900000D01*
X157600000Y-83700000D02*
X157600000Y-83850000D01*
X157600000Y-83850000D02*
X156000000Y-83850000D01*
X156000000Y-83850000D02*
X156000000Y-83700000D01*
X156000000Y-83700000D02*
X156000000Y-83950000D01*
X156000000Y-83950000D02*
X157600000Y-83950000D01*
X157600000Y-83950000D02*
X157600000Y-83850000D01*
X156800000Y-80700000D02*
X157600000Y-80700000D01*
X157600000Y-80700000D02*
X157600000Y-83700000D01*
X157600000Y-83700000D02*
X156000000Y-83700000D01*
X156000000Y-83700000D02*
X156000000Y-80700000D01*
X156000000Y-80700000D02*
X156900000Y-80700000D01*
D12*
X168800860Y-92599940D02*
X168800860Y-82099580D01*
X168800860Y-82099580D02*
X165199140Y-82099580D01*
X165199140Y-82099580D02*
X165199140Y-92599940D01*
X166601220Y-92599940D02*
X166601220Y-91898900D01*
X166601220Y-91898900D02*
X167398780Y-91898900D01*
X167398780Y-91898900D02*
X167398780Y-92599940D01*
X167398780Y-92599940D02*
X167299720Y-92599940D01*
X168800860Y-92599940D02*
X165199140Y-92599940D01*
D11*
X156550000Y-96300000D02*
X157400000Y-95450000D01*
X152200000Y-86100000D02*
X152200000Y-91200000D01*
X152200000Y-91200000D02*
X152200000Y-96300000D01*
X152200000Y-96300000D02*
X157400000Y-96300000D01*
X157400000Y-96300000D02*
X157400000Y-91200000D01*
X157400000Y-91200000D02*
X157400000Y-86100000D01*
X157400000Y-86100000D02*
X152200000Y-86100000D01*
X168508000Y-84665900D02*
X168508000Y-85465900D01*
X168508000Y-85465900D02*
X165508000Y-85465900D01*
X165508000Y-85465900D02*
X165508000Y-83865900D01*
X165508000Y-83865900D02*
X168508000Y-83865900D01*
X168508000Y-83865900D02*
X168508000Y-84665900D01*
X168508000Y-83065900D02*
X168508000Y-83865900D01*
X168508000Y-83865900D02*
X165508000Y-83865900D01*
X165508000Y-83865900D02*
X165508000Y-82265900D01*
X165508000Y-82265900D02*
X168508000Y-82265900D01*
X168508000Y-82265900D02*
X168508000Y-83065900D01*
X167600000Y-88841000D02*
X166800000Y-88841000D01*
X166800000Y-88841000D02*
X166800000Y-85841000D01*
X166800000Y-85841000D02*
X168400000Y-85841000D01*
X168400000Y-85841000D02*
X168400000Y-88841000D01*
X168400000Y-88841000D02*
X167600000Y-88841000D01*
X166000000Y-88841000D02*
X165200000Y-88841000D01*
X165200000Y-88841000D02*
X165200000Y-85841000D01*
X165200000Y-85841000D02*
X166800000Y-85841000D01*
X166800000Y-85841000D02*
X166800000Y-88841000D01*
X166800000Y-88841000D02*
X166000000Y-88841000D01*
X168240900Y-91788500D02*
X168240900Y-92588500D01*
X168240900Y-92588500D02*
X165240900Y-92588500D01*
X165240900Y-92588500D02*
X165240900Y-90988500D01*
X165240900Y-90988500D02*
X168240900Y-90988500D01*
X168240900Y-90988500D02*
X168240900Y-91788500D01*
X174881100Y-94782300D02*
X174881100Y-95582300D01*
X174881100Y-95582300D02*
X171881100Y-95582300D01*
X171881100Y-95582300D02*
X171881100Y-93982300D01*
X171881100Y-93982300D02*
X174881100Y-93982300D01*
X174881100Y-93982300D02*
X174881100Y-94782300D01*
X147600000Y-84200000D02*
X146500000Y-84200000D01*
X146500000Y-84200000D02*
X146500000Y-83000000D01*
X146500000Y-83000000D02*
X148700000Y-83000000D01*
X148700000Y-83000000D02*
X148700000Y-84200000D01*
X148700000Y-84200000D02*
X147600000Y-84200000D01*
X147600000Y-94200000D02*
X146500000Y-94200000D01*
X146500000Y-94200000D02*
X146500000Y-93000000D01*
X146500000Y-93000000D02*
X148700000Y-93000000D01*
X148700000Y-93000000D02*
X148700000Y-94200000D01*
X148700000Y-94200000D02*
X147600000Y-94200000D01*
X146700000Y-95600000D02*
X146700000Y-96400000D01*
X146700000Y-96400000D02*
X143700000Y-96400000D01*
X143700000Y-96400000D02*
X143700000Y-94800000D01*
X143700000Y-94800000D02*
X146700000Y-94800000D01*
X146700000Y-94800000D02*
X146700000Y-95600000D01*
X155200000Y-83700000D02*
X154400000Y-83700000D01*
X154400000Y-83700000D02*
X154400000Y-80700000D01*
X154400000Y-80700000D02*
X156000000Y-80700000D01*
X156000000Y-80700000D02*
X156000000Y-83700000D01*
X156000000Y-83700000D02*
X155200000Y-83700000D01*
X152000000Y-83700000D02*
X151200000Y-83700000D01*
X151200000Y-83700000D02*
X151200000Y-80700000D01*
X151200000Y-80700000D02*
X152800000Y-80700000D01*
X152800000Y-80700000D02*
X152800000Y-83700000D01*
X152800000Y-83700000D02*
X152000000Y-83700000D01*
X158400000Y-83700000D02*
X157600000Y-83700000D01*
X157600000Y-83700000D02*
X157600000Y-80700000D01*
X157600000Y-80700000D02*
X159200000Y-80700000D01*
X159200000Y-80700000D02*
X159200000Y-83700000D01*
X159200000Y-83700000D02*
X158400000Y-83700000D01*
X137000000Y-84600000D02*
X137000000Y-82300000D01*
X137000000Y-82300000D02*
X144700000Y-82300000D01*
X144700000Y-82300000D02*
X146400000Y-84800000D01*
X146400000Y-84800000D02*
X146400000Y-92200000D01*
X146400000Y-92200000D02*
X144700000Y-94700000D01*
X144700000Y-94700000D02*
X137000000Y-94700000D01*
X137000000Y-94700000D02*
X137000000Y-92400000D01*
X137000000Y-84600000D02*
X142600000Y-84600000D01*
X142600000Y-84600000D02*
X142600000Y-92400000D01*
X142600000Y-92400000D02*
X137000000Y-92400000D01*
X162270000Y-82570000D02*
X162270000Y-85110000D01*
X159730000Y-85110000D02*
X159730000Y-82570000D01*
X162270000Y-95270000D02*
X162270000Y-95524000D01*
X162270000Y-95524000D02*
X159730000Y-95524000D01*
X159730000Y-95524000D02*
X159730000Y-95270000D01*
X159730000Y-95270000D02*
X159730000Y-95397000D01*
X159730000Y-95397000D02*
X162270000Y-95397000D01*
X159730000Y-92730000D02*
X162270000Y-92730000D01*
X159730000Y-95270000D02*
X159730000Y-85110000D01*
X159730000Y-82570000D02*
X162270000Y-82570000D01*
X162270000Y-85110000D02*
X162270000Y-95270000D01*
X162270000Y-95270000D02*
X159730000Y-95270000D01*
X178480700Y-83297200D02*
X175940700Y-83297200D01*
X175940700Y-80757200D02*
X178480700Y-80757200D01*
X178480700Y-80757200D02*
X178480700Y-83297200D01*
X175940700Y-83297200D02*
X175940700Y-80757200D01*
X173130000Y-86610000D02*
X173130000Y-81530000D01*
X175670000Y-86610000D02*
X175670000Y-81530000D01*
X173130000Y-81403000D02*
X173130000Y-81530000D01*
X175670000Y-81530000D02*
X175670000Y-81276000D01*
X175670000Y-81276000D02*
X173130000Y-81276000D01*
X173130000Y-81276000D02*
X173130000Y-81403000D01*
X173130000Y-81403000D02*
X175543000Y-81403000D01*
X175670000Y-84070000D02*
X173130000Y-84070000D01*
X175670000Y-86610000D02*
X173130000Y-86610000D01*
X173130000Y-81530000D02*
X175670000Y-81530000D01*
X149300000Y-87400000D02*
X149300000Y-89000000D01*
D13*
X149650340Y-87399900D02*
X149650340Y-89000100D01*
X149650340Y-89000100D02*
X146749660Y-89000100D01*
X146749660Y-89000100D02*
X146749660Y-87399900D01*
X146749660Y-87399900D02*
X149650340Y-87399900D01*
D11*
X183200000Y-82150000D02*
X183200000Y-94850000D01*
X148200000Y-95814286D02*
X148171429Y-95842857D01*
X148085715Y-95871429D01*
X148028572Y-95871429D01*
X147942857Y-95842857D01*
X147885715Y-95785714D01*
X147857143Y-95728571D01*
X147828572Y-95614286D01*
X147828572Y-95528571D01*
X147857143Y-95414286D01*
X147885715Y-95357143D01*
X147942857Y-95300000D01*
X148028572Y-95271429D01*
X148085715Y-95271429D01*
X148171429Y-95300000D01*
X148200000Y-95328571D01*
X148771429Y-95871429D02*
X148428572Y-95871429D01*
X148600000Y-95871429D02*
X148600000Y-95271429D01*
X148542857Y-95357143D01*
X148485715Y-95414286D01*
X148428572Y-95442857D01*
X150214286Y-96371429D02*
X149871429Y-96371429D01*
X150042857Y-96371429D02*
X150042857Y-95771429D01*
X149985714Y-95857143D01*
X149928572Y-95914286D01*
X149871429Y-95942857D01*
X150585715Y-95771429D02*
X150642858Y-95771429D01*
X150700001Y-95800000D01*
X150728572Y-95828571D01*
X150757143Y-95885714D01*
X150785715Y-96000000D01*
X150785715Y-96142857D01*
X150757143Y-96257143D01*
X150728572Y-96314286D01*
X150700001Y-96342857D01*
X150642858Y-96371429D01*
X150585715Y-96371429D01*
X150528572Y-96342857D01*
X150500001Y-96314286D01*
X150471429Y-96257143D01*
X150442858Y-96142857D01*
X150442858Y-96000000D01*
X150471429Y-95885714D01*
X150500001Y-95828571D01*
X150528572Y-95800000D01*
X150585715Y-95771429D01*
X151042858Y-95971429D02*
X151042858Y-96371429D01*
X151042858Y-96028571D02*
X151071430Y-96000000D01*
X151128572Y-95971429D01*
X151214287Y-95971429D01*
X151271430Y-96000000D01*
X151300001Y-96057143D01*
X151300001Y-96371429D01*
X147800000Y-85514286D02*
X147771429Y-85542857D01*
X147685715Y-85571429D01*
X147628572Y-85571429D01*
X147542857Y-85542857D01*
X147485715Y-85485714D01*
X147457143Y-85428571D01*
X147428572Y-85314286D01*
X147428572Y-85228571D01*
X147457143Y-85114286D01*
X147485715Y-85057143D01*
X147542857Y-85000000D01*
X147628572Y-84971429D01*
X147685715Y-84971429D01*
X147771429Y-85000000D01*
X147800000Y-85028571D01*
X148028572Y-85028571D02*
X148057143Y-85000000D01*
X148114286Y-84971429D01*
X148257143Y-84971429D01*
X148314286Y-85000000D01*
X148342857Y-85028571D01*
X148371429Y-85085714D01*
X148371429Y-85142857D01*
X148342857Y-85228571D01*
X148000000Y-85571429D01*
X148371429Y-85571429D01*
X150271429Y-85685714D02*
X150271429Y-86028571D01*
X150271429Y-85857143D02*
X149671429Y-85857143D01*
X149757143Y-85914286D01*
X149814286Y-85971428D01*
X149842857Y-86028571D01*
X149671429Y-85314285D02*
X149671429Y-85257142D01*
X149700000Y-85199999D01*
X149728571Y-85171428D01*
X149785714Y-85142857D01*
X149900000Y-85114285D01*
X150042857Y-85114285D01*
X150157143Y-85142857D01*
X150214286Y-85171428D01*
X150242857Y-85199999D01*
X150271429Y-85257142D01*
X150271429Y-85314285D01*
X150242857Y-85371428D01*
X150214286Y-85399999D01*
X150157143Y-85428571D01*
X150042857Y-85457142D01*
X149900000Y-85457142D01*
X149785714Y-85428571D01*
X149728571Y-85399999D01*
X149700000Y-85371428D01*
X149671429Y-85314285D01*
X149871429Y-84857142D02*
X150271429Y-84857142D01*
X149928571Y-84857142D02*
X149900000Y-84828570D01*
X149871429Y-84771428D01*
X149871429Y-84685713D01*
X149900000Y-84628570D01*
X149957143Y-84599999D01*
X150271429Y-84599999D01*
X147800000Y-91514286D02*
X147771429Y-91542857D01*
X147685715Y-91571429D01*
X147628572Y-91571429D01*
X147542857Y-91542857D01*
X147485715Y-91485714D01*
X147457143Y-91428571D01*
X147428572Y-91314286D01*
X147428572Y-91228571D01*
X147457143Y-91114286D01*
X147485715Y-91057143D01*
X147542857Y-91000000D01*
X147628572Y-90971429D01*
X147685715Y-90971429D01*
X147771429Y-91000000D01*
X147800000Y-91028571D01*
X148000000Y-90971429D02*
X148371429Y-90971429D01*
X148171429Y-91200000D01*
X148257143Y-91200000D01*
X148314286Y-91228571D01*
X148342857Y-91257143D01*
X148371429Y-91314286D01*
X148371429Y-91457143D01*
X148342857Y-91514286D01*
X148314286Y-91542857D01*
X148257143Y-91571429D01*
X148085715Y-91571429D01*
X148028572Y-91542857D01*
X148000000Y-91514286D01*
X147371429Y-92171429D02*
X147428572Y-92171429D01*
X147485715Y-92200000D01*
X147514286Y-92228571D01*
X147542857Y-92285714D01*
X147571429Y-92400000D01*
X147571429Y-92542857D01*
X147542857Y-92657143D01*
X147514286Y-92714286D01*
X147485715Y-92742857D01*
X147428572Y-92771429D01*
X147371429Y-92771429D01*
X147314286Y-92742857D01*
X147285715Y-92714286D01*
X147257143Y-92657143D01*
X147228572Y-92542857D01*
X147228572Y-92400000D01*
X147257143Y-92285714D01*
X147285715Y-92228571D01*
X147314286Y-92200000D01*
X147371429Y-92171429D01*
X147828572Y-92714286D02*
X147857144Y-92742857D01*
X147828572Y-92771429D01*
X147800001Y-92742857D01*
X147828572Y-92714286D01*
X147828572Y-92771429D01*
X148428572Y-92771429D02*
X148085715Y-92771429D01*
X148257143Y-92771429D02*
X148257143Y-92171429D01*
X148200000Y-92257143D01*
X148142858Y-92314286D01*
X148085715Y-92342857D01*
X148942858Y-92371429D02*
X148942858Y-92771429D01*
X148685715Y-92371429D02*
X148685715Y-92685714D01*
X148714287Y-92742857D01*
X148771429Y-92771429D01*
X148857144Y-92771429D01*
X148914287Y-92742857D01*
X148942858Y-92714286D01*
X154700000Y-85314286D02*
X154671429Y-85342857D01*
X154585715Y-85371429D01*
X154528572Y-85371429D01*
X154442857Y-85342857D01*
X154385715Y-85285714D01*
X154357143Y-85228571D01*
X154328572Y-85114286D01*
X154328572Y-85028571D01*
X154357143Y-84914286D01*
X154385715Y-84857143D01*
X154442857Y-84800000D01*
X154528572Y-84771429D01*
X154585715Y-84771429D01*
X154671429Y-84800000D01*
X154700000Y-84828571D01*
X155214286Y-84971429D02*
X155214286Y-85371429D01*
X155071429Y-84742857D02*
X154928572Y-85171429D01*
X155300000Y-85171429D01*
X152571429Y-85928571D02*
X152571429Y-85871428D01*
X152600000Y-85814285D01*
X152628571Y-85785714D01*
X152685714Y-85757143D01*
X152800000Y-85728571D01*
X152942857Y-85728571D01*
X153057143Y-85757143D01*
X153114286Y-85785714D01*
X153142857Y-85814285D01*
X153171429Y-85871428D01*
X153171429Y-85928571D01*
X153142857Y-85985714D01*
X153114286Y-86014285D01*
X153057143Y-86042857D01*
X152942857Y-86071428D01*
X152800000Y-86071428D01*
X152685714Y-86042857D01*
X152628571Y-86014285D01*
X152600000Y-85985714D01*
X152571429Y-85928571D01*
X153114286Y-85471428D02*
X153142857Y-85442856D01*
X153171429Y-85471428D01*
X153142857Y-85499999D01*
X153114286Y-85471428D01*
X153171429Y-85471428D01*
X153171429Y-84871428D02*
X153171429Y-85214285D01*
X153171429Y-85042857D02*
X152571429Y-85042857D01*
X152657143Y-85100000D01*
X152714286Y-85157142D01*
X152742857Y-85214285D01*
X152771429Y-84357142D02*
X153171429Y-84357142D01*
X152771429Y-84614285D02*
X153085714Y-84614285D01*
X153142857Y-84585713D01*
X153171429Y-84528571D01*
X153171429Y-84442856D01*
X153142857Y-84385713D01*
X153114286Y-84357142D01*
X147500000Y-82014286D02*
X147471429Y-82042857D01*
X147385715Y-82071429D01*
X147328572Y-82071429D01*
X147242857Y-82042857D01*
X147185715Y-81985714D01*
X147157143Y-81928571D01*
X147128572Y-81814286D01*
X147128572Y-81728571D01*
X147157143Y-81614286D01*
X147185715Y-81557143D01*
X147242857Y-81500000D01*
X147328572Y-81471429D01*
X147385715Y-81471429D01*
X147471429Y-81500000D01*
X147500000Y-81528571D01*
X148042857Y-81471429D02*
X147757143Y-81471429D01*
X147728572Y-81757143D01*
X147757143Y-81728571D01*
X147814286Y-81700000D01*
X147957143Y-81700000D01*
X148014286Y-81728571D01*
X148042857Y-81757143D01*
X148071429Y-81814286D01*
X148071429Y-81957143D01*
X148042857Y-82014286D01*
X148014286Y-82042857D01*
X147957143Y-82071429D01*
X147814286Y-82071429D01*
X147757143Y-82042857D01*
X147728572Y-82014286D01*
X145471429Y-81985714D02*
X145471429Y-82328571D01*
X145471429Y-82157143D02*
X144871429Y-82157143D01*
X144957143Y-82214286D01*
X145014286Y-82271428D01*
X145042857Y-82328571D01*
X144871429Y-81614285D02*
X144871429Y-81557142D01*
X144900000Y-81499999D01*
X144928571Y-81471428D01*
X144985714Y-81442857D01*
X145100000Y-81414285D01*
X145242857Y-81414285D01*
X145357143Y-81442857D01*
X145414286Y-81471428D01*
X145442857Y-81499999D01*
X145471429Y-81557142D01*
X145471429Y-81614285D01*
X145442857Y-81671428D01*
X145414286Y-81699999D01*
X145357143Y-81728571D01*
X145242857Y-81757142D01*
X145100000Y-81757142D01*
X144985714Y-81728571D01*
X144928571Y-81699999D01*
X144900000Y-81671428D01*
X144871429Y-81614285D01*
X145071429Y-80899999D02*
X145471429Y-80899999D01*
X145071429Y-81157142D02*
X145385714Y-81157142D01*
X145442857Y-81128570D01*
X145471429Y-81071428D01*
X145471429Y-80985713D01*
X145442857Y-80928570D01*
X145414286Y-80899999D01*
X172414286Y-91100000D02*
X172442857Y-91128571D01*
X172471429Y-91214285D01*
X172471429Y-91271428D01*
X172442857Y-91357143D01*
X172385714Y-91414285D01*
X172328571Y-91442857D01*
X172214286Y-91471428D01*
X172128571Y-91471428D01*
X172014286Y-91442857D01*
X171957143Y-91414285D01*
X171900000Y-91357143D01*
X171871429Y-91271428D01*
X171871429Y-91214285D01*
X171900000Y-91128571D01*
X171928571Y-91100000D01*
X171871429Y-90585714D02*
X171871429Y-90700000D01*
X171900000Y-90757143D01*
X171928571Y-90785714D01*
X172014286Y-90842857D01*
X172128571Y-90871428D01*
X172357143Y-90871428D01*
X172414286Y-90842857D01*
X172442857Y-90814285D01*
X172471429Y-90757143D01*
X172471429Y-90642857D01*
X172442857Y-90585714D01*
X172414286Y-90557143D01*
X172357143Y-90528571D01*
X172214286Y-90528571D01*
X172157143Y-90557143D01*
X172128571Y-90585714D01*
X172100000Y-90642857D01*
X172100000Y-90757143D01*
X172128571Y-90814285D01*
X172157143Y-90842857D01*
X172214286Y-90871428D01*
X173271429Y-91628571D02*
X173271429Y-91571428D01*
X173300000Y-91514285D01*
X173328571Y-91485714D01*
X173385714Y-91457143D01*
X173500000Y-91428571D01*
X173642857Y-91428571D01*
X173757143Y-91457143D01*
X173814286Y-91485714D01*
X173842857Y-91514285D01*
X173871429Y-91571428D01*
X173871429Y-91628571D01*
X173842857Y-91685714D01*
X173814286Y-91714285D01*
X173757143Y-91742857D01*
X173642857Y-91771428D01*
X173500000Y-91771428D01*
X173385714Y-91742857D01*
X173328571Y-91714285D01*
X173300000Y-91685714D01*
X173271429Y-91628571D01*
X173814286Y-91171428D02*
X173842857Y-91142856D01*
X173871429Y-91171428D01*
X173842857Y-91199999D01*
X173814286Y-91171428D01*
X173871429Y-91171428D01*
X173871429Y-90571428D02*
X173871429Y-90914285D01*
X173871429Y-90742857D02*
X173271429Y-90742857D01*
X173357143Y-90800000D01*
X173414286Y-90857142D01*
X173442857Y-90914285D01*
X173471429Y-90057142D02*
X173871429Y-90057142D01*
X173471429Y-90314285D02*
X173785714Y-90314285D01*
X173842857Y-90285713D01*
X173871429Y-90228571D01*
X173871429Y-90142856D01*
X173842857Y-90085713D01*
X173814286Y-90057142D01*
X172514286Y-87500000D02*
X172542857Y-87528571D01*
X172571429Y-87614285D01*
X172571429Y-87671428D01*
X172542857Y-87757143D01*
X172485714Y-87814285D01*
X172428571Y-87842857D01*
X172314286Y-87871428D01*
X172228571Y-87871428D01*
X172114286Y-87842857D01*
X172057143Y-87814285D01*
X172000000Y-87757143D01*
X171971429Y-87671428D01*
X171971429Y-87614285D01*
X172000000Y-87528571D01*
X172028571Y-87500000D01*
X171971429Y-87300000D02*
X171971429Y-86900000D01*
X172571429Y-87157143D01*
X173171429Y-88628571D02*
X173171429Y-88571428D01*
X173200000Y-88514285D01*
X173228571Y-88485714D01*
X173285714Y-88457143D01*
X173400000Y-88428571D01*
X173542857Y-88428571D01*
X173657143Y-88457143D01*
X173714286Y-88485714D01*
X173742857Y-88514285D01*
X173771429Y-88571428D01*
X173771429Y-88628571D01*
X173742857Y-88685714D01*
X173714286Y-88714285D01*
X173657143Y-88742857D01*
X173542857Y-88771428D01*
X173400000Y-88771428D01*
X173285714Y-88742857D01*
X173228571Y-88714285D01*
X173200000Y-88685714D01*
X173171429Y-88628571D01*
X173714286Y-88171428D02*
X173742857Y-88142856D01*
X173771429Y-88171428D01*
X173742857Y-88199999D01*
X173714286Y-88171428D01*
X173771429Y-88171428D01*
X173771429Y-87571428D02*
X173771429Y-87914285D01*
X173771429Y-87742857D02*
X173171429Y-87742857D01*
X173257143Y-87800000D01*
X173314286Y-87857142D01*
X173342857Y-87914285D01*
X173371429Y-87057142D02*
X173771429Y-87057142D01*
X173371429Y-87314285D02*
X173685714Y-87314285D01*
X173742857Y-87285713D01*
X173771429Y-87228571D01*
X173771429Y-87142856D01*
X173742857Y-87085713D01*
X173714286Y-87057142D01*
X164200000Y-94214286D02*
X164171429Y-94242857D01*
X164085715Y-94271429D01*
X164028572Y-94271429D01*
X163942857Y-94242857D01*
X163885715Y-94185714D01*
X163857143Y-94128571D01*
X163828572Y-94014286D01*
X163828572Y-93928571D01*
X163857143Y-93814286D01*
X163885715Y-93757143D01*
X163942857Y-93700000D01*
X164028572Y-93671429D01*
X164085715Y-93671429D01*
X164171429Y-93700000D01*
X164200000Y-93728571D01*
X164542857Y-93928571D02*
X164485715Y-93900000D01*
X164457143Y-93871429D01*
X164428572Y-93814286D01*
X164428572Y-93785714D01*
X164457143Y-93728571D01*
X164485715Y-93700000D01*
X164542857Y-93671429D01*
X164657143Y-93671429D01*
X164714286Y-93700000D01*
X164742857Y-93728571D01*
X164771429Y-93785714D01*
X164771429Y-93814286D01*
X164742857Y-93871429D01*
X164714286Y-93900000D01*
X164657143Y-93928571D01*
X164542857Y-93928571D01*
X164485715Y-93957143D01*
X164457143Y-93985714D01*
X164428572Y-94042857D01*
X164428572Y-94157143D01*
X164457143Y-94214286D01*
X164485715Y-94242857D01*
X164542857Y-94271429D01*
X164657143Y-94271429D01*
X164714286Y-94242857D01*
X164742857Y-94214286D01*
X164771429Y-94157143D01*
X164771429Y-94042857D01*
X164742857Y-93985714D01*
X164714286Y-93957143D01*
X164657143Y-93928571D01*
X163871429Y-94971429D02*
X163928572Y-94971429D01*
X163985715Y-95000000D01*
X164014286Y-95028571D01*
X164042857Y-95085714D01*
X164071429Y-95200000D01*
X164071429Y-95342857D01*
X164042857Y-95457143D01*
X164014286Y-95514286D01*
X163985715Y-95542857D01*
X163928572Y-95571429D01*
X163871429Y-95571429D01*
X163814286Y-95542857D01*
X163785715Y-95514286D01*
X163757143Y-95457143D01*
X163728572Y-95342857D01*
X163728572Y-95200000D01*
X163757143Y-95085714D01*
X163785715Y-95028571D01*
X163814286Y-95000000D01*
X163871429Y-94971429D01*
X164328572Y-95514286D02*
X164357144Y-95542857D01*
X164328572Y-95571429D01*
X164300001Y-95542857D01*
X164328572Y-95514286D01*
X164328572Y-95571429D01*
X164928572Y-95571429D02*
X164585715Y-95571429D01*
X164757143Y-95571429D02*
X164757143Y-94971429D01*
X164700000Y-95057143D01*
X164642858Y-95114286D01*
X164585715Y-95142857D01*
X165442858Y-95171429D02*
X165442858Y-95571429D01*
X165185715Y-95171429D02*
X165185715Y-95485714D01*
X165214287Y-95542857D01*
X165271429Y-95571429D01*
X165357144Y-95571429D01*
X165414287Y-95542857D01*
X165442858Y-95514286D01*
X167300000Y-94214286D02*
X167271429Y-94242857D01*
X167185715Y-94271429D01*
X167128572Y-94271429D01*
X167042857Y-94242857D01*
X166985715Y-94185714D01*
X166957143Y-94128571D01*
X166928572Y-94014286D01*
X166928572Y-93928571D01*
X166957143Y-93814286D01*
X166985715Y-93757143D01*
X167042857Y-93700000D01*
X167128572Y-93671429D01*
X167185715Y-93671429D01*
X167271429Y-93700000D01*
X167300000Y-93728571D01*
X167585715Y-94271429D02*
X167700000Y-94271429D01*
X167757143Y-94242857D01*
X167785715Y-94214286D01*
X167842857Y-94128571D01*
X167871429Y-94014286D01*
X167871429Y-93785714D01*
X167842857Y-93728571D01*
X167814286Y-93700000D01*
X167757143Y-93671429D01*
X167642857Y-93671429D01*
X167585715Y-93700000D01*
X167557143Y-93728571D01*
X167528572Y-93785714D01*
X167528572Y-93928571D01*
X167557143Y-93985714D01*
X167585715Y-94014286D01*
X167642857Y-94042857D01*
X167757143Y-94042857D01*
X167814286Y-94014286D01*
X167842857Y-93985714D01*
X167871429Y-93928571D01*
X166671429Y-94971429D02*
X166728572Y-94971429D01*
X166785715Y-95000000D01*
X166814286Y-95028571D01*
X166842857Y-95085714D01*
X166871429Y-95200000D01*
X166871429Y-95342857D01*
X166842857Y-95457143D01*
X166814286Y-95514286D01*
X166785715Y-95542857D01*
X166728572Y-95571429D01*
X166671429Y-95571429D01*
X166614286Y-95542857D01*
X166585715Y-95514286D01*
X166557143Y-95457143D01*
X166528572Y-95342857D01*
X166528572Y-95200000D01*
X166557143Y-95085714D01*
X166585715Y-95028571D01*
X166614286Y-95000000D01*
X166671429Y-94971429D01*
X167128572Y-95514286D02*
X167157144Y-95542857D01*
X167128572Y-95571429D01*
X167100001Y-95542857D01*
X167128572Y-95514286D01*
X167128572Y-95571429D01*
X167728572Y-95571429D02*
X167385715Y-95571429D01*
X167557143Y-95571429D02*
X167557143Y-94971429D01*
X167500000Y-95057143D01*
X167442858Y-95114286D01*
X167385715Y-95142857D01*
X168242858Y-95171429D02*
X168242858Y-95571429D01*
X167985715Y-95171429D02*
X167985715Y-95485714D01*
X168014287Y-95542857D01*
X168071429Y-95571429D01*
X168157144Y-95571429D01*
X168214287Y-95542857D01*
X168242858Y-95514286D01*
X172414286Y-84485715D02*
X172442857Y-84514286D01*
X172471429Y-84600000D01*
X172471429Y-84657143D01*
X172442857Y-84742858D01*
X172385714Y-84800000D01*
X172328571Y-84828572D01*
X172214286Y-84857143D01*
X172128571Y-84857143D01*
X172014286Y-84828572D01*
X171957143Y-84800000D01*
X171900000Y-84742858D01*
X171871429Y-84657143D01*
X171871429Y-84600000D01*
X171900000Y-84514286D01*
X171928571Y-84485715D01*
X172471429Y-83914286D02*
X172471429Y-84257143D01*
X172471429Y-84085715D02*
X171871429Y-84085715D01*
X171957143Y-84142858D01*
X172014286Y-84200000D01*
X172042857Y-84257143D01*
X171871429Y-83542857D02*
X171871429Y-83485714D01*
X171900000Y-83428571D01*
X171928571Y-83400000D01*
X171985714Y-83371429D01*
X172100000Y-83342857D01*
X172242857Y-83342857D01*
X172357143Y-83371429D01*
X172414286Y-83400000D01*
X172442857Y-83428571D01*
X172471429Y-83485714D01*
X172471429Y-83542857D01*
X172442857Y-83600000D01*
X172414286Y-83628571D01*
X172357143Y-83657143D01*
X172242857Y-83685714D01*
X172100000Y-83685714D01*
X171985714Y-83657143D01*
X171928571Y-83628571D01*
X171900000Y-83600000D01*
X171871429Y-83542857D01*
X171871429Y-82228571D02*
X171871429Y-82171428D01*
X171900000Y-82114285D01*
X171928571Y-82085714D01*
X171985714Y-82057143D01*
X172100000Y-82028571D01*
X172242857Y-82028571D01*
X172357143Y-82057143D01*
X172414286Y-82085714D01*
X172442857Y-82114285D01*
X172471429Y-82171428D01*
X172471429Y-82228571D01*
X172442857Y-82285714D01*
X172414286Y-82314285D01*
X172357143Y-82342857D01*
X172242857Y-82371428D01*
X172100000Y-82371428D01*
X171985714Y-82342857D01*
X171928571Y-82314285D01*
X171900000Y-82285714D01*
X171871429Y-82228571D01*
X172414286Y-81771428D02*
X172442857Y-81742856D01*
X172471429Y-81771428D01*
X172442857Y-81799999D01*
X172414286Y-81771428D01*
X172471429Y-81771428D01*
X172471429Y-81171428D02*
X172471429Y-81514285D01*
X172471429Y-81342857D02*
X171871429Y-81342857D01*
X171957143Y-81400000D01*
X172014286Y-81457142D01*
X172042857Y-81514285D01*
X172071429Y-80657142D02*
X172471429Y-80657142D01*
X172071429Y-80914285D02*
X172385714Y-80914285D01*
X172442857Y-80885713D01*
X172471429Y-80828571D01*
X172471429Y-80742856D01*
X172442857Y-80685713D01*
X172414286Y-80657142D01*
X153871429Y-82542857D02*
X153271429Y-82542857D01*
X153271429Y-82400000D01*
X153300000Y-82314285D01*
X153357143Y-82257143D01*
X153414286Y-82228571D01*
X153528571Y-82200000D01*
X153614286Y-82200000D01*
X153728571Y-82228571D01*
X153785714Y-82257143D01*
X153842857Y-82314285D01*
X153871429Y-82400000D01*
X153871429Y-82542857D01*
X153871429Y-81628571D02*
X153871429Y-81971428D01*
X153871429Y-81800000D02*
X153271429Y-81800000D01*
X153357143Y-81857143D01*
X153414286Y-81914285D01*
X153442857Y-81971428D01*
X150671429Y-82642857D02*
X150071429Y-82642857D01*
X150071429Y-82500000D01*
X150100000Y-82414285D01*
X150157143Y-82357143D01*
X150214286Y-82328571D01*
X150328571Y-82300000D01*
X150414286Y-82300000D01*
X150528571Y-82328571D01*
X150585714Y-82357143D01*
X150642857Y-82414285D01*
X150671429Y-82500000D01*
X150671429Y-82642857D01*
X150128571Y-82071428D02*
X150100000Y-82042857D01*
X150071429Y-81985714D01*
X150071429Y-81842857D01*
X150100000Y-81785714D01*
X150128571Y-81757143D01*
X150185714Y-81728571D01*
X150242857Y-81728571D01*
X150328571Y-81757143D01*
X150671429Y-82100000D01*
X150671429Y-81728571D01*
X157071429Y-82642857D02*
X156471429Y-82642857D01*
X156471429Y-82500000D01*
X156500000Y-82414285D01*
X156557143Y-82357143D01*
X156614286Y-82328571D01*
X156728571Y-82300000D01*
X156814286Y-82300000D01*
X156928571Y-82328571D01*
X156985714Y-82357143D01*
X157042857Y-82414285D01*
X157071429Y-82500000D01*
X157071429Y-82642857D01*
X156471429Y-82100000D02*
X156471429Y-81728571D01*
X156700000Y-81928571D01*
X156700000Y-81842857D01*
X156728571Y-81785714D01*
X156757143Y-81757143D01*
X156814286Y-81728571D01*
X156957143Y-81728571D01*
X157014286Y-81757143D01*
X157042857Y-81785714D01*
X157071429Y-81842857D01*
X157071429Y-82014285D01*
X157042857Y-82071428D01*
X157014286Y-82100000D01*
X162714286Y-82171429D02*
X162714286Y-81571429D01*
X162714286Y-81857143D02*
X163057143Y-81857143D01*
X163057143Y-82171429D02*
X163057143Y-81571429D01*
X163342857Y-82171429D02*
X163342857Y-81571429D01*
X163628571Y-82171429D02*
X163628571Y-81571429D01*
X163971428Y-82171429D01*
X163971428Y-81571429D01*
X164228571Y-81628571D02*
X164257142Y-81600000D01*
X164314285Y-81571429D01*
X164457142Y-81571429D01*
X164514285Y-81600000D01*
X164542856Y-81628571D01*
X164571428Y-81685714D01*
X164571428Y-81742857D01*
X164542856Y-81828571D01*
X164199999Y-82171429D01*
X164571428Y-82171429D01*
X164942857Y-81571429D02*
X165000000Y-81571429D01*
X165057143Y-81600000D01*
X165085714Y-81628571D01*
X165114285Y-81685714D01*
X165142857Y-81800000D01*
X165142857Y-81942857D01*
X165114285Y-82057143D01*
X165085714Y-82114286D01*
X165057143Y-82142857D01*
X165000000Y-82171429D01*
X164942857Y-82171429D01*
X164885714Y-82142857D01*
X164857143Y-82114286D01*
X164828571Y-82057143D01*
X164800000Y-81942857D01*
X164800000Y-81800000D01*
X164828571Y-81685714D01*
X164857143Y-81628571D01*
X164885714Y-81600000D01*
X164942857Y-81571429D01*
X165371429Y-81628571D02*
X165400000Y-81600000D01*
X165457143Y-81571429D01*
X165600000Y-81571429D01*
X165657143Y-81600000D01*
X165685714Y-81628571D01*
X165714286Y-81685714D01*
X165714286Y-81742857D01*
X165685714Y-81828571D01*
X165342857Y-82171429D01*
X165714286Y-82171429D01*
D13*
X153687262Y-95686191D02*
X153052262Y-95686191D01*
X153052262Y-95535000D01*
X153082500Y-95444286D01*
X153142976Y-95383810D01*
X153203452Y-95353571D01*
X153324405Y-95323333D01*
X153415119Y-95323333D01*
X153536071Y-95353571D01*
X153596548Y-95383810D01*
X153657024Y-95444286D01*
X153687262Y-95535000D01*
X153687262Y-95686191D01*
X153687262Y-95051191D02*
X153052262Y-95051191D01*
X153052262Y-94900000D01*
X153082500Y-94809286D01*
X153142976Y-94748810D01*
X153203452Y-94718571D01*
X153324405Y-94688333D01*
X153415119Y-94688333D01*
X153536071Y-94718571D01*
X153596548Y-94748810D01*
X153657024Y-94809286D01*
X153687262Y-94900000D01*
X153687262Y-95051191D01*
X153687262Y-94083571D02*
X153687262Y-94446429D01*
X153687262Y-94265000D02*
X153052262Y-94265000D01*
X153142976Y-94325476D01*
X153203452Y-94385952D01*
X153233690Y-94446429D01*
X154854643Y-95475834D02*
X154854643Y-95687501D01*
X155187262Y-95687501D02*
X154552262Y-95687501D01*
X154552262Y-95385120D01*
X154552262Y-95233929D02*
X154552262Y-94871072D01*
X155187262Y-95052500D02*
X154552262Y-95052500D01*
X154612738Y-94689643D02*
X154582500Y-94659405D01*
X154552262Y-94598928D01*
X154552262Y-94447738D01*
X154582500Y-94387262D01*
X154612738Y-94357024D01*
X154673214Y-94326785D01*
X154733690Y-94326785D01*
X154824405Y-94357024D01*
X155187262Y-94719881D01*
X155187262Y-94326785D01*
X154552262Y-94115119D02*
X154552262Y-93722023D01*
X154794167Y-93933690D01*
X154794167Y-93842976D01*
X154824405Y-93782500D01*
X154854643Y-93752262D01*
X154915119Y-93722023D01*
X155066310Y-93722023D01*
X155126786Y-93752262D01*
X155157024Y-93782500D01*
X155187262Y-93842976D01*
X155187262Y-94024404D01*
X155157024Y-94084881D01*
X155126786Y-94115119D01*
X154612738Y-93480119D02*
X154582500Y-93449881D01*
X154552262Y-93389404D01*
X154552262Y-93238214D01*
X154582500Y-93177738D01*
X154612738Y-93147500D01*
X154673214Y-93117261D01*
X154733690Y-93117261D01*
X154824405Y-93147500D01*
X155187262Y-93510357D01*
X155187262Y-93117261D01*
X155187262Y-92482261D02*
X154884881Y-92693928D01*
X155187262Y-92845119D02*
X154552262Y-92845119D01*
X154552262Y-92603214D01*
X154582500Y-92542738D01*
X154612738Y-92512499D01*
X154673214Y-92482261D01*
X154763929Y-92482261D01*
X154824405Y-92512499D01*
X154854643Y-92542738D01*
X154884881Y-92603214D01*
X154884881Y-92845119D01*
D11*
X158371429Y-95978571D02*
X158371429Y-96321428D01*
X158371429Y-96150000D02*
X157771429Y-96150000D01*
X157857143Y-96207143D01*
X157914286Y-96264285D01*
X157942857Y-96321428D01*
X166700000Y-85757143D02*
X166500000Y-85757143D01*
X166500000Y-86071429D02*
X166500000Y-85471429D01*
X166785714Y-85471429D01*
X166957143Y-85471429D02*
X167328572Y-85471429D01*
X167128572Y-85700000D01*
X167214286Y-85700000D01*
X167271429Y-85728571D01*
X167300000Y-85757143D01*
X167328572Y-85814286D01*
X167328572Y-85957143D01*
X167300000Y-86014286D01*
X167271429Y-86042857D01*
X167214286Y-86071429D01*
X167042858Y-86071429D01*
X166985715Y-86042857D01*
X166957143Y-86014286D01*
X168000000Y-81657143D02*
X167800000Y-81657143D01*
X167800000Y-81971429D02*
X167800000Y-81371429D01*
X168085714Y-81371429D01*
X168571429Y-81571429D02*
X168571429Y-81971429D01*
X168428572Y-81342857D02*
X168285715Y-81771429D01*
X168657143Y-81771429D01*
X168057143Y-89641000D02*
X168057143Y-89841000D01*
X168371429Y-89841000D02*
X167771429Y-89841000D01*
X167771429Y-89555286D01*
X167771429Y-89041000D02*
X167771429Y-89326714D01*
X168057143Y-89355285D01*
X168028571Y-89326714D01*
X168000000Y-89269571D01*
X168000000Y-89126714D01*
X168028571Y-89069571D01*
X168057143Y-89041000D01*
X168114286Y-89012428D01*
X168257143Y-89012428D01*
X168314286Y-89041000D01*
X168342857Y-89069571D01*
X168371429Y-89126714D01*
X168371429Y-89269571D01*
X168342857Y-89326714D01*
X168314286Y-89355285D01*
X165657143Y-89641000D02*
X165657143Y-89841000D01*
X165971429Y-89841000D02*
X165371429Y-89841000D01*
X165371429Y-89555286D01*
X165371429Y-89069571D02*
X165371429Y-89183857D01*
X165400000Y-89241000D01*
X165428571Y-89269571D01*
X165514286Y-89326714D01*
X165628571Y-89355285D01*
X165857143Y-89355285D01*
X165914286Y-89326714D01*
X165942857Y-89298142D01*
X165971429Y-89241000D01*
X165971429Y-89126714D01*
X165942857Y-89069571D01*
X165914286Y-89041000D01*
X165857143Y-89012428D01*
X165714286Y-89012428D01*
X165657143Y-89041000D01*
X165628571Y-89069571D01*
X165600000Y-89126714D01*
X165600000Y-89241000D01*
X165628571Y-89298142D01*
X165657143Y-89326714D01*
X165714286Y-89355285D01*
X166440900Y-90545643D02*
X166240900Y-90545643D01*
X166240900Y-90859929D02*
X166240900Y-90259929D01*
X166526614Y-90259929D01*
X166698043Y-90259929D02*
X167098043Y-90259929D01*
X166840900Y-90859929D01*
X173200000Y-96057143D02*
X173000000Y-96057143D01*
X173000000Y-96371429D02*
X173000000Y-95771429D01*
X173285714Y-95771429D01*
X173600000Y-96028571D02*
X173542858Y-96000000D01*
X173514286Y-95971429D01*
X173485715Y-95914286D01*
X173485715Y-95885714D01*
X173514286Y-95828571D01*
X173542858Y-95800000D01*
X173600000Y-95771429D01*
X173714286Y-95771429D01*
X173771429Y-95800000D01*
X173800000Y-95828571D01*
X173828572Y-95885714D01*
X173828572Y-95914286D01*
X173800000Y-95971429D01*
X173771429Y-96000000D01*
X173714286Y-96028571D01*
X173600000Y-96028571D01*
X173542858Y-96057143D01*
X173514286Y-96085714D01*
X173485715Y-96142857D01*
X173485715Y-96257143D01*
X173514286Y-96314286D01*
X173542858Y-96342857D01*
X173600000Y-96371429D01*
X173714286Y-96371429D01*
X173771429Y-96342857D01*
X173800000Y-96314286D01*
X173828572Y-96257143D01*
X173828572Y-96142857D01*
X173800000Y-96085714D01*
X173771429Y-96057143D01*
X173714286Y-96028571D01*
X145900000Y-83671429D02*
X145614286Y-83671429D01*
X145614286Y-83071429D01*
X146414286Y-83671429D02*
X146071429Y-83671429D01*
X146242857Y-83671429D02*
X146242857Y-83071429D01*
X146185714Y-83157143D01*
X146128572Y-83214286D01*
X146071429Y-83242857D01*
X137585713Y-80957143D02*
X137671427Y-80985714D01*
X137699999Y-81014286D01*
X137728570Y-81071429D01*
X137728570Y-81157143D01*
X137699999Y-81214286D01*
X137671427Y-81242857D01*
X137614285Y-81271429D01*
X137385713Y-81271429D01*
X137385713Y-80671429D01*
X137585713Y-80671429D01*
X137642856Y-80700000D01*
X137671427Y-80728571D01*
X137699999Y-80785714D01*
X137699999Y-80842857D01*
X137671427Y-80900000D01*
X137642856Y-80928571D01*
X137585713Y-80957143D01*
X137385713Y-80957143D01*
X138271427Y-81271429D02*
X137985713Y-81271429D01*
X137985713Y-80671429D01*
X138471427Y-81271429D02*
X138471427Y-80671429D01*
X138671427Y-81100000D01*
X138871427Y-80671429D01*
X138871427Y-81271429D01*
X139471427Y-81271429D02*
X139128570Y-81271429D01*
X139299998Y-81271429D02*
X139299998Y-80671429D01*
X139242855Y-80757143D01*
X139185713Y-80814286D01*
X139128570Y-80842857D01*
X140014284Y-80671429D02*
X139728570Y-80671429D01*
X139699999Y-80957143D01*
X139728570Y-80928571D01*
X139785713Y-80900000D01*
X139928570Y-80900000D01*
X139985713Y-80928571D01*
X140014284Y-80957143D01*
X140042856Y-81014286D01*
X140042856Y-81157143D01*
X140014284Y-81214286D01*
X139985713Y-81242857D01*
X139928570Y-81271429D01*
X139785713Y-81271429D01*
X139728570Y-81242857D01*
X139699999Y-81214286D01*
X140271428Y-81100000D02*
X140557142Y-81100000D01*
X140214285Y-81271429D02*
X140414285Y-80671429D01*
X140614285Y-81271429D01*
X141128571Y-80700000D02*
X141071428Y-80671429D01*
X140985714Y-80671429D01*
X140899999Y-80700000D01*
X140842857Y-80757143D01*
X140814285Y-80814286D01*
X140785714Y-80928571D01*
X140785714Y-81014286D01*
X140814285Y-81128571D01*
X140842857Y-81185714D01*
X140899999Y-81242857D01*
X140985714Y-81271429D01*
X141042857Y-81271429D01*
X141128571Y-81242857D01*
X141157142Y-81214286D01*
X141157142Y-81014286D01*
X141042857Y-81014286D01*
X141728571Y-81271429D02*
X141385714Y-81271429D01*
X141557142Y-81271429D02*
X141557142Y-80671429D01*
X141499999Y-80757143D01*
X141442857Y-80814286D01*
X141385714Y-80842857D01*
X142100000Y-80671429D02*
X142157143Y-80671429D01*
X142214286Y-80700000D01*
X142242857Y-80728571D01*
X142271428Y-80785714D01*
X142300000Y-80900000D01*
X142300000Y-81042857D01*
X142271428Y-81157143D01*
X142242857Y-81214286D01*
X142214286Y-81242857D01*
X142157143Y-81271429D01*
X142100000Y-81271429D01*
X142042857Y-81242857D01*
X142014286Y-81214286D01*
X141985714Y-81157143D01*
X141957143Y-81042857D01*
X141957143Y-80900000D01*
X141985714Y-80785714D01*
X142014286Y-80728571D01*
X142042857Y-80700000D01*
X142100000Y-80671429D01*
X142528572Y-80728571D02*
X142557143Y-80700000D01*
X142614286Y-80671429D01*
X142757143Y-80671429D01*
X142814286Y-80700000D01*
X142842857Y-80728571D01*
X142871429Y-80785714D01*
X142871429Y-80842857D01*
X142842857Y-80928571D01*
X142500000Y-81271429D01*
X142871429Y-81271429D01*
X143100001Y-81242857D02*
X143185715Y-81271429D01*
X143328572Y-81271429D01*
X143385715Y-81242857D01*
X143414286Y-81214286D01*
X143442858Y-81157143D01*
X143442858Y-81100000D01*
X143414286Y-81042857D01*
X143385715Y-81014286D01*
X143328572Y-80985714D01*
X143214286Y-80957143D01*
X143157144Y-80928571D01*
X143128572Y-80900000D01*
X143100001Y-80842857D01*
X143100001Y-80785714D01*
X143128572Y-80728571D01*
X143157144Y-80700000D01*
X143214286Y-80671429D01*
X143357144Y-80671429D01*
X143442858Y-80700000D01*
X143700001Y-81271429D02*
X143700001Y-80671429D01*
X144042858Y-81271429D01*
X144042858Y-80671429D01*
X144642858Y-81271429D02*
X144300001Y-81271429D01*
X144471429Y-81271429D02*
X144471429Y-80671429D01*
X144414286Y-80757143D01*
X144357144Y-80814286D01*
X144300001Y-80842857D01*
X149300000Y-93971429D02*
X149014286Y-93971429D01*
X149014286Y-93371429D01*
X149471429Y-93428571D02*
X149500000Y-93400000D01*
X149557143Y-93371429D01*
X149700000Y-93371429D01*
X149757143Y-93400000D01*
X149785714Y-93428571D01*
X149814286Y-93485714D01*
X149814286Y-93542857D01*
X149785714Y-93628571D01*
X149442857Y-93971429D01*
X149814286Y-93971429D01*
X145100000Y-95871429D02*
X144900000Y-95585714D01*
X144757143Y-95871429D02*
X144757143Y-95271429D01*
X144985715Y-95271429D01*
X145042857Y-95300000D01*
X145071429Y-95328571D01*
X145100000Y-95385714D01*
X145100000Y-95471429D01*
X145071429Y-95528571D01*
X145042857Y-95557143D01*
X144985715Y-95585714D01*
X144757143Y-95585714D01*
X145671429Y-95871429D02*
X145328572Y-95871429D01*
X145500000Y-95871429D02*
X145500000Y-95271429D01*
X145442857Y-95357143D01*
X145385715Y-95414286D01*
X145328572Y-95442857D01*
X142628572Y-95971429D02*
X142285715Y-95971429D01*
X142457143Y-95971429D02*
X142457143Y-95371429D01*
X142400000Y-95457143D01*
X142342858Y-95514286D01*
X142285715Y-95542857D01*
X142885715Y-95971429D02*
X142885715Y-95371429D01*
X143085715Y-95800000D01*
X143285715Y-95371429D01*
X143285715Y-95971429D01*
X155100000Y-82571429D02*
X154900000Y-82285714D01*
X154757143Y-82571429D02*
X154757143Y-81971429D01*
X154985715Y-81971429D01*
X155042857Y-82000000D01*
X155071429Y-82028571D01*
X155100000Y-82085714D01*
X155100000Y-82171429D01*
X155071429Y-82228571D01*
X155042857Y-82257143D01*
X154985715Y-82285714D01*
X154757143Y-82285714D01*
X155328572Y-82028571D02*
X155357143Y-82000000D01*
X155414286Y-81971429D01*
X155557143Y-81971429D01*
X155614286Y-82000000D01*
X155642857Y-82028571D01*
X155671429Y-82085714D01*
X155671429Y-82142857D01*
X155642857Y-82228571D01*
X155300000Y-82571429D01*
X155671429Y-82571429D01*
X154571429Y-88028572D02*
X154571429Y-88314286D01*
X154857143Y-88342857D01*
X154828571Y-88314286D01*
X154800000Y-88257143D01*
X154800000Y-88114286D01*
X154828571Y-88057143D01*
X154857143Y-88028572D01*
X154914286Y-88000000D01*
X155057143Y-88000000D01*
X155114286Y-88028572D01*
X155142857Y-88057143D01*
X155171429Y-88114286D01*
X155171429Y-88257143D01*
X155142857Y-88314286D01*
X155114286Y-88342857D01*
X155171429Y-87428571D02*
X155171429Y-87771428D01*
X155171429Y-87600000D02*
X154571429Y-87600000D01*
X154657143Y-87657143D01*
X154714286Y-87714285D01*
X154742857Y-87771428D01*
X154571429Y-87057142D02*
X154571429Y-86999999D01*
X154600000Y-86942856D01*
X154628571Y-86914285D01*
X154685714Y-86885714D01*
X154800000Y-86857142D01*
X154942857Y-86857142D01*
X155057143Y-86885714D01*
X155114286Y-86914285D01*
X155142857Y-86942856D01*
X155171429Y-86999999D01*
X155171429Y-87057142D01*
X155142857Y-87114285D01*
X155114286Y-87142856D01*
X155057143Y-87171428D01*
X154942857Y-87199999D01*
X154800000Y-87199999D01*
X154685714Y-87171428D01*
X154628571Y-87142856D01*
X154600000Y-87114285D01*
X154571429Y-87057142D01*
X152271429Y-82300000D02*
X151985714Y-82500000D01*
X152271429Y-82642857D02*
X151671429Y-82642857D01*
X151671429Y-82414285D01*
X151700000Y-82357143D01*
X151728571Y-82328571D01*
X151785714Y-82300000D01*
X151871429Y-82300000D01*
X151928571Y-82328571D01*
X151957143Y-82357143D01*
X151985714Y-82414285D01*
X151985714Y-82642857D01*
X151671429Y-82100000D02*
X151671429Y-81728571D01*
X151900000Y-81928571D01*
X151900000Y-81842857D01*
X151928571Y-81785714D01*
X151957143Y-81757143D01*
X152014286Y-81728571D01*
X152157143Y-81728571D01*
X152214286Y-81757143D01*
X152242857Y-81785714D01*
X152271429Y-81842857D01*
X152271429Y-82014285D01*
X152242857Y-82071428D01*
X152214286Y-82100000D01*
X151571429Y-85028572D02*
X151571429Y-85314286D01*
X151857143Y-85342857D01*
X151828571Y-85314286D01*
X151800000Y-85257143D01*
X151800000Y-85114286D01*
X151828571Y-85057143D01*
X151857143Y-85028572D01*
X151914286Y-85000000D01*
X152057143Y-85000000D01*
X152114286Y-85028572D01*
X152142857Y-85057143D01*
X152171429Y-85114286D01*
X152171429Y-85257143D01*
X152142857Y-85314286D01*
X152114286Y-85342857D01*
X152171429Y-84428571D02*
X152171429Y-84771428D01*
X152171429Y-84600000D02*
X151571429Y-84600000D01*
X151657143Y-84657143D01*
X151714286Y-84714285D01*
X151742857Y-84771428D01*
X151571429Y-84057142D02*
X151571429Y-83999999D01*
X151600000Y-83942856D01*
X151628571Y-83914285D01*
X151685714Y-83885714D01*
X151800000Y-83857142D01*
X151942857Y-83857142D01*
X152057143Y-83885714D01*
X152114286Y-83914285D01*
X152142857Y-83942856D01*
X152171429Y-83999999D01*
X152171429Y-84057142D01*
X152142857Y-84114285D01*
X152114286Y-84142856D01*
X152057143Y-84171428D01*
X151942857Y-84199999D01*
X151800000Y-84199999D01*
X151685714Y-84171428D01*
X151628571Y-84142856D01*
X151600000Y-84114285D01*
X151571429Y-84057142D01*
X158671429Y-82300000D02*
X158385714Y-82500000D01*
X158671429Y-82642857D02*
X158071429Y-82642857D01*
X158071429Y-82414285D01*
X158100000Y-82357143D01*
X158128571Y-82328571D01*
X158185714Y-82300000D01*
X158271429Y-82300000D01*
X158328571Y-82328571D01*
X158357143Y-82357143D01*
X158385714Y-82414285D01*
X158385714Y-82642857D01*
X158271429Y-81785714D02*
X158671429Y-81785714D01*
X158042857Y-81928571D02*
X158471429Y-82071428D01*
X158471429Y-81700000D01*
X158071429Y-85028572D02*
X158071429Y-85314286D01*
X158357143Y-85342857D01*
X158328571Y-85314286D01*
X158300000Y-85257143D01*
X158300000Y-85114286D01*
X158328571Y-85057143D01*
X158357143Y-85028572D01*
X158414286Y-85000000D01*
X158557143Y-85000000D01*
X158614286Y-85028572D01*
X158642857Y-85057143D01*
X158671429Y-85114286D01*
X158671429Y-85257143D01*
X158642857Y-85314286D01*
X158614286Y-85342857D01*
X158671429Y-84428571D02*
X158671429Y-84771428D01*
X158671429Y-84600000D02*
X158071429Y-84600000D01*
X158157143Y-84657143D01*
X158214286Y-84714285D01*
X158242857Y-84771428D01*
X158071429Y-84057142D02*
X158071429Y-83999999D01*
X158100000Y-83942856D01*
X158128571Y-83914285D01*
X158185714Y-83885714D01*
X158300000Y-83857142D01*
X158442857Y-83857142D01*
X158557143Y-83885714D01*
X158614286Y-83914285D01*
X158642857Y-83942856D01*
X158671429Y-83999999D01*
X158671429Y-84057142D01*
X158642857Y-84114285D01*
X158614286Y-84142856D01*
X158557143Y-84171428D01*
X158442857Y-84199999D01*
X158300000Y-84199999D01*
X158185714Y-84171428D01*
X158128571Y-84142856D01*
X158100000Y-84114285D01*
X158071429Y-84057142D01*
X160752381Y-95714285D02*
X160752381Y-96285714D01*
X160752381Y-96000000D02*
X159752381Y-96000000D01*
X159895238Y-96095238D01*
X159990476Y-96190476D01*
X160038095Y-96285714D01*
X147942857Y-88528571D02*
X147885714Y-88500000D01*
X147828571Y-88442857D01*
X147742857Y-88357143D01*
X147685714Y-88328571D01*
X147628571Y-88328571D01*
X147657143Y-88471429D02*
X147600000Y-88442857D01*
X147542857Y-88385714D01*
X147514286Y-88271429D01*
X147514286Y-88071429D01*
X147542857Y-87957143D01*
X147600000Y-87900000D01*
X147657143Y-87871429D01*
X147771429Y-87871429D01*
X147828571Y-87900000D01*
X147885714Y-87957143D01*
X147914286Y-88071429D01*
X147914286Y-88271429D01*
X147885714Y-88385714D01*
X147828571Y-88442857D01*
X147771429Y-88471429D01*
X147657143Y-88471429D01*
X148485714Y-88471429D02*
X148142857Y-88471429D01*
X148314285Y-88471429D02*
X148314285Y-87871429D01*
X148257142Y-87957143D01*
X148200000Y-88014286D01*
X148142857Y-88042857D01*
X137414285Y-82071429D02*
X137414285Y-81471429D01*
X137557142Y-81471429D01*
X137642857Y-81500000D01*
X137699999Y-81557143D01*
X137728571Y-81614286D01*
X137757142Y-81728571D01*
X137757142Y-81814286D01*
X137728571Y-81928571D01*
X137699999Y-81985714D01*
X137642857Y-82042857D01*
X137557142Y-82071429D01*
X137414285Y-82071429D01*
X137928571Y-81471429D02*
X138128571Y-82071429D01*
X138328571Y-81471429D01*
X138528571Y-82071429D02*
X138528571Y-81471429D01*
X138814285Y-81471429D02*
X138814285Y-81957143D01*
X138842857Y-82014286D01*
X138871428Y-82042857D01*
X138928571Y-82071429D01*
X139042857Y-82071429D01*
X139099999Y-82042857D01*
X139128571Y-82014286D01*
X139157142Y-81957143D01*
X139157142Y-81471429D01*
X139785713Y-82014286D02*
X139757142Y-82042857D01*
X139671428Y-82071429D01*
X139614285Y-82071429D01*
X139528570Y-82042857D01*
X139471428Y-81985714D01*
X139442856Y-81928571D01*
X139414285Y-81814286D01*
X139414285Y-81728571D01*
X139442856Y-81614286D01*
X139471428Y-81557143D01*
X139528570Y-81500000D01*
X139614285Y-81471429D01*
X139671428Y-81471429D01*
X139757142Y-81500000D01*
X139785713Y-81528571D01*
X140299999Y-81471429D02*
X140185713Y-81471429D01*
X140128570Y-81500000D01*
X140099999Y-81528571D01*
X140042856Y-81614286D01*
X140014285Y-81728571D01*
X140014285Y-81957143D01*
X140042856Y-82014286D01*
X140071428Y-82042857D01*
X140128570Y-82071429D01*
X140242856Y-82071429D01*
X140299999Y-82042857D01*
X140328570Y-82014286D01*
X140357142Y-81957143D01*
X140357142Y-81814286D01*
X140328570Y-81757143D01*
X140299999Y-81728571D01*
X140242856Y-81700000D01*
X140128570Y-81700000D01*
X140071428Y-81728571D01*
X140042856Y-81757143D01*
X140014285Y-81814286D01*
X140614285Y-81842857D02*
X141071428Y-81842857D01*
X141614285Y-81671429D02*
X141614285Y-82071429D01*
X141471428Y-81442857D02*
X141328571Y-81871429D01*
X141699999Y-81871429D01*
X141900000Y-82042857D02*
X141985714Y-82071429D01*
X142128571Y-82071429D01*
X142185714Y-82042857D01*
X142214285Y-82014286D01*
X142242857Y-81957143D01*
X142242857Y-81900000D01*
X142214285Y-81842857D01*
X142185714Y-81814286D01*
X142128571Y-81785714D01*
X142014285Y-81757143D01*
X141957143Y-81728571D01*
X141928571Y-81700000D01*
X141900000Y-81642857D01*
X141900000Y-81585714D01*
X141928571Y-81528571D01*
X141957143Y-81500000D01*
X142014285Y-81471429D01*
X142157143Y-81471429D01*
X142242857Y-81500000D01*
X142842857Y-82014286D02*
X142814286Y-82042857D01*
X142728572Y-82071429D01*
X142671429Y-82071429D01*
X142585714Y-82042857D01*
X142528572Y-81985714D01*
X142500000Y-81928571D01*
X142471429Y-81814286D01*
X142471429Y-81728571D01*
X142500000Y-81614286D01*
X142528572Y-81557143D01*
X142585714Y-81500000D01*
X142671429Y-81471429D01*
X142728572Y-81471429D01*
X142814286Y-81500000D01*
X142842857Y-81528571D01*
X143357143Y-81471429D02*
X143242857Y-81471429D01*
X143185714Y-81500000D01*
X143157143Y-81528571D01*
X143100000Y-81614286D01*
X143071429Y-81728571D01*
X143071429Y-81957143D01*
X143100000Y-82014286D01*
X143128572Y-82042857D01*
X143185714Y-82071429D01*
X143300000Y-82071429D01*
X143357143Y-82042857D01*
X143385714Y-82014286D01*
X143414286Y-81957143D01*
X143414286Y-81814286D01*
X143385714Y-81757143D01*
X143357143Y-81728571D01*
X143300000Y-81700000D01*
X143185714Y-81700000D01*
X143128572Y-81728571D01*
X143100000Y-81757143D01*
X143071429Y-81814286D01*
X180071428Y-95571429D02*
X180471428Y-96171429D01*
X180471428Y-95571429D02*
X180071428Y-96171429D01*
X180985714Y-96171429D02*
X180700000Y-96171429D01*
X180700000Y-95571429D01*
X181442857Y-95771429D02*
X181442857Y-96171429D01*
X181300000Y-95542857D02*
X181157143Y-95971429D01*
X181528571Y-95971429D01*
X179428572Y-81514286D02*
X179400001Y-81542857D01*
X179314287Y-81571429D01*
X179257144Y-81571429D01*
X179171429Y-81542857D01*
X179114287Y-81485714D01*
X179085715Y-81428571D01*
X179057144Y-81314286D01*
X179057144Y-81228571D01*
X179085715Y-81114286D01*
X179114287Y-81057143D01*
X179171429Y-81000000D01*
X179257144Y-80971429D01*
X179314287Y-80971429D01*
X179400001Y-81000000D01*
X179428572Y-81028571D01*
X179800001Y-80971429D02*
X179914287Y-80971429D01*
X179971429Y-81000000D01*
X180028572Y-81057143D01*
X180057144Y-81171429D01*
X180057144Y-81371429D01*
X180028572Y-81485714D01*
X179971429Y-81542857D01*
X179914287Y-81571429D01*
X179800001Y-81571429D01*
X179742858Y-81542857D01*
X179685715Y-81485714D01*
X179657144Y-81371429D01*
X179657144Y-81171429D01*
X179685715Y-81057143D01*
X179742858Y-81000000D01*
X179800001Y-80971429D01*
X180314286Y-81571429D02*
X180314286Y-80971429D01*
X180657143Y-81571429D01*
X180657143Y-80971429D01*
X180942857Y-81571429D02*
X180942857Y-80971429D01*
X181285714Y-81571429D01*
X181285714Y-80971429D01*
X181428571Y-81628571D02*
X181885714Y-81628571D01*
X182057143Y-81571429D02*
X182171428Y-81571429D01*
X182228571Y-81542857D01*
X182257143Y-81514286D01*
X182314285Y-81428571D01*
X182342857Y-81314286D01*
X182342857Y-81085714D01*
X182314285Y-81028571D01*
X182285714Y-81000000D01*
X182228571Y-80971429D01*
X182114285Y-80971429D01*
X182057143Y-81000000D01*
X182028571Y-81028571D01*
X182000000Y-81085714D01*
X182000000Y-81228571D01*
X182028571Y-81285714D01*
X182057143Y-81314286D01*
X182114285Y-81342857D01*
X182228571Y-81342857D01*
X182285714Y-81314286D01*
X182314285Y-81285714D01*
X182342857Y-81228571D01*
M02*
