M48
;DRILL file {kicad (after 2015-mar-04 BZR unknown)-product} date 16.05.2015 18:45:57
;FORMAT={-:-/ absolute / metric / decimal}
FMAT,2
METRIC,TZ
T1C0.300
T2C0.900
%
G90
G05
M71
T1
X143.444Y-95.225
X143.973Y-82.03
X144.02Y-86.32
X144.03Y-90.679
X144.97Y-93.486
X145.824Y-83.037
X147.515Y-92.272
X149.018Y-83.043
X149.082Y-92.376
X149.763Y-85.583
X149.935Y-94.011
X149.942Y-90.339
X150.551Y-84.405
X151.631Y-83.965
X152.269Y-85.143
X152.487Y-91.848
X152.568Y-93.271
X152.8Y-95.8
X152.857Y-86.261
X152.954Y-89.837
X154.363Y-86.082
X154.718Y-92.497
X155.427Y-83.901
X155.6Y-95.8
X156.Y-90.
X156.077Y-86.123
X156.155Y-87.948
X156.719Y-93.422
X156.749Y-91.779
X156.935Y-94.299
X157.113Y-87.298
X157.181Y-84.094
X157.234Y-95.95
X159.149Y-84.11
X160.Y-81.2
X162.297Y-83.396
X163.069Y-91.111
X164.309Y-95.95
X164.339Y-92.885
X164.994Y-86.183
X165.112Y-84.844
X166.8Y-95.8
X167.008Y-81.897
X168.055Y-92.474
X168.554Y-90.439
X168.57Y-89.088
X169.2Y-95.8
X169.741Y-81.99
X171.096Y-95.95
X172.914Y-92.218
X173.413Y-89.693
X174.559Y-90.234
X175.041Y-94.182
X175.585Y-90.345
X176.132Y-83.011
X176.578Y-91.44
X176.839Y-89.975
X177.861Y-83.011
X178.09Y-84.312
X178.09Y-86.658
T2
X161.Y-83.84
X161.Y-86.38
X161.Y-88.92
X161.Y-91.46
X161.Y-94.
X174.4Y-82.8
X174.4Y-85.34
X176.6Y-95.2
T0
M30
