G04 #@! TF.FileFunction,Legend,Bot*
%FSLAX46Y46*%
G04 Gerber Fmt 4.6, Leading zero omitted, Abs format (unit mm)*
G04 Created by KiCad (PCBNEW 4.0.0-rc1-stable) date 25.10.2015 0:42:20*
%MOMM*%
G01*
G04 APERTURE LIST*
%ADD10C,0.100000*%
%ADD11C,0.150000*%
%ADD12C,0.127000*%
%ADD13C,0.149860*%
G04 APERTURE END LIST*
D10*
D11*
X177600000Y-90100000D02*
X178400000Y-90100000D01*
X177600000Y-88500000D02*
X177600000Y-90100000D01*
X177400000Y-85800000D02*
X177400000Y-86200000D01*
X178400000Y-85800000D02*
X177400000Y-85800000D01*
X167057143Y-80576429D02*
X167057143Y-81062143D01*
X167028571Y-81119286D01*
X167000000Y-81147857D01*
X166942857Y-81176429D01*
X166828571Y-81176429D01*
X166771429Y-81147857D01*
X166742857Y-81119286D01*
X166714286Y-81062143D01*
X166714286Y-80576429D01*
X166457143Y-81005000D02*
X166171429Y-81005000D01*
X166514286Y-81176429D02*
X166314286Y-80576429D01*
X166114286Y-81176429D01*
X165571429Y-81176429D02*
X165771429Y-80890714D01*
X165914286Y-81176429D02*
X165914286Y-80576429D01*
X165685714Y-80576429D01*
X165628572Y-80605000D01*
X165600000Y-80633571D01*
X165571429Y-80690714D01*
X165571429Y-80776429D01*
X165600000Y-80833571D01*
X165628572Y-80862143D01*
X165685714Y-80890714D01*
X165914286Y-80890714D01*
X165400000Y-80576429D02*
X165057143Y-80576429D01*
X165228572Y-81176429D02*
X165228572Y-80576429D01*
X164485714Y-80776429D02*
X164257143Y-80776429D01*
X164400000Y-80576429D02*
X164400000Y-81090714D01*
X164371428Y-81147857D01*
X164314286Y-81176429D01*
X164257143Y-81176429D01*
X163971429Y-81176429D02*
X164028571Y-81147857D01*
X164057143Y-81119286D01*
X164085714Y-81062143D01*
X164085714Y-80890714D01*
X164057143Y-80833571D01*
X164028571Y-80805000D01*
X163971429Y-80776429D01*
X163885714Y-80776429D01*
X163828571Y-80805000D01*
X163800000Y-80833571D01*
X163771429Y-80890714D01*
X163771429Y-81062143D01*
X163800000Y-81119286D01*
X163828571Y-81147857D01*
X163885714Y-81176429D01*
X163971429Y-81176429D01*
X166157144Y-82166429D02*
X166357144Y-81880714D01*
X166500001Y-82166429D02*
X166500001Y-81566429D01*
X166271429Y-81566429D01*
X166214287Y-81595000D01*
X166185715Y-81623571D01*
X166157144Y-81680714D01*
X166157144Y-81766429D01*
X166185715Y-81823571D01*
X166214287Y-81852143D01*
X166271429Y-81880714D01*
X166500001Y-81880714D01*
X165928572Y-82137857D02*
X165842858Y-82166429D01*
X165700001Y-82166429D01*
X165642858Y-82137857D01*
X165614287Y-82109286D01*
X165585715Y-82052143D01*
X165585715Y-81995000D01*
X165614287Y-81937857D01*
X165642858Y-81909286D01*
X165700001Y-81880714D01*
X165814287Y-81852143D01*
X165871429Y-81823571D01*
X165900001Y-81795000D01*
X165928572Y-81737857D01*
X165928572Y-81680714D01*
X165900001Y-81623571D01*
X165871429Y-81595000D01*
X165814287Y-81566429D01*
X165671429Y-81566429D01*
X165585715Y-81595000D01*
X165071429Y-81766429D02*
X165071429Y-82166429D01*
X165214286Y-81537857D02*
X165357143Y-81966429D01*
X164985715Y-81966429D01*
X164671429Y-81823571D02*
X164728571Y-81795000D01*
X164757143Y-81766429D01*
X164785714Y-81709286D01*
X164785714Y-81680714D01*
X164757143Y-81623571D01*
X164728571Y-81595000D01*
X164671429Y-81566429D01*
X164557143Y-81566429D01*
X164500000Y-81595000D01*
X164471429Y-81623571D01*
X164442857Y-81680714D01*
X164442857Y-81709286D01*
X164471429Y-81766429D01*
X164500000Y-81795000D01*
X164557143Y-81823571D01*
X164671429Y-81823571D01*
X164728571Y-81852143D01*
X164757143Y-81880714D01*
X164785714Y-81937857D01*
X164785714Y-82052143D01*
X164757143Y-82109286D01*
X164728571Y-82137857D01*
X164671429Y-82166429D01*
X164557143Y-82166429D01*
X164500000Y-82137857D01*
X164471429Y-82109286D01*
X164442857Y-82052143D01*
X164442857Y-81937857D01*
X164471429Y-81880714D01*
X164500000Y-81852143D01*
X164557143Y-81823571D01*
X163900000Y-81566429D02*
X164185714Y-81566429D01*
X164214285Y-81852143D01*
X164185714Y-81823571D01*
X164128571Y-81795000D01*
X163985714Y-81795000D01*
X163928571Y-81823571D01*
X163900000Y-81852143D01*
X163871428Y-81909286D01*
X163871428Y-82052143D01*
X163900000Y-82109286D01*
X163928571Y-82137857D01*
X163985714Y-82166429D01*
X164128571Y-82166429D01*
X164185714Y-82137857D01*
X164214285Y-82109286D01*
X162300000Y-82600000D02*
X162300000Y-80600000D01*
X172271428Y-96471429D02*
X172271428Y-95871429D01*
X172014285Y-96442857D02*
X171957142Y-96471429D01*
X171842857Y-96471429D01*
X171785714Y-96442857D01*
X171757142Y-96385714D01*
X171757142Y-96357143D01*
X171785714Y-96300000D01*
X171842857Y-96271429D01*
X171928571Y-96271429D01*
X171985714Y-96242857D01*
X172014285Y-96185714D01*
X172014285Y-96157143D01*
X171985714Y-96100000D01*
X171928571Y-96071429D01*
X171842857Y-96071429D01*
X171785714Y-96100000D01*
X171414286Y-96471429D02*
X171471428Y-96442857D01*
X171500000Y-96414286D01*
X171528571Y-96357143D01*
X171528571Y-96185714D01*
X171500000Y-96128571D01*
X171471428Y-96100000D01*
X171414286Y-96071429D01*
X171328571Y-96071429D01*
X171271428Y-96100000D01*
X171242857Y-96128571D01*
X171214286Y-96185714D01*
X171214286Y-96357143D01*
X171242857Y-96414286D01*
X171271428Y-96442857D01*
X171328571Y-96471429D01*
X171414286Y-96471429D01*
X170871429Y-96471429D02*
X170928571Y-96442857D01*
X170957143Y-96385714D01*
X170957143Y-95871429D01*
X170385714Y-96471429D02*
X170385714Y-96157143D01*
X170414285Y-96100000D01*
X170471428Y-96071429D01*
X170585714Y-96071429D01*
X170642857Y-96100000D01*
X170385714Y-96442857D02*
X170442857Y-96471429D01*
X170585714Y-96471429D01*
X170642857Y-96442857D01*
X170671428Y-96385714D01*
X170671428Y-96328571D01*
X170642857Y-96271429D01*
X170585714Y-96242857D01*
X170442857Y-96242857D01*
X170385714Y-96214286D01*
X170185714Y-96071429D02*
X169957143Y-96071429D01*
X170100000Y-95871429D02*
X170100000Y-96385714D01*
X170071428Y-96442857D01*
X170014286Y-96471429D01*
X169957143Y-96471429D01*
X169528571Y-96442857D02*
X169585714Y-96471429D01*
X169700000Y-96471429D01*
X169757143Y-96442857D01*
X169785714Y-96385714D01*
X169785714Y-96157143D01*
X169757143Y-96100000D01*
X169700000Y-96071429D01*
X169585714Y-96071429D01*
X169528571Y-96100000D01*
X169500000Y-96157143D01*
X169500000Y-96214286D01*
X169785714Y-96271429D01*
X168985714Y-96471429D02*
X168985714Y-95871429D01*
X168985714Y-96442857D02*
X169042857Y-96471429D01*
X169157143Y-96471429D01*
X169214285Y-96442857D01*
X169242857Y-96414286D01*
X169271428Y-96357143D01*
X169271428Y-96185714D01*
X169242857Y-96128571D01*
X169214285Y-96100000D01*
X169157143Y-96071429D01*
X169042857Y-96071429D01*
X168985714Y-96100000D01*
X168242857Y-95871429D02*
X168242857Y-96357143D01*
X168214285Y-96414286D01*
X168185714Y-96442857D01*
X168128571Y-96471429D01*
X168014285Y-96471429D01*
X167957143Y-96442857D01*
X167928571Y-96414286D01*
X167900000Y-96357143D01*
X167900000Y-95871429D01*
X167642857Y-96300000D02*
X167357143Y-96300000D01*
X167700000Y-96471429D02*
X167500000Y-95871429D01*
X167300000Y-96471429D01*
X166757143Y-96471429D02*
X166957143Y-96185714D01*
X167100000Y-96471429D02*
X167100000Y-95871429D01*
X166871428Y-95871429D01*
X166814286Y-95900000D01*
X166785714Y-95928571D01*
X166757143Y-95985714D01*
X166757143Y-96071429D01*
X166785714Y-96128571D01*
X166814286Y-96157143D01*
X166871428Y-96185714D01*
X167100000Y-96185714D01*
X166585714Y-95871429D02*
X166242857Y-95871429D01*
X166414286Y-96471429D02*
X166414286Y-95871429D01*
X175500000Y-92200000D02*
X175500000Y-93900000D01*
X173200000Y-92200000D02*
X175500000Y-92200000D01*
X173200000Y-91300000D02*
X173200000Y-92200000D01*
X172400000Y-90500000D02*
X173200000Y-91300000D01*
X171500000Y-90500000D02*
X172400000Y-90500000D01*
X170900000Y-89900000D02*
X171500000Y-90500000D01*
X162300000Y-89900000D02*
X170900000Y-89900000D01*
X162200000Y-96500000D02*
X162200000Y-95500000D01*
X159157142Y-93900000D02*
X159214285Y-93871429D01*
X159299999Y-93871429D01*
X159385714Y-93900000D01*
X159442856Y-93957143D01*
X159471428Y-94014286D01*
X159499999Y-94128571D01*
X159499999Y-94214286D01*
X159471428Y-94328571D01*
X159442856Y-94385714D01*
X159385714Y-94442857D01*
X159299999Y-94471429D01*
X159242856Y-94471429D01*
X159157142Y-94442857D01*
X159128571Y-94414286D01*
X159128571Y-94214286D01*
X159242856Y-94214286D01*
X158871428Y-94471429D02*
X158871428Y-93871429D01*
X158528571Y-94471429D01*
X158528571Y-93871429D01*
X158242857Y-94471429D02*
X158242857Y-93871429D01*
X158100000Y-93871429D01*
X158014285Y-93900000D01*
X157957143Y-93957143D01*
X157928571Y-94014286D01*
X157900000Y-94128571D01*
X157900000Y-94214286D01*
X157928571Y-94328571D01*
X157957143Y-94385714D01*
X158014285Y-94442857D01*
X158100000Y-94471429D01*
X158242857Y-94471429D01*
X159100000Y-91771429D02*
X159300000Y-91485714D01*
X159442857Y-91771429D02*
X159442857Y-91171429D01*
X159214285Y-91171429D01*
X159157143Y-91200000D01*
X159128571Y-91228571D01*
X159100000Y-91285714D01*
X159100000Y-91371429D01*
X159128571Y-91428571D01*
X159157143Y-91457143D01*
X159214285Y-91485714D01*
X159442857Y-91485714D01*
X158900000Y-91171429D02*
X158500000Y-91771429D01*
X158500000Y-91171429D02*
X158900000Y-91771429D01*
X159457143Y-88471429D02*
X159114286Y-88471429D01*
X159285715Y-89071429D02*
X159285715Y-88471429D01*
X158971429Y-88471429D02*
X158571429Y-89071429D01*
X158571429Y-88471429D02*
X158971429Y-89071429D01*
X159128572Y-86514286D02*
X159157143Y-86542857D01*
X159242857Y-86571429D01*
X159300000Y-86571429D01*
X159385715Y-86542857D01*
X159442857Y-86485714D01*
X159471429Y-86428571D01*
X159500000Y-86314286D01*
X159500000Y-86228571D01*
X159471429Y-86114286D01*
X159442857Y-86057143D01*
X159385715Y-86000000D01*
X159300000Y-85971429D01*
X159242857Y-85971429D01*
X159157143Y-86000000D01*
X159128572Y-86028571D01*
X158957143Y-85971429D02*
X158614286Y-85971429D01*
X158785715Y-86571429D02*
X158785715Y-85971429D01*
X158442857Y-86542857D02*
X158357143Y-86571429D01*
X158214286Y-86571429D01*
X158157143Y-86542857D01*
X158128572Y-86514286D01*
X158100000Y-86457143D01*
X158100000Y-86400000D01*
X158128572Y-86342857D01*
X158157143Y-86314286D01*
X158214286Y-86285714D01*
X158328572Y-86257143D01*
X158385714Y-86228571D01*
X158414286Y-86200000D01*
X158442857Y-86142857D01*
X158442857Y-86085714D01*
X158414286Y-86028571D01*
X158385714Y-86000000D01*
X158328572Y-85971429D01*
X158185714Y-85971429D01*
X158100000Y-86000000D01*
X159028572Y-84071429D02*
X159228572Y-83785714D01*
X159371429Y-84071429D02*
X159371429Y-83471429D01*
X159142857Y-83471429D01*
X159085715Y-83500000D01*
X159057143Y-83528571D01*
X159028572Y-83585714D01*
X159028572Y-83671429D01*
X159057143Y-83728571D01*
X159085715Y-83757143D01*
X159142857Y-83785714D01*
X159371429Y-83785714D01*
X158857143Y-83471429D02*
X158514286Y-83471429D01*
X158685715Y-84071429D02*
X158685715Y-83471429D01*
X158342857Y-84042857D02*
X158257143Y-84071429D01*
X158114286Y-84071429D01*
X158057143Y-84042857D01*
X158028572Y-84014286D01*
X158000000Y-83957143D01*
X158000000Y-83900000D01*
X158028572Y-83842857D01*
X158057143Y-83814286D01*
X158114286Y-83785714D01*
X158228572Y-83757143D01*
X158285714Y-83728571D01*
X158314286Y-83700000D01*
X158342857Y-83642857D01*
X158342857Y-83585714D01*
X158314286Y-83528571D01*
X158285714Y-83500000D01*
X158228572Y-83471429D01*
X158085714Y-83471429D01*
X158000000Y-83500000D01*
X161857143Y-81671429D02*
X161857143Y-82157143D01*
X161828571Y-82214286D01*
X161800000Y-82242857D01*
X161742857Y-82271429D01*
X161628571Y-82271429D01*
X161571429Y-82242857D01*
X161542857Y-82214286D01*
X161514286Y-82157143D01*
X161514286Y-81671429D01*
X161257143Y-82100000D02*
X160971429Y-82100000D01*
X161314286Y-82271429D02*
X161114286Y-81671429D01*
X160914286Y-82271429D01*
X160371429Y-82271429D02*
X160571429Y-81985714D01*
X160714286Y-82271429D02*
X160714286Y-81671429D01*
X160485714Y-81671429D01*
X160428572Y-81700000D01*
X160400000Y-81728571D01*
X160371429Y-81785714D01*
X160371429Y-81871429D01*
X160400000Y-81928571D01*
X160428572Y-81957143D01*
X160485714Y-81985714D01*
X160714286Y-81985714D01*
X160200000Y-81671429D02*
X159857143Y-81671429D01*
X160028572Y-82271429D02*
X160028572Y-81671429D01*
X178314286Y-86371428D02*
X178342857Y-86342857D01*
X178371429Y-86257143D01*
X178371429Y-86200000D01*
X178342857Y-86114285D01*
X178285714Y-86057143D01*
X178228571Y-86028571D01*
X178114286Y-86000000D01*
X178028571Y-86000000D01*
X177914286Y-86028571D01*
X177857143Y-86057143D01*
X177800000Y-86114285D01*
X177771429Y-86200000D01*
X177771429Y-86257143D01*
X177800000Y-86342857D01*
X177828571Y-86371428D01*
X177771429Y-86542857D02*
X177771429Y-86885714D01*
X178371429Y-86714285D02*
X177771429Y-86714285D01*
X178342857Y-87057143D02*
X178371429Y-87142857D01*
X178371429Y-87285714D01*
X178342857Y-87342857D01*
X178314286Y-87371428D01*
X178257143Y-87400000D01*
X178200000Y-87400000D01*
X178142857Y-87371428D01*
X178114286Y-87342857D01*
X178085714Y-87285714D01*
X178057143Y-87171428D01*
X178028571Y-87114286D01*
X178000000Y-87085714D01*
X177942857Y-87057143D01*
X177885714Y-87057143D01*
X177828571Y-87085714D01*
X177800000Y-87114286D01*
X177771429Y-87171428D01*
X177771429Y-87314286D01*
X177800000Y-87400000D01*
X178371429Y-88771428D02*
X178085714Y-88571428D01*
X178371429Y-88428571D02*
X177771429Y-88428571D01*
X177771429Y-88657143D01*
X177800000Y-88714285D01*
X177828571Y-88742857D01*
X177885714Y-88771428D01*
X177971429Y-88771428D01*
X178028571Y-88742857D01*
X178057143Y-88714285D01*
X178085714Y-88657143D01*
X178085714Y-88428571D01*
X177771429Y-88942857D02*
X177771429Y-89285714D01*
X178371429Y-89114285D02*
X177771429Y-89114285D01*
X178342857Y-89457143D02*
X178371429Y-89542857D01*
X178371429Y-89685714D01*
X178342857Y-89742857D01*
X178314286Y-89771428D01*
X178257143Y-89800000D01*
X178200000Y-89800000D01*
X178142857Y-89771428D01*
X178114286Y-89742857D01*
X178085714Y-89685714D01*
X178057143Y-89571428D01*
X178028571Y-89514286D01*
X178000000Y-89485714D01*
X177942857Y-89457143D01*
X177885714Y-89457143D01*
X177828571Y-89485714D01*
X177800000Y-89514286D01*
X177771429Y-89571428D01*
X177771429Y-89714286D01*
X177800000Y-89800000D01*
X167356100Y-88600000D02*
X167356100Y-87800000D01*
X167356100Y-87800000D02*
X164356100Y-87800000D01*
X164356100Y-87800000D02*
X164356100Y-89400000D01*
X164356100Y-89400000D02*
X167356100Y-89400000D01*
X167356100Y-89400000D02*
X167356100Y-88600000D01*
X163200000Y-92700000D02*
X162400000Y-92700000D01*
X162400000Y-92700000D02*
X162400000Y-95700000D01*
X162400000Y-95700000D02*
X164000000Y-95700000D01*
X164000000Y-95700000D02*
X164000000Y-92700000D01*
X164000000Y-92700000D02*
X163200000Y-92700000D01*
X173905400Y-92787300D02*
X173105400Y-92787300D01*
X173105400Y-92787300D02*
X173105400Y-95787300D01*
X173105400Y-95787300D02*
X174705400Y-95787300D01*
X174705400Y-95787300D02*
X174705400Y-92787300D01*
X174705400Y-92787300D02*
X173905400Y-92787300D01*
D12*
X175323400Y-94132900D02*
X178371400Y-94132900D01*
X178371400Y-94132900D02*
X178371400Y-93370900D01*
X178371400Y-93370900D02*
X175323400Y-93370900D01*
X175323400Y-93370900D02*
X175323400Y-94132900D01*
X175236000Y-90322200D02*
X178284000Y-90322200D01*
X178284000Y-90322200D02*
X178284000Y-89560200D01*
X178284000Y-89560200D02*
X175236000Y-89560200D01*
X175236000Y-89560200D02*
X175236000Y-90322200D01*
X166822000Y-95667000D02*
X166695000Y-95667000D01*
X166695000Y-95667000D02*
X166695000Y-90333000D01*
X170505000Y-90333000D02*
X170505000Y-95667000D01*
X170505000Y-95667000D02*
X166822000Y-95667000D01*
X169108000Y-95667000D02*
X169108000Y-95159000D01*
X169108000Y-95159000D02*
X168092000Y-95159000D01*
X168092000Y-95159000D02*
X168092000Y-95667000D01*
X170505000Y-90333000D02*
X166695000Y-90333000D01*
X164622000Y-87667000D02*
X164495000Y-87667000D01*
X164495000Y-87667000D02*
X164495000Y-82333000D01*
X168305000Y-82333000D02*
X168305000Y-87667000D01*
X168305000Y-87667000D02*
X164622000Y-87667000D01*
X166908000Y-87667000D02*
X166908000Y-87159000D01*
X166908000Y-87159000D02*
X165892000Y-87159000D01*
X165892000Y-87159000D02*
X165892000Y-87667000D01*
X168305000Y-82333000D02*
X164495000Y-82333000D01*
D11*
X173292200Y-84339700D02*
X173292200Y-83539700D01*
X173292200Y-83539700D02*
X170292200Y-83539700D01*
X170292200Y-83539700D02*
X170292200Y-85139700D01*
X170292200Y-85139700D02*
X173292200Y-85139700D01*
X173292200Y-85139700D02*
X173292200Y-84339700D01*
X173335800Y-87569000D02*
X173335800Y-86769000D01*
X173335800Y-86769000D02*
X170335800Y-86769000D01*
X170335800Y-86769000D02*
X170335800Y-88369000D01*
X170335800Y-88369000D02*
X173335800Y-88369000D01*
X173335800Y-88369000D02*
X173335800Y-87569000D01*
X174200000Y-86500000D02*
X173400000Y-86500000D01*
X173400000Y-86500000D02*
X173400000Y-89500000D01*
X173400000Y-89500000D02*
X175000000Y-89500000D01*
X175000000Y-89500000D02*
X175000000Y-86500000D01*
X175000000Y-86500000D02*
X174200000Y-86500000D01*
D13*
X170579580Y-85242360D02*
X172779220Y-85242360D01*
X172779220Y-86093260D02*
X172779220Y-85793540D01*
X170579580Y-86644440D02*
X172779220Y-86644440D01*
X170579580Y-86093260D02*
X170579580Y-85793540D01*
D11*
X162270000Y-85110000D02*
X162270000Y-82570000D01*
X162270000Y-82570000D02*
X159730000Y-82570000D01*
X159730000Y-82570000D02*
X159730000Y-85110000D01*
X159730000Y-92730000D02*
X162270000Y-92730000D01*
X159730000Y-95524000D02*
X159730000Y-85110000D01*
X162270000Y-85110000D02*
X162270000Y-95524000D01*
X162270000Y-95524000D02*
X159730000Y-95524000D01*
X159730000Y-95524000D02*
X159730000Y-95397000D01*
X159730000Y-95397000D02*
X162270000Y-95397000D01*
X162270000Y-95397000D02*
X162270000Y-95270000D01*
X162270000Y-95270000D02*
X159730000Y-95270000D01*
X175940700Y-80757200D02*
X178480700Y-80757200D01*
X178480700Y-80757200D02*
X178480700Y-83297200D01*
X178480700Y-83297200D02*
X175940700Y-83297200D01*
X175940700Y-83297200D02*
X175940700Y-80757200D01*
X170292100Y-82717900D02*
X170292100Y-83517900D01*
X170292100Y-83517900D02*
X173292100Y-83517900D01*
X173292100Y-83517900D02*
X173292100Y-81917900D01*
X173292100Y-81917900D02*
X170292100Y-81917900D01*
X170292100Y-81917900D02*
X170292100Y-82717900D01*
X173335800Y-89169000D02*
X173335800Y-88369000D01*
X173335800Y-88369000D02*
X170335800Y-88369000D01*
X170335800Y-88369000D02*
X170335800Y-89969000D01*
X170335800Y-89969000D02*
X173335800Y-89969000D01*
X173335800Y-89969000D02*
X173335800Y-89169000D01*
X175670000Y-84070000D02*
X173130000Y-84070000D01*
X175670000Y-81276000D02*
X175670000Y-86610000D01*
X175670000Y-86610000D02*
X173130000Y-86610000D01*
X173130000Y-86610000D02*
X173130000Y-81276000D01*
X173130000Y-81276000D02*
X175670000Y-81276000D01*
X175670000Y-81276000D02*
X175670000Y-81403000D01*
X175670000Y-81403000D02*
X173130000Y-81403000D01*
X173130000Y-81403000D02*
X173130000Y-81530000D01*
X173130000Y-81530000D02*
X175670000Y-81530000D01*
X166285715Y-88814286D02*
X166314286Y-88842857D01*
X166400000Y-88871429D01*
X166457143Y-88871429D01*
X166542858Y-88842857D01*
X166600000Y-88785714D01*
X166628572Y-88728571D01*
X166657143Y-88614286D01*
X166657143Y-88528571D01*
X166628572Y-88414286D01*
X166600000Y-88357143D01*
X166542858Y-88300000D01*
X166457143Y-88271429D01*
X166400000Y-88271429D01*
X166314286Y-88300000D01*
X166285715Y-88328571D01*
X165714286Y-88871429D02*
X166057143Y-88871429D01*
X165885715Y-88871429D02*
X165885715Y-88271429D01*
X165942858Y-88357143D01*
X166000000Y-88414286D01*
X166057143Y-88442857D01*
X165142857Y-88871429D02*
X165485714Y-88871429D01*
X165314286Y-88871429D02*
X165314286Y-88271429D01*
X165371429Y-88357143D01*
X165428571Y-88414286D01*
X165485714Y-88442857D01*
X164028571Y-88271429D02*
X163971428Y-88271429D01*
X163914285Y-88300000D01*
X163885714Y-88328571D01*
X163857143Y-88385714D01*
X163828571Y-88500000D01*
X163828571Y-88642857D01*
X163857143Y-88757143D01*
X163885714Y-88814286D01*
X163914285Y-88842857D01*
X163971428Y-88871429D01*
X164028571Y-88871429D01*
X164085714Y-88842857D01*
X164114285Y-88814286D01*
X164142857Y-88757143D01*
X164171428Y-88642857D01*
X164171428Y-88500000D01*
X164142857Y-88385714D01*
X164114285Y-88328571D01*
X164085714Y-88300000D01*
X164028571Y-88271429D01*
X163571428Y-88814286D02*
X163542856Y-88842857D01*
X163571428Y-88871429D01*
X163599999Y-88842857D01*
X163571428Y-88814286D01*
X163571428Y-88871429D01*
X162971428Y-88871429D02*
X163314285Y-88871429D01*
X163142857Y-88871429D02*
X163142857Y-88271429D01*
X163200000Y-88357143D01*
X163257142Y-88414286D01*
X163314285Y-88442857D01*
X162457142Y-88471429D02*
X162457142Y-88871429D01*
X162714285Y-88471429D02*
X162714285Y-88785714D01*
X162685713Y-88842857D01*
X162628571Y-88871429D01*
X162542856Y-88871429D01*
X162485713Y-88842857D01*
X162457142Y-88814286D01*
X163414286Y-93714285D02*
X163442857Y-93685714D01*
X163471429Y-93600000D01*
X163471429Y-93542857D01*
X163442857Y-93457142D01*
X163385714Y-93400000D01*
X163328571Y-93371428D01*
X163214286Y-93342857D01*
X163128571Y-93342857D01*
X163014286Y-93371428D01*
X162957143Y-93400000D01*
X162900000Y-93457142D01*
X162871429Y-93542857D01*
X162871429Y-93600000D01*
X162900000Y-93685714D01*
X162928571Y-93714285D01*
X163471429Y-94285714D02*
X163471429Y-93942857D01*
X163471429Y-94114285D02*
X162871429Y-94114285D01*
X162957143Y-94057142D01*
X163014286Y-94000000D01*
X163042857Y-93942857D01*
X162928571Y-94514286D02*
X162900000Y-94542857D01*
X162871429Y-94600000D01*
X162871429Y-94742857D01*
X162900000Y-94800000D01*
X162928571Y-94828571D01*
X162985714Y-94857143D01*
X163042857Y-94857143D01*
X163128571Y-94828571D01*
X163471429Y-94485714D01*
X163471429Y-94857143D01*
X162971429Y-90771429D02*
X162971429Y-90828572D01*
X163000000Y-90885715D01*
X163028571Y-90914286D01*
X163085714Y-90942857D01*
X163200000Y-90971429D01*
X163342857Y-90971429D01*
X163457143Y-90942857D01*
X163514286Y-90914286D01*
X163542857Y-90885715D01*
X163571429Y-90828572D01*
X163571429Y-90771429D01*
X163542857Y-90714286D01*
X163514286Y-90685715D01*
X163457143Y-90657143D01*
X163342857Y-90628572D01*
X163200000Y-90628572D01*
X163085714Y-90657143D01*
X163028571Y-90685715D01*
X163000000Y-90714286D01*
X162971429Y-90771429D01*
X163514286Y-91228572D02*
X163542857Y-91257144D01*
X163571429Y-91228572D01*
X163542857Y-91200001D01*
X163514286Y-91228572D01*
X163571429Y-91228572D01*
X163571429Y-91828572D02*
X163571429Y-91485715D01*
X163571429Y-91657143D02*
X162971429Y-91657143D01*
X163057143Y-91600000D01*
X163114286Y-91542858D01*
X163142857Y-91485715D01*
X163171429Y-92342858D02*
X163571429Y-92342858D01*
X163171429Y-92085715D02*
X163485714Y-92085715D01*
X163542857Y-92114287D01*
X163571429Y-92171429D01*
X163571429Y-92257144D01*
X163542857Y-92314287D01*
X163514286Y-92342858D01*
X174214286Y-93814285D02*
X174242857Y-93785714D01*
X174271429Y-93700000D01*
X174271429Y-93642857D01*
X174242857Y-93557142D01*
X174185714Y-93500000D01*
X174128571Y-93471428D01*
X174014286Y-93442857D01*
X173928571Y-93442857D01*
X173814286Y-93471428D01*
X173757143Y-93500000D01*
X173700000Y-93557142D01*
X173671429Y-93642857D01*
X173671429Y-93700000D01*
X173700000Y-93785714D01*
X173728571Y-93814285D01*
X174271429Y-94385714D02*
X174271429Y-94042857D01*
X174271429Y-94214285D02*
X173671429Y-94214285D01*
X173757143Y-94157142D01*
X173814286Y-94100000D01*
X173842857Y-94042857D01*
X173671429Y-94585714D02*
X173671429Y-94957143D01*
X173900000Y-94757143D01*
X173900000Y-94842857D01*
X173928571Y-94900000D01*
X173957143Y-94928571D01*
X174014286Y-94957143D01*
X174157143Y-94957143D01*
X174214286Y-94928571D01*
X174242857Y-94900000D01*
X174271429Y-94842857D01*
X174271429Y-94671429D01*
X174242857Y-94614286D01*
X174214286Y-94585714D01*
X174728571Y-95871429D02*
X174671428Y-95871429D01*
X174614285Y-95900000D01*
X174585714Y-95928571D01*
X174557143Y-95985714D01*
X174528571Y-96100000D01*
X174528571Y-96242857D01*
X174557143Y-96357143D01*
X174585714Y-96414286D01*
X174614285Y-96442857D01*
X174671428Y-96471429D01*
X174728571Y-96471429D01*
X174785714Y-96442857D01*
X174814285Y-96414286D01*
X174842857Y-96357143D01*
X174871428Y-96242857D01*
X174871428Y-96100000D01*
X174842857Y-95985714D01*
X174814285Y-95928571D01*
X174785714Y-95900000D01*
X174728571Y-95871429D01*
X174271428Y-96414286D02*
X174242856Y-96442857D01*
X174271428Y-96471429D01*
X174299999Y-96442857D01*
X174271428Y-96414286D01*
X174271428Y-96471429D01*
X173671428Y-96471429D02*
X174014285Y-96471429D01*
X173842857Y-96471429D02*
X173842857Y-95871429D01*
X173900000Y-95957143D01*
X173957142Y-96014286D01*
X174014285Y-96042857D01*
X173157142Y-96071429D02*
X173157142Y-96471429D01*
X173414285Y-96071429D02*
X173414285Y-96385714D01*
X173385713Y-96442857D01*
X173328571Y-96471429D01*
X173242856Y-96471429D01*
X173185713Y-96442857D01*
X173157142Y-96414286D01*
X177342857Y-94071429D02*
X177342857Y-93471429D01*
X177200000Y-93471429D01*
X177114285Y-93500000D01*
X177057143Y-93557143D01*
X177028571Y-93614286D01*
X177000000Y-93728571D01*
X177000000Y-93814286D01*
X177028571Y-93928571D01*
X177057143Y-93985714D01*
X177114285Y-94042857D01*
X177200000Y-94071429D01*
X177342857Y-94071429D01*
X176485714Y-93671429D02*
X176485714Y-94071429D01*
X176628571Y-93442857D02*
X176771428Y-93871429D01*
X176400000Y-93871429D01*
D13*
X179041323Y-95957183D02*
X178955689Y-95985728D01*
X178927144Y-96014272D01*
X178898599Y-96071362D01*
X178898599Y-96156996D01*
X178927144Y-96214086D01*
X178955689Y-96242630D01*
X179012778Y-96271175D01*
X179241136Y-96271175D01*
X179241136Y-95671735D01*
X179041323Y-95671735D01*
X178984233Y-95700280D01*
X178955689Y-95728825D01*
X178927144Y-95785914D01*
X178927144Y-95843004D01*
X178955689Y-95900093D01*
X178984233Y-95928638D01*
X179041323Y-95957183D01*
X179241136Y-95957183D01*
X178670241Y-96099907D02*
X178384793Y-96099907D01*
X178727330Y-96271175D02*
X178527517Y-95671735D01*
X178327704Y-96271175D01*
X178213524Y-95671735D02*
X177870987Y-95671735D01*
X178042256Y-96271175D02*
X178042256Y-95671735D01*
X177385727Y-95671735D02*
X177671174Y-95671735D01*
X177699719Y-95957183D01*
X177671174Y-95928638D01*
X177614085Y-95900093D01*
X177471361Y-95900093D01*
X177414271Y-95928638D01*
X177385727Y-95957183D01*
X177357182Y-96014272D01*
X177357182Y-96156996D01*
X177385727Y-96214086D01*
X177414271Y-96242630D01*
X177471361Y-96271175D01*
X177614085Y-96271175D01*
X177671174Y-96242630D01*
X177699719Y-96214086D01*
X176843376Y-95871549D02*
X176843376Y-96271175D01*
X176986100Y-95643190D02*
X177128824Y-96071362D01*
X176757742Y-96071362D01*
X176557929Y-96242630D02*
X176472295Y-96271175D01*
X176329571Y-96271175D01*
X176272481Y-96242630D01*
X176243937Y-96214086D01*
X176215392Y-96156996D01*
X176215392Y-96099907D01*
X176243937Y-96042817D01*
X176272481Y-96014272D01*
X176329571Y-95985728D01*
X176443750Y-95957183D01*
X176500839Y-95928638D01*
X176529384Y-95900093D01*
X176557929Y-95843004D01*
X176557929Y-95785914D01*
X176529384Y-95728825D01*
X176500839Y-95700280D01*
X176443750Y-95671735D01*
X176301026Y-95671735D01*
X176215392Y-95700280D01*
X176015579Y-95671735D02*
X175872855Y-96271175D01*
X175758676Y-95843004D01*
X175644497Y-96271175D01*
X175501773Y-95671735D01*
D11*
X177142857Y-90171429D02*
X177142857Y-89571429D01*
X177000000Y-89571429D01*
X176914285Y-89600000D01*
X176857143Y-89657143D01*
X176828571Y-89714286D01*
X176800000Y-89828571D01*
X176800000Y-89914286D01*
X176828571Y-90028571D01*
X176857143Y-90085714D01*
X176914285Y-90142857D01*
X177000000Y-90171429D01*
X177142857Y-90171429D01*
X176257143Y-89571429D02*
X176542857Y-89571429D01*
X176571428Y-89857143D01*
X176542857Y-89828571D01*
X176485714Y-89800000D01*
X176342857Y-89800000D01*
X176285714Y-89828571D01*
X176257143Y-89857143D01*
X176228571Y-89914286D01*
X176228571Y-90057143D01*
X176257143Y-90114286D01*
X176285714Y-90142857D01*
X176342857Y-90171429D01*
X176485714Y-90171429D01*
X176542857Y-90142857D01*
X176571428Y-90114286D01*
X169760429Y-92300000D02*
X169160429Y-92300000D01*
X169160429Y-92442857D01*
X169189000Y-92528572D01*
X169246143Y-92585714D01*
X169303286Y-92614286D01*
X169417571Y-92642857D01*
X169503286Y-92642857D01*
X169617571Y-92614286D01*
X169674714Y-92585714D01*
X169731857Y-92528572D01*
X169760429Y-92442857D01*
X169760429Y-92300000D01*
X169589000Y-92871429D02*
X169589000Y-93157143D01*
X169760429Y-92814286D02*
X169160429Y-93014286D01*
X169760429Y-93214286D01*
X169760429Y-93728572D02*
X169760429Y-93385715D01*
X169760429Y-93557143D02*
X169160429Y-93557143D01*
X169246143Y-93500000D01*
X169303286Y-93442858D01*
X169331857Y-93385715D01*
X167684000Y-90757143D02*
X167684000Y-91042857D01*
X167855429Y-90700000D02*
X167255429Y-90900000D01*
X167855429Y-91100000D01*
X167855429Y-91300000D02*
X167255429Y-91300000D01*
X167255429Y-91442857D01*
X167284000Y-91528572D01*
X167341143Y-91585714D01*
X167398286Y-91614286D01*
X167512571Y-91642857D01*
X167598286Y-91642857D01*
X167712571Y-91614286D01*
X167769714Y-91585714D01*
X167826857Y-91528572D01*
X167855429Y-91442857D01*
X167855429Y-91300000D01*
X167255429Y-91900000D02*
X167741143Y-91900000D01*
X167798286Y-91928572D01*
X167826857Y-91957143D01*
X167855429Y-92014286D01*
X167855429Y-92128572D01*
X167826857Y-92185714D01*
X167798286Y-92214286D01*
X167741143Y-92242857D01*
X167255429Y-92242857D01*
X167855429Y-92528571D02*
X167255429Y-92528571D01*
X167684000Y-92728571D01*
X167255429Y-92928571D01*
X167855429Y-92928571D01*
X167855429Y-93528571D02*
X167855429Y-93185714D01*
X167855429Y-93357142D02*
X167255429Y-93357142D01*
X167341143Y-93299999D01*
X167398286Y-93242857D01*
X167426857Y-93185714D01*
X167312571Y-93757143D02*
X167284000Y-93785714D01*
X167255429Y-93842857D01*
X167255429Y-93985714D01*
X167284000Y-94042857D01*
X167312571Y-94071428D01*
X167369714Y-94100000D01*
X167426857Y-94100000D01*
X167512571Y-94071428D01*
X167855429Y-93728571D01*
X167855429Y-94100000D01*
X167255429Y-94471429D02*
X167255429Y-94528572D01*
X167284000Y-94585715D01*
X167312571Y-94614286D01*
X167369714Y-94642857D01*
X167484000Y-94671429D01*
X167626857Y-94671429D01*
X167741143Y-94642857D01*
X167798286Y-94614286D01*
X167826857Y-94585715D01*
X167855429Y-94528572D01*
X167855429Y-94471429D01*
X167826857Y-94414286D01*
X167798286Y-94385715D01*
X167741143Y-94357143D01*
X167626857Y-94328572D01*
X167484000Y-94328572D01*
X167369714Y-94357143D01*
X167312571Y-94385715D01*
X167284000Y-94414286D01*
X167255429Y-94471429D01*
X167855429Y-95242858D02*
X167855429Y-94900001D01*
X167855429Y-95071429D02*
X167255429Y-95071429D01*
X167341143Y-95014286D01*
X167398286Y-94957144D01*
X167426857Y-94900001D01*
X167560429Y-84300000D02*
X166960429Y-84300000D01*
X166960429Y-84442857D01*
X166989000Y-84528572D01*
X167046143Y-84585714D01*
X167103286Y-84614286D01*
X167217571Y-84642857D01*
X167303286Y-84642857D01*
X167417571Y-84614286D01*
X167474714Y-84585714D01*
X167531857Y-84528572D01*
X167560429Y-84442857D01*
X167560429Y-84300000D01*
X167389000Y-84871429D02*
X167389000Y-85157143D01*
X167560429Y-84814286D02*
X166960429Y-85014286D01*
X167560429Y-85214286D01*
X166960429Y-85357143D02*
X166960429Y-85728572D01*
X167189000Y-85528572D01*
X167189000Y-85614286D01*
X167217571Y-85671429D01*
X167246143Y-85700000D01*
X167303286Y-85728572D01*
X167446143Y-85728572D01*
X167503286Y-85700000D01*
X167531857Y-85671429D01*
X167560429Y-85614286D01*
X167560429Y-85442858D01*
X167531857Y-85385715D01*
X167503286Y-85357143D01*
X165484000Y-83071428D02*
X165484000Y-83357142D01*
X165655429Y-83014285D02*
X165055429Y-83214285D01*
X165655429Y-83414285D01*
X165655429Y-83614285D02*
X165055429Y-83614285D01*
X165055429Y-83757142D01*
X165084000Y-83842857D01*
X165141143Y-83899999D01*
X165198286Y-83928571D01*
X165312571Y-83957142D01*
X165398286Y-83957142D01*
X165512571Y-83928571D01*
X165569714Y-83899999D01*
X165626857Y-83842857D01*
X165655429Y-83757142D01*
X165655429Y-83614285D01*
X165655429Y-84214285D02*
X165055429Y-84214285D01*
X165484000Y-84414285D01*
X165055429Y-84614285D01*
X165655429Y-84614285D01*
X165055429Y-84842856D02*
X165055429Y-85214285D01*
X165284000Y-85014285D01*
X165284000Y-85099999D01*
X165312571Y-85157142D01*
X165341143Y-85185713D01*
X165398286Y-85214285D01*
X165541143Y-85214285D01*
X165598286Y-85185713D01*
X165626857Y-85157142D01*
X165655429Y-85099999D01*
X165655429Y-84928571D01*
X165626857Y-84871428D01*
X165598286Y-84842856D01*
X165255429Y-85728571D02*
X165655429Y-85728571D01*
X165026857Y-85585714D02*
X165455429Y-85442857D01*
X165455429Y-85814285D01*
X165312571Y-86128571D02*
X165284000Y-86071429D01*
X165255429Y-86042857D01*
X165198286Y-86014286D01*
X165169714Y-86014286D01*
X165112571Y-86042857D01*
X165084000Y-86071429D01*
X165055429Y-86128571D01*
X165055429Y-86242857D01*
X165084000Y-86300000D01*
X165112571Y-86328571D01*
X165169714Y-86357143D01*
X165198286Y-86357143D01*
X165255429Y-86328571D01*
X165284000Y-86300000D01*
X165312571Y-86242857D01*
X165312571Y-86128571D01*
X165341143Y-86071429D01*
X165369714Y-86042857D01*
X165426857Y-86014286D01*
X165541143Y-86014286D01*
X165598286Y-86042857D01*
X165626857Y-86071429D01*
X165655429Y-86128571D01*
X165655429Y-86242857D01*
X165626857Y-86300000D01*
X165598286Y-86328571D01*
X165541143Y-86357143D01*
X165426857Y-86357143D01*
X165369714Y-86328571D01*
X165341143Y-86300000D01*
X165312571Y-86242857D01*
X165055429Y-86900000D02*
X165055429Y-86614286D01*
X165341143Y-86585715D01*
X165312571Y-86614286D01*
X165284000Y-86671429D01*
X165284000Y-86814286D01*
X165312571Y-86871429D01*
X165341143Y-86900000D01*
X165398286Y-86928572D01*
X165541143Y-86928572D01*
X165598286Y-86900000D01*
X165626857Y-86871429D01*
X165655429Y-86814286D01*
X165655429Y-86671429D01*
X165626857Y-86614286D01*
X165598286Y-86585715D01*
X174100000Y-84157143D02*
X174300000Y-84157143D01*
X174300000Y-84471429D02*
X174300000Y-83871429D01*
X174014286Y-83871429D01*
X173471428Y-84471429D02*
X173814285Y-84471429D01*
X173642857Y-84471429D02*
X173642857Y-83871429D01*
X173700000Y-83957143D01*
X173757142Y-84014286D01*
X173814285Y-84042857D01*
X169800000Y-87957143D02*
X170000000Y-87957143D01*
X170000000Y-88271429D02*
X170000000Y-87671429D01*
X169714286Y-87671429D01*
X169514285Y-87728571D02*
X169485714Y-87700000D01*
X169428571Y-87671429D01*
X169285714Y-87671429D01*
X169228571Y-87700000D01*
X169200000Y-87728571D01*
X169171428Y-87785714D01*
X169171428Y-87842857D01*
X169200000Y-87928571D01*
X169542857Y-88271429D01*
X169171428Y-88271429D01*
X174571429Y-88000000D02*
X174285714Y-87800000D01*
X174571429Y-87657143D02*
X173971429Y-87657143D01*
X173971429Y-87885715D01*
X174000000Y-87942857D01*
X174028571Y-87971429D01*
X174085714Y-88000000D01*
X174171429Y-88000000D01*
X174228571Y-87971429D01*
X174257143Y-87942857D01*
X174285714Y-87885715D01*
X174285714Y-87657143D01*
X173971429Y-88514286D02*
X173971429Y-88400000D01*
X174000000Y-88342857D01*
X174028571Y-88314286D01*
X174114286Y-88257143D01*
X174228571Y-88228572D01*
X174457143Y-88228572D01*
X174514286Y-88257143D01*
X174542857Y-88285715D01*
X174571429Y-88342857D01*
X174571429Y-88457143D01*
X174542857Y-88514286D01*
X174514286Y-88542857D01*
X174457143Y-88571429D01*
X174314286Y-88571429D01*
X174257143Y-88542857D01*
X174228571Y-88514286D01*
X174200000Y-88457143D01*
X174200000Y-88342857D01*
X174228571Y-88285715D01*
X174257143Y-88257143D01*
X174314286Y-88228572D01*
X174571429Y-90100000D02*
X174571429Y-89757143D01*
X174571429Y-89928571D02*
X173971429Y-89928571D01*
X174057143Y-89871428D01*
X174114286Y-89814286D01*
X174142857Y-89757143D01*
X174028571Y-90328572D02*
X174000000Y-90357143D01*
X173971429Y-90414286D01*
X173971429Y-90557143D01*
X174000000Y-90614286D01*
X174028571Y-90642857D01*
X174085714Y-90671429D01*
X174142857Y-90671429D01*
X174228571Y-90642857D01*
X174571429Y-90300000D01*
X174571429Y-90671429D01*
X173971429Y-91042858D02*
X173971429Y-91100001D01*
X174000000Y-91157144D01*
X174028571Y-91185715D01*
X174085714Y-91214286D01*
X174200000Y-91242858D01*
X174342857Y-91242858D01*
X174457143Y-91214286D01*
X174514286Y-91185715D01*
X174542857Y-91157144D01*
X174571429Y-91100001D01*
X174571429Y-91042858D01*
X174542857Y-90985715D01*
X174514286Y-90957144D01*
X174457143Y-90928572D01*
X174342857Y-90900001D01*
X174200000Y-90900001D01*
X174085714Y-90928572D01*
X174028571Y-90957144D01*
X174000000Y-90985715D01*
X173971429Y-91042858D01*
X174571429Y-91842858D02*
X174285714Y-91642858D01*
X174571429Y-91500001D02*
X173971429Y-91500001D01*
X173971429Y-91728573D01*
X174000000Y-91785715D01*
X174028571Y-91814287D01*
X174085714Y-91842858D01*
X174171429Y-91842858D01*
X174228571Y-91814287D01*
X174257143Y-91785715D01*
X174285714Y-91728573D01*
X174285714Y-91500001D01*
X172157143Y-85671429D02*
X172157143Y-86157143D01*
X172128571Y-86214286D01*
X172100000Y-86242857D01*
X172042857Y-86271429D01*
X171928571Y-86271429D01*
X171871429Y-86242857D01*
X171842857Y-86214286D01*
X171814286Y-86157143D01*
X171814286Y-85671429D01*
X171214286Y-86271429D02*
X171557143Y-86271429D01*
X171385715Y-86271429D02*
X171385715Y-85671429D01*
X171442858Y-85757143D01*
X171500000Y-85814286D01*
X171557143Y-85842857D01*
X161452381Y-96317715D02*
X161452381Y-95746286D01*
X161452381Y-96032000D02*
X160452381Y-96032000D01*
X160595238Y-95936762D01*
X160690476Y-95841524D01*
X160738095Y-95746286D01*
X172000000Y-82971429D02*
X172200000Y-82685714D01*
X172342857Y-82971429D02*
X172342857Y-82371429D01*
X172114285Y-82371429D01*
X172057143Y-82400000D01*
X172028571Y-82428571D01*
X172000000Y-82485714D01*
X172000000Y-82571429D01*
X172028571Y-82628571D01*
X172057143Y-82657143D01*
X172114285Y-82685714D01*
X172342857Y-82685714D01*
X171457143Y-82371429D02*
X171742857Y-82371429D01*
X171771428Y-82657143D01*
X171742857Y-82628571D01*
X171685714Y-82600000D01*
X171542857Y-82600000D01*
X171485714Y-82628571D01*
X171457143Y-82657143D01*
X171428571Y-82714286D01*
X171428571Y-82857143D01*
X171457143Y-82914286D01*
X171485714Y-82942857D01*
X171542857Y-82971429D01*
X171685714Y-82971429D01*
X171742857Y-82942857D01*
X171771428Y-82914286D01*
X172114286Y-81171429D02*
X172114286Y-81571429D01*
X172257143Y-80942857D02*
X172400000Y-81371429D01*
X172028572Y-81371429D01*
X171800000Y-81571429D02*
X171800000Y-80971429D01*
X171742857Y-81342857D02*
X171571428Y-81571429D01*
X171571428Y-81171429D02*
X171800000Y-81400000D01*
X171371429Y-80971429D02*
X170971429Y-80971429D01*
X171228572Y-81571429D01*
X172000000Y-89371429D02*
X172200000Y-89085714D01*
X172342857Y-89371429D02*
X172342857Y-88771429D01*
X172114285Y-88771429D01*
X172057143Y-88800000D01*
X172028571Y-88828571D01*
X172000000Y-88885714D01*
X172000000Y-88971429D01*
X172028571Y-89028571D01*
X172057143Y-89057143D01*
X172114285Y-89085714D01*
X172342857Y-89085714D01*
X171800000Y-88771429D02*
X171400000Y-88771429D01*
X171657143Y-89371429D01*
X169814286Y-88971429D02*
X169814286Y-89371429D01*
X169957143Y-88742857D02*
X170100000Y-89171429D01*
X169728572Y-89171429D01*
X169500000Y-89371429D02*
X169500000Y-88771429D01*
X169442857Y-89142857D02*
X169271428Y-89371429D01*
X169271428Y-88971429D02*
X169500000Y-89200000D01*
X169071429Y-88771429D02*
X168671429Y-88771429D01*
X168928572Y-89371429D01*
M02*
